<?xml version="1.0" encoding="UTF-8"?>
<svg width="208px" height="416px" viewBox="0 0 208 416" version="1.1" xmlns="http://www.w3.org/2000/svg" xmlns:xlink="http://www.w3.org/1999/xlink">
    <!-- Generator: Sketch 43.2 (39069) - http://www.bohemiancoding.com/sketch -->
    <title>Group</title>
    <desc>Created with Sketch.</desc>
    <defs>
        <filter x="-18.8%" y="-91.3%" width="137.6%" height="282.6%" filterUnits="objectBoundingBox" id="filter-1">
            <feGaussianBlur stdDeviation="10" in="SourceGraphic"></feGaussianBlur>
        </filter>
    </defs>
    <g id="Page-1" stroke="none" stroke-width="1" fill="none" fill-rule="evenodd">
        <g id="116888-OP3AKP-74" transform="translate(-147.000000, -67.000000)">
            <g id="Group" transform="translate(147.000000, 67.000000)">
                <path d="M182.712,361.766 C182.712,370.841 147.023,378.198 103,378.198 C58.976,378.198 23.288,370.841 23.288,361.766 C23.288,352.69 58.976,345.333 103,345.333 C147.023,345.333 182.712,352.69 182.712,361.766" id="Shadow" fill="#487593" filter="url(#filter-1)"></path>
                <path d="M32.214,244.707 C41.999,249.77 53.418,250.426 64.435,250.403 C74.807,250.381 85.176,249.845 95.499,248.843 C103.616,248.055 111.212,245.499 119.093,244.481 C128.78,243.231 139.061,244.709 148.892,243.77 C158.375,242.863 167.79,241.238 177.025,238.903 C180.879,237.929 184.845,236.757 187.816,234.117 C190.788,231.478 192.46,226.961 190.679,223.407 C189.532,221.12 187.241,219.664 185.029,218.377 C164.904,206.667 142.72,200.91 119.867,197.389 C103.381,194.848 88.436,198.371 72.52,202.476 C55.843,206.776 39.402,211.994 23.299,218.1 C20.4,219.198 17.289,220.515 15.782,223.224 C13.738,226.898 15.532,231.568 18.118,234.885 C21.939,239.783 26.89,241.952 32.214,244.707" id="Fill-3" fill="#131F20"></path>
                <path d="M139.62,202.3 C139.46,203.019 138.87,203.55 138.31,204.02 C131.04,210.19 123.26,215.76 115.06,220.64 C114.59,220.92 114.06,221.21 113.519,221.13 C112.84,221.02 112.38,220.39 112.02,219.8 C108.42,213.98 105.51,207.75 103.3,201.269 C101.09,207.75 98.17,213.98 94.57,219.8 C94.21,220.39 93.76,221.02 93.07,221.13 C92.53,221.21 92,220.92 91.53,220.64 C83.33,215.76 75.55,210.19 68.28,204.02 C67.72,203.55 67.13,203.019 66.97,202.3 C66.8,201.51 67.18,200.72 67.54,200 C77.68,179.69 76.96,153.36 74.13,131.43 C72.48,118.7 71.11,105.8 72.8,93.08 L72.81,93.04 C73.19,90.26 75.61,88.2 78.41,88.2 L128.18,88.2 C130.98,88.2 133.4,90.26 133.78,93.04 L133.79,93.08 C135.48,105.8 134.11,118.7 132.46,131.43 C129.63,153.36 128.91,179.69 139.05,200 C139.41,200.72 139.8,201.51 139.62,202.3" id="Fill-4" fill="#FFFFFF"></path>
                <path d="M113.56,88.2 C113.54,88.56 113.48,88.92 113.36,89.27 C113,90.34 112.25,91.21 111.87,92.26 C111.46,93.39 111.5,94.6 111.07,95.72 C110.21,97.97 108.79,100.26 107.32,102.16 C106.4,103.34 105.3,104.51 103.84,104.83 C101.78,105.29 98.78,104.12 97.65,102.41 C96.4,100.49 95.39,98.42 94.65,96.26 C93.99,94.33 93.54,92.32 93.31,90.28 C93.24,89.59 93.19,88.89 93.22,88.2 L113.56,88.2" id="Fill-5" fill="#F1AE7D"></path>
                <path d="M107.844,99.65 C107.11,100.222 106.263,100.638 105.305,100.818 C102.649,101.315 99.457,99.998 97.882,97.813 C96.736,96.224 96.49,94.19 96.28,92.243 C95.923,88.977 95.726,85.674 95.602,82.359 C95.442,78.205 95.38,74.04 95.22,69.911 C95.122,67.237 95.06,66.768 97.562,66.657 C99.386,66.584 101.21,66.621 103.034,66.596 C103.551,66.596 111.118,66.436 111.131,66.571 C111.439,72.117 111.477,77.762 111.304,83.357 C111.267,85.033 111.205,86.697 111.118,88.348 C110.916,92.218 111.31,96.95 107.844,99.65" id="Fill-6" fill="#F1AE7D"></path>
                <path d="M111.304,83.357 C108.58,84.7 105.376,85.07 102.344,84.664 C100.286,84.405 97.821,83.604 95.602,82.359 C95.442,78.205 95.38,74.04 95.22,69.911 C95.122,67.237 95.06,66.768 97.562,66.657 C99.386,66.583 101.21,66.621 103.034,66.596 C103.551,66.596 111.118,66.436 111.131,66.571 C111.439,72.117 111.477,77.762 111.304,83.357" id="Fill-7" fill="#E9876C"></path>
                <path d="M195.322,286.192 C195.285,289.631 193.215,293.144 190.207,293.353 C188.137,293.501 186.178,292.133 184.391,290.826 C171.795,281.682 155.612,267.324 141.132,263.22 C139.16,262.665 137.126,262.222 135.031,261.889 C124.136,260.09 111.886,260.829 101.385,260.274 C79.546,259.104 56.98,258.143 35.894,250.267 C30.594,248.295 25.405,245.879 20.328,242.922 C16.729,240.826 12.933,238.065 11.676,233.715 C10.135,228.391 13.229,222.697 17.493,220.22 C21.745,217.755 26.823,217.743 31.691,217.952 C53.85,218.901 75.43,225.088 96.937,231.607 C104.947,234.035 112.945,236.513 120.969,238.793 C137.73,243.538 155.478,245.744 170.377,254.321 C178.771,259.165 186.276,266.018 192.179,276.506 C193.855,279.463 195.347,282.754 195.322,286.192" id="Fill-8" fill="#1A2829"></path>
                <path d="M170.377,254.321 C158.842,258.45 146.961,260.595 135.031,261.889 C124.136,260.09 111.886,260.829 101.385,260.274 C79.546,259.104 56.98,258.143 35.894,250.267 C46.665,244.413 58.657,241.591 70.427,238.805 C75.11,237.696 79.953,236.55 84.612,235.231 C88.704,234.072 92.845,232.853 96.937,231.607 C104.947,234.035 112.945,236.513 120.969,238.793 C137.73,243.538 155.478,245.744 170.377,254.321" id="Fill-9" fill="#101A1B"></path>
                <path d="M189.103,220.224 C184.849,217.751 179.77,217.745 174.901,217.947 C144.479,219.256 115.172,230.424 85.618,238.79 C59.404,246.21 30.805,247.418 14.408,276.508 C12.741,279.465 11.24,282.75 11.274,286.188 C11.308,289.627 13.378,293.146 16.388,293.354 C18.459,293.498 20.411,292.131 22.202,290.831 C34.801,281.686 50.979,267.321 65.458,263.22 C77.691,259.755 92.686,260.944 105.205,260.272 C132.52,258.807 160.983,257.679 186.27,242.925 C189.868,240.824 193.656,238.069 194.916,233.721 C196.458,228.395 193.357,222.696 189.103,220.224" id="Fill-10" fill="#1A2829"></path>
                <path d="M1.292,218.339 C1.142,218.321 0.982,218.302 0.862,218.209 C0.619,218.021 0.653,217.642 0.774,217.359 C1.093,216.619 1.821,216.119 2.591,215.882 C3.36,215.645 4.179,215.635 4.984,215.626 C8.192,215.592 11.4,215.559 14.608,215.524 C15.933,215.511 17.487,215.612 18.216,216.718 C18.987,217.888 18.294,219.438 17.121,219.996 C15.901,220.576 14.411,219.846 13.168,219.67 C9.23,219.113 5.246,218.782 1.292,218.339" id="Fill-11" fill="#E9876C"></path>
                <path d="M74.76,137.16 C74.26,141.86 73.45,146.49 72.35,151.02 C65.89,177.73 49.56,201.23 29.48,217.9 C24.55,222 19.32,222.98 13.13,221.48 C12.07,221.23 10.98,220.87 10.19,220.11 C9.06,219.02 8.75,217.35 8.58,215.8 C8.36,213.89 8.26,211.97 8.27,210.05 C8.27,209.07 8.72,207.73 9.68,207.92 C10.14,208.01 10.43,208.44 10.63,208.86 L10.64,208.87 C11.31,210.19 11.63,211.68 12.42,212.93 C13.2,214.18 14.68,215.2 16.1,214.79 C16.97,214.53 17.62,213.79 17.97,212.96 C18.37,211.99 18.39,210.88 18.06,209.9 C17.92,209.47 17.71,209.07 17.45,208.71 C16.57,207.51 15.03,206.83 13.54,206.98 C13,207.03 12.46,207.19 11.91,207.13 C11.37,207.06 10.8,206.67 10.79,206.13 C10.76,205.33 11.78,204.98 12.57,204.89 C14.88,204.64 17.21,204.55 19.53,204.62 C20.3,204.64 21.11,204.69 21.8,205.03 C22.42,205.33 22.92,205.84 23.52,206.17 C25.09,207.03 27.14,206.5 28.52,205.35 C30.15,204.01 31.25,202.2 32.9,200.83 C35.23,198.89 36.97,196.17 38.63,193.66 C47.63,180.05 54.26,164.51 58.14,148.17 C58.32,147.4 58.47,146.58 58.6,145.71 C59.52,139.72 59.54,131.66 62.16,127.06 C65.29,121.54 72.9,123.19 74.53,129.31 C75.21,131.83 75.04,134.54 74.76,137.16" id="Fill-12" fill="#F1AE7D"></path>
                <path d="M74.759,137.158 C74.258,141.86 73.451,146.49 72.347,151.018 C67.717,149.996 62.995,148.084 58.6,145.713 C59.52,139.724 59.54,131.659 62.157,127.06 C65.294,121.541 72.899,123.186 74.534,129.309 C75.209,131.833 75.035,134.542 74.759,137.158" id="Fill-13" fill="#E9876C"></path>
                <path d="M13.244,223.877 C16.134,220.562 19.067,217.229 22.515,214.476 C24.416,212.958 31.01,207.762 33.366,210.231 C35.708,212.687 29.275,218.773 27.822,220.647 C25.058,224.212 22.338,227.878 20.571,232.057 C20.427,232.397 20.196,232.802 19.827,232.777 C19.593,232.762 19.413,232.568 19.279,232.376 C18.284,230.938 18.546,228.979 19.132,227.333 C19.719,225.687 20.595,224.104 20.731,222.361 C17.373,225.397 14.014,228.435 10.655,231.471 C10.059,232.011 8.919,232.445 8.635,231.692 C8.547,231.458 8.607,231.196 8.678,230.955 C9.472,228.237 11.384,226.011 13.244,223.877" id="Fill-14" fill="#F1AE7D"></path>
                <path d="M20.71,217.86 C20.02,218.26 19.2,218.4 18.4,218.39 C15.92,218.35 13.61,216.87 12.13,214.88 C11.08,213.49 8.81,210 10.63,208.86 L10.64,208.87 C11.31,210.19 11.63,211.68 12.42,212.93 C13.2,214.18 14.68,215.2 16.1,214.79 C16.97,214.53 17.62,213.79 17.97,212.96 C18.37,211.99 18.39,210.88 18.06,209.9 C18.95,209.98 19.88,209.9 20.7,210.27 C21.92,210.82 22.53,212.25 22.63,213.59 C22.74,215.23 22.13,217.03 20.71,217.86" id="Fill-15" fill="#E9876C"></path>
                <path d="M206.928,218.339 C207.079,218.321 207.238,218.302 207.358,218.209 C207.602,218.021 207.567,217.642 207.446,217.359 C207.127,216.619 206.399,216.119 205.63,215.882 C204.86,215.645 204.041,215.635 203.236,215.626 C200.028,215.592 196.82,215.559 193.612,215.524 C192.288,215.511 190.733,215.612 190.005,216.718 C189.232,217.888 189.926,219.438 191.099,219.996 C192.319,220.576 193.81,219.846 195.052,219.67 C198.99,219.113 202.975,218.782 206.928,218.339" id="Fill-16" fill="#E9876C"></path>
                <path d="M133.46,137.16 C133.96,141.86 134.771,146.49 135.87,151.02 C142.33,177.73 158.66,201.23 178.74,217.9 C183.67,222 188.9,222.98 195.091,221.48 C196.15,221.23 197.24,220.87 198.03,220.11 C199.16,219.02 199.471,217.35 199.641,215.8 C199.86,213.89 199.96,211.97 199.95,210.05 C199.95,209.07 199.5,207.73 198.54,207.92 C198.08,208.01 197.79,208.44 197.591,208.86 L197.58,208.87 C196.91,210.19 196.591,211.68 195.801,212.93 C195.021,214.18 193.54,215.2 192.12,214.79 C191.25,214.53 190.601,213.79 190.25,212.96 C189.851,211.99 189.83,210.88 190.16,209.9 C190.301,209.47 190.511,209.07 190.771,208.71 C191.65,207.51 193.19,206.83 194.681,206.98 C195.221,207.03 195.761,207.19 196.311,207.13 C196.851,207.06 197.42,206.67 197.431,206.13 C197.46,205.33 196.44,204.98 195.65,204.89 C193.341,204.64 191.011,204.55 188.69,204.62 C187.92,204.64 187.11,204.69 186.42,205.03 C185.801,205.33 185.301,205.84 184.7,206.17 C183.13,207.03 181.08,206.5 179.7,205.35 C178.07,204.01 176.971,202.2 175.32,200.83 C172.99,198.89 171.25,196.17 169.591,193.66 C160.591,180.05 153.96,164.51 150.08,148.17 C149.9,147.4 149.75,146.58 149.62,145.71 C148.7,139.72 148.681,131.66 146.061,127.06 C142.931,121.54 135.32,123.19 133.69,129.31 C133.011,131.83 133.181,134.54 133.46,137.16" id="Fill-17" fill="#F1AE7D"></path>
                <path d="M133.461,137.158 C133.962,141.86 134.77,146.49 135.873,151.018 C140.504,149.996 145.226,148.084 149.621,145.713 C148.701,139.724 148.681,131.659 146.063,127.06 C142.926,121.541 135.321,123.186 133.687,129.309 C133.012,131.833 133.186,134.542 133.461,137.158" id="Fill-18" fill="#E9876C"></path>
                <path d="M194.977,223.877 C192.086,220.562 189.153,217.229 185.705,214.476 C183.805,212.958 177.21,207.762 174.854,210.231 C172.512,212.687 178.945,218.773 180.398,220.647 C183.162,224.212 185.882,227.878 187.649,232.057 C187.793,232.397 188.024,232.802 188.393,232.777 C188.627,232.762 188.808,232.568 188.941,232.376 C189.936,230.938 189.675,228.979 189.088,227.333 C188.502,225.687 187.625,224.104 187.489,222.361 C190.848,225.397 194.206,228.435 197.565,231.471 C198.162,232.011 199.301,232.445 199.585,231.692 C199.673,231.458 199.613,231.196 199.543,230.955 C198.749,228.237 196.837,226.011 194.977,223.877" id="Fill-19" fill="#F1AE7D"></path>
                <path d="M187.511,217.86 C188.2,218.26 189.021,218.4 189.82,218.39 C192.301,218.35 194.61,216.87 196.091,214.88 C197.141,213.49 199.41,210 197.591,208.86 L197.58,208.87 C196.91,210.19 196.591,211.68 195.801,212.93 C195.021,214.18 193.54,215.2 192.12,214.79 C191.25,214.53 190.601,213.79 190.25,212.96 C189.851,211.99 189.83,210.88 190.16,209.9 C189.271,209.98 188.341,209.9 187.521,210.27 C186.301,210.82 185.69,212.25 185.591,213.59 C185.48,215.23 186.091,217.03 187.511,217.86" id="Fill-20" fill="#E9876C"></path>
                <path d="M48.349,129.683 C56.557,138.127 68.484,141.355 79.809,144.244 C80.165,144.334 80.557,144.422 80.885,144.254 C81.311,144.037 81.443,143.495 81.529,143.018 C83.135,134.14 84.741,125.253 85.734,116.283 C86.621,108.271 86.26,81.813 71.552,89.632 C65.67,92.759 62.713,101.288 59.858,106.932 C56.022,114.516 52.186,122.099 48.349,129.683" id="Fill-21" fill="#FFFFFF"></path>
                <path d="M157.651,129.683 C149.443,138.127 137.516,141.355 126.191,144.244 C125.836,144.334 125.443,144.422 125.115,144.254 C124.689,144.037 124.557,143.495 124.471,143.018 C122.865,134.14 121.259,125.253 120.266,116.283 C119.379,108.271 119.74,81.813 134.447,89.632 C140.329,92.759 143.287,101.288 146.142,106.932 C149.979,114.516 153.814,122.099 157.651,129.683" id="Fill-22" fill="#FFFFFF"></path>
                <path d="M110.483,157.17 C110.348,157.811 110.076,158.39 109.806,158.944 C108.598,161.409 107.328,163.875 106.021,166.314 C104.912,168.397 103.767,170.456 102.596,172.489 C101.437,170.456 100.291,168.397 99.182,166.314 C97.875,163.875 96.606,161.409 95.386,158.944 C95.115,158.39 94.844,157.811 94.708,157.17 C94.548,156.381 94.609,155.555 94.696,154.742 C95.792,142.553 97.062,130.376 97.518,118.138 C97.604,116.056 97.653,113.985 97.678,111.902 C98.948,111.286 99.564,111.569 100.784,111.729 C101.277,111.804 107.513,110.805 107.525,111.902 C107.55,113.615 107.587,115.316 107.648,117.029 C108.067,129.637 109.374,142.183 110.508,154.742 C110.582,155.555 110.655,156.381 110.483,157.17" id="Fill-23" fill="#BD5D59"></path>
                <path d="M107.648,117.029 C107.341,117.091 107.008,117.116 106.699,117.14 C104.69,117.3 99.761,118.631 97.518,118.138 C97.604,116.056 97.653,113.985 97.678,111.902 C98.948,111.286 99.564,111.569 100.784,111.729 C101.277,111.804 107.513,110.805 107.525,111.902 C107.55,113.615 107.587,115.316 107.648,117.029" id="Fill-24" fill="#A95351"></path>
                <path d="M96.578,107.325 C96.439,107.586 96.353,107.868 96.327,108.174 C96.142,110.415 95.811,114.88 97.82,115.805 C99.448,116.553 104.204,115.241 106.056,115.091 C106.758,115.035 107.516,114.955 108.04,114.484 C109.395,113.266 108.521,106.395 107.215,105.331 C106.77,104.967 106.143,104.957 105.567,104.963 C105.159,104.968 104.701,104.958 104.214,104.948 C101.516,104.891 97.896,104.834 96.578,107.325" id="Fill-25" fill="#BD5D59"></path>
                <path d="M88,112.587 L91.398,88.203 L93.22,88.203 C93.19,88.892 93.24,89.591 93.31,90.28 C93.54,92.32 93.99,94.33 94.65,96.26 C95.39,98.42 96.4,100.49 97.65,102.41 C98.464,103.643 100.25,104.595 101.956,104.858 L101.777,104.957 C99.653,105.062 97.523,105.538 96.578,107.325 C96.472,107.524 96.397,107.735 96.356,107.959 L88,112.587" id="Fill-26" fill="#BABCB9"></path>
                <path d="M101.956,104.858 C100.25,104.595 98.464,103.643 97.65,102.41 C96.4,100.49 95.39,98.42 94.65,96.26 C93.99,94.33 93.54,92.32 93.31,90.28 C93.24,89.591 93.19,88.892 93.22,88.203 L94.916,88.203 L96.165,91.135 C96.202,91.504 96.24,91.874 96.28,92.243 C96.49,94.19 96.736,96.224 97.882,97.813 C98.373,98.494 99.02,99.09 99.76,99.574 L102,104.833 L101.956,104.858" id="Fill-27" fill="#B1815F"></path>
                <path d="M99.76,99.574 C99.02,99.09 98.373,98.494 97.882,97.813 C96.736,96.224 96.49,94.19 96.28,92.243 C96.24,91.874 96.202,91.504 96.165,91.135 L99.76,99.574" id="Fill-28" fill="#B1815F"></path>
                <path d="M96.356,107.959 C96.397,107.735 96.472,107.524 96.578,107.325 C97.523,105.538 99.653,105.062 101.777,104.957 L96.356,107.959" id="Fill-29" fill="#8B4745"></path>
                <polyline id="Fill-30" fill="#E9E9E6" points="94.917 88.203 102 104.833 90.5 110 91.398 88.203 94.917 88.203"></polyline>
                <path d="M116.5,112.587 L108.248,107.639 C107.98,106.541 107.618,105.659 107.215,105.331 C106.814,105.003 106.265,104.962 105.74,104.962 C105.682,104.962 105.625,104.963 105.567,104.963 C105.497,104.964 105.424,104.965 105.351,104.965 C104.999,104.965 104.617,104.956 104.214,104.948 C104.06,104.944 103.904,104.941 103.745,104.938 L103.632,104.87 C103.702,104.859 103.771,104.845 103.84,104.83 C105.3,104.51 106.4,103.34 107.32,102.16 C108.79,100.26 110.21,97.97 111.07,95.72 C111.5,94.6 111.46,93.39 111.87,92.26 C112.25,91.21 113,90.34 113.36,89.27 C113.48,88.921 113.54,88.562 113.559,88.203 L115.608,88.203 L116.5,112.587" id="Fill-31" fill="#BABCB9"></path>
                <path d="M103.632,104.87 L103.57,104.833 L105.668,100.737 C106.479,100.529 107.205,100.149 107.844,99.65 C110.763,97.376 110.944,93.661 111.049,90.234 L112.09,88.203 L113.559,88.203 C113.54,88.562 113.48,88.921 113.36,89.27 C113,90.34 112.25,91.21 111.87,92.26 C111.46,93.39 111.5,94.6 111.07,95.72 C110.21,97.97 108.79,100.26 107.32,102.16 C106.4,103.34 105.3,104.51 103.84,104.83 C103.771,104.845 103.702,104.859 103.632,104.87" id="Fill-32" fill="#B1815F"></path>
                <path d="M105.668,100.737 L111.049,90.234 C110.944,93.661 110.763,97.376 107.844,99.65 C107.205,100.149 106.479,100.529 105.668,100.737" id="Fill-33" fill="#B1815F"></path>
                <path d="M108.248,107.639 L103.745,104.938 C103.904,104.941 104.06,104.944 104.214,104.948 C104.617,104.956 104.999,104.965 105.351,104.965 C105.424,104.965 105.497,104.964 105.567,104.963 C105.625,104.963 105.682,104.962 105.74,104.962 C106.265,104.962 106.814,105.003 107.215,105.331 C107.618,105.659 107.98,106.541 108.248,107.639" id="Fill-34" fill="#8B4745"></path>
                <polyline id="Fill-35" fill="#E9E9E6" points="112.09 88.203 103.57 104.833 115.069 110 115.608 88.203 112.09 88.203"></polyline>
                <path d="M136.607,40.538 C137.122,41.823 137.199,43.21 137.111,44.569 C136.938,47.246 136.137,49.891 134.77,52.296 C134.092,53.49 133.141,54.717 131.663,55.079 C130.136,55.452 128.459,54.735 127.507,53.636 C124.981,50.723 125.541,44.863 127.141,41.634 C127.82,40.263 129.289,38.072 130.83,37.381 C133.38,36.236 135.849,38.645 136.607,40.538" id="Fill-37" fill="#F1AE7D"></path>
                <path d="M70.532,40.538 C70.017,41.823 69.94,43.21 70.028,44.569 C70.201,47.246 71.003,49.891 72.37,52.296 C73.048,53.49 73.998,54.717 75.477,55.079 C77.003,55.452 78.68,54.735 79.632,53.636 C82.157,50.723 81.599,44.863 79.999,41.634 C79.319,40.263 77.85,38.072 76.31,37.381 C73.759,36.236 71.291,38.645 70.532,40.538" id="Fill-38" fill="#F1AE7D"></path>
                <path d="M129.263,40.377 C129.311,37.589 129.269,34.814 129.253,31.989 C129.235,28.699 129.82,24.36 127.981,21.425 C127.859,21.275 127.764,21.109 127.657,20.971 C126.171,18.957 123.763,18.478 121.436,18.153 C118.658,17.748 115.963,16.919 113.165,16.583 C109.824,16.184 106.451,15.986 103.079,16.001 C99.706,15.986 96.333,16.184 92.992,16.583 C90.194,16.919 87.499,17.748 84.721,18.153 C80.72,18.712 77.41,20.689 76.583,24.971 C76.131,27.316 76.671,30.148 76.679,32.541 C76.697,37.973 76.746,43.164 77.388,48.574 C77.935,53.184 78.825,57.752 80.018,62.238 C81.777,68.855 84.267,74.658 90.562,77.986 C92.536,79.026 94.649,79.863 96.829,80.411 C97.044,80.465 97.261,80.508 97.477,80.556 C99.314,81.022 101.354,81.139 103.079,81.132 C104.804,81.139 106.843,81.022 108.681,80.556 C108.896,80.508 109.113,80.465 109.328,80.411 C111.508,79.863 113.621,79.026 115.596,77.986 C118.232,76.597 120.123,75.093 121.815,72.696 C125.876,66.945 127.944,59.902 128.771,52.921 C129.224,49.099 129.145,45.23 129.242,41.384 C129.25,41.048 129.258,40.713 129.263,40.377" id="Fill-39" fill="#F1AE7D"></path>
                <path d="M100.771,47.851 C100.371,50.329 99.136,52.687 97.775,54.748 C97.263,55.524 96.708,56.295 96.441,57.186 C96.174,58.076 96.25,59.134 96.889,59.81 C97.299,60.243 97.881,60.464 98.444,60.664 C99.986,61.21 101.567,61.704 103.199,61.811 C104.832,61.917 106.537,61.605 107.872,60.66 C106.945,62.183 105.309,63.191 103.576,63.609 C101.843,64.027 100.017,63.901 98.272,63.531 C96.229,63.098 93.951,61.979 93.638,59.914 C93.364,58.107 94.723,56.521 95.793,55.042 C98.939,50.693 99.998,45.254 99.383,39.987 C99.527,41.225 100.3,42.521 100.491,43.818 C100.653,44.918 100.964,45.955 100.868,47.068 C100.845,47.33 100.813,47.591 100.771,47.851" id="Fill-40" fill="#E9876C"></path>
                <path d="M92.024,43.57 C90.382,47.813 86.571,46.898 84.453,43.66 C83.843,42.726 82.418,43.624 83.036,44.568 C84.352,46.58 86.125,48.323 88.509,48.377 C90.845,48.43 92.563,46.747 93.441,44.479 C93.849,43.425 92.436,42.506 92.024,43.57" id="Fill-41" fill="#814243"></path>
                <path d="M111.278,43.57 C112.92,47.813 116.731,46.898 118.849,43.66 C119.459,42.726 120.884,43.624 120.267,44.568 C118.951,46.58 117.177,48.323 114.793,48.377 C112.457,48.43 110.738,46.747 109.861,44.479 C109.453,43.425 110.866,42.506 111.278,43.57" id="Fill-42" fill="#814243"></path>
                <path d="M96.624,69.043 C98.595,70.57 101.116,71.371 103.607,71.262 C105.059,71.198 108.472,70.967 108.771,69.182 C108.881,68.531 108.711,67.869 108.532,67.233 C110.161,68.005 111.176,69.903 110.914,71.687 C110.726,70.918 110.465,70.057 109.756,69.707 C109.664,69.662 109.56,69.626 109.46,69.651 C109.367,69.674 109.295,69.745 109.228,69.813 C108.149,70.908 107.141,71.77 105.67,72.323 C103.512,73.137 100.818,73.183 98.599,72.585 C96.521,72.026 94.588,70.71 93.602,68.797 C95.378,68.779 97.071,67.855 98.257,66.534 C99.603,65.037 99.859,63.253 100.713,61.568 C101.114,62.598 100.79,64.083 100.38,65.077 C100.149,65.635 97.449,69.682 96.624,69.043" id="Fill-43" fill="#E9876C"></path>
                <path d="M90.314,32.473 C87.446,32.526 84.741,33.37 82.373,34.994 C81.423,35.646 82.323,37.207 83.282,36.549 C85.401,35.096 87.74,34.322 90.314,34.273 C91.472,34.252 91.476,32.451 90.314,32.473" id="Fill-44" fill="#814243"></path>
                <path d="M112.899,32.473 C115.768,32.526 118.472,33.37 120.84,34.994 C121.79,35.646 120.89,37.207 119.931,36.549 C117.812,35.096 115.473,34.322 112.899,34.273 C111.741,34.252 111.737,32.451 112.899,32.473" id="Fill-45" fill="#814243"></path>
                <path d="M79.64,23.41 C78.63,26.41 78.4,29.43 78.37,32.48 C78.34,34.36 78.4,36.25 78.4,38.16 C78.39,43.89 78.05,49.52 78.5,55.26 C75.82,46.86 73.74,38.27 72.29,29.56 C72.16,28.86 72.05,28.17 71.94,27.47 C71.37,23.83 69.71,20.01 72.92,17.39 C75.19,15.54 79.29,13.77 80.56,17.69 C81.17,19.56 80.27,21.54 79.64,23.41" id="Fill-46" fill="#814243"></path>
                <path d="M79.64,23.41 C78.63,26.41 78.4,29.43 78.37,32.48 C78.02,32.44 77.67,32.38 77.33,32.3 C75.45,31.86 73.81,30.79 72.29,29.56 C72.16,28.86 72.05,28.17 71.94,27.47 C71.37,23.83 69.71,20.01 72.92,17.39 C75.19,15.54 79.29,13.77 80.56,17.69 C81.17,19.56 80.27,21.54 79.64,23.41" id="Fill-47" fill="#6D3738"></path>
                <path d="M123.618,8.269 C122.649,7.19 121.868,5.742 120.813,4.834 C119.138,3.391 117.161,2.337 115.084,1.599 C110.792,0.073 106.031,-0.097 101.558,0.593 C93.769,1.795 86.472,5.167 78.755,6.766 C71.711,8.226 64.357,8.176 57.333,6.622 C59.045,11.291 60.915,16.189 64.754,19.35 C66.949,21.157 70.682,22.619 73.394,23.38 C85.51,26.78 98.284,28.124 110.926,27.126 C116.802,26.663 123.231,26.247 126.5,32.045 C127.711,34.193 128.325,36.625 128.748,39.053 C129.634,44.129 129.741,49.339 129.064,54.447 C131.75,43.189 137.083,30.99 134.955,19.215 C134.202,15.046 131.78,10.538 127.6,9.854 C126.622,9.695 125.563,9.747 124.72,9.227 C124.317,8.978 123.956,8.646 123.618,8.269" id="Fill-48" fill="#814243"></path>
                <path d="M111.984,4.93 C114.664,5.379 117.235,6.461 119.431,8.062 C116.787,7.76 114.039,8.486 111.891,10.055 C114.507,10.531 117.059,11.364 119.451,12.524 C115.67,14.019 113.488,17.901 111.605,21.505 C114.104,19.304 116.75,17.271 119.522,15.427 C119.937,15.151 120.419,14.868 120.901,14.99 C121.2,15.066 121.438,15.287 121.652,15.508 C123.124,17.017 124.204,18.905 124.759,20.937 C125.248,18.801 125.089,16.52 124.31,14.472 C126.417,15.982 128.196,17.948 129.491,20.195 C129.419,18.364 129.333,16.488 128.63,14.794 C127.22,11.397 125.061,12.161 122.797,10.316 C122.283,9.897 122.073,9.223 121.799,8.62 C120.06,4.803 115.647,4.994 111.984,4.93" id="Fill-49" fill="#6D3738"></path>
                <path d="M87.404,9.457 C86.878,10.337 86.71,11.24 87.101,12.116 C87.5,13.011 88.37,13.617 89.284,13.971 C91.494,14.826 93.985,14.432 96.259,13.766 C98.99,12.966 107.359,10.612 107.538,7.085 C107.774,2.444 100.388,2.322 97.426,3.081 C95.34,3.616 89.225,6.406 87.404,9.457" id="Fill-50" fill="#9E564E"></path>
                <path d="M22.655,408.919 C22.655,409.403 22.731,409.814 22.881,410.155 C23.032,410.496 23.238,410.752 23.5,410.924 C23.762,411.097 24.047,411.184 24.357,411.184 C24.671,411.184 24.958,411.102 25.218,410.938 C25.477,410.774 25.684,410.522 25.839,410.186 C25.994,409.847 26.071,409.424 26.071,408.919 C26.071,408.442 25.994,408.034 25.839,407.69 C25.684,407.349 25.475,407.087 25.211,406.905 C24.947,406.725 24.658,406.635 24.344,406.635 C24.017,406.635 23.725,406.728 23.467,406.913 C23.209,407.098 23.01,407.363 22.868,407.711 C22.726,408.058 22.655,408.46 22.655,408.919 Z M26.17,411.543 L26.17,411.365 C25.93,411.641 25.693,411.864 25.459,412.036 C25.227,412.209 24.973,412.34 24.7,412.429 C24.428,412.52 24.13,412.563 23.807,412.563 C23.379,412.563 22.983,412.474 22.619,412.292 C22.255,412.111 21.94,411.853 21.674,411.517 C21.407,411.181 21.206,410.786 21.068,410.332 C20.931,409.878 20.862,409.388 20.862,408.86 C20.862,407.743 21.135,406.872 21.68,406.248 C22.226,405.625 22.943,405.313 23.833,405.313 C24.348,405.313 24.782,405.401 25.136,405.577 C25.489,405.754 25.833,406.026 26.17,406.392 L26.17,403.755 C26.17,403.389 26.242,403.111 26.389,402.924 C26.535,402.736 26.743,402.643 27.014,402.643 C27.284,402.643 27.492,402.729 27.639,402.901 C27.785,403.074 27.858,403.327 27.858,403.663 L27.858,411.543 C27.858,411.883 27.78,412.138 27.623,412.309 C27.465,412.478 27.263,412.563 27.014,412.563 C26.77,412.563 26.568,412.476 26.408,412.299 C26.249,412.121 26.17,411.87 26.17,411.543 L26.17,411.543 Z" id="Fill-51" fill="#F6F5F3"></path>
                <path d="M30.554,408.356 L33.793,408.356 C33.75,407.745 33.584,407.287 33.299,406.984 C33.013,406.682 32.637,406.53 32.17,406.53 C31.725,406.53 31.359,406.684 31.074,406.99 C30.788,407.298 30.615,407.754 30.554,408.356 Z M34.048,409.37 L30.554,409.37 C30.558,409.775 30.639,410.134 30.799,410.443 C30.958,410.753 31.17,410.987 31.434,411.144 C31.698,411.301 31.989,411.379 32.307,411.379 C32.521,411.379 32.716,411.354 32.893,411.305 C33.07,411.253 33.241,411.176 33.407,411.068 C33.573,410.962 33.726,410.847 33.865,410.725 C34.004,410.602 34.185,410.436 34.408,410.227 C34.5,410.148 34.631,410.108 34.801,410.108 C34.984,410.108 35.132,410.16 35.246,410.26 C35.359,410.361 35.417,410.502 35.417,410.686 C35.417,410.847 35.353,411.035 35.227,411.251 C35.099,411.468 34.908,411.675 34.654,411.873 C34.397,412.071 34.078,412.235 33.691,412.367 C33.306,412.498 32.861,412.563 32.359,412.563 C31.212,412.563 30.32,412.235 29.683,411.582 C29.046,410.928 28.728,410.039 28.728,408.919 C28.728,408.391 28.806,407.9 28.963,407.449 C29.121,406.997 29.35,406.61 29.65,406.288 C29.951,405.965 30.322,405.718 30.763,405.545 C31.204,405.372 31.692,405.287 32.229,405.287 C32.927,405.287 33.525,405.433 34.024,405.729 C34.525,406.022 34.899,406.403 35.147,406.869 C35.396,407.337 35.521,407.813 35.521,408.296 C35.521,408.746 35.392,409.037 35.135,409.171 C34.877,409.304 34.515,409.37 34.048,409.37 L34.048,409.37 Z" id="Fill-52" fill="#F6F5F3"></path>
                <path d="M42.188,410.227 C42.188,410.72 42.069,411.143 41.828,411.493 C41.589,411.845 41.234,412.111 40.765,412.292 C40.296,412.474 39.726,412.563 39.054,412.563 C38.413,412.563 37.863,412.465 37.405,412.269 C36.947,412.073 36.608,411.826 36.391,411.533 C36.172,411.238 36.063,410.943 36.063,410.646 C36.063,410.449 36.132,410.281 36.273,410.143 C36.412,410.003 36.589,409.934 36.803,409.934 C36.99,409.934 37.134,409.979 37.234,410.07 C37.335,410.162 37.431,410.291 37.522,410.456 C37.705,410.775 37.925,411.012 38.18,411.17 C38.436,411.327 38.783,411.405 39.224,411.405 C39.582,411.405 39.875,411.325 40.104,411.167 C40.333,411.007 40.448,410.824 40.448,410.619 C40.448,410.306 40.329,410.077 40.091,409.934 C39.853,409.789 39.461,409.651 38.916,409.52 C38.301,409.368 37.801,409.207 37.415,409.039 C37.028,408.872 36.72,408.65 36.488,408.376 C36.257,408.101 36.142,407.762 36.142,407.36 C36.142,407.004 36.249,406.665 36.462,406.347 C36.676,406.028 36.992,405.774 37.409,405.584 C37.825,405.394 38.327,405.299 38.916,405.299 C39.379,405.299 39.794,405.347 40.163,405.443 C40.532,405.539 40.84,405.669 41.086,405.83 C41.333,405.991 41.52,406.17 41.648,406.365 C41.777,406.563 41.841,406.754 41.841,406.942 C41.841,407.146 41.772,407.315 41.635,407.446 C41.499,407.576 41.303,407.643 41.049,407.643 C40.866,407.643 40.71,407.59 40.582,407.484 C40.453,407.381 40.306,407.224 40.14,407.015 C40.005,406.84 39.847,406.7 39.663,406.595 C39.479,406.49 39.23,406.438 38.916,406.438 C38.593,406.438 38.325,406.506 38.111,406.645 C37.898,406.781 37.791,406.952 37.791,407.157 C37.791,407.346 37.869,407.499 38.026,407.619 C38.184,407.739 38.395,407.839 38.662,407.917 C38.928,407.995 39.293,408.091 39.761,408.205 C40.314,408.341 40.767,408.502 41.119,408.689 C41.469,408.876 41.735,409.098 41.917,409.354 C42.098,409.608 42.188,409.899 42.188,410.227" id="Fill-53" fill="#F6F5F3"></path>
                <path d="M44.897,406.313 L44.897,411.477 C44.897,411.835 44.812,412.105 44.642,412.289 C44.471,412.472 44.256,412.563 43.994,412.563 C43.732,412.563 43.519,412.47 43.355,412.282 C43.192,412.095 43.11,411.826 43.11,411.477 L43.11,406.365 C43.11,406.013 43.192,405.747 43.355,405.567 C43.519,405.389 43.732,405.299 43.994,405.299 C44.256,405.299 44.471,405.389 44.642,405.567 C44.812,405.747 44.897,405.995 44.897,406.313 Z M44.014,404.469 C43.765,404.469 43.552,404.393 43.375,404.239 C43.199,404.087 43.11,403.871 43.11,403.592 C43.11,403.338 43.201,403.131 43.382,402.966 C43.563,402.802 43.774,402.721 44.014,402.721 C44.245,402.721 44.45,402.795 44.628,402.943 C44.808,403.092 44.897,403.308 44.897,403.592 C44.897,403.866 44.81,404.081 44.635,404.236 C44.46,404.391 44.253,404.469 44.014,404.469 L44.014,404.469 Z" id="Fill-54" fill="#F6F5F3"></path>
                <path d="M47.547,408.873 C47.547,409.597 47.705,410.145 48.021,410.516 C48.337,410.887 48.747,411.071 49.249,411.071 C49.545,411.071 49.825,410.991 50.089,410.833 C50.353,410.673 50.568,410.433 50.734,410.113 C50.899,409.792 50.983,409.403 50.983,408.944 C50.983,408.217 50.822,407.648 50.501,407.244 C50.181,406.838 49.759,406.635 49.235,406.635 C48.724,406.635 48.315,406.829 48.008,407.218 C47.7,407.605 47.547,408.157 47.547,408.873 Z M52.724,406.608 L52.724,411.798 C52.724,412.391 52.66,412.901 52.533,413.33 C52.407,413.757 52.204,414.11 51.925,414.39 C51.646,414.668 51.28,414.876 50.829,415.011 C50.377,415.146 49.815,415.214 49.144,415.214 C48.528,415.214 47.979,415.128 47.494,414.955 C47.01,414.782 46.638,414.561 46.375,414.288 C46.114,414.016 45.982,413.734 45.982,413.447 C45.982,413.229 46.057,413.051 46.205,412.914 C46.354,412.776 46.533,412.707 46.742,412.707 C47.003,412.707 47.232,412.823 47.429,413.054 C47.524,413.172 47.624,413.291 47.726,413.411 C47.829,413.531 47.943,413.634 48.067,413.72 C48.191,413.804 48.341,413.867 48.515,413.908 C48.689,413.949 48.891,413.971 49.117,413.971 C49.58,413.971 49.938,413.906 50.194,413.777 C50.449,413.648 50.628,413.469 50.73,413.237 C50.833,413.007 50.893,412.759 50.911,412.495 C50.928,412.23 50.941,411.807 50.95,411.221 C50.674,411.605 50.358,411.898 49.997,412.099 C49.638,412.3 49.208,412.399 48.712,412.399 C48.114,412.399 47.592,412.247 47.144,411.941 C46.697,411.636 46.354,411.209 46.114,410.659 C45.874,410.108 45.754,409.475 45.754,408.755 C45.754,408.219 45.827,407.733 45.973,407.303 C46.12,406.869 46.328,406.506 46.598,406.209 C46.869,405.912 47.18,405.688 47.534,405.538 C47.887,405.388 48.275,405.313 48.699,405.313 C49.204,405.313 49.643,405.41 50.014,405.604 C50.384,405.799 50.729,406.103 51.048,406.517 L51.048,406.274 C51.048,405.965 51.124,405.726 51.277,405.555 C51.43,405.385 51.626,405.299 51.866,405.299 C52.21,405.299 52.439,405.412 52.553,405.637 C52.667,405.861 52.724,406.186 52.724,406.608 L52.724,406.608 Z" id="Fill-55" fill="#F6F5F3"></path>
                <path d="M55.563,406.288 L55.563,406.504 C55.876,406.089 56.22,405.785 56.593,405.591 C56.966,405.396 57.395,405.299 57.879,405.299 C58.351,405.299 58.771,405.402 59.143,405.607 C59.513,405.813 59.791,406.103 59.973,406.477 C60.092,406.695 60.167,406.932 60.202,407.184 C60.237,407.438 60.255,407.76 60.255,408.152 L60.255,411.477 C60.255,411.835 60.173,412.105 60.009,412.289 C59.846,412.472 59.633,412.563 59.372,412.563 C59.105,412.563 58.89,412.47 58.724,412.282 C58.558,412.095 58.475,411.826 58.475,411.477 L58.475,408.499 C58.475,407.91 58.393,407.46 58.229,407.148 C58.065,406.837 57.74,406.68 57.25,406.68 C56.933,406.68 56.643,406.774 56.381,406.965 C56.119,407.155 55.927,407.416 55.805,407.747 C55.718,408.014 55.674,408.51 55.674,409.239 L55.674,411.477 C55.674,411.839 55.589,412.111 55.422,412.292 C55.254,412.474 55.037,412.563 54.771,412.563 C54.513,412.563 54.302,412.47 54.136,412.282 C53.971,412.095 53.887,411.826 53.887,411.477 L53.887,406.313 C53.887,405.974 53.961,405.719 54.11,405.551 C54.258,405.383 54.461,405.299 54.718,405.299 C54.875,405.299 55.018,405.336 55.145,405.411 C55.27,405.485 55.372,405.597 55.449,405.744 C55.525,405.893 55.563,406.074 55.563,406.288" id="Fill-56" fill="#F6F5F3"></path>
                <path d="M62.938,408.356 L66.177,408.356 C66.133,407.745 65.968,407.287 65.683,406.984 C65.397,406.682 65.021,406.53 64.554,406.53 C64.108,406.53 63.743,406.684 63.457,406.99 C63.171,407.298 62.999,407.754 62.938,408.356 Z M66.432,409.37 L62.938,409.37 C62.942,409.775 63.023,410.134 63.183,410.443 C63.342,410.753 63.553,410.987 63.818,411.144 C64.081,411.301 64.373,411.379 64.691,411.379 C64.905,411.379 65.1,411.354 65.277,411.305 C65.453,411.253 65.625,411.176 65.791,411.068 C65.956,410.962 66.108,410.847 66.25,410.725 C66.388,410.602 66.569,410.436 66.792,410.227 C66.883,410.148 67.014,410.108 67.185,410.108 C67.368,410.108 67.516,410.16 67.629,410.26 C67.743,410.361 67.8,410.502 67.8,410.686 C67.8,410.847 67.737,411.035 67.61,411.251 C67.483,411.468 67.292,411.675 67.037,411.873 C66.782,412.071 66.461,412.235 66.075,412.367 C65.689,412.498 65.245,412.563 64.743,412.563 C63.596,412.563 62.704,412.235 62.066,411.582 C61.43,410.928 61.111,410.039 61.111,408.919 C61.111,408.391 61.19,407.9 61.347,407.449 C61.504,406.997 61.733,406.61 62.034,406.288 C62.335,405.965 62.706,405.718 63.146,405.545 C63.587,405.372 64.076,405.287 64.613,405.287 C65.311,405.287 65.909,405.433 66.408,405.729 C66.908,406.022 67.283,406.403 67.531,406.869 C67.78,407.337 67.904,407.813 67.904,408.296 C67.904,408.746 67.776,409.037 67.518,409.171 C67.261,409.304 66.899,409.37 66.432,409.37 L66.432,409.37 Z" id="Fill-57" fill="#F6F5F3"></path>
                <path d="M70.201,408.919 C70.201,409.403 70.275,409.814 70.426,410.155 C70.577,410.496 70.783,410.752 71.045,410.924 C71.307,411.097 71.592,411.184 71.902,411.184 C72.216,411.184 72.503,411.102 72.762,410.938 C73.022,410.774 73.229,410.522 73.384,410.186 C73.539,409.847 73.617,409.424 73.617,408.919 C73.617,408.442 73.539,408.034 73.384,407.69 C73.229,407.349 73.02,407.087 72.756,406.905 C72.492,406.725 72.203,406.635 71.889,406.635 C71.562,406.635 71.269,406.728 71.012,406.913 C70.755,407.098 70.555,407.363 70.413,407.711 C70.271,408.058 70.201,408.46 70.201,408.919 Z M73.714,411.543 L73.714,411.365 C73.475,411.641 73.238,411.864 73.004,412.036 C72.771,412.209 72.518,412.34 72.246,412.429 C71.973,412.52 71.675,412.563 71.353,412.563 C70.924,412.563 70.529,412.474 70.165,412.292 C69.8,412.111 69.485,411.853 69.219,411.517 C68.953,411.181 68.751,410.786 68.614,410.332 C68.476,409.878 68.408,409.388 68.408,408.86 C68.408,407.743 68.68,406.872 69.225,406.248 C69.771,405.625 70.489,405.313 71.378,405.313 C71.893,405.313 72.328,405.401 72.681,405.577 C73.034,405.754 73.379,406.026 73.714,406.392 L73.714,403.755 C73.714,403.389 73.788,403.111 73.934,402.924 C74.08,402.736 74.289,402.643 74.559,402.643 C74.829,402.643 75.038,402.729 75.184,402.901 C75.33,403.074 75.403,403.327 75.403,403.663 L75.403,411.543 C75.403,411.883 75.325,412.138 75.167,412.309 C75.011,412.478 74.808,412.563 74.559,412.563 C74.315,412.563 74.113,412.476 73.954,412.299 C73.794,412.121 73.714,411.87 73.714,411.543 L73.714,411.543 Z" id="Fill-58" fill="#F6F5F3"></path>
                <path d="M81.102,408.971 C81.102,409.683 81.264,410.228 81.589,410.609 C81.914,410.991 82.341,411.184 82.869,411.184 C83.318,411.184 83.705,410.988 84.03,410.598 C84.355,410.206 84.518,409.647 84.518,408.919 C84.518,408.447 84.451,408.041 84.315,407.701 C84.179,407.36 83.988,407.098 83.739,406.913 C83.49,406.728 83.2,406.635 82.869,406.635 C82.528,406.635 82.225,406.728 81.959,406.913 C81.693,407.098 81.483,407.366 81.331,407.718 C81.178,408.068 81.102,408.486 81.102,408.971 Z M81.017,403.663 L81.017,406.392 C81.353,406.043 81.695,405.775 82.044,405.591 C82.393,405.405 82.825,405.313 83.34,405.313 C83.934,405.313 84.453,405.453 84.901,405.733 C85.348,406.017 85.694,406.424 85.941,406.958 C86.188,407.492 86.312,408.127 86.312,408.86 C86.312,409.401 86.242,409.896 86.105,410.349 C85.967,410.8 85.768,411.191 85.506,411.522 C85.244,411.854 84.927,412.111 84.554,412.292 C84.181,412.474 83.77,412.563 83.32,412.563 C83.045,412.563 82.787,412.531 82.545,412.465 C82.302,412.399 82.096,412.314 81.926,412.207 C81.757,412.101 81.611,411.99 81.491,411.876 C81.371,411.764 81.213,411.593 81.017,411.365 L81.017,411.543 C81.017,411.878 80.936,412.133 80.774,412.306 C80.613,412.478 80.408,412.563 80.159,412.563 C79.906,412.563 79.705,412.478 79.554,412.306 C79.403,412.133 79.329,411.878 79.329,411.543 L79.329,403.741 C79.329,403.38 79.401,403.105 79.547,402.921 C79.693,402.735 79.898,402.643 80.159,402.643 C80.435,402.643 80.646,402.73 80.794,402.907 C80.942,403.085 81.017,403.336 81.017,403.663 L81.017,403.663 Z" id="Fill-59" fill="#F6F5F3"></path>
                <path d="M88.627,412.786 L88.791,412.387 L86.592,406.851 C86.457,406.532 86.389,406.301 86.389,406.156 C86.389,406.004 86.429,405.862 86.507,405.731 C86.585,405.601 86.693,405.495 86.831,405.418 C86.968,405.338 87.111,405.299 87.259,405.299 C87.517,405.299 87.71,405.381 87.842,405.545 C87.974,405.708 88.088,405.942 88.188,406.248 L89.701,410.646 L91.134,406.556 C91.247,406.225 91.35,405.965 91.441,405.777 C91.533,405.589 91.63,405.463 91.732,405.398 C91.834,405.332 91.98,405.299 92.167,405.299 C92.304,405.299 92.433,405.335 92.557,405.407 C92.681,405.479 92.777,405.576 92.845,405.699 C92.912,405.82 92.947,405.949 92.947,406.084 C92.929,406.167 92.901,406.285 92.861,406.438 C92.822,406.591 92.774,406.746 92.718,406.902 L90.388,413.002 C90.187,413.538 89.991,413.959 89.798,414.265 C89.606,414.57 89.353,414.806 89.036,414.968 C88.72,415.133 88.293,415.214 87.757,415.214 C87.233,415.214 86.841,415.157 86.58,415.044 C86.317,414.93 86.187,414.723 86.187,414.422 C86.187,414.218 86.248,414.059 86.374,413.947 C86.497,413.837 86.682,413.78 86.925,413.78 C87.021,413.78 87.116,413.793 87.208,413.82 C87.321,413.846 87.418,413.859 87.501,413.859 C87.706,413.859 87.868,413.829 87.986,413.768 C88.104,413.707 88.209,413.601 88.303,413.449 C88.397,413.3 88.505,413.078 88.627,412.786" id="Fill-60" fill="#F6F5F3"></path>
                <path d="M114.509,405.454 L114.935,405.454 L114.935,404.918 C114.935,404.356 115.003,403.914 115.146,403.583 C115.286,403.253 115.528,403.014 115.867,402.862 C116.205,402.713 116.669,402.638 117.257,402.638 C118.304,402.638 118.822,402.891 118.822,403.405 C118.822,403.57 118.768,403.712 118.657,403.83 C118.551,403.946 118.421,404.006 118.272,404.006 C118.204,404.006 118.081,403.993 117.909,403.965 C117.746,403.942 117.598,403.927 117.48,403.927 C117.157,403.927 116.952,404.023 116.856,404.213 C116.769,404.402 116.722,404.674 116.722,405.028 L116.722,405.454 L117.157,405.454 C117.841,405.454 118.179,405.658 118.179,406.071 C118.179,406.359 118.091,406.547 117.908,406.625 C117.728,406.704 117.478,406.743 117.157,406.743 L116.722,406.743 L116.722,411.478 C116.722,411.829 116.639,412.098 116.468,412.282 C116.301,412.47 116.086,412.563 115.818,412.563 C115.565,412.563 115.355,412.47 115.186,412.282 C115.018,412.098 114.935,411.829 114.935,411.478 L114.935,406.743 L114.442,406.743 C114.175,406.743 113.973,406.686 113.827,406.563 C113.683,406.445 113.61,406.288 113.61,406.096 C113.61,405.666 113.91,405.454 114.509,405.454" id="Fill-61" fill="#F6F5F3"></path>
                <path d="M120.357,409.983 L120.357,411.478 C120.357,411.838 120.267,412.11 120.101,412.29 C119.93,412.474 119.715,412.563 119.454,412.563 C119.191,412.563 118.98,412.472 118.815,412.286 C118.652,412.104 118.567,411.834 118.567,411.478 L118.567,406.501 C118.567,405.697 118.856,405.296 119.436,405.296 C119.734,405.296 119.948,405.389 120.079,405.577 C120.21,405.766 120.282,406.041 120.298,406.409 C120.51,406.041 120.728,405.766 120.951,405.577 C121.18,405.389 121.477,405.296 121.854,405.296 C122.231,405.296 122.593,405.389 122.945,405.577 C123.301,405.766 123.478,406.016 123.478,406.324 C123.478,406.541 123.401,406.725 123.253,406.863 C123.102,407.007 122.939,407.077 122.766,407.077 C122.697,407.077 122.538,407.034 122.289,406.954 C122.037,406.876 121.814,406.835 121.626,406.835 C121.364,406.835 121.148,406.905 120.983,407.04 C120.816,407.182 120.687,407.383 120.595,407.65 C120.506,407.923 120.444,408.247 120.407,408.618 C120.373,408.992 120.357,409.447 120.357,409.983" id="Fill-62" fill="#F6F5F3"></path>
                <path d="M125.075,408.353 L128.314,408.353 C128.271,407.743 128.109,407.285 127.822,406.984 C127.534,406.68 127.162,406.529 126.692,406.529 C126.247,406.529 125.882,406.681 125.596,406.99 C125.311,407.298 125.135,407.751 125.075,408.353 M128.571,409.368 L125.075,409.368 C125.081,409.773 125.161,410.134 125.319,410.442 C125.481,410.75 125.691,410.984 125.957,411.143 C126.222,411.3 126.511,411.377 126.831,411.377 C127.045,411.377 127.239,411.354 127.416,411.301 C127.591,411.253 127.764,411.173 127.93,411.065 C128.097,410.961 128.246,410.847 128.387,410.721 C128.526,410.601 128.709,410.435 128.932,410.226 C129.024,410.147 129.155,410.106 129.323,410.106 C129.508,410.106 129.655,410.157 129.771,410.259 C129.885,410.36 129.938,410.5 129.938,410.685 C129.938,410.847 129.877,411.034 129.754,411.249 C129.624,411.468 129.435,411.673 129.178,411.873 C128.92,412.069 128.6,412.236 128.215,412.365 C127.829,412.496 127.384,412.563 126.884,412.563 C125.732,412.563 124.842,412.236 124.206,411.582 C123.569,410.927 123.247,410.037 123.247,408.917 C123.247,408.389 123.328,407.898 123.486,407.446 C123.642,406.993 123.871,406.608 124.175,406.283 C124.475,405.959 124.843,405.713 125.286,405.541 C125.726,405.369 126.214,405.283 126.752,405.283 C127.448,405.283 128.048,405.431 128.548,405.728 C129.047,406.02 129.426,406.4 129.67,406.867 C129.919,407.337 130.044,407.811 130.044,408.297 C130.044,408.743 129.914,409.034 129.657,409.169 C129.399,409.302 129.038,409.368 128.571,409.368" id="Fill-63" fill="#F6F5F3"></path>
                <path d="M132.509,408.353 L135.748,408.353 C135.704,407.743 135.538,407.285 135.255,406.984 C134.965,406.68 134.593,406.529 134.123,406.529 C133.679,406.529 133.313,406.681 133.025,406.99 C132.741,407.298 132.566,407.751 132.509,408.353 M136.004,409.368 L132.509,409.368 C132.513,409.773 132.595,410.134 132.753,410.442 C132.912,410.75 133.124,410.984 133.387,411.143 C133.651,411.3 133.942,411.377 134.264,411.377 C134.476,411.377 134.672,411.354 134.846,411.301 C135.023,411.253 135.193,411.173 135.362,411.065 C135.529,410.961 135.679,410.847 135.819,410.721 C135.957,410.601 136.14,410.435 136.362,410.226 C136.455,410.147 136.587,410.106 136.754,410.106 C136.939,410.106 137.087,410.157 137.202,410.259 C137.316,410.36 137.368,410.5 137.368,410.685 C137.368,410.847 137.308,411.034 137.18,411.249 C137.058,411.468 136.866,411.673 136.607,411.873 C136.353,412.069 136.028,412.236 135.646,412.365 C135.262,412.496 134.813,412.563 134.313,412.563 C133.164,412.563 132.274,412.236 131.635,411.582 C130.999,410.927 130.678,410.037 130.678,408.917 C130.678,408.389 130.758,407.898 130.918,407.446 C131.074,406.993 131.303,406.608 131.604,406.283 C131.904,405.959 132.274,405.713 132.716,405.541 C133.155,405.369 133.646,405.283 134.184,405.283 C134.878,405.283 135.478,405.431 135.983,405.728 C136.479,406.02 136.855,406.4 137.101,406.867 C137.349,407.337 137.477,407.811 137.477,408.297 C137.477,408.743 137.345,409.034 137.089,409.169 C136.831,409.302 136.47,409.368 136.004,409.368" id="Fill-64" fill="#F6F5F3"></path>
                <path d="M143.42,408.896 C143.42,408.426 143.347,408.02 143.203,407.683 C143.06,407.344 142.859,407.085 142.606,406.905 C142.354,406.725 142.067,406.632 141.758,406.632 C141.266,406.632 140.85,406.828 140.512,407.214 C140.172,407.604 140.002,408.175 140.002,408.932 C140.002,409.639 140.17,410.194 140.509,410.589 C140.845,410.984 141.257,411.181 141.758,411.181 C142.053,411.181 142.33,411.094 142.583,410.924 C142.838,410.75 143.041,410.492 143.191,410.147 C143.344,409.802 143.42,409.385 143.42,408.896 M139.917,406.301 L139.917,406.515 C140.252,406.102 140.603,405.797 140.968,405.603 C141.325,405.407 141.738,405.309 142.195,405.309 C142.743,405.309 143.253,405.452 143.716,405.733 C144.179,406.02 144.542,406.434 144.812,406.979 C145.08,407.526 145.215,408.17 145.215,408.917 C145.215,409.466 145.138,409.973 144.983,410.434 C144.829,410.894 144.613,411.279 144.344,411.591 C144.072,411.901 143.754,412.144 143.386,412.312 C143.013,412.478 142.62,412.563 142.195,412.563 C141.687,412.563 141.256,412.46 140.91,412.254 C140.564,412.053 140.233,411.749 139.917,411.354 L139.917,414.036 C139.917,414.818 139.631,415.215 139.061,415.215 C138.723,415.215 138.503,415.113 138.391,414.912 C138.286,414.706 138.229,414.413 138.229,414.022 L138.229,406.31 C138.229,405.969 138.303,405.718 138.45,405.547 C138.599,405.382 138.803,405.296 139.061,405.296 C139.314,405.296 139.519,405.382 139.677,405.554 C139.839,405.729 139.917,405.974 139.917,406.301" id="Fill-65" fill="#F6F5F3"></path>
                <path d="M147.898,406.31 L147.898,411.479 C147.898,411.834 147.813,412.104 147.644,412.286 C147.472,412.472 147.258,412.563 146.995,412.563 C146.732,412.563 146.523,412.47 146.356,412.282 C146.195,412.092 146.111,411.824 146.111,411.479 L146.111,406.361 C146.111,406.01 146.195,405.744 146.356,405.565 C146.523,405.383 146.732,405.296 146.995,405.296 C147.258,405.296 147.472,405.383 147.644,405.565 C147.813,405.744 147.898,405.994 147.898,406.31 M147.014,404.464 C146.765,404.464 146.553,404.386 146.378,404.233 C146.199,404.08 146.111,403.866 146.111,403.588 C146.111,403.334 146.201,403.127 146.384,402.961 C146.564,402.8 146.774,402.716 147.014,402.716 C147.248,402.716 147.452,402.789 147.63,402.937 C147.809,403.087 147.898,403.304 147.898,403.588 C147.898,403.863 147.812,404.078 147.639,404.232 C147.464,404.386 147.256,404.464 147.014,404.464" id="Fill-66" fill="#F6F5F3"></path>
                <path d="M153.658,411.747 L152.085,409.152 L151.114,410.067 L151.114,411.49 C151.114,411.834 151.023,412.098 150.841,412.282 C150.664,412.47 150.451,412.563 150.217,412.563 C149.942,412.563 149.725,412.472 149.569,412.286 C149.413,412.104 149.332,411.834 149.332,411.478 L149.332,403.854 C149.332,403.46 149.411,403.158 149.561,402.949 C149.714,402.739 149.936,402.638 150.217,402.638 C150.492,402.638 150.708,402.732 150.871,402.921 C151.032,403.107 151.114,403.386 151.114,403.749 L151.114,408.086 L153.124,405.976 C153.373,405.716 153.56,405.534 153.693,405.439 C153.824,405.344 153.982,405.296 154.169,405.296 C154.394,405.296 154.578,405.367 154.73,405.509 C154.876,405.65 154.951,405.829 154.951,406.041 C154.951,406.303 154.707,406.653 154.225,407.09 L153.275,407.96 L155.107,410.842 C155.241,411.058 155.342,411.216 155.399,411.328 C155.458,411.438 155.489,411.548 155.489,411.646 C155.489,411.931 155.411,412.152 155.255,412.318 C155.1,412.481 154.894,412.563 154.645,412.563 C154.427,412.563 154.256,412.506 154.139,412.386 C154.021,412.267 153.858,412.053 153.658,411.747" id="Fill-67" fill="#F6F5F3"></path>
                <path d="M157.542,412.563 C157.271,412.563 157.04,412.476 156.843,412.3 C156.647,412.128 156.548,411.883 156.548,411.566 C156.548,411.301 156.643,411.071 156.83,410.881 C157.02,410.688 157.249,410.592 157.524,410.592 C157.799,410.592 158.031,410.688 158.229,410.876 C158.422,411.065 158.52,411.298 158.52,411.566 C158.52,411.878 158.422,412.123 158.229,412.296 C158.031,412.476 157.803,412.563 157.542,412.563" id="Fill-68" fill="#F6F5F3"></path>
                <path d="M166.429,410.351 C166.429,410.571 166.362,410.811 166.229,411.063 C166.097,411.318 165.892,411.558 165.618,411.786 C165.347,412.015 165.004,412.201 164.588,412.34 C164.174,412.479 163.706,412.552 163.189,412.552 C162.082,412.552 161.22,412.228 160.6,411.586 C159.982,410.941 159.673,410.077 159.673,408.995 C159.673,408.26 159.813,407.613 160.1,407.049 C160.38,406.488 160.791,406.052 161.326,405.744 C161.863,405.436 162.509,405.283 163.252,405.283 C163.716,405.283 164.139,405.351 164.528,405.486 C164.914,405.621 165.239,405.797 165.51,406.009 C165.776,406.226 165.982,406.452 166.123,406.692 C166.266,406.935 166.335,407.162 166.335,407.373 C166.335,407.585 166.257,407.767 166.099,407.915 C165.937,408.063 165.743,408.139 165.521,408.139 C165.37,408.139 165.247,408.1 165.147,408.024 C165.049,407.947 164.938,407.824 164.818,407.65 C164.6,407.321 164.373,407.07 164.132,406.907 C163.896,406.74 163.594,406.657 163.227,406.657 C162.702,406.657 162.273,406.863 161.949,407.276 C161.627,407.687 161.465,408.255 161.465,408.967 C161.465,409.304 161.508,409.614 161.591,409.896 C161.672,410.176 161.791,410.416 161.949,410.615 C162.108,410.813 162.297,410.963 162.519,411.065 C162.742,411.171 162.987,411.221 163.252,411.221 C163.611,411.221 163.918,411.139 164.173,410.973 C164.432,410.807 164.656,410.555 164.853,410.213 C164.961,410.013 165.078,409.856 165.203,409.742 C165.329,409.63 165.484,409.57 165.669,409.57 C165.887,409.57 166.068,409.655 166.21,409.82 C166.355,409.985 166.429,410.164 166.429,410.351" id="Fill-69" fill="#F6F5F3"></path>
                <path d="M172.346,408.931 C172.346,408.201 172.184,407.635 171.864,407.229 C171.545,406.819 171.113,406.618 170.573,406.618 C170.223,406.618 169.915,406.709 169.647,406.89 C169.382,407.069 169.179,407.337 169.035,407.691 C168.891,408.045 168.817,408.458 168.817,408.931 C168.817,409.398 168.889,409.804 169.031,410.152 C169.174,410.505 169.377,410.771 169.641,410.956 C169.907,411.14 170.217,411.234 170.573,411.234 C171.113,411.234 171.545,411.03 171.864,410.62 C172.184,410.213 172.346,409.647 172.346,408.931 M174.14,408.931 C174.14,409.461 174.055,409.953 173.895,410.404 C173.724,410.854 173.486,411.24 173.171,411.561 C172.857,411.884 172.48,412.132 172.047,412.305 C171.605,412.476 171.116,412.563 170.573,412.563 C170.032,412.563 169.544,412.476 169.111,412.3 C168.683,412.128 168.305,411.876 167.991,411.554 C167.674,411.226 167.435,410.842 167.267,410.398 C167.108,409.955 167.025,409.466 167.025,408.931 C167.025,408.389 167.11,407.894 167.272,407.443 C167.438,406.993 167.678,406.608 167.988,406.291 C168.299,405.973 168.672,405.728 169.111,405.554 C169.555,405.382 170.041,405.296 170.573,405.296 C171.113,405.296 171.605,405.382 172.047,405.559 C172.486,405.731 172.861,405.982 173.179,406.303 C173.494,406.63 173.732,407.012 173.896,407.454 C174.057,407.903 174.14,408.392 174.14,408.931" id="Fill-70" fill="#F6F5F3"></path>
                <path d="M180.955,409.062 L180.955,411.437 C180.955,411.813 180.872,412.092 180.7,412.282 C180.528,412.47 180.307,412.563 180.026,412.563 C179.756,412.563 179.535,412.47 179.371,412.282 C179.201,412.092 179.115,411.813 179.115,411.437 L179.115,408.59 C179.115,408.14 179.101,407.789 179.071,407.54 C179.04,407.296 178.956,407.088 178.821,406.932 C178.687,406.77 178.471,406.689 178.181,406.689 C177.595,406.689 177.211,406.89 177.025,407.296 C176.841,407.693 176.745,408.27 176.745,409.023 L176.745,411.437 C176.745,411.807 176.661,412.089 176.496,412.279 C176.324,412.468 176.105,412.563 175.831,412.563 C175.559,412.563 175.338,412.468 175.165,412.279 C174.991,412.089 174.906,411.807 174.906,411.437 L174.906,406.324 C174.906,405.987 174.983,405.731 175.137,405.559 C175.295,405.382 175.5,405.296 175.75,405.296 C175.995,405.296 176.199,405.381 176.364,405.541 C176.527,405.705 176.608,405.931 176.608,406.219 L176.608,406.388 C176.921,406.02 177.253,405.746 177.604,405.574 C177.96,405.396 178.35,405.309 178.784,405.309 C179.232,405.309 179.618,405.398 179.94,405.577 C180.264,405.757 180.528,406.028 180.739,406.388 C181.042,406.023 181.365,405.752 181.711,405.574 C182.056,405.397 182.437,405.309 182.856,405.309 C183.343,405.309 183.767,405.407 184.12,405.598 C184.471,405.789 184.734,406.065 184.91,406.421 C185.063,406.746 185.138,407.255 185.138,407.948 L185.138,411.437 C185.138,411.813 185.054,412.092 184.885,412.282 C184.715,412.47 184.488,412.563 184.21,412.563 C183.938,412.563 183.718,412.468 183.545,412.279 C183.373,412.089 183.286,411.807 183.286,411.437 L183.286,408.432 C183.286,408.047 183.27,407.74 183.238,407.51 C183.206,407.277 183.116,407.082 182.975,406.926 C182.828,406.77 182.609,406.689 182.318,406.689 C182.082,406.689 181.859,406.763 181.647,406.901 C181.436,407.038 181.271,407.229 181.15,407.461 C181.022,407.764 180.955,408.297 180.955,409.062" id="Fill-71" fill="#F6F5F3"></path>
                <polyline id="Fill-72" fill="#F6F5F3" points="97.788 408.498 97.786 408.485 97.788 408.498"></polyline>
                <path d="M97.878,409.069 L97.88,409.069 C97.846,408.906 97.819,408.745 97.798,408.585 C97.819,408.746 97.846,408.908 97.878,409.069" id="Fill-73" fill="#F6F5F3"></path>
                <polyline id="Fill-74" fill="#F6F5F3" points="98.469 410.728 98.458 410.704 98.469 410.728"></polyline>
                <polyline id="Fill-75" fill="#F6F5F3" points="98.413 410.617 98.368 410.524 98.413 410.617"></polyline>
                <path d="M98.044,409.708 C98.131,409.983 98.237,410.251 98.359,410.506 C98.235,410.245 98.131,409.978 98.046,409.708 L98.044,409.708" id="Fill-76" fill="#F6F5F3"></path>
                <path d="M104.704,401.651 C105.049,401.651 105.304,401.679 105.596,401.729 L105.679,401.203 C105.679,401.203 104.872,400.954 103.811,401.041 L103.728,400.755 C104.058,400.686 104.305,400.393 104.305,400.043 C104.305,399.642 103.979,399.316 103.577,399.316 C103.175,399.316 102.849,399.642 102.849,400.043 C102.849,400.393 103.096,400.686 103.425,400.755 L103.518,401.074 C102.392,401.229 101.495,401.668 101.495,401.668 L101.654,402.154 C102.335,401.928 102.926,401.789 103.462,401.731 C103.987,401.676 104.382,401.651 104.704,401.651" id="Fill-77" fill="#F6F5F3"></path>
                <path d="M98.456,404.31 L98.46,404.305 L98.538,404.206 L98.322,404.051 L97.986,403.806 C97.967,403.832 97.438,404.318 97.021,405.217 L96.958,405.135 C96.833,404.998 96.659,404.928 96.436,404.932 L96.426,404.932 C96.289,404.932 96.194,404.886 96.132,404.83 C96.193,404.752 96.23,404.654 96.23,404.546 C96.23,404.292 96.024,404.085 95.77,404.085 C95.516,404.085 95.309,404.292 95.309,404.546 C95.309,404.801 95.516,405.007 95.77,405.007 L95.884,404.992 C95.998,405.118 96.178,405.228 96.441,405.223 C96.577,405.221 96.676,405.256 96.742,405.329 C96.819,405.413 96.845,405.533 96.853,405.624 L96.85,405.628 C96.55,406.447 96.636,407.467 96.636,407.467 L97.364,407.496 C97.379,407.125 97.433,406.475 97.621,405.959 C97.983,404.961 98.438,404.336 98.456,404.31" id="Fill-78" fill="#F6F5F3"></path>
                <path d="M111.042,402.261 C110.788,402.261 110.581,402.467 110.581,402.722 L110.598,402.835 C110.471,402.949 110.361,403.13 110.365,403.394 C110.367,403.529 110.332,403.628 110.259,403.694 L110.055,403.791 C109.513,403.031 108.845,402.568 108.845,402.568 L108.322,403.129 C108.718,403.488 109.121,403.938 109.514,404.5 C109.784,404.888 110.063,405.389 110.296,405.888 L111.002,405.553 C111.002,405.553 110.68,404.757 110.226,404.043 L110.454,403.91 C110.592,403.786 110.66,403.609 110.656,403.389 C110.654,403.245 110.701,403.148 110.758,403.084 C110.837,403.144 110.936,403.183 111.042,403.183 C111.298,403.183 111.504,402.976 111.504,402.722 C111.504,402.467 111.298,402.261 111.042,402.261" id="Fill-79" fill="#F6F5F3"></path>
                <path d="M109.211,408.601 C108.24,409.074 106.643,409.699 104.539,409.992 C103.713,410.106 102.913,410.149 102.177,410.149 C101.219,410.149 100.372,410.078 99.722,409.996 C98.98,409.902 98.401,409.788 98.046,409.708 C98.131,409.978 98.235,410.245 98.359,410.506 L98.368,410.524 L98.413,410.617 L98.458,410.704 L98.469,410.728 C98.678,411.12 98.929,411.481 99.214,411.794 C100.206,412.88 101.217,413.051 101.226,413.053 L101.242,413.055 L101.257,413.06 C101.266,413.063 102.162,413.353 103.525,413.353 C104.865,413.353 106.181,413.082 107.435,412.549 C108.362,412.073 109.241,411.353 109.676,410.709 C110.013,410.211 110.256,409.68 110.399,409.129 C110.477,408.835 110.537,408.365 110.501,407.871 C110.228,408.055 109.796,408.316 109.211,408.601" id="Fill-80" fill="#F6F5F3"></path>
                <path d="M101.543,404.033 C102.615,404.033 103.484,404.902 103.484,405.974 C103.484,407.046 102.615,407.913 101.543,407.913 C100.472,407.913 99.603,407.046 99.603,405.974 C99.603,404.902 100.472,404.033 101.543,404.033 Z M107.222,404.081 C107.884,404.081 108.423,404.619 108.423,405.281 C108.423,405.944 107.884,406.483 107.222,406.483 C106.559,406.483 106.021,405.944 106.021,405.281 C106.021,404.619 106.559,404.081 107.222,404.081 Z M98.768,404.54 C98.739,404.581 98.318,405.178 97.985,406.093 C97.736,406.778 97.747,407.776 97.747,407.787 L97.747,407.789 C97.747,408.023 97.76,408.256 97.786,408.485 L97.788,408.498 L97.798,408.585 C97.819,408.745 97.846,408.906 97.88,409.069 C98.362,409.191 101.241,409.863 104.459,409.415 C106.476,409.135 108.007,408.538 108.937,408.088 C109.709,407.713 110.206,407.374 110.397,407.234 C110.206,406.525 109.68,405.415 109.196,404.722 C107.815,402.748 106.325,402.241 105.561,402.115 C105.269,402.067 105.035,402.04 104.704,402.04 C104.396,402.04 104.014,402.064 103.502,402.118 C102.991,402.172 102.419,402.307 101.758,402.529 C100.829,402.84 99.989,403.328 99.328,403.94 L99.305,403.961 C99.208,404.051 99.003,404.24 98.768,404.54 L98.768,404.54 Z" id="Fill-81" fill="#F6F5F3"></path>
            </g>
        </g>
    </g>
</svg>