<?xml version="1.0" encoding="UTF-8"?>
<svg width="208px" height="294px" viewBox="0 0 208 294" version="1.1" xmlns="http://www.w3.org/2000/svg" xmlns:xlink="http://www.w3.org/1999/xlink">
    <!-- Generator: Sketch 43.2 (39069) - http://www.bohemiancoding.com/sketch -->
    <title>Group</title>
    <desc>Created with Sketch.</desc>
    <defs></defs>
    <g id="Page-1" stroke="none" stroke-width="1" fill="none" fill-rule="evenodd">
        <g id="116888-OP3AKP-74" transform="translate(-147.000000, -67.000000)">
            <g id="Group" transform="translate(147.000000, 67.000000)">
                <path d="M32.214,244.707 C41.999,249.77 53.418,250.426 64.435,250.403 C74.807,250.381 85.176,249.845 95.499,248.843 C103.616,248.055 111.212,245.499 119.093,244.481 C128.78,243.231 139.061,244.709 148.892,243.77 C158.375,242.863 167.79,241.238 177.025,238.903 C180.879,237.929 184.845,236.757 187.816,234.117 C190.788,231.478 192.46,226.961 190.679,223.407 C189.532,221.12 187.241,219.664 185.029,218.377 C164.904,206.667 142.72,200.91 119.867,197.389 C103.381,194.848 88.436,198.371 72.52,202.476 C55.843,206.776 39.402,211.994 23.299,218.1 C20.4,219.198 17.289,220.515 15.782,223.224 C13.738,226.898 15.532,231.568 18.118,234.885 C21.939,239.783 26.89,241.952 32.214,244.707" id="Fill-3" fill="#131F20"></path>
                <path d="M139.62,202.3 C139.46,203.019 138.87,203.55 138.31,204.02 C131.04,210.19 123.26,215.76 115.06,220.64 C114.59,220.92 114.06,221.21 113.519,221.13 C112.84,221.02 112.38,220.39 112.02,219.8 C108.42,213.98 105.51,207.75 103.3,201.269 C101.09,207.75 98.17,213.98 94.57,219.8 C94.21,220.39 93.76,221.02 93.07,221.13 C92.53,221.21 92,220.92 91.53,220.64 C83.33,215.76 75.55,210.19 68.28,204.02 C67.72,203.55 67.13,203.019 66.97,202.3 C66.8,201.51 67.18,200.72 67.54,200 C77.68,179.69 76.96,153.36 74.13,131.43 C72.48,118.7 71.11,105.8 72.8,93.08 L72.81,93.04 C73.19,90.26 75.61,88.2 78.41,88.2 L128.18,88.2 C130.98,88.2 133.4,90.26 133.78,93.04 L133.79,93.08 C135.48,105.8 134.11,118.7 132.46,131.43 C129.63,153.36 128.91,179.69 139.05,200 C139.41,200.72 139.8,201.51 139.62,202.3" id="Fill-4" fill="#FFFFFF"></path>
                <path d="M113.56,88.2 C113.54,88.56 113.48,88.92 113.36,89.27 C113,90.34 112.25,91.21 111.87,92.26 C111.46,93.39 111.5,94.6 111.07,95.72 C110.21,97.97 108.79,100.26 107.32,102.16 C106.4,103.34 105.3,104.51 103.84,104.83 C101.78,105.29 98.78,104.12 97.65,102.41 C96.4,100.49 95.39,98.42 94.65,96.26 C93.99,94.33 93.54,92.32 93.31,90.28 C93.24,89.59 93.19,88.89 93.22,88.2 L113.56,88.2" id="Fill-5" fill="#F1AE7D"></path>
                <path d="M107.844,99.65 C107.11,100.222 106.263,100.638 105.305,100.818 C102.649,101.315 99.457,99.998 97.882,97.813 C96.736,96.224 96.49,94.19 96.28,92.243 C95.923,88.977 95.726,85.674 95.602,82.359 C95.442,78.205 95.38,74.04 95.22,69.911 C95.122,67.237 95.06,66.768 97.562,66.657 C99.386,66.584 101.21,66.621 103.034,66.596 C103.551,66.596 111.118,66.436 111.131,66.571 C111.439,72.117 111.477,77.762 111.304,83.357 C111.267,85.033 111.205,86.697 111.118,88.348 C110.916,92.218 111.31,96.95 107.844,99.65" id="Fill-6" fill="#F1AE7D"></path>
                <path d="M111.304,83.357 C108.58,84.7 105.376,85.07 102.344,84.664 C100.286,84.405 97.821,83.604 95.602,82.359 C95.442,78.205 95.38,74.04 95.22,69.911 C95.122,67.237 95.06,66.768 97.562,66.657 C99.386,66.583 101.21,66.621 103.034,66.596 C103.551,66.596 111.118,66.436 111.131,66.571 C111.439,72.117 111.477,77.762 111.304,83.357" id="Fill-7" fill="#E9876C"></path>
                <path d="M195.322,286.192 C195.285,289.631 193.215,293.144 190.207,293.353 C188.137,293.501 186.178,292.133 184.391,290.826 C171.795,281.682 155.612,267.324 141.132,263.22 C139.16,262.665 137.126,262.222 135.031,261.889 C124.136,260.09 111.886,260.829 101.385,260.274 C79.546,259.104 56.98,258.143 35.894,250.267 C30.594,248.295 25.405,245.879 20.328,242.922 C16.729,240.826 12.933,238.065 11.676,233.715 C10.135,228.391 13.229,222.697 17.493,220.22 C21.745,217.755 26.823,217.743 31.691,217.952 C53.85,218.901 75.43,225.088 96.937,231.607 C104.947,234.035 112.945,236.513 120.969,238.793 C137.73,243.538 155.478,245.744 170.377,254.321 C178.771,259.165 186.276,266.018 192.179,276.506 C193.855,279.463 195.347,282.754 195.322,286.192" id="Fill-8" fill="#1A2829"></path>
                <path d="M170.377,254.321 C158.842,258.45 146.961,260.595 135.031,261.889 C124.136,260.09 111.886,260.829 101.385,260.274 C79.546,259.104 56.98,258.143 35.894,250.267 C46.665,244.413 58.657,241.591 70.427,238.805 C75.11,237.696 79.953,236.55 84.612,235.231 C88.704,234.072 92.845,232.853 96.937,231.607 C104.947,234.035 112.945,236.513 120.969,238.793 C137.73,243.538 155.478,245.744 170.377,254.321" id="Fill-9" fill="#101A1B"></path>
                <path d="M189.103,220.224 C184.849,217.751 179.77,217.745 174.901,217.947 C144.479,219.256 115.172,230.424 85.618,238.79 C59.404,246.21 30.805,247.418 14.408,276.508 C12.741,279.465 11.24,282.75 11.274,286.188 C11.308,289.627 13.378,293.146 16.388,293.354 C18.459,293.498 20.411,292.131 22.202,290.831 C34.801,281.686 50.979,267.321 65.458,263.22 C77.691,259.755 92.686,260.944 105.205,260.272 C132.52,258.807 160.983,257.679 186.27,242.925 C189.868,240.824 193.656,238.069 194.916,233.721 C196.458,228.395 193.357,222.696 189.103,220.224" id="Fill-10" fill="#1A2829"></path>
                <path d="M1.292,218.339 C1.142,218.321 0.982,218.302 0.862,218.209 C0.619,218.021 0.653,217.642 0.774,217.359 C1.093,216.619 1.821,216.119 2.591,215.882 C3.36,215.645 4.179,215.635 4.984,215.626 C8.192,215.592 11.4,215.559 14.608,215.524 C15.933,215.511 17.487,215.612 18.216,216.718 C18.987,217.888 18.294,219.438 17.121,219.996 C15.901,220.576 14.411,219.846 13.168,219.67 C9.23,219.113 5.246,218.782 1.292,218.339" id="Fill-11" fill="#E9876C"></path>
                <path d="M74.76,137.16 C74.26,141.86 73.45,146.49 72.35,151.02 C65.89,177.73 49.56,201.23 29.48,217.9 C24.55,222 19.32,222.98 13.13,221.48 C12.07,221.23 10.98,220.87 10.19,220.11 C9.06,219.02 8.75,217.35 8.58,215.8 C8.36,213.89 8.26,211.97 8.27,210.05 C8.27,209.07 8.72,207.73 9.68,207.92 C10.14,208.01 10.43,208.44 10.63,208.86 L10.64,208.87 C11.31,210.19 11.63,211.68 12.42,212.93 C13.2,214.18 14.68,215.2 16.1,214.79 C16.97,214.53 17.62,213.79 17.97,212.96 C18.37,211.99 18.39,210.88 18.06,209.9 C17.92,209.47 17.71,209.07 17.45,208.71 C16.57,207.51 15.03,206.83 13.54,206.98 C13,207.03 12.46,207.19 11.91,207.13 C11.37,207.06 10.8,206.67 10.79,206.13 C10.76,205.33 11.78,204.98 12.57,204.89 C14.88,204.64 17.21,204.55 19.53,204.62 C20.3,204.64 21.11,204.69 21.8,205.03 C22.42,205.33 22.92,205.84 23.52,206.17 C25.09,207.03 27.14,206.5 28.52,205.35 C30.15,204.01 31.25,202.2 32.9,200.83 C35.23,198.89 36.97,196.17 38.63,193.66 C47.63,180.05 54.26,164.51 58.14,148.17 C58.32,147.4 58.47,146.58 58.6,145.71 C59.52,139.72 59.54,131.66 62.16,127.06 C65.29,121.54 72.9,123.19 74.53,129.31 C75.21,131.83 75.04,134.54 74.76,137.16" id="Fill-12" fill="#F1AE7D"></path>
                <path d="M74.759,137.158 C74.258,141.86 73.451,146.49 72.347,151.018 C67.717,149.996 62.995,148.084 58.6,145.713 C59.52,139.724 59.54,131.659 62.157,127.06 C65.294,121.541 72.899,123.186 74.534,129.309 C75.209,131.833 75.035,134.542 74.759,137.158" id="Fill-13" fill="#E9876C"></path>
                <path d="M13.244,223.877 C16.134,220.562 19.067,217.229 22.515,214.476 C24.416,212.958 31.01,207.762 33.366,210.231 C35.708,212.687 29.275,218.773 27.822,220.647 C25.058,224.212 22.338,227.878 20.571,232.057 C20.427,232.397 20.196,232.802 19.827,232.777 C19.593,232.762 19.413,232.568 19.279,232.376 C18.284,230.938 18.546,228.979 19.132,227.333 C19.719,225.687 20.595,224.104 20.731,222.361 C17.373,225.397 14.014,228.435 10.655,231.471 C10.059,232.011 8.919,232.445 8.635,231.692 C8.547,231.458 8.607,231.196 8.678,230.955 C9.472,228.237 11.384,226.011 13.244,223.877" id="Fill-14" fill="#F1AE7D"></path>
                <path d="M20.71,217.86 C20.02,218.26 19.2,218.4 18.4,218.39 C15.92,218.35 13.61,216.87 12.13,214.88 C11.08,213.49 8.81,210 10.63,208.86 L10.64,208.87 C11.31,210.19 11.63,211.68 12.42,212.93 C13.2,214.18 14.68,215.2 16.1,214.79 C16.97,214.53 17.62,213.79 17.97,212.96 C18.37,211.99 18.39,210.88 18.06,209.9 C18.95,209.98 19.88,209.9 20.7,210.27 C21.92,210.82 22.53,212.25 22.63,213.59 C22.74,215.23 22.13,217.03 20.71,217.86" id="Fill-15" fill="#E9876C"></path>
                <path d="M206.928,218.339 C207.079,218.321 207.238,218.302 207.358,218.209 C207.602,218.021 207.567,217.642 207.446,217.359 C207.127,216.619 206.399,216.119 205.63,215.882 C204.86,215.645 204.041,215.635 203.236,215.626 C200.028,215.592 196.82,215.559 193.612,215.524 C192.288,215.511 190.733,215.612 190.005,216.718 C189.232,217.888 189.926,219.438 191.099,219.996 C192.319,220.576 193.81,219.846 195.052,219.67 C198.99,219.113 202.975,218.782 206.928,218.339" id="Fill-16" fill="#E9876C"></path>
                <path d="M133.46,137.16 C133.96,141.86 134.771,146.49 135.87,151.02 C142.33,177.73 158.66,201.23 178.74,217.9 C183.67,222 188.9,222.98 195.091,221.48 C196.15,221.23 197.24,220.87 198.03,220.11 C199.16,219.02 199.471,217.35 199.641,215.8 C199.86,213.89 199.96,211.97 199.95,210.05 C199.95,209.07 199.5,207.73 198.54,207.92 C198.08,208.01 197.79,208.44 197.591,208.86 L197.58,208.87 C196.91,210.19 196.591,211.68 195.801,212.93 C195.021,214.18 193.54,215.2 192.12,214.79 C191.25,214.53 190.601,213.79 190.25,212.96 C189.851,211.99 189.83,210.88 190.16,209.9 C190.301,209.47 190.511,209.07 190.771,208.71 C191.65,207.51 193.19,206.83 194.681,206.98 C195.221,207.03 195.761,207.19 196.311,207.13 C196.851,207.06 197.42,206.67 197.431,206.13 C197.46,205.33 196.44,204.98 195.65,204.89 C193.341,204.64 191.011,204.55 188.69,204.62 C187.92,204.64 187.11,204.69 186.42,205.03 C185.801,205.33 185.301,205.84 184.7,206.17 C183.13,207.03 181.08,206.5 179.7,205.35 C178.07,204.01 176.971,202.2 175.32,200.83 C172.99,198.89 171.25,196.17 169.591,193.66 C160.591,180.05 153.96,164.51 150.08,148.17 C149.9,147.4 149.75,146.58 149.62,145.71 C148.7,139.72 148.681,131.66 146.061,127.06 C142.931,121.54 135.32,123.19 133.69,129.31 C133.011,131.83 133.181,134.54 133.46,137.16" id="Fill-17" fill="#F1AE7D"></path>
                <path d="M133.461,137.158 C133.962,141.86 134.77,146.49 135.873,151.018 C140.504,149.996 145.226,148.084 149.621,145.713 C148.701,139.724 148.681,131.659 146.063,127.06 C142.926,121.541 135.321,123.186 133.687,129.309 C133.012,131.833 133.186,134.542 133.461,137.158" id="Fill-18" fill="#E9876C"></path>
                <path d="M194.977,223.877 C192.086,220.562 189.153,217.229 185.705,214.476 C183.805,212.958 177.21,207.762 174.854,210.231 C172.512,212.687 178.945,218.773 180.398,220.647 C183.162,224.212 185.882,227.878 187.649,232.057 C187.793,232.397 188.024,232.802 188.393,232.777 C188.627,232.762 188.808,232.568 188.941,232.376 C189.936,230.938 189.675,228.979 189.088,227.333 C188.502,225.687 187.625,224.104 187.489,222.361 C190.848,225.397 194.206,228.435 197.565,231.471 C198.162,232.011 199.301,232.445 199.585,231.692 C199.673,231.458 199.613,231.196 199.543,230.955 C198.749,228.237 196.837,226.011 194.977,223.877" id="Fill-19" fill="#F1AE7D"></path>
                <path d="M187.511,217.86 C188.2,218.26 189.021,218.4 189.82,218.39 C192.301,218.35 194.61,216.87 196.091,214.88 C197.141,213.49 199.41,210 197.591,208.86 L197.58,208.87 C196.91,210.19 196.591,211.68 195.801,212.93 C195.021,214.18 193.54,215.2 192.12,214.79 C191.25,214.53 190.601,213.79 190.25,212.96 C189.851,211.99 189.83,210.88 190.16,209.9 C189.271,209.98 188.341,209.9 187.521,210.27 C186.301,210.82 185.69,212.25 185.591,213.59 C185.48,215.23 186.091,217.03 187.511,217.86" id="Fill-20" fill="#E9876C"></path>
                <path d="M48.349,129.683 C56.557,138.127 68.484,141.355 79.809,144.244 C80.165,144.334 80.557,144.422 80.885,144.254 C81.311,144.037 81.443,143.495 81.529,143.018 C83.135,134.14 84.741,125.253 85.734,116.283 C86.621,108.271 86.26,81.813 71.552,89.632 C65.67,92.759 62.713,101.288 59.858,106.932 C56.022,114.516 52.186,122.099 48.349,129.683" id="Fill-21" fill="#FFFFFF"></path>
                <path d="M157.651,129.683 C149.443,138.127 137.516,141.355 126.191,144.244 C125.836,144.334 125.443,144.422 125.115,144.254 C124.689,144.037 124.557,143.495 124.471,143.018 C122.865,134.14 121.259,125.253 120.266,116.283 C119.379,108.271 119.74,81.813 134.447,89.632 C140.329,92.759 143.287,101.288 146.142,106.932 C149.979,114.516 153.814,122.099 157.651,129.683" id="Fill-22" fill="#FFFFFF"></path>
                <path d="M110.483,157.17 C110.348,157.811 110.076,158.39 109.806,158.944 C108.598,161.409 107.328,163.875 106.021,166.314 C104.912,168.397 103.767,170.456 102.596,172.489 C101.437,170.456 100.291,168.397 99.182,166.314 C97.875,163.875 96.606,161.409 95.386,158.944 C95.115,158.39 94.844,157.811 94.708,157.17 C94.548,156.381 94.609,155.555 94.696,154.742 C95.792,142.553 97.062,130.376 97.518,118.138 C97.604,116.056 97.653,113.985 97.678,111.902 C98.948,111.286 99.564,111.569 100.784,111.729 C101.277,111.804 107.513,110.805 107.525,111.902 C107.55,113.615 107.587,115.316 107.648,117.029 C108.067,129.637 109.374,142.183 110.508,154.742 C110.582,155.555 110.655,156.381 110.483,157.17" id="Fill-23" fill="#BD5D59"></path>
                <path d="M107.648,117.029 C107.341,117.091 107.008,117.116 106.699,117.14 C104.69,117.3 99.761,118.631 97.518,118.138 C97.604,116.056 97.653,113.985 97.678,111.902 C98.948,111.286 99.564,111.569 100.784,111.729 C101.277,111.804 107.513,110.805 107.525,111.902 C107.55,113.615 107.587,115.316 107.648,117.029" id="Fill-24" fill="#A95351"></path>
                <path d="M96.578,107.325 C96.439,107.586 96.353,107.868 96.327,108.174 C96.142,110.415 95.811,114.88 97.82,115.805 C99.448,116.553 104.204,115.241 106.056,115.091 C106.758,115.035 107.516,114.955 108.04,114.484 C109.395,113.266 108.521,106.395 107.215,105.331 C106.77,104.967 106.143,104.957 105.567,104.963 C105.159,104.968 104.701,104.958 104.214,104.948 C101.516,104.891 97.896,104.834 96.578,107.325" id="Fill-25" fill="#BD5D59"></path>
                <path d="M88,112.587 L91.398,88.203 L93.22,88.203 C93.19,88.892 93.24,89.591 93.31,90.28 C93.54,92.32 93.99,94.33 94.65,96.26 C95.39,98.42 96.4,100.49 97.65,102.41 C98.464,103.643 100.25,104.595 101.956,104.858 L101.777,104.957 C99.653,105.062 97.523,105.538 96.578,107.325 C96.472,107.524 96.397,107.735 96.356,107.959 L88,112.587" id="Fill-26" fill="#BABCB9"></path>
                <path d="M101.956,104.858 C100.25,104.595 98.464,103.643 97.65,102.41 C96.4,100.49 95.39,98.42 94.65,96.26 C93.99,94.33 93.54,92.32 93.31,90.28 C93.24,89.591 93.19,88.892 93.22,88.203 L94.916,88.203 L96.165,91.135 C96.202,91.504 96.24,91.874 96.28,92.243 C96.49,94.19 96.736,96.224 97.882,97.813 C98.373,98.494 99.02,99.09 99.76,99.574 L102,104.833 L101.956,104.858" id="Fill-27" fill="#B1815F"></path>
                <path d="M99.76,99.574 C99.02,99.09 98.373,98.494 97.882,97.813 C96.736,96.224 96.49,94.19 96.28,92.243 C96.24,91.874 96.202,91.504 96.165,91.135 L99.76,99.574" id="Fill-28" fill="#B1815F"></path>
                <path d="M96.356,107.959 C96.397,107.735 96.472,107.524 96.578,107.325 C97.523,105.538 99.653,105.062 101.777,104.957 L96.356,107.959" id="Fill-29" fill="#8B4745"></path>
                <polyline id="Fill-30" fill="#E9E9E6" points="94.917 88.203 102 104.833 90.5 110 91.398 88.203 94.917 88.203"></polyline>
                <path d="M116.5,112.587 L108.248,107.639 C107.98,106.541 107.618,105.659 107.215,105.331 C106.814,105.003 106.265,104.962 105.74,104.962 C105.682,104.962 105.625,104.963 105.567,104.963 C105.497,104.964 105.424,104.965 105.351,104.965 C104.999,104.965 104.617,104.956 104.214,104.948 C104.06,104.944 103.904,104.941 103.745,104.938 L103.632,104.87 C103.702,104.859 103.771,104.845 103.84,104.83 C105.3,104.51 106.4,103.34 107.32,102.16 C108.79,100.26 110.21,97.97 111.07,95.72 C111.5,94.6 111.46,93.39 111.87,92.26 C112.25,91.21 113,90.34 113.36,89.27 C113.48,88.921 113.54,88.562 113.559,88.203 L115.608,88.203 L116.5,112.587" id="Fill-31" fill="#BABCB9"></path>
                <path d="M103.632,104.87 L103.57,104.833 L105.668,100.737 C106.479,100.529 107.205,100.149 107.844,99.65 C110.763,97.376 110.944,93.661 111.049,90.234 L112.09,88.203 L113.559,88.203 C113.54,88.562 113.48,88.921 113.36,89.27 C113,90.34 112.25,91.21 111.87,92.26 C111.46,93.39 111.5,94.6 111.07,95.72 C110.21,97.97 108.79,100.26 107.32,102.16 C106.4,103.34 105.3,104.51 103.84,104.83 C103.771,104.845 103.702,104.859 103.632,104.87" id="Fill-32" fill="#B1815F"></path>
                <path d="M105.668,100.737 L111.049,90.234 C110.944,93.661 110.763,97.376 107.844,99.65 C107.205,100.149 106.479,100.529 105.668,100.737" id="Fill-33" fill="#B1815F"></path>
                <path d="M108.248,107.639 L103.745,104.938 C103.904,104.941 104.06,104.944 104.214,104.948 C104.617,104.956 104.999,104.965 105.351,104.965 C105.424,104.965 105.497,104.964 105.567,104.963 C105.625,104.963 105.682,104.962 105.74,104.962 C106.265,104.962 106.814,105.003 107.215,105.331 C107.618,105.659 107.98,106.541 108.248,107.639" id="Fill-34" fill="#8B4745"></path>
                <polyline id="Fill-35" fill="#E9E9E6" points="112.09 88.203 103.57 104.833 115.069 110 115.608 88.203 112.09 88.203"></polyline>
                <path d="M136.607,40.538 C137.122,41.823 137.199,43.21 137.111,44.569 C136.938,47.246 136.137,49.891 134.77,52.296 C134.092,53.49 133.141,54.717 131.663,55.079 C130.136,55.452 128.459,54.735 127.507,53.636 C124.981,50.723 125.541,44.863 127.141,41.634 C127.82,40.263 129.289,38.072 130.83,37.381 C133.38,36.236 135.849,38.645 136.607,40.538" id="Fill-37" fill="#F1AE7D"></path>
                <path d="M70.532,40.538 C70.017,41.823 69.94,43.21 70.028,44.569 C70.201,47.246 71.003,49.891 72.37,52.296 C73.048,53.49 73.998,54.717 75.477,55.079 C77.003,55.452 78.68,54.735 79.632,53.636 C82.157,50.723 81.599,44.863 79.999,41.634 C79.319,40.263 77.85,38.072 76.31,37.381 C73.759,36.236 71.291,38.645 70.532,40.538" id="Fill-38" fill="#F1AE7D"></path>
                <path d="M129.263,40.377 C129.311,37.589 129.269,34.814 129.253,31.989 C129.235,28.699 129.82,24.36 127.981,21.425 C127.859,21.275 127.764,21.109 127.657,20.971 C126.171,18.957 123.763,18.478 121.436,18.153 C118.658,17.748 115.963,16.919 113.165,16.583 C109.824,16.184 106.451,15.986 103.079,16.001 C99.706,15.986 96.333,16.184 92.992,16.583 C90.194,16.919 87.499,17.748 84.721,18.153 C80.72,18.712 77.41,20.689 76.583,24.971 C76.131,27.316 76.671,30.148 76.679,32.541 C76.697,37.973 76.746,43.164 77.388,48.574 C77.935,53.184 78.825,57.752 80.018,62.238 C81.777,68.855 84.267,74.658 90.562,77.986 C92.536,79.026 94.649,79.863 96.829,80.411 C97.044,80.465 97.261,80.508 97.477,80.556 C99.314,81.022 101.354,81.139 103.079,81.132 C104.804,81.139 106.843,81.022 108.681,80.556 C108.896,80.508 109.113,80.465 109.328,80.411 C111.508,79.863 113.621,79.026 115.596,77.986 C118.232,76.597 120.123,75.093 121.815,72.696 C125.876,66.945 127.944,59.902 128.771,52.921 C129.224,49.099 129.145,45.23 129.242,41.384 C129.25,41.048 129.258,40.713 129.263,40.377" id="Fill-39" fill="#F1AE7D"></path>
                <path d="M100.771,47.851 C100.371,50.329 99.136,52.687 97.775,54.748 C97.263,55.524 96.708,56.295 96.441,57.186 C96.174,58.076 96.25,59.134 96.889,59.81 C97.299,60.243 97.881,60.464 98.444,60.664 C99.986,61.21 101.567,61.704 103.199,61.811 C104.832,61.917 106.537,61.605 107.872,60.66 C106.945,62.183 105.309,63.191 103.576,63.609 C101.843,64.027 100.017,63.901 98.272,63.531 C96.229,63.098 93.951,61.979 93.638,59.914 C93.364,58.107 94.723,56.521 95.793,55.042 C98.939,50.693 99.998,45.254 99.383,39.987 C99.527,41.225 100.3,42.521 100.491,43.818 C100.653,44.918 100.964,45.955 100.868,47.068 C100.845,47.33 100.813,47.591 100.771,47.851" id="Fill-40" fill="#E9876C"></path>
                <path d="M92.024,43.57 C90.382,47.813 86.571,46.898 84.453,43.66 C83.843,42.726 82.418,43.624 83.036,44.568 C84.352,46.58 86.125,48.323 88.509,48.377 C90.845,48.43 92.563,46.747 93.441,44.479 C93.849,43.425 92.436,42.506 92.024,43.57" id="Fill-41" fill="#814243"></path>
                <path d="M111.278,43.57 C112.92,47.813 116.731,46.898 118.849,43.66 C119.459,42.726 120.884,43.624 120.267,44.568 C118.951,46.58 117.177,48.323 114.793,48.377 C112.457,48.43 110.738,46.747 109.861,44.479 C109.453,43.425 110.866,42.506 111.278,43.57" id="Fill-42" fill="#814243"></path>
                <path d="M96.624,69.043 C98.595,70.57 101.116,71.371 103.607,71.262 C105.059,71.198 108.472,70.967 108.771,69.182 C108.881,68.531 108.711,67.869 108.532,67.233 C110.161,68.005 111.176,69.903 110.914,71.687 C110.726,70.918 110.465,70.057 109.756,69.707 C109.664,69.662 109.56,69.626 109.46,69.651 C109.367,69.674 109.295,69.745 109.228,69.813 C108.149,70.908 107.141,71.77 105.67,72.323 C103.512,73.137 100.818,73.183 98.599,72.585 C96.521,72.026 94.588,70.71 93.602,68.797 C95.378,68.779 97.071,67.855 98.257,66.534 C99.603,65.037 99.859,63.253 100.713,61.568 C101.114,62.598 100.79,64.083 100.38,65.077 C100.149,65.635 97.449,69.682 96.624,69.043" id="Fill-43" fill="#E9876C"></path>
                <path d="M90.314,32.473 C87.446,32.526 84.741,33.37 82.373,34.994 C81.423,35.646 82.323,37.207 83.282,36.549 C85.401,35.096 87.74,34.322 90.314,34.273 C91.472,34.252 91.476,32.451 90.314,32.473" id="Fill-44" fill="#814243"></path>
                <path d="M112.899,32.473 C115.768,32.526 118.472,33.37 120.84,34.994 C121.79,35.646 120.89,37.207 119.931,36.549 C117.812,35.096 115.473,34.322 112.899,34.273 C111.741,34.252 111.737,32.451 112.899,32.473" id="Fill-45" fill="#814243"></path>
                <path d="M79.64,23.41 C78.63,26.41 78.4,29.43 78.37,32.48 C78.34,34.36 78.4,36.25 78.4,38.16 C78.39,43.89 78.05,49.52 78.5,55.26 C75.82,46.86 73.74,38.27 72.29,29.56 C72.16,28.86 72.05,28.17 71.94,27.47 C71.37,23.83 69.71,20.01 72.92,17.39 C75.19,15.54 79.29,13.77 80.56,17.69 C81.17,19.56 80.27,21.54 79.64,23.41" id="Fill-46" fill="#814243"></path>
                <path d="M79.64,23.41 C78.63,26.41 78.4,29.43 78.37,32.48 C78.02,32.44 77.67,32.38 77.33,32.3 C75.45,31.86 73.81,30.79 72.29,29.56 C72.16,28.86 72.05,28.17 71.94,27.47 C71.37,23.83 69.71,20.01 72.92,17.39 C75.19,15.54 79.29,13.77 80.56,17.69 C81.17,19.56 80.27,21.54 79.64,23.41" id="Fill-47" fill="#6D3738"></path>
                <path d="M123.618,8.269 C122.649,7.19 121.868,5.742 120.813,4.834 C119.138,3.391 117.161,2.337 115.084,1.599 C110.792,0.073 106.031,-0.097 101.558,0.593 C93.769,1.795 86.472,5.167 78.755,6.766 C71.711,8.226 64.357,8.176 57.333,6.622 C59.045,11.291 60.915,16.189 64.754,19.35 C66.949,21.157 70.682,22.619 73.394,23.38 C85.51,26.78 98.284,28.124 110.926,27.126 C116.802,26.663 123.231,26.247 126.5,32.045 C127.711,34.193 128.325,36.625 128.748,39.053 C129.634,44.129 129.741,49.339 129.064,54.447 C131.75,43.189 137.083,30.99 134.955,19.215 C134.202,15.046 131.78,10.538 127.6,9.854 C126.622,9.695 125.563,9.747 124.72,9.227 C124.317,8.978 123.956,8.646 123.618,8.269" id="Fill-48" fill="#814243"></path>
                <path d="M111.984,4.93 C114.664,5.379 117.235,6.461 119.431,8.062 C116.787,7.76 114.039,8.486 111.891,10.055 C114.507,10.531 117.059,11.364 119.451,12.524 C115.67,14.019 113.488,17.901 111.605,21.505 C114.104,19.304 116.75,17.271 119.522,15.427 C119.937,15.151 120.419,14.868 120.901,14.99 C121.2,15.066 121.438,15.287 121.652,15.508 C123.124,17.017 124.204,18.905 124.759,20.937 C125.248,18.801 125.089,16.52 124.31,14.472 C126.417,15.982 128.196,17.948 129.491,20.195 C129.419,18.364 129.333,16.488 128.63,14.794 C127.22,11.397 125.061,12.161 122.797,10.316 C122.283,9.897 122.073,9.223 121.799,8.62 C120.06,4.803 115.647,4.994 111.984,4.93" id="Fill-49" fill="#6D3738"></path>
                <path d="M87.404,9.457 C86.878,10.337 86.71,11.24 87.101,12.116 C87.5,13.011 88.37,13.617 89.284,13.971 C91.494,14.826 93.985,14.432 96.259,13.766 C98.99,12.966 107.359,10.612 107.538,7.085 C107.774,2.444 100.388,2.322 97.426,3.081 C95.34,3.616 89.225,6.406 87.404,9.457" id="Fill-50" fill="#9E564E"></path>
            </g>
        </g>
    </g>
</svg>