<?xml version="1.0" encoding="UTF-8"?>
<svg width="651px" height="536px" viewBox="0 0 651 536" version="1.1" xmlns="http://www.w3.org/2000/svg" xmlns:xlink="http://www.w3.org/1999/xlink">
    <!-- Generator: Sketch 43.2 (39069) - http://www.bohemiancoding.com/sketch -->
    <title>production-line</title>
    <desc>Created with Sketch.</desc>
    <defs></defs>
    <g id="Page-1" stroke="none" stroke-width="1" fill="none" fill-rule="evenodd">
        <g id="production-line">
            <polyline id="Fill-661" fill="#28292B" points="259.04 223.569 232.07 190.452 115.45 212.215 164.44 39.171 183.52 44.633 143.29 186.728 239.98 168.686 274.4 210.925 259.04 223.569"></polyline>
            <polygon id="Fill-662" fill="#0F70D1" points="524.39 515.013 630.9 515.013 630.9 336.493 524.39 336.493"></polygon>
            <polyline id="Fill-663" fill="#0F70D1" points="617.11 378.222 617.11 219.465 590.11 175.596 550.63 206.932 550.63 378.222 617.11 378.222"></polyline>
            <path d="M542.39,363.62 L192.24,363.62 C162.42,363.62 138.26,387.923 138.26,417.905 C138.26,447.886 162.42,472.189 192.24,472.189 L542.39,472.189 C572.21,472.189 596.38,447.886 596.38,417.905 C596.38,387.923 572.21,363.62 542.39,363.62" id="Fill-664" fill="#2F302D"></path>
            <polyline id="Fill-665" fill="#C4C3B8" points="427.93 189.364 566.11 169.373 565.03 161.825 426.84 181.815 427.93 189.364"></polyline>
            <polyline id="Fill-666" fill="#0F70D1" points="590.11 175.596 551.229 113.746 396.38 175.596 404.67 193.002 532.479 148.971 560.55 199.065 590.11 175.596"></polyline>
            <path d="M522.36,150.627 C522.36,158.61 528.8,165.083 536.74,165.083 C544.669,165.083 551.11,158.61 551.11,150.627 C551.11,142.647 544.669,136.177 536.74,136.177 C528.8,136.177 522.36,142.647 522.36,150.627" id="Fill-667" fill="#2F302D"></path>
            <path d="M529.91,150.627 C529.91,154.417 532.97,157.492 536.74,157.492 C540.5,157.492 543.56,154.417 543.56,150.627 C543.56,146.839 540.5,143.766 536.74,143.766 C532.97,143.766 529.91,146.839 529.91,150.627" id="Fill-668" fill="#5A5B59"></path>
            <polygon id="Fill-669" fill="#343230" points="394.83 227.035 429.76 227.035 429.76 176.902 394.83 176.902"></polygon>
            <path d="M448.39,264.985 C445.58,293.711 446.44,284.87 444.8,301.837 L453.319,300.358 C456.12,285.422 454.32,294.993 461.21,258.372 L461.22,258.283 L444.8,242.03 L431.49,234.808 L423.21,242.03 C444.84,261.747 439.04,256.451 448.39,264.985" id="Fill-670" fill="#0BD8D8"></path>
            <polyline id="Fill-671" fill="#0BD8D8" points="379.78 242.03 363.36 258.283 371.27 300.358 379.78 301.835 376.19 264.987 401.38 242.03 393.1 234.806 379.78 242.03"></polyline>
            <path d="M405.66,222.105 C408.88,226.288 415.7,226.293 418.93,222.109 C423.24,216.526 430.37,213.253 438.18,214.473 C462.5,218.298 459.83,254.963 434.92,254.963 C428.39,254.963 422.59,251.849 418.89,247.021 C415.59,242.711 408.859,242.882 405.69,247.021 C401.99,251.849 396.19,254.963 389.66,254.963 C371.43,254.963 365.08,235.25 372.6,223.225 C379.51,212.17 396.859,210.712 405.66,222.105" id="Fill-672" fill="#5A5B59"></path>
            <path d="M423.76,234.806 C423.76,241.662 429.29,247.22 436.11,247.22 C442.92,247.22 448.45,241.662 448.45,234.806 C448.45,227.949 442.92,222.391 436.11,222.391 C429.29,222.391 423.76,227.949 423.76,234.806" id="Fill-673" fill="#343230"></path>
            <path d="M376.33,234.806 C376.33,241.662 381.86,247.22 388.669,247.22 C395.5,247.22 401.03,241.662 401.03,234.806 C401.03,227.949 395.5,222.391 388.669,222.391 C381.86,222.391 376.33,227.949 376.33,234.806" id="Fill-674" fill="#343230"></path>
            <path d="M390.05,172.991 C390.05,185.339 400.01,195.351 412.29,195.351 C424.58,195.351 434.53,185.339 434.53,172.991 C434.53,160.641 424.58,150.627 412.29,150.627 C400.01,150.627 390.05,160.641 390.05,172.991" id="Fill-675" fill="#2F302D"></path>
            <path d="M401.73,172.991 C401.73,178.854 406.46,183.607 412.29,183.607 C418.12,183.607 422.85,178.854 422.85,172.991 C422.85,167.125 418.12,162.371 412.29,162.371 C406.46,162.371 401.73,167.125 401.73,172.991" id="Fill-676" fill="#5A5B59"></path>
            <path d="M224.12,417.905 C224.12,435.608 209.85,449.958 192.24,449.958 C174.64,449.958 160.37,435.608 160.37,417.905 C160.37,400.203 174.64,385.852 192.24,385.852 C209.85,385.852 224.12,400.203 224.12,417.905" id="Fill-677" fill="#5A5B59"></path>
            <path d="M208.68,417.905 C208.68,427.033 201.32,434.433 192.24,434.433 C183.16,434.433 175.8,427.033 175.8,417.905 C175.8,408.776 183.16,401.377 192.24,401.377 C201.32,401.377 208.68,408.776 208.68,417.905" id="Fill-678" fill="#0BD8D8"></path>
            <path d="M294.15,417.905 C294.15,435.608 279.88,449.958 262.27,449.958 C244.67,449.958 230.4,435.608 230.4,417.905 C230.4,400.203 244.67,385.852 262.27,385.852 C279.88,385.852 294.15,400.203 294.15,417.905" id="Fill-679" fill="#5A5B59"></path>
            <path d="M364.18,417.905 C364.18,435.608 349.91,449.958 332.3,449.958 C314.7,449.958 300.43,435.608 300.43,417.905 C300.43,400.203 314.7,385.852 332.3,385.852 C349.91,385.852 364.18,400.203 364.18,417.905" id="Fill-680" fill="#5A5B59"></path>
            <path d="M434.21,417.905 C434.21,435.608 419.94,449.958 402.33,449.958 C384.729,449.958 370.45,435.608 370.45,417.905 C370.45,400.203 384.729,385.852 402.33,385.852 C419.94,385.852 434.21,400.203 434.21,417.905" id="Fill-681" fill="#5A5B59"></path>
            <path d="M574.27,417.905 C574.27,435.608 559.99,449.958 542.39,449.958 C524.78,449.958 510.509,435.608 510.509,417.905 C510.509,400.203 524.78,385.852 542.39,385.852 C559.99,385.852 574.27,400.203 574.27,417.905" id="Fill-682" fill="#5A5B59"></path>
            <path d="M173.98,65.057 C209.42,65.057 238.16,36.162 238.16,0.52 L109.8,0.52 C109.8,36.162 138.53,65.057 173.98,65.057" id="Fill-683" fill="#0F70D1"></path>
            <path d="M173.98,22.729 C186.18,22.729 196.07,12.786 196.07,0.52 L151.89,0.52 C151.89,12.786 161.78,22.729 173.98,22.729" id="Fill-684" fill="#0BD8D8"></path>
            <path d="M158.77,199.471 C158.77,215.798 145.61,229.033 129.37,229.033 C113.13,229.033 99.97,215.798 99.97,199.471 C99.97,183.144 113.13,169.909 129.37,169.909 C145.61,169.909 158.77,183.144 158.77,199.471" id="Fill-685" fill="#0F70D1"></path>
            <path d="M158.77,199.471 C158.77,215.798 145.61,229.033 129.37,229.033 C113.13,229.033 99.97,215.798 99.97,199.471 C99.97,183.144 113.13,169.909 129.37,169.909 C145.61,169.909 158.77,183.144 158.77,199.471" id="Fill-686" fill="#0F70D1"></path>
            <path d="M143.89,199.471 C143.89,207.535 137.39,214.072 129.37,214.072 C121.35,214.072 114.85,207.535 114.85,199.471 C114.85,191.407 121.35,184.871 129.37,184.871 C137.39,184.871 143.89,191.407 143.89,199.471" id="Fill-687" fill="#2F302D"></path>
            <polygon id="Fill-688" fill="#96794F" points="220.28 367.422 327.13 367.422 327.13 287.678 220.28 287.678"></polygon>
            <polygon id="Fill-689" fill="#63471F" points="266.61 308.016 280.81 308.016 280.81 287.678 266.61 287.678"></polygon>
            <polygon id="Fill-690" fill="#765729" points="327.13 367.422 364.68 367.422 364.68 287.678 327.13 287.678"></polygon>
            <polygon id="Fill-691" fill="#CACDCE" points="333.5 360.72 358.31 360.72 358.31 343.263 333.5 343.263"></polygon>
            <path d="M504.24,417.905 C504.24,435.608 489.96,449.958 472.36,449.958 C454.75,449.958 440.48,435.608 440.48,417.905 C440.48,400.203 454.75,385.852 472.36,385.852 C489.96,385.852 504.24,400.203 504.24,417.905" id="Fill-692" fill="#5A5B59"></path>
            <path d="M278.71,417.905 C278.71,427.033 271.35,434.433 262.27,434.433 C253.2,434.433 245.83,427.033 245.83,417.905 C245.83,408.776 253.2,401.377 262.27,401.377 C271.35,401.377 278.71,408.776 278.71,417.905" id="Fill-693" fill="#0BD8D8"></path>
            <path d="M348.74,417.905 C348.74,427.033 341.38,434.433 332.3,434.433 C323.22,434.433 315.87,427.033 315.87,417.905 C315.87,408.776 323.22,401.377 332.3,401.377 C341.38,401.377 348.74,408.776 348.74,417.905" id="Fill-694" fill="#0BD8D8"></path>
            <path d="M419.93,417.905 C419.93,427.033 412.57,434.433 403.49,434.433 C394.41,434.433 387.06,427.033 387.06,417.905 C387.06,408.776 394.41,401.377 403.49,401.377 C412.57,401.377 419.93,408.776 419.93,417.905" id="Fill-695" fill="#0BD8D8"></path>
            <path d="M488.79,417.905 C488.79,427.033 481.44,434.433 472.36,434.433 C463.28,434.433 455.92,427.033 455.92,417.905 C455.92,408.776 463.28,401.377 472.36,401.377 C481.44,401.377 488.79,408.776 488.79,417.905" id="Fill-696" fill="#0BD8D8"></path>
            <path d="M558.82,417.905 C558.82,427.033 551.47,434.433 542.39,434.433 C533.31,434.433 525.96,427.033 525.96,417.905 C525.96,408.776 533.31,401.377 542.39,401.377 C551.47,401.377 558.82,408.776 558.82,417.905" id="Fill-697" fill="#0BD8D8"></path>
            <polygon id="Fill-698" fill="#343230" points="181.97 369.126 202.51 369.126 202.51 352.312 181.97 352.312"></polygon>
            <polyline id="Fill-699" fill="#343230" points="165.2 376.111 150.68 390.718 138.85 378.828 153.38 364.219 165.2 376.111"></polyline>
            <polygon id="Fill-700" fill="#343230" points="127.01 428.232 143.73 428.232 143.73 407.576 127.01 407.576"></polygon>
            <polyline id="Fill-701" fill="#343230" points="150.68 445.093 165.2 459.7 153.38 471.591 138.85 456.981 150.68 445.093"></polyline>
            <polyline id="Fill-702" fill="#343230" points="181.97 466.682 202.51 466.684 202.52 483.498 181.97 483.497 181.97 466.682"></polyline>
            <polygon id="Fill-703" fill="#343230" points="223.49 369.126 244.03 369.126 244.03 352.312 223.49 352.312"></polygon>
            <polyline id="Fill-704" fill="#343230" points="223.49 466.682 244.03 466.684 244.03 483.498 223.49 483.497 223.49 466.682"></polyline>
            <polygon id="Fill-705" fill="#343230" points="265 369.126 285.55 369.126 285.55 352.312 265 352.312"></polygon>
            <polyline id="Fill-706" fill="#343230" points="265 466.682 285.55 466.684 285.55 483.498 265 483.497 265 466.682"></polyline>
            <polygon id="Fill-707" fill="#343230" points="306.52 369.126 327.07 369.126 327.07 352.312 306.52 352.312"></polygon>
            <polyline id="Fill-708" fill="#343230" points="306.52 466.682 327.07 466.684 327.07 483.498 306.52 483.497 306.52 466.682"></polyline>
            <polygon id="Fill-709" fill="#343230" points="348.04 369.126 368.591 369.126 368.591 352.312 348.04 352.312"></polygon>
            <polyline id="Fill-710" fill="#343230" points="348.04 466.682 368.59 466.684 368.59 483.498 348.04 483.497 348.04 466.682"></polyline>
            <polygon id="Fill-711" fill="#343230" points="389.56 369.126 410.11 369.126 410.11 352.312 389.56 352.312"></polygon>
            <polyline id="Fill-712" fill="#343230" points="389.56 466.682 410.11 466.684 410.11 483.498 389.56 483.497 389.56 466.682"></polyline>
            <polygon id="Fill-713" fill="#343230" points="431.07 369.126 451.62 369.126 451.62 352.312 431.07 352.312"></polygon>
            <polyline id="Fill-714" fill="#343230" points="431.08 466.682 451.62 466.684 451.62 483.498 431.08 483.497 431.08 466.682"></polyline>
            <polygon id="Fill-715" fill="#343230" points="472.6 369.126 493.13 369.126 493.13 352.312 472.6 352.312"></polygon>
            <polyline id="Fill-716" fill="#343230" points="472.6 466.682 493.13 466.684 493.14 483.498 472.6 483.497 472.6 466.682"></polyline>
            <polygon id="Fill-717" fill="#343230" points="514.11 369.126 534.66 369.126 534.66 352.312 514.11 352.312"></polygon>
            <polyline id="Fill-718" fill="#343230" points="514.11 466.682 534.66 466.684 534.66 483.498 514.11 483.497 514.11 466.682"></polyline>
            <polygon id="Fill-719" fill="#FFC757" points="45.05 515.013 169.84 515.013 169.84 421.88 45.05 421.88"></polygon>
            <polygon id="Fill-720" fill="#63471F" points="99.15 445.631 115.74 445.631 115.74 421.88 99.15 421.88"></polygon>
            <polygon id="Fill-721" fill="#FFB000" points="169.84 515.013 213.7 515.013 213.7 421.88 169.84 421.88"></polygon>
            <polygon id="Fill-722" fill="#CACDCE" points="177.28 507.186 206.26 507.186 206.26 486.798 177.28 486.798"></polygon>
            <polygon id="Fill-723" fill="#96794F" points="70.39 421.88 155.11 421.88 155.11 358.659 70.39 358.659"></polygon>
            <polygon id="Fill-724" fill="#63471F" points="107.12 374.783 118.38 374.783 118.38 358.659 107.12 358.659"></polygon>
            <polygon id="Fill-725" fill="#765729" points="155.11 421.88 184.88 421.88 184.88 358.659 155.11 358.659"></polygon>
            <polygon id="Fill-726" fill="#CACDCE" points="160.16 416.566 179.83 416.566 179.83 402.727 160.16 402.727"></polygon>
            <polyline id="Fill-727" fill="#EB3207" points="278.71 417.905 245.83 417.905 233.76 449.958 233.76 515.013 290.78 515.013 290.78 449.958 278.71 417.905"></polyline>
            <polyline id="Fill-728" fill="#EB3207" points="488.8 417.905 455.92 417.905 443.85 449.958 443.85 515.013 500.87 515.013 500.87 449.958 488.8 417.905"></polyline>
            <polyline id="Fill-729" fill="#0BD8D8" points="309.97 261.754 301.6 268.647 251.06 216.124 268.71 201.585 309.97 261.754"></polyline>
            <path d="M640.3,535.566 L10.71,535.566 C-2.9,535.566 -2.91,515.013 10.71,515.013 L640.3,515.013 C653.89,515.013 653.91,535.566 640.3,535.566" id="Fill-730" fill="#C4C3B8"></path>
        </g>
    </g>
</svg>