<?xml version="1.0" encoding="utf-8"?>
<!-- Generator: Adobe Illustrator 20.0.0, SVG Export Plug-In . SVG Version: 6.00 Build 0)  -->
<svg version="1.1" id="adaptive-design" xmlns="http://www.w3.org/2000/svg" xmlns:xlink="http://www.w3.org/1999/xlink" x="0px"
	 y="0px" viewBox="0 0 575.3046 1010" enable-background="new 0 0 575.3046 1010" xml:space="preserve">
<g id="adaptive-design-adaptive-design">
	<g>
		<path fill="#BDC3C7" d="M20.1997,120.4897V77.1108c0-31.3652,25.5361-56.9111,56.8618-56.9111h421.1328
			c31.375,0,56.9111,25.5459,56.9111,56.9111v43.3789H20.1997z"/>
	</g>
	<g>
		<path fill="#BDC3C7" d="M77.0615,989.7998c-31.3257,0-56.8618-25.5264-56.8618-56.9111V789.1611h534.9057v143.7276
			c0,31.3847-25.5361,56.9111-56.9111,56.9111H77.0615z"/>
	</g>
	<g>
		<polygon fill="#BDBF6D" points="20.1997,789.1611 20.1997,120.4897 555.1054,120.4897 555.1054,220.7993 555.1054,538.4365 
			555.1054,789.1611 		"/>
	</g>
	<g>
		<g>
			<path fill="#656872" d="M498.1943,1010H77.0615C34.5708,1010,0,975.3994,0,932.8887V77.1108C0,34.6001,34.5708,0,77.0615,0
				h421.1328c42.5205,0,77.1103,34.6001,77.1103,77.1108v855.7778C575.3046,975.3994,540.7148,1010,498.1943,1010L498.1943,1010z
				 M77.0615,40.3999c-20.2197,0-36.6616,16.4717-36.6616,36.7109v855.7778c0,20.2393,16.4419,36.7109,36.6616,36.7109h421.1328
				c20.2393,0,36.7109-16.4717,36.7109-36.7109V77.1108c0-20.2392-16.4716-36.7109-36.7109-36.7109H77.0615L77.0615,40.3999z"/>
		</g>
		<g>
			<path fill="#656872" d="M555.1054,809.3613H20.1997C9.0444,809.3613,0,800.3262,0,789.1611
				c0-11.165,9.0444-20.2002,20.1997-20.2002h534.9057c11.1553,0,20.1992,9.0352,20.1992,20.2002
				C575.3046,800.3262,566.2607,809.3613,555.1054,809.3613L555.1054,809.3613z"/>
		</g>
		<g>
			<path fill="#656872" d="M555.1054,140.6895H20.1997C9.0444,140.6895,0,131.6548,0,120.4897
				c0-11.1655,9.0444-20.2001,20.1997-20.2001h534.9057c11.1553,0,20.1992,9.0346,20.1992,20.2001
				C575.3046,131.6548,566.2607,140.6895,555.1054,140.6895L555.1054,140.6895z"/>
		</g>
	</g>
	<g>
		<path fill="none" d="M287.6523,70.3643"/>
	</g>
	<g>
		<path fill="#656872" d="M322.2827,889.5098c0,19.1346-15.4956,34.6406-34.6304,34.6406c-19.105,0-34.6201-15.5059-34.6201-34.6406
			c0-19.1348,15.5151-34.6592,34.6201-34.6592C306.7871,854.8506,322.2827,870.375,322.2827,889.5098z"/>
	</g>
	<g>
		<path fill="#FFCA70" d="M165.7324,197.502c-33.5352,0-60.8169,27.144-60.8169,60.7578c0,33.5351,27.2817,60.7778,60.8169,60.7778
			c33.5351,0,60.7578-27.2427,60.7578-60.7778C226.4902,224.646,199.2675,197.502,165.7324,197.502z"/>
	</g>
	<g>
		<g>
			<rect x="290.9072" y="268.439" fill="#656872" width="145.3252" height="40.3999"/>
		</g>
		<g>
			<rect x="290.9072" y="207.6812" fill="#656872" width="196.9502" height="40.3999"/>
		</g>
	</g>
	<g>
		<path fill="#ED7161" d="M165.7324,399.502c-33.5352,0-60.8169,27.144-60.8169,60.7578c0,33.5351,27.2817,60.7773,60.8169,60.7773
			c33.5351,0,60.7578-27.2422,60.7578-60.7773C226.4902,426.646,199.2675,399.502,165.7324,399.502z"/>
	</g>
	<g>
		<g>
			<rect x="290.9072" y="470.4395" fill="#656872" width="145.3252" height="40.3994"/>
		</g>
		<g>
			<rect x="290.9072" y="409.6812" fill="#656872" width="196.9502" height="40.3999"/>
		</g>
	</g>
	<g>
		<path fill="#ECF0F1" d="M165.7324,601.502c-33.5352,0-60.8169,27.1445-60.8169,60.7578c0,33.5351,27.2817,60.7773,60.8169,60.7773
			c33.5351,0,60.7578-27.2422,60.7578-60.7773C226.4902,628.6465,199.2675,601.502,165.7324,601.502z"/>
	</g>
	<g>
		<g>
			<rect x="290.9072" y="672.4395" fill="#656872" width="145.3252" height="40.3994"/>
		</g>
		<g>
			<rect x="290.9072" y="611.6816" fill="#656872" width="196.9502" height="40.3995"/>
		</g>
	</g>
</g>
</svg>
