<?xml version="1.0" encoding="utf-8"?>
<!-- Generator: Adobe Illustrator 20.0.0, SVG Export Plug-In . SVG Version: 6.00 Build 0)  -->
<svg version="1.1" id="analytics" xmlns="http://www.w3.org/2000/svg" xmlns:xlink="http://www.w3.org/1999/xlink" x="0px" y="0px"
	 viewBox="0 0 1010 927.5825" enable-background="new 0 0 1010 927.5825" xml:space="preserve">
<g id="analytics-analytics">
	<g>
		<path fill="#656872" d="M67.6821,927.5825c-11.1552,0-20.2002-9.0351-20.2002-20.2002V20.2002C47.4819,9.0347,56.5269,0,67.6821,0
			c11.1553,0,20.1997,9.0347,20.1997,20.2002v887.1821C87.8818,918.5474,78.8374,927.5825,67.6821,927.5825L67.6821,927.5825z"/>
	</g>
	<g>
		<path fill="#656872" d="M989.8008,896.9868H37.0859c-11.1552,0-20.1997-9.0351-20.1997-20.2002
			c0-11.1455,9.0445-20.2002,20.1997-20.2002h952.7149c11.1543,0,20.1992,9.0547,20.1992,20.2002
			C1010,887.9517,1000.9551,896.9868,989.8008,896.9868L989.8008,896.9868z"/>
	</g>
	<g>
		<path fill="#656872" d="M110.0742,804.4497h-89.874C9.0449,804.4497,0,795.4145,0,784.2495
			c0-11.1455,9.0449-20.2003,20.2002-20.2003h89.874c11.1558,0,20.2002,9.0547,20.2002,20.2003
			C130.2744,795.4145,121.23,804.4497,110.0742,804.4497L110.0742,804.4497z"/>
	</g>
	<g>
		<path fill="#656872" d="M110.0742,716.7642h-89.874C9.0449,716.7642,0,707.73,0,696.5649
			c0-11.1455,9.0449-20.2002,20.2002-20.2002h89.874c11.1558,0,20.2002,9.0547,20.2002,20.2002
			C130.2744,707.73,121.23,716.7642,110.0742,716.7642L110.0742,716.7642z"/>
	</g>
	<g>
		<path fill="#656872" d="M110.0742,629.0806h-89.874C9.0449,629.0806,0,620.0454,0,608.8804
			c0-11.1455,9.0449-20.2002,20.2002-20.2002h89.874c11.1558,0,20.2002,9.0547,20.2002,20.2002
			C130.2744,620.0454,121.23,629.0806,110.0742,629.0806L110.0742,629.0806z"/>
	</g>
	<g>
		<path fill="#656872" d="M110.0742,541.4351h-89.874C9.0449,541.4351,0,532.4009,0,521.2349
			c0-11.1455,9.0449-20.1993,20.2002-20.1993h89.874c11.1558,0,20.2002,9.0538,20.2002,20.1993
			C130.2744,532.4009,121.23,541.4351,110.0742,541.4351L110.0742,541.4351z"/>
	</g>
	<g>
		<path fill="#656872" d="M110.0742,453.731h-89.874C9.0449,453.731,0,444.6958,0,433.5308
			c0-11.1456,9.0449-20.2002,20.2002-20.2002h89.874c11.1558,0,20.2002,9.0546,20.2002,20.2002
			C130.2744,444.6958,121.23,453.731,110.0742,453.731L110.0742,453.731z"/>
	</g>
	<g>
		<path fill="#656872" d="M110.0742,366.0464h-89.874C9.0449,366.0464,0,357.0112,0,345.8462
			c0-11.1455,9.0449-20.2002,20.2002-20.2002h89.874c11.1558,0,20.2002,9.0547,20.2002,20.2002
			C130.2744,357.0112,121.23,366.0464,110.0742,366.0464L110.0742,366.0464z"/>
	</g>
	<g>
		<path fill="#656872" d="M110.0742,278.3813h-89.874C9.0449,278.3813,0,269.3267,0,258.1811
			c0-11.165,9.0449-20.1997,20.2002-20.1997h89.874c11.1558,0,20.2002,9.0347,20.2002,20.1997
			C130.2744,269.3267,121.23,278.3813,110.0742,278.3813L110.0742,278.3813z"/>
	</g>
	<g>
		<path fill="#656872" d="M110.0742,190.6968h-89.874C9.0449,190.6968,0,181.6421,0,170.4966
			c0-11.1651,9.0449-20.1997,20.2002-20.1997h89.874c11.1558,0,20.2002,9.0346,20.2002,20.1997
			C130.2744,181.6421,121.23,190.6968,110.0742,190.6968L110.0742,190.6968z"/>
	</g>
	<g>
		<path fill="#656872" d="M110.0742,103.0122h-89.874C9.0449,103.0122,0,93.9575,0,82.812c0-11.165,9.0449-20.1997,20.2002-20.1997
			h89.874c11.1558,0,20.2002,9.0347,20.2002,20.1997C130.2744,93.9575,121.23,103.0122,110.0742,103.0122L110.0742,103.0122z"/>
	</g>
	<g>
		<g>
			<path fill="#FFCA70" d="M332.2349,624.7407c0,42.2735-34.2452,76.499-76.46,76.499c-42.2544,0-76.4995-34.2255-76.4995-76.499
				c0-42.1953,34.2451-76.4609,76.4995-76.4609C297.9897,548.2798,332.2349,582.5454,332.2349,624.7407z"/>
			<path fill="#656872" d="M255.7749,721.4399c-53.3208,0-96.6997-43.379-96.6997-96.6993
				c0-53.3017,43.3789-96.6601,96.6997-96.6601c53.3013,0,96.6602,43.3584,96.6602,96.6601
				C352.4351,678.061,309.0762,721.4399,255.7749,721.4399L255.7749,721.4399z M255.7749,568.48
				c-31.04,0-56.2998,25.25-56.2998,56.2607c0,31.0488,25.2598,56.2988,56.2998,56.2988c31.02,0,56.2603-25.25,56.2603-56.2988
				C312.0352,593.73,286.7949,568.48,255.7749,568.48L255.7749,568.48z"/>
		</g>
		<g>
			<path fill="#ED7161" d="M515.6133,441.4019c0,42.2343-34.2652,76.4794-76.5,76.4794c-42.2149,0-76.46-34.2451-76.46-76.4794
				c0-42.2349,34.2451-76.5,76.46-76.5C481.3481,364.9019,515.6133,399.167,515.6133,441.4019z"/>
			<path fill="#656872" d="M439.1133,538.0815c-53.3008,0-96.6602-43.3789-96.6602-96.6796
				c0-53.3213,43.3594-96.6998,96.6602-96.6998c53.3213,0,96.6997,43.3785,96.6997,96.6998
				C535.813,494.7026,492.4346,538.0815,439.1133,538.0815L439.1133,538.0815z M439.1133,385.102
				c-31.02,0-56.2598,25.25-56.2598,56.2999c0,31.0302,25.2398,56.2802,56.2598,56.2802c31.04,0,56.2998-25.25,56.2998-56.2802
				C495.4131,410.352,470.1533,385.102,439.1133,385.102L439.1133,385.102z"/>
		</g>
		<g>
			<path fill="#BDBF6D" d="M989.8008,395.5176c0,42.2544-34.2461,76.48-76.5195,76.48c-42.1954,0-76.461-34.2256-76.461-76.48
				s34.2656-76.48,76.461-76.48C955.5547,319.0376,989.8008,353.2632,989.8008,395.5176z"/>
			<path fill="#656872" d="M913.2813,492.1977c-53.3018,0-96.6602-43.3789-96.6602-96.6801
				c0-53.3208,43.3584-96.6797,96.6602-96.6797c53.33,0,96.7187,43.3589,96.7187,96.6797
				C1010,448.8188,966.6113,492.1977,913.2813,492.1977L913.2813,492.1977z M913.2813,339.2378
				c-31.0206,0-56.2608,25.25-56.2608,56.2798s25.2402,56.2798,56.2608,56.2798c31.0585,0,56.3183-25.25,56.3183-56.2798
				S944.3398,339.2378,913.2813,339.2378L913.2813,339.2378z"/>
		</g>
		<g>
			<path fill="#BDC3C7" d="M714.4961,640.2651c0,42.2344-34.2852,76.4991-76.5195,76.4991
				c-42.2344,0-76.4795-34.2646-76.4795-76.4991c0-42.2343,34.2451-76.499,76.4795-76.499
				C680.2109,563.7661,714.4961,598.0308,714.4961,640.2651z"/>
			<path fill="#656872" d="M637.9766,736.9653c-53.3105,0-96.6797-43.3789-96.6797-96.7002s43.3691-96.7002,96.6797-96.7002
				c53.3311,0,96.7197,43.3789,96.7197,96.7002S691.3076,736.9653,637.9766,736.9653L637.9766,736.9653z M637.9766,583.9653
				c-31.0293,0-56.2793,25.2696-56.2793,56.2998c0,31.0498,25.25,56.2998,56.2793,56.2998c31.0605,0,56.3203-25.25,56.3203-56.2998
				C694.2969,609.2349,669.0371,583.9653,637.9766,583.9653L637.9766,583.9653z"/>
		</g>
		<g>
			<path fill="#656872" d="M301.4614,583.9653c-5.1684,0-10.3364-1.9726-14.2817-5.9179c-7.8906-7.8907-7.8906-20.6739,0-28.5645
				l76.6572-76.6562c7.8906-7.8907,20.6734-7.8907,28.564,0c7.8906,7.8906,7.8906,20.6728,0,28.5634l-76.6572,76.6573
				C311.7983,581.9927,306.6299,583.9653,301.4614,583.9653L301.4614,583.9653z"/>
		</g>
		<g>
			<path fill="#656872" d="M592.3105,599.4507c-5.1689,0-10.3378-1.9727-14.2832-5.8975l-92.2011-92.1435
				c-7.8907-7.8907-7.8907-20.6924-0.0103-28.583c7.8906-7.8907,20.6836-7.8711,28.5742,0l92.2017,92.1425
				c7.8906,7.8907,7.8906,20.6729,0.0098,28.5635C602.6563,597.478,597.4785,599.4507,592.3105,599.4507L592.3105,599.4507z"/>
		</g>
		<g>
			<path fill="#656872" d="M699.1885,614.5806c-5.169,0-10.3369-1.9727-14.2822-5.918c-7.8907-7.8701-7.8907-20.6729,0-28.5635
				l152.9199-152.9795c7.8711-7.8906,20.6738-7.8906,28.5644,0c7.8907,7.8711,7.8907,20.6739,0,28.5645L713.4707,608.6626
				C709.5352,612.6079,704.3574,614.5806,699.1885,614.5806L699.1885,614.5806z"/>
		</g>
	</g>
</g>
</svg>
