<?xml version="1.0" encoding="utf-8"?>
<!-- Generator: Adobe Illustrator 20.0.0, SVG Export Plug-In . SVG Version: 6.00 Build 0)  -->
<svg version="1.1" id="bubble-smiley" xmlns="http://www.w3.org/2000/svg" xmlns:xlink="http://www.w3.org/1999/xlink" x="0px"
	 y="0px" viewBox="0 0 1010 1009.959" enable-background="new 0 0 1010 1009.959" xml:space="preserve">
<g id="bubble-smiley-bubble-smiley">
	<g>
		<path fill="#FFCA70" d="M505,21.0415C237.7051,21.0415,21.0415,237.7461,21.0415,505c0,86.1397,22.7886,166.8545,62.2417,237.0479
			l-62.2417,195.046l186.416-50.96C289.5488,950.3272,392.6821,988.917,505,988.917c267.2949,0,483.959-216.6631,483.959-483.917
			S772.2949,21.0415,505,21.0415z"/>
		<path fill="#656872" d="M505,1009.959c-109.873,0-214.0742-34.8096-302.0527-100.7705l-176.3575,48.207
			c-7.3872,1.9942-15.4013-0.164-20.7334-5.7324c-5.3427-5.5684-7.2021-13.624-4.8598-20.96l59.4878-186.4365
			C20.8877,670.6826,0,588.1807,0,505C0,226.5474,226.5474,0,505,0c278.4531,0,505,226.5474,505,505
			C1010,783.4326,783.4531,1009.959,505,1009.959L505,1009.959z M207.4575,865.0918c4.6441,0,9.2163,1.542,12.9663,4.459
			C302.6689,933.8682,401.0762,967.876,505,967.876c255.2539,0,462.916-207.6426,462.916-462.876
			c0-255.2534-207.6621-462.9165-462.916-462.9165C249.7466,42.0835,42.0835,249.7466,42.0835,505
			c0,79.0303,20.5894,157.4424,59.5391,226.7324c2.8667,5.0957,3.4829,11.1573,1.7055,16.7061L52.8608,906.5791l149.0489-40.748
			C203.7383,865.3389,205.5981,865.0918,207.4575,865.0918L207.4575,865.0918z"/>
	</g>
	<g>
		<g>
			<path fill="#656872" d="M590.0605,426.1758c-2.7128,0-5.4765-0.5137-8.1367-1.6436
				c-10.7168-4.5005-15.7509-16.8296-11.2509-27.5351c17.4355-41.5489,58.1113-68.3032,103.7392-68.3032c0.4932,0,0.9453,0,1.418,0
				c45.2988,0,85.9433,26.7338,103.4306,68.2827c4.5,10.7055-0.5244,23.0346-11.2392,27.5556
				c-10.7266,4.418-23.0567-0.5341-27.5567-11.2402c-13.2949-31.583-43.0283-42.6997-65.3437-42.5146c-0.1231,0-0.2568,0-0.3906,0
				c-22.0995,0-52.0801,11.0961-65.2617,42.4941C606.0879,421.3267,598.2793,426.1758,590.0605,426.1758L590.0605,426.1758z"/>
		</g>
		<g>
			<path fill="#656872" d="M251,425.5596c-3.3701,0-6.8018-0.8013-9.9766-2.5274c-10.2226-5.5278-14.0341-18.2885-8.5171-28.5215
				c19.5621-36.2065,57.608-58.666,99.3521-58.666c0.2056,0,0.4004,0,0.606,0c41.498,0,79.5024,22.4185,99.1157,58.5425
				c5.5483,10.2334,1.7568,22.9942-8.4556,28.542c-10.1919,5.5278-22.9936,1.7466-28.5317-8.4453
				c-14.6304-26.9595-41.7134-36.5557-62.2617-36.5557c-0.0826,0-0.2159,0-0.3497,0c-20.7231,0-47.8676,9.5962-62.4467,36.5967
				C265.7334,421.5527,258.4795,425.5596,251,425.5596L251,425.5596z"/>
		</g>
		<g>
			<path fill="#ECF0F1" d="M505.0205,794.6104c-147.5586-0.0411-268.2197-114.085-278.9253-258.8691h557.8501
				C773.1992,680.5254,652.4561,794.5693,505.0205,794.6104z"/>
			<path fill="#656872" d="M505.0308,815.6524c-0.0103,0-0.0103,0-0.0205,0c-156.6309-0.0411-288.357-122.3047-299.8951-278.3506
				c-0.4316-5.836,1.5821-11.5889,5.5581-15.8828c3.9869-4.2754,9.5757-6.7208,15.4219-6.7208h557.8501
				c5.8574,0,11.4355,2.4454,15.4219,6.7208c3.9766,4.2939,6,10.0468,5.5586,15.8828
				C793.3467,693.3477,661.6104,815.6113,505.0308,815.6524L505.0308,815.6524z M249.7568,556.7822
				c20.1992,123.209,128.2124,216.7461,255.274,216.7871c127.0005-0.041,235.0131-93.5781,255.2426-216.7871H249.7568
				L249.7568,556.7822z"/>
		</g>
	</g>
</g>
</svg>
