<?xml version="1.0" encoding="utf-8"?>
<!-- Generator: Adobe Illustrator 20.0.0, SVG Export Plug-In . SVG Version: 6.00 Build 0)  -->
<svg version="1.1" id="centered-design" xmlns="http://www.w3.org/2000/svg" xmlns:xlink="http://www.w3.org/1999/xlink" x="0px"
	 y="0px" viewBox="0 0 1010 879.2696" enable-background="new 0 0 1010 879.2696" xml:space="preserve">
<g id="centered-design-centered-design">
	<g>
		<g>
			<path fill="#BDBF6D" d="M704.627,590.625c-68.4922,0-134.8145-24.9746-186.8345-70.2675l-12.8618-11.1651l11.4419-12.665
				c43.6557-48.1338,68.9458-107.709,73.2065-172.2554l1.5381-23.1597l21.4629,8.7984
				c103.7637,42.4521,173.3222,142.2319,177.1094,254.2407l0.4726,13.335l-12.9005,3.4336
				C752.8398,587.3506,728.418,590.625,704.627,590.625L704.627,590.625z"/>
		</g>
		<g>
			<path fill="#FFCA70" d="M492.542,495.4629c-44.5825-49.7129-70.3857-113.7851-72.6343-180.3442l-0.4341-13.3355l12.8618-3.4326
				c24.4219-6.4311,48.8834-9.7055,72.6744-9.7055c23.771,0,48.2324,3.2744,72.6543,9.7451l12.8613,3.393l-0.4336,13.3355
				c-2.2881,66.5981-28.0908,130.6313-72.6543,180.3442l-12.4277,13.8477L492.542,495.4629z"/>
		</g>
		<g>
			<path fill="#ED7161" d="M305.373,590.625c-23.83,0-48.2128-3.2744-72.6347-9.705l-12.9014-3.4336l0.4736-13.335
				c3.7876-112.0088,73.3052-211.7886,177.0689-254.2607l21.5024-8.7784l1.5386,23.1397
				c4.2612,64.5664,29.5513,124.1416,73.2266,172.2754l11.4414,12.665l-12.8618,11.1651
				C440.187,565.6504,373.8257,590.625,305.373,590.625L305.373,590.625z"/>
		</g>
		<g>
			<path fill="#BDC3C7" d="M420.7754,278.229c5.7998-60.6406,30.6162-116.9804,71.7666-162.9052l12.4678-13.8282l12.4277,13.8282
				c41.1704,45.9248,65.9863,102.2646,71.7471,162.9052l2.1699,23.0806l-22.5674-5.1685
				c-21.5815-4.9511-43.0444-7.496-63.7773-7.496c-20.8316,0-42.2554,2.5449-63.8365,7.496l-22.5678,5.2081L420.7754,278.229z"/>
		</g>
		<g>
			<path fill="#ECF0F1" d="M197.7822,569.3594C89.876,525.25,20.2002,421.6045,20.2002,305.3931
				c0-157.2437,127.9097-285.1924,285.1728-285.1924c68.4527,0,134.814,24.9546,186.814,70.2476l12.9014,11.1655l-11.481,12.6646
				c-43.9912,48.4887-70.0698,111.1416-73.4238,176.4379l-0.5523,11.1456l-10.4946,3.748
				c-106.9595,38.3691-180.896,136.2339-188.353,249.3882l-1.499,23.1601L197.7822,569.3594z"/>
		</g>
		<g>
			<path fill="#ECF0F1" d="M505.0098,859.0694c-147.834,0-269.8648-110.9834-283.8316-258.0284l-2.1699-23.1201l22.5679,5.208
				c21.5415,4.9317,43.0044,7.4961,63.7968,7.4961c69.2417,0,136.1949-25.5273,188.5503-71.8457l11.0865-9.8242l11.0468,9.8242
				c52.336,46.3184,119.3282,71.8457,188.5704,71.8457c20.7519,0,42.2548-2.5644,63.7968-7.4961l22.5674-5.1679l-2.2099,23.08
				C774.8145,748.086,652.8242,859.0694,505.0098,859.0694L505.0098,859.0694z"/>
		</g>
		<g>
			<path fill="#ECF0F1" d="M789.1758,554.9981c-7.4561-113.1543-81.3535-211.0191-188.3526-249.3882l-10.455-3.748l-0.5918-11.1456
				c-3.3535-65.2763-29.3931-127.9492-73.4037-176.4379l-11.4419-12.6646l12.8618-11.1655
				c52.02-45.293,118.3423-70.2476,186.8345-70.2476c157.2236,0,285.1718,127.9487,285.1718,285.1924
				c0,116.2114-69.7148,219.8569-177.582,263.9663l-21.502,8.7988L789.1758,554.9981z"/>
		</g>
	</g>
	<g>
		<g>
			<path fill="#656872" d="M305.373,610.8252C136.9937,610.8252,0,473.8028,0,305.3931C0,137.0039,136.9937,0,305.373,0
				c168.399,0,305.3926,137.0039,305.3926,305.3931C610.7656,473.8028,473.772,610.8252,305.373,610.8252L305.373,610.8252z
				 M305.373,40.4009c-146.1079,0-264.9726,118.8745-264.9726,264.9922c0,146.1372,118.8647,265.0317,264.9726,265.0317
				c146.1172,0,264.9922-118.8945,264.9922-265.0317C570.3652,159.2754,451.4902,40.4009,305.373,40.4009L305.373,40.4009z"/>
		</g>
		<g>
			<path fill="#656872" d="M704.627,610.8252c-168.3995,0-305.3931-137.0224-305.3931-305.4321
				C399.2339,137.0039,536.2275,0,704.627,0C873.0059,0,1010,137.0039,1010,305.3931
				C1010,473.8028,873.0059,610.8252,704.627,610.8252L704.627,610.8252z M704.627,40.4009
				c-146.1177,0-264.9922,118.8745-264.9922,264.9922c0,146.1372,118.8745,265.0317,264.9922,265.0317
				c146.1074,0,264.9726-118.8945,264.9726-265.0317C969.5996,159.2754,850.7344,40.4009,704.627,40.4009L704.627,40.4009z"/>
		</g>
		<g>
			<path fill="#656872" d="M505.0098,879.2696c-168.3794,0-305.3731-137.0039-305.3731-305.4121
				c0-168.4092,136.9937-305.4131,305.3731-305.4131c168.3691,0,305.3535,137.0039,305.3535,305.4131
				C810.3633,742.2657,673.3789,879.2696,505.0098,879.2696L505.0098,879.2696z M505.0098,308.8452
				c-146.1079,0-264.9727,118.8746-264.9727,265.0123c0,146.1367,118.8648,265.0117,264.9727,265.0117
				c146.0976,0,264.9531-118.875,264.9531-265.0117C769.9629,427.7198,651.1074,308.8452,505.0098,308.8452L505.0098,308.8452z"/>
		</g>
	</g>
</g>
</svg>
