<?xml version="1.0" encoding="utf-8"?>
<!-- Generator: Adobe Illustrator 20.0.0, SVG Export Plug-In . SVG Version: 6.00 Build 0)  -->
<svg version="1.1" id="cloud-service" xmlns="http://www.w3.org/2000/svg" xmlns:xlink="http://www.w3.org/1999/xlink" x="0px"
	 y="0px" viewBox="0 0 1010 970.8227" enable-background="new 0 0 1010 970.8227" xml:space="preserve">
<g id="cloud-service-cloud-service">
	<g>
		<path fill="#BDC3C7" d="M243.0312,177.8349c19.5293,0,48.0147,12.1319,66.0645,16.8663
			C343.0449,98.6328,425.0088,20.1997,532.7358,20.1997c131.8521,0,239.5591,103.3872,246.6997,233.4839
			c8.0684-1.085,16.2559-1.7954,24.5411-1.7954c102.6562,0,185.8242,83.1474,185.8242,185.8632
			c0,102.5586-83.168,185.8243-185.8242,185.8243c-76.461,0-443.1778,0-560.9454,0c-123.0937,0-222.831-99.7364-222.831-222.8306
			C20.2002,277.5527,119.9375,177.8349,243.0312,177.8349z"/>
		<path fill="#656872" d="M803.9766,643.7768H243.0312C109.0288,643.7768,0,534.7475,0,400.7451
			c0-134.062,109.0288-243.1104,243.0312-243.1104c16.8663,0,36.4351,6.4312,53.7159,12.1123
			c0.0986,0.0396,0.1972,0.0591,0.3154,0.0987C340.7173,66.0249,431.4399,0,532.7358,0
			c134.8501,0,247.4497,100.2505,264.9283,231.8066c2.1298-0.0786,4.2402-0.1181,6.3125-0.1181
			c113.6045,0,206.0234,92.4384,206.0234,206.0629C1010,551.3374,917.5811,643.7768,803.9766,643.7768L803.9766,643.7768z
			 M243.0312,198.0346c-111.7309,0-202.6308,90.9395-202.6308,202.7105c0,111.731,90.8999,202.6313,202.6308,202.6313h560.9454
			c91.3339,0,165.623-74.3105,165.623-165.625c0-91.353-74.2891-165.663-165.623-165.663c-6.6289,0-13.7696,0.5327-21.8575,1.6176
			c-5.583,0.7495-11.2246-0.8681-15.5644-4.4585c-4.3399-3.5898-6.9834-8.8374-7.2793-14.4594
			C752.667,134.5747,653.166,40.3999,532.7358,40.3999c-89.7163,0-170.0234,63.2041-204.604,161.0278
			c-3.4917,9.9028-13.9467,15.5249-24.165,12.8223c-5.7798-1.5386-12.6055-3.7481-19.8447-6.1348
			C270.4512,203.6177,253.4272,198.0346,243.0312,198.0346L243.0312,198.0346z"/>
	</g>
	<g>
		<path fill="#656872" d="M504.9805,970.8227c-100.7437,0-201.4478-38.3291-278.125-114.9853
			c-7.8907-7.8906-7.8907-20.6738,0-28.5645c7.8906-7.8906,20.6738-7.8906,28.5644,0
			c137.5728,137.5332,361.5088,137.5723,499.1602,0c7.8906-7.8906,20.6738-7.8906,28.5644,0c7.8907,7.8907,7.8907,20.6739,0,28.5645
			C706.4473,932.4936,605.6846,970.8227,504.9805,970.8227L504.9805,970.8227z"/>
	</g>
	<g>
		<path fill="#656872" d="M504.9805,880.9292c-85.1006,0-165.1309-33.1406-225.3365-93.3457
			c-7.8906-7.8711-7.8906-20.6739,0-28.5645c7.8907-7.8906,20.6734-7.8906,28.564,0
			c52.5713,52.5713,122.4624,81.5098,196.7725,81.5098c74.33,0,144.2011-28.9385,196.7324-81.5098
			c7.8906-7.8906,20.6738-7.8711,28.5644,0c7.8907,7.8906,7.8907,20.6739,0,28.5645
			C670.1113,847.7886,590.1006,880.9292,504.9805,880.9292L504.9805,880.9292z"/>
	</g>
	<g>
		<path fill="#656872" d="M505,792.9487c-66.2812,0-132.5625-25.2305-183.0229-75.6914c-7.8907-7.8906-7.8907-20.6728,0-28.5635
			c7.8906-7.8906,20.6733-7.8906,28.5639,0c85.1797,85.1592,223.7383,85.1592,308.918,0c7.8906-7.8906,20.6738-7.8906,28.5644,0
			c7.8907,7.8907,7.8907,20.6729,0,28.5635C637.5625,767.7182,571.2813,792.9487,505,792.9487L505,792.9487z"/>
	</g>
</g>
</svg>
