<?xml version="1.0" encoding="utf-8"?>
<!-- Generator: Adobe Illustrator 20.0.0, SVG Export Plug-In . SVG Version: 6.00 Build 0)  -->
<svg version="1.1" id="coding" xmlns="http://www.w3.org/2000/svg" xmlns:xlink="http://www.w3.org/1999/xlink" x="0px" y="0px"
	 viewBox="0 0 1010 1010" enable-background="new 0 0 1010 1010" xml:space="preserve">
<g id="coding-coding">
	<g>
		<g>
			<line fill="#ECF0F1" x1="988.959" y1="218.3486" x2="988.959" y2="285.1724"/>
		</g>
		<g>
			<rect x="21.0415" y="21.0415" fill="#BDC3C7" width="967.9175" height="197.3071"/>
		</g>
		<g>
			<rect x="21.0415" y="218.3486" fill="#BDBF6D" width="967.9175" height="770.6104"/>
		</g>
		<g>
			<g>
				<path fill="#656872" d="M1010,1010H0V0h1010V1010L1010,1010z M42.0835,967.916H967.916V42.0835H42.0835V967.916L42.0835,967.916
					z"/>
			</g>
			<g>
				<path fill="none" d="M977.1426,452.1699"/>
			</g>
			<g>
				<path fill="none" d="M977.1426,227.3691"/>
			</g>
			<g>
				<polygon fill="#656872" points="984.0371,239.3901 34.3364,239.3901 34.3364,197.3066 984.0371,197.3066 984.0371,239.3901 				
					"/>
			</g>
		</g>
		<g>
			<g>
				<line fill="#ECF0F1" x1="133.1748" y1="101.7153" x2="133.1748" y2="142.0312"/>
				<polygon fill="#656872" points="154.2163,142.0312 112.1333,142.0312 112.1333,101.7153 154.2163,101.7153 154.2163,142.0312 
									"/>
			</g>
			<g>
				<line fill="#ECF0F1" x1="226.1567" y1="101.7153" x2="226.1567" y2="142.0312"/>
				<polygon fill="#656872" points="247.1987,142.0312 205.1152,142.0312 205.1152,101.7153 247.1987,101.7153 247.1987,142.0312 
									"/>
			</g>
			<g>
				<line fill="#ECF0F1" x1="319.0874" y1="101.7153" x2="319.0874" y2="142.0312"/>
				<polygon fill="#656872" points="340.1289,142.0312 298.0459,142.0312 298.0459,101.7153 340.1289,101.7153 340.1289,142.0312 
									"/>
			</g>
		</g>
		<g>
			<polygon fill="#656872" points="876.8252,142.8945 451.8926,142.8945 451.8926,100.811 876.8252,100.811 876.8252,142.8945 			
				"/>
		</g>
	</g>
	<g>
		<g>
			<polygon fill="#FFCA70" points="354.1533,393.7095 162.1997,585.6738 354.1533,777.6172 419.6108,712.1699 293.1143,585.6738 
				419.6108,459.1562 			"/>
			<path fill="#656872" d="M354.1533,798.6582c-5.3838,0-10.7671-2.0547-14.8769-6.1641L147.3223,600.5508
				c-8.2193-8.2197-8.2193-21.5352,0-29.7539L339.2764,378.832c7.8906-7.8906,21.8637-7.8906,29.7544,0l65.457,65.4473
				c8.2192,8.2187,8.2192,21.5352,0,29.7539L322.8682,585.6738L434.4878,697.293c3.9453,3.9453,6.1645,9.3086,6.1645,14.8769
				c0,5.5899-2.2192,10.9317-6.1645,14.877l-65.457,65.4472C364.9209,796.6035,359.5371,798.6582,354.1533,798.6582
				L354.1533,798.6582z M191.9536,585.6738l162.1997,162.1895l35.7031-35.6934L278.2368,600.5508
				c-8.2192-8.2197-8.2192-21.5352,0-29.7539l111.6196-111.6407l-35.7031-35.6928L191.9536,585.6738L191.9536,585.6738z"/>
		</g>
		<g>
			<polygon fill="#FFCA70" points="655.8467,393.7095 590.3887,459.1562 716.9268,585.6738 590.3887,712.1699 655.8467,777.6172 
				847.8008,585.6738 			"/>
			<path fill="#656872" d="M655.8467,798.6582c-5.3838,0-10.7676-2.0547-14.8779-6.1641l-65.4571-65.4472
				c-3.9453-3.9453-6.164-9.287-6.164-14.877c0-5.5683,2.2187-10.9316,6.164-14.8769l111.6504-111.6192L575.5117,474.0332
				c-3.9453-3.9453-6.164-9.3086-6.164-14.877c0-5.5683,2.2187-10.9316,6.164-14.8769l65.4571-65.4473
				c7.8906-7.8906,21.8642-7.8906,29.7548,0l191.9541,191.9649c8.2188,8.2188,8.2188,21.5342,0,29.7539L670.7236,792.4941
				C666.6133,796.6035,661.2305,798.6582,655.8467,798.6582L655.8467,798.6582z M620.1543,712.1699l35.6924,35.6934
				l162.2002-162.1895L655.8467,423.4634l-35.7031,35.6928l111.6611,111.6407c3.9453,3.9453,6.1641,9.2871,6.1641,14.877
				c0,5.5684-2.2188,10.9317-6.1641,14.877L620.1543,712.1699L620.1543,712.1699z"/>
		</g>
	</g>
</g>
</svg>
