<?xml version="1.0" encoding="utf-8"?>
<!-- Generator: Adobe Illustrator 20.0.0, SVG Export Plug-In . SVG Version: 6.00 Build 0)  -->
<svg version="1.1" id="content" xmlns="http://www.w3.org/2000/svg" xmlns:xlink="http://www.w3.org/1999/xlink" x="0px" y="0px"
	 viewBox="0 0 1010 1010" enable-background="new 0 0 1010 1010" xml:space="preserve">
<g id="content-content">
	<g>
		<g>
			<rect x="21.0415" y="21.0415" fill="#BDC3C7" width="967.9175" height="197.3071"/>
		</g>
		<g>
			<rect x="21.0415" y="218.3486" fill="#FFCA70" width="967.9175" height="770.6104"/>
		</g>
		<g>
			<g>
				<path fill="#656872" d="M1010,1010H0V0h1010V1010L1010,1010z M42.0835,967.916H967.916V42.0835H42.0835V967.916L42.0835,967.916
					z"/>
			</g>
			<g>
				<path fill="none" d="M977.1426,452.1904"/>
			</g>
			<g>
				<path fill="none" d="M977.1426,227.3691"/>
			</g>
			<g>
				<polygon fill="#656872" points="984.0371,239.3901 34.3159,239.3901 34.3159,197.3066 984.0371,197.3066 984.0371,239.3901 				
					"/>
			</g>
		</g>
		<g>
			<g>
				<line fill="#ECF0F1" x1="133.1646" y1="101.6943" x2="133.1646" y2="142.0312"/>
				<polygon fill="#656872" points="154.2061,142.0312 112.123,142.0312 112.123,101.6943 154.2061,101.6943 154.2061,142.0312 				
					"/>
			</g>
			<g>
				<line fill="#ECF0F1" x1="226.1567" y1="101.6943" x2="226.1567" y2="142.0312"/>
				<polygon fill="#656872" points="247.1987,142.0312 205.1152,142.0312 205.1152,101.6943 247.1987,101.6943 247.1987,142.0312 
									"/>
			</g>
			<g>
				<line fill="#ECF0F1" x1="319.0669" y1="101.6943" x2="319.0669" y2="142.0312"/>
				<polygon fill="#656872" points="340.1084,142.0312 298.0254,142.0312 298.0254,101.6943 340.1084,101.6943 340.1084,142.0312 
									"/>
			</g>
		</g>
		<g>
			<polygon fill="#656872" points="876.8359,142.915 451.8721,142.915 451.8721,100.8315 876.8359,100.8315 876.8359,142.915 			"/>
		</g>
	</g>
	<g>
		<g>
			<polygon fill="#ED7161" points="263.021,426.0937 115.729,426.0937 115.729,384.0103 263.021,384.0103 263.021,426.0937 			"/>
		</g>
		<g>
			<polygon fill="#ED7161" points="263.021,559.3506 115.729,559.3506 115.729,517.2676 263.021,517.2676 263.021,559.3506 			"/>
		</g>
		<g>
			<polygon fill="#ED7161" points="263.021,692.6289 115.729,692.6289 115.729,650.5449 263.021,650.5449 263.021,692.6289 			"/>
		</g>
		<g>
			<polygon fill="#ED7161" points="263.021,825.8848 115.729,825.8848 115.729,783.8027 263.021,783.8027 263.021,825.8848 			"/>
		</g>
	</g>
	<g>
		<g>
			<polygon fill="#656872" points="876.8359,426.0937 382.3564,426.0937 382.3564,384.0103 876.8359,384.0103 876.8359,426.0937 			
				"/>
		</g>
		<g>
			<polygon fill="#656872" points="876.8359,559.3506 382.3564,559.3506 382.3564,517.2676 876.8359,517.2676 876.8359,559.3506 			
				"/>
		</g>
		<g>
			<polygon fill="#656872" points="876.8359,692.6289 382.3564,692.6289 382.3564,650.5449 876.8359,650.5449 876.8359,692.6289 			
				"/>
		</g>
		<g>
			<polygon fill="#656872" points="876.8359,825.8848 382.3564,825.8848 382.3564,783.8027 876.8359,783.8027 876.8359,825.8848 			
				"/>
		</g>
	</g>
</g>
</svg>
