<?xml version="1.0" encoding="utf-8"?>
<!-- Generator: Adobe Illustrator 20.0.0, SVG Export Plug-In . SVG Version: 6.00 Build 0)  -->
<svg version="1.1" id="control-panel" xmlns="http://www.w3.org/2000/svg" xmlns:xlink="http://www.w3.org/1999/xlink" x="0px"
	 y="0px" viewBox="0 0 1010 1010" enable-background="new 0 0 1010 1010" xml:space="preserve">
<g id="control-panel-control-panel">
	<g>
		<rect fill="#ECF0F1" width="1010" height="1010"/>
	</g>
	<g>
		<g>
			<path fill="#FFCA70" d="M708.9434,636.0996c0-48.2685,39.1455-87.373,87.414-87.373c48.2676,0,87.3926,39.1045,87.3926,87.373
				c0,48.2676-39.125,87.3926-87.3926,87.3926C748.0889,723.4922,708.9434,684.3672,708.9434,636.0996z"/>
			<path fill="#656872" d="M796.3574,744.5332c-59.8066,0-108.4551-48.6377-108.4551-108.4336
				c0-59.7754,48.6485-108.4141,108.4551-108.4141c59.7852,0,108.4337,48.6387,108.4337,108.4141
				C904.791,695.8955,856.1426,744.5332,796.3574,744.5332L796.3574,744.5332z M796.3574,569.7695
				c-36.5976,0-66.3719,29.7538-66.3719,66.3301c0,36.5762,29.7744,66.3516,66.3719,66.3516
				c36.586,0,66.3516-29.7754,66.3516-66.3516C862.709,599.5234,832.9434,569.7695,796.3574,569.7695L796.3574,569.7695z"/>
		</g>
		<g>
			<circle fill="#ED7161" cx="505" cy="315.625" r="87.3926"/>
			<path fill="#656872" d="M505,424.0596c-59.7856,0-108.4346-48.6382-108.4346-108.4346
				c0-59.7959,48.649-108.4346,108.4346-108.4346s108.4346,48.6387,108.4346,108.4346
				C613.4346,375.4214,564.7856,424.0596,505,424.0596L505,424.0596z M505,249.2739c-36.5864,0-66.3511,29.7749-66.3511,66.3511
				S468.4136,381.9761,505,381.9761s66.3516-29.7749,66.3516-66.3511S541.5864,249.2739,505,249.2739L505,249.2739z"/>
		</g>
		<g>
			<path fill="#BDBF6D" d="M126.25,490.4316c0-48.2485,39.1245-87.414,87.3926-87.414c48.2685,0,87.4136,39.1655,87.4136,87.414
				c0,48.2891-39.1451,87.3926-87.4136,87.3926C165.3745,577.8242,126.25,538.7207,126.25,490.4316z"/>
			<path fill="#656872" d="M213.6426,598.8652c-59.7857,0-108.4341-48.6386-108.4341-108.4336
				c0-59.7968,48.6484-108.4555,108.4341-108.4555c59.8066,0,108.4551,48.6587,108.4551,108.4555
				C322.0977,550.2266,273.4492,598.8652,213.6426,598.8652L213.6426,598.8652z M213.6426,424.0596
				c-36.5864,0-66.3511,29.7744-66.3511,66.372c0,36.5762,29.7647,66.3506,66.3511,66.3506c36.5972,0,66.372-29.7744,66.372-66.3506
				C280.0146,453.834,250.2397,424.0596,213.6426,424.0596L213.6426,424.0596z"/>
		</g>
		<g>
			<path fill="#656872" d="M213.6426,890.2227c-11.6201,0-21.0415-9.4112-21.0415-21.0411V577.8242
				c0-11.6308,9.4214-21.042,21.0415-21.042c11.6206,0,21.042,9.4112,21.042,21.042v291.3574
				C234.6846,880.8115,225.2632,890.2227,213.6426,890.2227L213.6426,890.2227z"/>
		</g>
		<g>
			<path fill="#656872" d="M213.6426,424.0596c-11.6201,0-21.0415-9.4112-21.0415-21.042V140.8188
				c0-11.6303,9.4214-21.0415,21.0415-21.0415c11.6206,0,21.042,9.4112,21.042,21.0415v262.1988
				C234.6846,414.6484,225.2632,424.0596,213.6426,424.0596L213.6426,424.0596z"/>
		</g>
		<g>
			<path fill="#656872" d="M505,890.2227c-11.6201,0-21.0415-9.4112-21.0415-21.0411v-466.164
				c0-11.6304,9.4214-21.0415,21.0415-21.0415s21.0415,9.4111,21.0415,21.0415v466.164
				C526.0415,880.8115,516.6201,890.2227,505,890.2227L505,890.2227z"/>
		</g>
		<g>
			<path fill="#656872" d="M505,249.2739c-11.6201,0-21.0415-9.4111-21.0415-21.0415v-87.4136
				c0-11.6303,9.4214-21.0415,21.0415-21.0415s21.0415,9.4112,21.0415,21.0415v87.4136
				C526.0415,239.8628,516.6201,249.2739,505,249.2739L505,249.2739z"/>
		</g>
		<g>
			<path fill="#656872" d="M796.3574,569.7695c-11.6211,0-21.042-9.4121-21.042-21.0429V140.8188
				c0-11.6303,9.4209-21.0415,21.042-21.0415c11.6201,0,21.041,9.4112,21.041,21.0415v407.9078
				C817.3984,560.3574,807.9775,569.7695,796.3574,569.7695L796.3574,569.7695z"/>
		</g>
		<g>
			<path fill="#656872" d="M796.3574,890.2227c-11.6211,0-21.042-9.4112-21.042-21.0411V723.4922
				c0-11.6309,9.4209-21.041,21.042-21.041c11.6201,0,21.041,9.4102,21.041,21.041v145.6894
				C817.3984,880.8115,807.9775,890.2227,796.3574,890.2227L796.3574,890.2227z"/>
		</g>
	</g>
</g>
</svg>
