<?xml version="1.0" encoding="utf-8"?>
<!-- Generator: Adobe Illustrator 20.0.0, SVG Export Plug-In . SVG Version: 6.00 Build 0)  -->
<svg version="1.1" id="design" xmlns="http://www.w3.org/2000/svg" xmlns:xlink="http://www.w3.org/1999/xlink" x="0px" y="0px"
	 viewBox="0 0 1010 1010" enable-background="new 0 0 1010 1010" xml:space="preserve">
<g id="design-design">
	<g>
		<g>
			<polyline fill="#ED7161" points="854.6387,295.4248 981.6699,295.4248 981.6699,989.9658 20.0342,989.9658 20.0342,295.4248 
				574.4932,295.4248 			"/>
			<polygon fill="#656872" points="1001.7051,1010 0,1010 0,275.3906 594.5273,275.3906 594.5273,315.4585 40.0684,315.4585 
				40.0684,969.9316 961.6367,969.9316 961.6367,315.4585 834.6035,315.4585 834.6035,275.3906 1001.7051,275.3906 1001.7051,1010 
							"/>
		</g>
		<g>
			<polygon fill="#BDC3C7" points="467.6318,402.2861 296.0898,402.2861 296.0898,883.124 883.75,883.124 883.75,402.2861 
				747.7959,402.2861 			"/>
			<path fill="#656872" d="M903.7842,903.1582H276.0557V382.252h627.7285V903.1582L903.7842,903.1582z M316.124,863.0898h547.5918
				V422.3203H316.124V863.0898L316.124,863.0898z"/>
		</g>
		<g>
			<path fill="#656872" d="M153.6011,689.4551c-25.7857,0-46.7593-20.9737-46.7593-46.7403
				c0-25.7861,20.9736-46.7597,46.7593-46.7597c25.7861,0,46.7397,20.9736,46.7397,46.7597
				C200.3408,668.4814,179.3872,689.4551,153.6011,689.4551L153.6011,689.4551z M153.6011,636.0234
				c-3.6778,0-6.6909,2.9942-6.6909,6.6914c0,3.6778,3.0131,6.6719,6.6909,6.6719c3.6782,0,6.6718-2.9941,6.6718-6.6719
				C160.2729,639.0176,157.2793,636.0234,153.6011,636.0234L153.6011,636.0234z"/>
		</g>
		<g>
			<polygon fill="#656872" points="173.6353,529.1816 133.5674,529.1816 133.5674,382.252 173.6353,382.252 173.6353,529.1816 			
				"/>
		</g>
		<g>
			<polygon fill="#656872" points="173.6353,903.1582 133.5674,903.1582 133.5674,756.2285 173.6353,756.2285 173.6353,903.1582 			
				"/>
		</g>
	</g>
	<g>
		<g>
			<polyline fill="#BDBF6D" points="507.7783,385.8521 474.0488,419.542 474.0488,535.9707 590.4189,535.9316 621.6641,504.707 			
				"/>
			<polygon fill="#656872" points="454.0146,556.0049 454.0146,411.2271 507.7979,357.5225 536.1074,385.8716 494.083,427.8374 
				494.083,515.9365 582.123,515.8975 621.6641,476.377 649.9922,504.707 598.7148,555.9658 454.0146,556.0049 			"/>
		</g>
		<g>
			<polyline fill="#FFCA70" points="621.6641,504.707 981.6699,144.6992 865.2813,28.3296 507.7783,385.8521 			"/>
			<polygon fill="#656872" points="621.6641,533.0361 593.334,504.707 953.3418,144.6992 865.2813,56.6587 507.7783,414.1812 
				479.4487,385.8521 865.2813,0 1010,144.6992 621.6641,533.0361 			"/>
		</g>
		<g>
			<polygon fill="#656872" points="609.8066,525.5625 484.4966,400.2124 512.8452,371.8828 638.1367,497.2324 609.8066,525.5625 			
				"/>
		</g>
		<g>
			<polygon fill="#656872" points="447.4409,590.8496 419.1118,562.5 466.8687,514.8018 495.1787,543.1504 447.4409,590.8496 			"/>
		</g>
	</g>
</g>
</svg>
