<?xml version="1.0" encoding="utf-8"?>
<!-- Generator: Adobe Illustrator 20.0.0, SVG Export Plug-In . SVG Version: 6.00 Build 0)  -->
<svg version="1.1" id="double-bubbles" xmlns="http://www.w3.org/2000/svg" xmlns:xlink="http://www.w3.org/1999/xlink" x="0px"
	 y="0px" viewBox="0 0 993.9721 1010" enable-background="new 0 0 993.9721 1010" xml:space="preserve">
<g id="double-bubbles-double-bubbles">
	<g>
		<polyline fill="#ED7161" points="290.0625,393.5244 21.0415,393.5244 21.0415,848.7764 127.4209,848.7764 76.8305,988.959 
			289.0761,848.7764 641.8315,848.7764 641.8315,455.6016 		"/>
		<path fill="#656872" d="M76.8305,1010c-4.603,0-9.2055-1.5205-13.0073-4.5205c-7.1304-5.5889-9.8633-15.124-6.7808-23.6719
			l40.419-111.9892H21.0415C9.4111,869.8184,0,860.4063,0,848.7764v-455.252c0-11.6098,9.4111-21.0415,21.0415-21.0415h269.021
			c11.6303,0,21.0415,9.4317,21.0415,21.0415c0,11.6099-9.4112,21.0415-21.0415,21.0415H42.083v413.1685h85.3379
			c6.8632,0,13.2744,3.3291,17.2197,8.959c3.9453,5.5898,4.8906,12.7812,2.5688,19.2343l-29.0556,80.5089l159.333-105.208
			c3.4316-2.2812,7.459-3.4941,11.5893-3.4941h331.7144V455.6016c0-11.6309,9.4111-21.042,21.041-21.042
			c11.6309,0,21.043,9.4111,21.043,21.042v393.1748c0,11.6299-9.4121,21.042-21.043,21.042H295.4052L88.4199,1006.5068
			C84.9062,1008.8496,80.8579,1010,76.8305,1010L76.8305,1010z"/>
	</g>
	<g>
		<polygon fill="#FFCA70" points="310.7548,21.0415 972.9301,21.0415 972.9301,434.9092 842.5913,434.9092 893.2026,575.1113 
			680.9155,434.9092 310.7548,434.9092 		"/>
		<path fill="#656872" d="M893.2026,596.1533c-4.0283,0-8.0762-1.1513-11.5898-3.4931l-207.0264-136.709H310.7548
			c-11.6303,0-21.0419-9.4317-21.0419-21.042V21.0415C289.7129,9.4111,299.1245,0,310.7548,0h662.1753
			c11.6299,0,21.0421,9.4111,21.0421,21.0415v413.8677c0,11.6103-9.4121,21.042-21.0421,21.042H872.5503l40.4394,112.0097
			c3.083,8.5479,0.3496,18.0822-6.7803,23.6719C902.4077,594.6328,897.8042,596.1533,893.2026,596.1533L893.2026,596.1533z
			 M331.7963,413.8672h349.1192c4.1308,0,8.1582,1.2124,11.5898,3.4726l159.373,105.25l-29.0762-80.5502
			c-2.3213-6.4317-1.376-13.6036,2.5693-19.2334c3.9454-5.5894,10.3565-8.939,17.2198-8.939h109.2968V42.0835H331.7963V413.8672
			L331.7963,413.8672z"/>
	</g>
	<g>
		<path fill="#656872" d="M869.7973,166.2578H414.5864c-11.6304,0-21.0415-9.4316-21.0415-21.0415
			c0-11.6099,9.4111-21.0415,21.0415-21.0415h455.2109c11.6299,0,21.042,9.4316,21.042,21.0415
			C890.8393,156.8262,881.4272,166.2578,869.7973,166.2578L869.7973,166.2578z"/>
	</g>
	<g>
		<path fill="#656872" d="M869.7973,249.0273H414.5864c-11.6304,0-21.0415-9.4316-21.0415-21.0415
			c0-11.6098,9.4111-21.042,21.0415-21.042h455.2109c11.6299,0,21.042,9.4322,21.042,21.042
			C890.8393,239.5957,881.4272,249.0273,869.7973,249.0273L869.7973,249.0273z"/>
	</g>
	<g>
		<path fill="#656872" d="M662.8745,331.7969H414.5864c-11.6304,0-21.0415-9.4322-21.0415-21.042
			c0-11.6099,9.4111-21.0415,21.0415-21.0415h248.2881c11.6299,0,21.041,9.4316,21.041,21.0415
			C683.9155,322.3647,674.5044,331.7969,662.8745,331.7969L662.8745,331.7969z"/>
	</g>
	<g>
		<path fill="#656872" d="M538.7197,580.1055H124.8525c-11.6304,0-21.0415-9.4326-21.0415-21.043
			c0-11.6094,9.4111-21.041,21.0415-21.041h413.8672c11.6304,0,21.0415,9.4316,21.0415,21.041
			C559.7612,570.6729,550.3501,580.1055,538.7197,580.1055L538.7197,580.1055z"/>
	</g>
	<g>
		<path fill="#656872" d="M538.7197,662.874H124.8525c-11.6304,0-21.0415-9.4316-21.0415-21.0421
			c0-11.6093,9.4111-21.041,21.0415-21.041h413.8672c11.6304,0,21.0415,9.4317,21.0415,21.041
			C559.7612,653.4424,550.3501,662.874,538.7197,662.874L538.7197,662.874z"/>
	</g>
	<g>
		<path fill="#656872" d="M373.1606,745.6436H124.8525c-11.6304,0-21.0415-9.4316-21.0415-21.0419
			c0-11.6094,9.4111-21.0411,21.0415-21.0411h248.3081c11.6304,0,21.0415,9.4317,21.0415,21.0411
			C394.2021,736.2119,384.791,745.6436,373.1606,745.6436L373.1606,745.6436z"/>
	</g>
</g>
</svg>
