<?xml version="1.0" encoding="utf-8"?>
<!-- Generator: Adobe Illustrator 20.0.0, SVG Export Plug-In . SVG Version: 6.00 Build 0)  -->
<svg version="1.1" id="email" xmlns="http://www.w3.org/2000/svg" xmlns:xlink="http://www.w3.org/1999/xlink" x="0px" y="0px"
	 viewBox="0 0 1010 699.7407" enable-background="new 0 0 1010 699.7407" xml:space="preserve">
<g id="email-email">
	<g>
		<path fill="#FFCA70" d="M951.0176,679.5405H58.9824c-21.4033,0-38.7822-17.3594-38.7822-38.7822V58.9824
			c0-21.4228,17.3789-38.7822,38.7822-38.7822h892.0352c21.4238,0,38.7832,17.3594,38.7832,38.7822v581.7759
			C989.8008,662.1811,972.4414,679.5405,951.0176,679.5405z"/>
		<path fill="#656872" d="M951.0176,699.7407H58.9824C26.4536,699.7407,0,673.2876,0,640.7583V58.9824
			C0,26.4536,26.4536,0,58.9824,0h892.0352C983.5469,0,1010,26.4536,1010,58.9824v581.7759
			C1010,673.2876,983.5469,699.7407,951.0176,699.7407L951.0176,699.7407z M58.9824,40.3999
			c-10.2378,0-18.582,8.3447-18.582,18.5825v581.7759c0,10.2383,8.3442,18.583,18.582,18.583h892.0352
			c10.2383,0,18.582-8.3447,18.582-18.583V58.9824c0-10.2378-8.3438-18.5825-18.582-18.5825H58.9824L58.9824,40.3999z"/>
	</g>
	<g>
		<path fill="#656872" d="M505,461.0298c-34.0283,0-68.0566-12.7432-94.5688-38.1905L17.5767,46.1406
			C9.5283,38.4272,9.252,25.625,16.9849,17.5767c7.7129-8.0289,20.4956-8.3052,28.5639-0.5918l392.8545,376.6982
			c37.3228,35.8633,95.8316,35.8633,133.1944,0L964.4316,17.0044c8.0684-7.7129,20.8516-7.4566,28.5645,0.5918
			c7.7324,8.0483,7.457,20.8511-0.5918,28.564l-392.835,376.6791C573.0566,448.2866,539.0283,461.0298,505,461.0298L505,461.0298z"
			/>
	</g>
	<g>
		<path fill="#656872" d="M978.4375,688.3784c-5.0303,0-10.0605-1.874-13.9863-5.6221l-331.958-318.3076
			c-8.0489-7.7129-8.3251-20.5156-0.5918-28.5644c7.713-8.0489,20.4951-8.3047,28.5634-0.5918l331.959,318.3076
			c8.0489,7.7139,8.3242,20.5156,0.5918,28.5644C989.0508,686.2866,983.7441,688.3784,978.4375,688.3784L978.4375,688.3784z"/>
	</g>
	<g>
		<path fill="#656872" d="M31.5825,688.3784c-5.3066,0-10.6128-2.0918-14.5781-6.2139c-7.7329-8.0488-7.4565-20.8505,0.5918-28.5644
			l331.939-318.3076c8.0683-7.7129,20.851-7.4571,28.5639,0.5918c7.7329,8.0488,7.4566,20.8515-0.5918,28.5644L45.5684,682.7563
			C41.6431,686.5044,36.6128,688.3784,31.5825,688.3784L31.5825,688.3784z"/>
	</g>
</g>
</svg>
