<?xml version="1.0" encoding="utf-8"?>
<!-- Generator: Adobe Illustrator 20.0.0, SVG Export Plug-In . SVG Version: 6.00 Build 0)  -->
<svg version="1.1" id="features" xmlns="http://www.w3.org/2000/svg" xmlns:xlink="http://www.w3.org/1999/xlink" x="0px" y="0px"
	 viewBox="0 0 1010.0052 977.6753" enable-background="new 0 0 1010.0052 977.6753" xml:space="preserve">
<g id="features-features">
	<g>
		<polygon fill="#FFCA70" points="504.9936,20.1997 618.1132,375.727 989.7968,375.727 698.912,601.9683 812.0624,957.4751 
			504.9936,731.2534 197.9731,957.4751 311.0839,601.9683 20.1997,375.727 391.8828,375.727 		"/>
		<path fill="#656872" d="M197.9731,977.6753c-4.1226,0-8.2456-1.2627-11.7666-3.7871
			c-7.1113-5.0899-10.1392-14.2031-7.4863-22.5283L287.56,609.2671L7.8017,391.666c-6.8154-5.2871-9.5078-14.3413-6.7065-22.4883
			c2.8007-8.1665,10.4746-13.6504,19.1045-13.6504h356.9082L485.7407,14.0845C488.4135,5.7012,496.1953,0,504.9936,0
			c8.7979,0,16.5796,5.7012,19.2524,14.0845l108.6426,341.4428h356.9082c8.6201,0,16.3135,5.4839,19.1153,13.6504
			c2.8007,8.147,0.0976,17.2012-6.7071,22.4883L722.4267,609.2671l108.8896,342.0732c2.6425,8.3448-0.375,17.458-7.4766,22.5479
			c-7.1406,5.1084-16.709,5.0293-23.751-0.1582L504.9936,756.3452L209.957,973.73
			C206.3964,976.353,202.185,977.6753,197.9731,977.6753L197.9731,977.6753z M504.9936,711.0542
			c4.2114,0,8.4229,1.3223,11.9834,3.9453l256.9546,189.293L679.6601,608.103c-2.5644-8.0683,0.1777-16.8867,6.8447-22.0742
			l244.4092-190.102H618.1132c-8.7968,0-16.58-5.7012-19.2519-14.0845L504.9936,86.8154l-93.8579,295.0269
			c-2.6729,8.3833-10.4551,14.0845-19.2529,14.0845H79.0732l244.4087,190.102c6.687,5.1875,9.4194,14.0059,6.855,22.0547
			l-94.2427,296.209l256.9155-189.293C496.5703,712.3765,500.7817,711.0542,504.9936,711.0542L504.9936,711.0542z"/>
	</g>
	<g>
		<polygon fill="#FFFFFF" points="447.2744,472.3462 302.996,472.3462 418.395,558.8862 389.5947,703.2026 504.9936,616.644 
			620.4414,703.2026 591.5624,558.8862 706.9999,472.3462 562.7226,472.3462 504.9936,316.5874 		"/>
	</g>
</g>
</svg>
