<?xml version="1.0" encoding="utf-8"?>
<!-- Generator: Adobe Illustrator 20.0.0, SVG Export Plug-In . SVG Version: 6.00 Build 0)  -->
<svg version="1.1" id="hosting" xmlns="http://www.w3.org/2000/svg" xmlns:xlink="http://www.w3.org/1999/xlink" x="0px" y="0px"
	 viewBox="0 0 845.2832 1010" enable-background="new 0 0 845.2832 1010" xml:space="preserve">
<g id="hosting-hosting">
	<g>
		<g>
			<path fill="#BDC3C7" d="M825.083,238.2573v-89.2827c0-17.7734-14.4394-32.1934-32.1934-32.1934H438.7388
				c-17.7935,0-32.2134-14.4204-32.2134-32.1938V52.3936c0-17.7935-14.4204-32.1939-32.2139-32.1939H148.9556
				c-17.774,0-32.1939,14.4004-32.1939,32.1939v32.1938c0,17.7734-14.4199,32.1938-32.1738,32.1938H52.374
				c-17.7734,0-32.1738,14.42-32.1738,32.1934v89.2827"/>
			<path fill="#656872" d="M825.083,258.457c-11.165,0-20.1992-9.0346-20.1992-20.1997v-89.2827
				c0-6.6279-5.3858-11.9936-11.9942-11.9936H438.7388c-28.8994,0-52.4136-23.5142-52.4136-52.3936V52.3936
				c0-6.628-5.3853-11.9937-12.0137-11.9937H148.9556c-6.6084,0-11.9937,5.3657-11.9937,11.9937v32.1938
				c0,28.8794-23.4946,52.3936-52.374,52.3936H52.374c-6.5981,0-11.9736,5.3657-11.9736,11.9936v89.2827
				c0,11.1651-9.0449,20.1997-20.2002,20.1997S0,249.4224,0,238.2573v-89.2827c0-28.8794,23.4946-52.3935,52.374-52.3935h32.2139
				c6.5981,0,11.9736-5.3853,11.9736-11.9937V52.3936C96.5615,23.5137,120.0659,0,148.9556,0h225.3559
				c28.8994,0,52.4136,23.5137,52.4136,52.3936v32.1938c0,6.6084,5.3853,11.9937,12.0137,11.9937h354.1508
				c28.8995,0,52.3936,23.5141,52.3936,52.3935v89.2827C845.2832,249.4224,836.249,258.457,825.083,258.457L825.083,258.457z"/>
		</g>
		<g>
			<path fill="#FFCA70" d="M792.8896,760.6953H52.374c-17.7734,0-32.1738-14.4004-32.1738-32.1933V245.5562
				c0-17.774,14.4004-32.1939,32.1738-32.1939h740.5156c17.754,0,32.1934,14.4199,32.1934,32.1939V728.502
				C825.083,746.2949,810.6436,760.6953,792.8896,760.6953z"/>
			<path fill="#656872" d="M792.8896,780.8955H52.374C23.4946,780.8955,0,757.3809,0,728.502V245.5562
				c0-28.8799,23.4946-52.3941,52.374-52.3941h740.5156c28.8995,0,52.3936,23.5142,52.3936,52.3941V728.502
				C845.2832,757.3809,821.7891,780.8955,792.8896,780.8955L792.8896,780.8955z M52.374,233.5625
				c-6.5981,0-11.9736,5.3853-11.9736,11.9937V728.502c0,6.6084,5.3755,11.9941,11.9736,11.9941h740.5156
				c6.6084,0,11.9942-5.3857,11.9942-11.9941V245.5562c0-6.6084-5.3858-11.9937-11.9942-11.9937H52.374L52.374,233.5625z"/>
		</g>
	</g>
	<g>
		<g>
			<path fill="#656872" d="M422.6221,873.1367c-11.1553,0-20.2002-9.0547-20.2002-20.1992v-78.5117
				c0-11.1465,9.0449-20.2012,20.2002-20.2012c11.1552,0,20.2002,9.0547,20.2002,20.2012v78.5117
				C442.8223,864.082,433.7773,873.1367,422.6221,873.1367L422.6221,873.1367z"/>
		</g>
		<g>
			<path fill="#656872" d="M768.9023,952.0039H488.3506c-11.1548,0-20.1997-9.0351-20.1997-20.2002
				c0-11.165,9.0449-20.2002,20.1997-20.2002h280.5517c11.1651,0,20.2002,9.0352,20.2002,20.2002
				C789.1025,942.9688,780.0674,952.0039,768.9023,952.0039L768.9023,952.0039z"/>
		</g>
		<g>
			<path fill="#656872" d="M356.9326,952.0039H76.3618c-11.1553,0-20.2002-9.0351-20.2002-20.2002
				c0-11.165,9.0449-20.2002,20.2002-20.2002h280.5708c11.1553,0,20.2002,9.0352,20.2002,20.2002
				C377.1328,942.9688,368.0879,952.0039,356.9326,952.0039L356.9326,952.0039z"/>
		</g>
		<g>
			<path fill="#BDBF6D" d="M488.9033,923.499c0,36.6319-29.6689,66.3008-66.2812,66.3008s-66.2813-29.6689-66.2813-66.3008
				c0-36.5927,29.669-66.2217,66.2813-66.2217S488.9033,886.9063,488.9033,923.499z"/>
			<path fill="#656872" d="M422.6221,1010c-47.689,0-86.4815-38.8027-86.4815-86.501c0-47.6396,38.7925-86.4229,86.4815-86.4229
				c47.6889,0,86.4814,38.7832,86.4814,86.4229C509.1035,971.1973,470.311,1010,422.6221,1010L422.6221,1010z M422.6221,877.4766
				c-25.4077,0-46.0811,20.6347-46.0811,46.0224c0,25.4268,20.6734,46.1006,46.0811,46.1006
				c25.4077,0,46.081-20.6738,46.081-46.1006C468.7031,898.1113,448.0298,877.4766,422.6221,877.4766L422.6221,877.4766z"/>
		</g>
	</g>
	<g>
		<g>
			<path fill="#656872" d="M206.1821,81.0562c0,11.0273-8.936,20.0029-19.9433,20.0029c-11.0469,0-20.003-8.9756-20.003-20.0029
				c0-11.0269,8.9561-19.983,20.003-19.983C197.2461,61.0732,206.1821,70.0293,206.1821,81.0562z"/>
		</g>
		<g>
			<path fill="#656872" d="M272.7988,81.0562c0,11.0273-8.956,20.0029-19.9829,20.0029c-11.0073,0-20.0029-8.9756-20.0029-20.0029
				c0-11.0269,8.9956-19.983,20.0029-19.983C263.8428,61.0732,272.7988,70.0293,272.7988,81.0562z"/>
		</g>
		<g>
			<path fill="#656872" d="M339.3955,81.0562c0,11.0273-8.9756,20.0029-20.0024,20.0029c-11.0274,0-19.9634-8.9756-19.9634-20.0029
				c0-11.0269,8.936-19.983,19.9634-19.983C330.4199,61.0732,339.3955,70.0293,339.3955,81.0562z"/>
		</g>
	</g>
	<g>
		<polygon fill="#656872" points="746.2764,389.8359 525.6934,389.8359 525.6934,349.436 746.2764,349.436 746.2764,389.8359 		"/>
	</g>
	<g>
		<polygon fill="#656872" points="746.2764,317.6963 525.6934,317.6963 525.6934,277.2959 746.2764,277.2959 746.2764,317.6963 		
			"/>
	</g>
</g>
</svg>
