<?xml version="1.0" encoding="utf-8"?>
<!-- Generator: Adobe Illustrator 20.0.0, SVG Export Plug-In . SVG Version: 6.00 Build 0)  -->
<svg version="1.1" id="idea-bulb" xmlns="http://www.w3.org/2000/svg" xmlns:xlink="http://www.w3.org/1999/xlink" x="0px" y="0px"
	 viewBox="0 0 935.1172 1010" enable-background="new 0 0 935.1172 1010" xml:space="preserve">
<g id="idea-bulb-idea-bulb">
	<g>
		<path fill="#CCD1D9" d="M582.584,878.3047c0,66.9531-47.2051,111.4951-114.1768,111.4951
			c-66.9521,0-118.5371-44.542-118.5371-111.4951"/>
		<path fill="#656872" d="M468.4072,1010c-80.3857,0-138.7373-55.3926-138.7373-131.6953c0-11.1641,9.0547-20.1992,20.2002-20.1992
			c11.1651,0,20.2002,9.0351,20.2002,20.1992c0,53.7558,40.4395,91.2949,98.3369,91.2949c56.2007,0,93.9776-36.6914,93.9776-91.2949
			c0-11.1641,9.0342-20.1992,20.1992-20.1992c11.1465,0,20.2002,9.0351,20.2002,20.1992
			C602.7842,955.8506,547.5303,1010,468.4072,1010L468.4072,1010z"/>
	</g>
	<g>
		<polyline fill="#BDBF6D" points="582.584,664.9824 582.584,878.3047 349.8701,878.3047 349.8701,664.9824 		"/>
		<path fill="#656872" d="M582.584,898.5059H349.8701c-11.1455,0-20.2002-9.0352-20.2002-20.2012V664.9824
			c0-11.166,9.0547-20.2002,20.2002-20.2002c11.1651,0,20.2002,9.0342,20.2002,20.2002v193.1231h192.3145V664.9824
			c0-11.166,9.0342-20.2002,20.1992-20.2002c11.1465,0,20.2002,9.0342,20.2002,20.2002v213.3223
			C602.7842,889.4707,593.7305,898.5059,582.584,898.5059L582.584,898.5059z"/>
	</g>
	<g>
		<path fill="#656872" d="M233.0693,88.8877c-5.1684,0-10.3369-1.9727-14.2822-5.918l-48.4878-48.4878
			c-7.8906-7.8906-7.8906-20.6733,0-28.5639c7.8906-7.8907,20.6734-7.8907,28.564,0l48.4878,48.4878
			c7.8906,7.8906,7.8906,20.6733,0,28.5639C243.4058,86.915,238.2373,88.8877,233.0693,88.8877L233.0693,88.8877z"/>
	</g>
	<g>
		<path fill="#656872" d="M717.8691,88.8877c-5.1679,0-10.3369-1.9727-14.2822-5.918c-7.8906-7.8906-7.8906-20.6733,0-28.5639
			L752.0752,5.918c7.8906-7.8907,20.6729-7.8907,28.5635,0c7.8906,7.8906,7.8906,20.6733,0,28.5639l-48.4873,48.4878
			C728.2061,86.915,723.0371,88.8877,717.8691,88.8877L717.8691,88.8877z"/>
	</g>
	<g>
		<path fill="#656872" d="M184.5811,670.6436c-5.168,0-10.3365-1.9727-14.2818-5.918c-7.8906-7.8906-7.8906-20.6729,0-28.5635
			l48.4878-48.4883c7.8906-7.8906,20.6734-7.8906,28.564,0c7.8906,7.8907,7.8906,20.6739,0,28.5645l-48.4878,48.4872
			C194.918,668.6709,189.7495,670.6436,184.5811,670.6436L184.5811,670.6436z"/>
	</g>
	<g>
		<path fill="#656872" d="M766.3574,670.6436c-5.1689,0-10.3369-1.9727-14.2822-5.918l-48.4883-48.4872
			c-7.8906-7.8906-7.8906-20.6738,0-28.5645c7.8906-7.8906,20.6738-7.8906,28.5645,0l48.4873,48.4883
			c7.8906,7.8906,7.8906,20.6729,0,28.5635C776.6934,668.6709,771.5254,670.6436,766.3574,670.6436L766.3574,670.6436z"/>
	</g>
	<g>
		<path fill="#656872" d="M97.7842,355.5117H20.1997C9.0542,355.5117,0,346.4771,0,335.312
			c0-11.1655,9.0542-20.2002,20.1997-20.2002h77.5845c11.1455,0,20.2002,9.0347,20.2002,20.2002
			C117.9844,346.4771,108.9297,355.5117,97.7842,355.5117L97.7842,355.5117z"/>
	</g>
	<g>
		<path fill="#656872" d="M914.918,355.5117h-77.5645c-11.166,0-20.201-9.0346-20.201-20.1997
			c0-11.1655,9.0351-20.2002,20.201-20.2002h77.5645c11.1455,0,20.1992,9.0347,20.1992,20.2002
			C935.1172,346.4771,926.0635,355.5117,914.918,355.5117L914.918,355.5117z"/>
	</g>
	<g>
		<path fill="#FFCA70" d="M681.1387,129.6626c-113.5664-113.5855-297.7139-113.5855-411.3389,0
			c-113.625,113.5264-115.834,297.7524-2.1894,411.3384c25.1118,25.0722,43.4775,43.7529,82.2597,57.7392v85.6524H582.584v-85.6524
			c38.7637-13.9863,66.4199-32.667,91.5117-57.7392C787.7207,427.415,794.7441,243.248,681.1387,129.6626z"/>
		<path fill="#656872" d="M582.584,704.5937H349.8701c-11.1455,0-20.2002-9.0351-20.2002-20.201v-71.9424
			c-33.9297-14.7949-53.3008-34.1465-75.3554-56.1611c-59.6729-59.6534-91.6495-137.8296-91.0381-221.1348
			c0.6118-82.9111,33.3774-160.9688,92.2417-219.7739c58.7651-58.7456,136.8823-91.0972,219.9707-91.0972
			s161.186,32.3516,219.9311,91.0972c58.4698,58.4497,89.5782,136.7446,87.6055,220.4248
			c-1.9522,82.4765-35.5664,160.4165-94.6475,219.478c-25.6445,25.625-52.4726,43.6348-85.5937,57.3047v71.8047
			C602.7842,695.5586,593.7305,704.5937,582.584,704.5937L582.584,704.5937z M370.0703,664.1934h192.3145v-65.4532
			c0-8.5215,5.3261-16.1162,13.3349-18.9961c33.5743-12.1123,59.5147-28.4658,84.0948-53.0255
			c51.7031-51.6835,81.1152-119.8193,82.8115-191.8603c1.7158-72.5347-25.1904-140.335-75.7695-190.9141
			C615.7441,92.833,547.7871,64.6831,475.4888,64.6831c-72.2979,0-140.2754,28.1499-191.4068,79.2612
			c-51.3086,51.2696-79.873,119.2867-80.4052,191.5059c-0.5328,72.3965,27.2422,140.3154,78.2158,191.2685
			c24.9541,24.9346,40.7944,40.7549,74.8423,53.0255c8.0092,2.8799,13.3354,10.4745,13.3354,18.9961V664.1934L370.0703,664.1934z"/>
	</g>
	<g>
		<path fill="#656872" d="M338.3496,492.6309c-5.168,0-10.3364-1.9727-14.2817-5.918
			c-40.4595-40.459-62.7305-94.2139-62.7305-151.3814c0-57.1479,22.271-110.9223,62.7305-151.4013
			c7.8906-7.8906,20.6733-7.8906,28.5639,0c7.8907,7.8906,7.8907,20.6733,0.0196,28.5639
			c-32.8448,32.8448-50.9141,76.48-50.9141,122.8374c0,46.3775,18.0693,89.9927,50.8945,122.8179
			c7.8907,7.8906,7.8907,20.6729,0,28.5635C348.6865,490.6582,343.5181,492.6309,338.3496,492.6309L338.3496,492.6309z"/>
	</g>
	<g>
		<path fill="#656872" d="M565.6787,836.4063H366.7759c-11.1655,0-20.2002-9.0352-20.2002-20.2002
			c0-11.1651,9.0347-20.2002,20.2002-20.2002h198.9028c11.1455,0,20.2002,9.0351,20.2002,20.2002
			C585.8789,827.3711,576.8242,836.4063,565.6787,836.4063L565.6787,836.4063z"/>
	</g>
	<g>
		<path fill="#656872" d="M565.6787,769.5723H366.7759c-11.1655,0-20.2002-9.0352-20.2002-20.1993
			c0-11.166,9.0347-20.2011,20.2002-20.2011h198.9028c11.1455,0,20.2002,9.0351,20.2002,20.2011
			C585.8789,760.5371,576.8242,769.5723,565.6787,769.5723L565.6787,769.5723z"/>
	</g>
</g>
</svg>
