<?xml version="1.0" encoding="utf-8"?>
<!-- Generator: Adobe Illustrator 20.0.0, SVG Export Plug-In . SVG Version: 6.00 Build 0)  -->
<svg version="1.1" id="index" xmlns="http://www.w3.org/2000/svg" xmlns:xlink="http://www.w3.org/1999/xlink" x="0px" y="0px"
	 viewBox="0 0 1010 1010" enable-background="new 0 0 1010 1010" xml:space="preserve">
<g id="index-index">
	<g>
		<path fill="#ECF0F1" d="M892.8242,505c0,214.1514-173.6523,387.8047-387.8242,387.8047
			c-214.1909,0-387.8633-173.6533-387.8633-387.8047c0-214.2305,173.6724-387.8638,387.8633-387.8638
			C719.1719,117.1362,892.8242,290.7695,892.8242,505z"/>
	</g>
	<g>
		<path fill="#656872" d="M505,1010C226.54,1010,0,783.46,0,505C0,226.5396,226.54,0,505,0c278.4609,0,505,226.5396,505,505
			C1010,783.46,783.4609,1010,505,1010L505,1010z M505,40.3999C248.8213,40.3999,40.4004,248.8306,40.4004,505
			c0,256.1689,208.4209,464.5996,464.5996,464.5996c256.1797,0,464.5996-208.4307,464.5996-464.5996
			C969.5996,248.8306,761.1797,40.3999,505,40.3999L505,40.3999z"/>
	</g>
	<g>
		<path fill="#656872" d="M505,1010c-152.6934,0-272.3052-221.8252-272.3052-505S352.3066,0,505,0
			c152.6836,0,272.2861,221.8252,272.2861,505S657.6836,1010,505,1010L505,1010z M505,40.3999
			c-125.7075,0-231.9053,212.7705-231.9053,464.6001c0,251.8291,106.1978,464.5996,231.9053,464.5996
			c125.6973,0,231.8857-212.7705,231.8857-464.5996C736.8857,253.1704,630.6973,40.3999,505,40.3999L505,40.3999z"/>
	</g>
	<g>
		<polygon fill="#656872" points="525.2002,989.7998 484.8003,989.7998 484.8003,20.1997 525.2002,20.1997 525.2002,989.7998 		"/>
	</g>
	<g>
		<polygon fill="#656872" points="989.8008,525.1992 20.2002,525.1992 20.2002,484.7998 989.8008,484.7998 989.8008,525.1992 		"/>
	</g>
	<g>
		<path fill="#656872" d="M505,311.877c-151.0854,0-292.6333-34.1075-388.3667-93.5635l-19.3911-12.0528l14.3218-17.7934
			C208.0659,68.6875,351.4683,0,505,0c153.5215,0,296.9141,68.6875,393.417,188.4673l14.3213,17.7934l-19.3906,12.0528
			C797.6143,277.7695,656.0664,311.877,505,311.877L505,311.877z M158.2959,195.8057
			c88.7896,48.271,213.4712,75.6709,346.7041,75.6709c133.2236,0,257.8955-27.3999,346.6846-75.6709
			C763.4082,96.7588,638.3516,40.3999,505,40.3999C371.6387,40.3999,246.5723,96.7588,158.2959,195.8057L158.2959,195.8057z"/>
	</g>
	<g>
		<path fill="#656872" d="M505,1010c-153.4824,0-296.8848-68.708-393.436-188.5078l-14.3316-17.793l19.4112-12.0332
			C212.3765,732.2109,353.9243,698.123,505,698.123c151.0664,0,292.6045,34.0879,388.3379,93.543l19.4101,12.0332l-14.331,17.793
			C801.8652,941.292,658.4727,1010,505,1010L505,1010z M158.2959,814.1543C246.6216,913.2207,371.6782,969.5996,505,969.5996
			c133.3027,0,258.3594-56.3789,346.6846-155.4453c-88.7989-48.251-213.461-75.6309-346.6846-75.6309
			C371.7671,738.5234,247.0952,765.9033,158.2959,814.1543L158.2959,814.1543z"/>
	</g>
	<g>
		<path fill="#ED7161" d="M787.7803,261.4556c0,39.6504-32.1338,71.8442-71.8242,71.8442
			c-39.6505,0-71.8047-32.1938-71.8047-71.8442c0-39.69,32.1543-71.8243,71.8047-71.8243
			C755.6465,189.6313,787.7803,221.7656,787.7803,261.4556z"/>
		<path fill="#656872" d="M715.9561,353.5c-50.7276,0-92.0049-41.2881-92.0049-92.0444c0-50.7369,41.2773-92.0244,92.0049-92.0244
			c50.7469,0,92.0244,41.2875,92.0244,92.0244C807.9805,312.2119,766.7031,353.5,715.9561,353.5L715.9561,353.5z M715.9561,209.8311
			c-28.4561,0-51.6046,23.1591-51.6046,51.6245c0,28.4853,23.1484,51.644,51.6046,51.644c28.4658,0,51.624-23.1587,51.624-51.644
			C767.5801,232.9902,744.4219,209.8311,715.9561,209.8311L715.9561,209.8311z"/>
	</g>
	<g>
		<path fill="#FFCA70" d="M787.7803,746.2559c0,39.6895-32.1338,71.8438-71.8242,71.8438
			c-39.6505,0-71.8047-32.1543-71.8047-71.8438c0-39.6503,32.1543-71.8047,71.8047-71.8047
			C755.6465,674.4512,787.7803,706.6055,787.7803,746.2559z"/>
		<path fill="#656872" d="M715.9561,838.2998c-50.7276,0-92.0049-41.2685-92.0049-92.0439
			c0-50.7364,41.2773-92.0049,92.0049-92.0049c50.7469,0,92.0244,41.2685,92.0244,92.0049
			C807.9805,797.0313,766.7031,838.2998,715.9561,838.2998L715.9561,838.2998z M715.9561,694.6504
			c-28.4561,0-51.6046,23.1601-51.6046,51.6055c0,28.4843,23.1484,51.6445,51.6046,51.6445c28.4658,0,51.624-23.1602,51.624-51.6445
			C767.5801,717.8105,744.4219,694.6504,715.9561,694.6504L715.9561,694.6504z"/>
	</g>
	<g>
		<path fill="#BDBF6D" d="M325.4492,504.9805c0,39.6894-32.1743,71.8242-71.8247,71.8242
			c-39.6699,0-71.8242-32.1348-71.8242-71.8242c0-39.6905,32.1543-71.8052,71.8242-71.8052
			C293.2749,433.1753,325.4492,465.29,325.4492,504.9805z"/>
		<path fill="#656872" d="M253.6245,597.0039c-50.7466,0-92.0244-41.2676-92.0244-92.0234
			c0-50.7168,41.2778-92.0049,92.0244-92.0049s92.0244,41.2881,92.0244,92.0049
			C345.6489,555.7363,304.3711,597.0039,253.6245,597.0039L253.6245,597.0039z M253.6245,453.375
			c-28.4653,0-51.6245,23.1396-51.6245,51.6055c0,28.4648,23.1592,51.624,51.6245,51.624s51.6245-23.1592,51.6245-51.624
			C305.249,476.5146,282.0898,453.375,253.6245,453.375L253.6245,453.375z"/>
	</g>
</g>
</svg>
