<?xml version="1.0" encoding="utf-8"?>
<!-- Generator: Adobe Illustrator 20.0.0, SVG Export Plug-In . SVG Version: 6.00 Build 0)  -->
<svg version="1.1" id="information-architecture" xmlns="http://www.w3.org/2000/svg" xmlns:xlink="http://www.w3.org/1999/xlink"
	 x="0px" y="0px" viewBox="0 0 1009.9995 719.8614" enable-background="new 0 0 1009.9995 719.8614" xml:space="preserve">
<g id="information-architecture-information-architecture">
	<g>
		<path fill="#BDC3C7" d="M20.2002,699.6612V20.1997h153.354v679.4615H20.2002z"/>
		<path fill="#656872" d="M173.5542,719.8614H20.2002C9.0449,719.8614,0,710.8262,0,699.6612V20.1997C0,9.0347,9.0449,0,20.2002,0
			h153.354c11.1558,0,20.2002,9.0347,20.2002,20.1997v679.4615C193.7544,710.8262,184.71,719.8614,173.5542,719.8614
			L173.5542,719.8614z M40.3999,679.461H153.354V40.4004H40.3999V679.461L40.3999,679.461z"/>
	</g>
	<g>
		<path fill="#ED7161" d="M457.8926,567.6504l-53.4195,132.0108H246.2466L541.3555,20.1997h158.206l290.2373,679.4615H825.7539
			L772.373,567.6504H457.8926z M616.0986,180.3994L508.353,444.3799h214.5064L616.0986,180.3994z"/>
		<path fill="#656872" d="M989.7988,719.8614H825.7539c-8.2363,0-15.6435-4.9903-18.7305-12.625L758.752,587.8516H471.5137
			l-48.3199,119.3848c-3.0874,7.6347-10.4946,12.625-18.7207,12.625H246.2466c-6.8057,0-13.1577-3.4327-16.8858-9.1133
			c-3.7382-5.7012-4.3496-12.8819-1.6372-19.1348L522.8325,12.1514C526.0278,4.774,533.3071,0,541.3555,0h158.206
			c8.0889,0,15.3975,4.833,18.5733,12.2696l290.2363,679.4619c2.6738,6.2334,2.0225,13.3935-1.7158,19.0556
			C1002.917,716.4493,996.585,719.8614,989.7988,719.8614L989.7988,719.8614z M839.375,679.461h119.8281L686.2275,40.4004H554.6021
			L277.0396,679.461h113.812l48.3208-119.3858c3.0869-7.6338,10.4946-12.625,18.7202-12.625H772.373
			c8.2364,0,15.6436,4.9912,18.7305,12.625L839.375,679.461L839.375,679.461z M722.8594,464.5791H508.353
			c-6.7265,0-13.0097-3.3535-16.7676-8.9355c-3.748-5.582-4.4775-12.6641-1.9331-18.8984l107.7461-263.98
			c3.0967-7.5948,10.4952-12.5659,18.7002-12.5659c0.0098,0,0.0205,0,0.0303,0c8.2256,0.02,15.6133,5.0107,18.7002,12.625
			l106.7607,263.9804c2.5157,6.2334,1.7754,13.2959-1.9824,18.8584C735.8496,461.2461,729.5762,464.5791,722.8594,464.5791
			L722.8594,464.5791z M538.4165,424.1797h154.4878l-76.8936-190.1245L538.4165,424.1797L538.4165,424.1797z"/>
	</g>
</g>
</svg>
