<?xml version="1.0" encoding="utf-8"?>
<!-- Generator: Adobe Illustrator 20.0.0, SVG Export Plug-In . SVG Version: 6.00 Build 0)  -->
<svg version="1.1" id="interact" xmlns="http://www.w3.org/2000/svg" xmlns:xlink="http://www.w3.org/1999/xlink" x="0px" y="0px"
	 viewBox="0 0 729.5532 1009.9955" enable-background="new 0 0 729.5532 1009.9955" xml:space="preserve">
<g id="interact-interact">
	<g>
		<path fill="#BDC3C7" d="M201.9794,364.1743c-22.3134-8.8194-33.9541-18.0332-52.0459-35.8291
			c-71.8149-70.5918-71.8149-184.8438,0-255.4356c71.815-70.4541,188.1787-70.4541,259.9146,0
			c71.8144,70.5918,71.8144,184.8438,0,255.4356c-17.6577,17.3222-37.9395,30.3437-59.6221,39.2021"/>
		<path fill="#656872" d="M350.2358,387.7701c-7.9707,0-15.5171-4.7549-18.7134-12.5674
			c-4.2217-10.3379,0.73-22.1367,11.0586-26.3584c19.9067-8.1289,37.7817-19.8867,53.1211-34.9209
			c30.8276-30.3047,47.8042-70.5528,47.8042-113.3057c0-42.7539-16.9863-82.9814-47.8237-113.2861
			c-63.8145-62.7002-167.7095-62.6797-231.6031,0c-30.8173,30.3047-47.8042,70.5322-47.8042,113.2861
			c0,42.7529,16.9771,83.001,47.8238,113.3057c16.9775,16.7304,26.3686,23.9912,45.3086,31.4678
			c10.3779,4.1044,15.458,15.8427,11.3642,26.2207c-4.1035,10.3779-15.833,15.4482-26.2202,11.3642
			c-25.4609-10.0625-39.2417-20.9922-58.7935-40.2285c-38.6206-37.9785-59.8886-88.4463-59.8886-142.1299
			S97.1479,96.4663,135.768,58.5074c79.5391-78.0098,208.835-78.0098,288.2359,0c38.6303,37.9589,59.9086,88.4267,59.9086,142.1103
			S462.644,304.769,424.0136,342.7476c-19.1177,18.7432-41.3623,33.3828-66.1426,43.5039
			C355.3657,387.2769,352.7812,387.7701,350.2358,387.7701L350.2358,387.7701z"/>
	</g>
	<g>
		<path fill="#FFCA70" d="M314.5551,989.7924c-85.625,0-155.9009-154.3437-212.3667-278.3418
			c-25.1352-55.2031-46.7978-102.8105-66.5669-130.6288c-18.1904-25.6279-23.4775-64.6719,1.5982-89.7881
			c12.2124-12.2119,29.0219-19.2158,46.1074-19.2158c15.0933,0,29.1601,5.4258,39.6167,15.25l1.0259,0.9863l81.8374,102.2969
			l1.4599,1.6387l0.1382-2.1113V190.1412c0-32.8692,28.7456-60.6475,62.7593-60.6475c33.9936,0,62.7393,27.3643,62.7393,59.7598
			v361.3437V440.231c0-32.3955,28.726-59.7607,62.7197-59.7607c34.0137,0,62.7392,27.7793,62.7392,60.6484v151.3047V482.0767
			c0-32.415,28.7549-59.7803,62.7686-59.7803s62.7402,27.7793,62.7402,60.668v151.2852V523.9028
			c0-32.3955,28.7256-59.7608,62.7383-59.7608c34.0137,0,62.7402,27.7793,62.7402,60.668v226.3164
			c0,145.6816-128.0634,222.3496-153.7314,236.2383l-4.499,2.4277H314.5551z"/>
	</g>
	<g>
		<g>
			<path fill="#656872" d="M207.4052,612.6265c-11.1567,0-20.2026-9.0371-20.2026-20.2031V190.1412
				c0-43.8184,37.9888-80.8506,82.9619-80.8506c45.7324,0,82.9419,35.8681,82.9419,79.9629v277.6914
				c0,11.1464-9.0459,20.2031-20.2026,20.2031c-11.1573,0-20.2032-9.0567-20.2032-20.2031V189.2535
				c0-21.4454-19.4824-39.5577-42.5361-39.5577c-23.064,0-42.5566,18.5264-42.5566,40.4454v402.2822
				C227.6079,603.5894,218.562,612.6265,207.4052,612.6265L207.4052,612.6265z"/>
		</g>
		<g>
			<path fill="#656872" d="M458.3627,570.8002c-11.1572,0-20.2031-9.0371-20.2031-20.2031V441.1187
				c0-21.9199-19.4824-40.4453-42.5361-40.4453c-23.044,0-42.5171,18.1113-42.5171,39.5576v110.3662
				c0,11.166-9.0459,20.2031-20.2026,20.2031c-11.1573,0-20.2032-9.0371-20.2032-20.2031V440.231
				c0-44.0957,37.1997-79.9639,82.9229-79.9639c44.9629,0,82.9414,37.0323,82.9414,80.8516v109.4785
				C478.5649,561.7631,469.52,570.8002,458.3627,570.8002L458.3627,570.8002z"/>
		</g>
		<g>
			<path fill="#656872" d="M583.8715,612.6265c-11.1678,0-20.2031-9.0371-20.2031-20.2031v-109.459
				c0-21.9395-19.4932-40.4648-42.5371-40.4648c-23.0635,0-42.5664,18.1113-42.5664,39.5771v110.3467
				c0,11.166-9.0449,20.2031-20.2022,20.2031c-11.1572,0-20.2031-9.0371-20.2031-20.2031V482.0767
				c0-44.1152,37.2197-79.9824,82.9717-79.9824c44.9629,0,82.9424,37.0312,82.9424,80.8701v109.459
				C604.0737,603.5894,595.018,612.6265,583.8715,612.6265L583.8715,612.6265z"/>
		</g>
		<g>
			<path fill="#656872" d="M550.9428,1009.9955H314.5551c-98.6465,0-168.8535-154.1855-230.7837-290.2392
				C60.1157,667.809,37.7822,618.7416,19.1674,592.522c-23.1128-32.5342-29.2387-82.7451,3.7881-115.7724
				c32.5733-32.5928,84.333-33.8555,115.397-2.8799c0.5327,0.5322,1.0459,1.1045,1.519,1.6963l83.3174,104.25
				c6.9644,8.7206,5.544,21.4257-3.167,28.3906c-8.7104,6.9453-21.4258,5.5439-28.4004-3.1563L109.104,501.7867
				c-15.1918-14.2647-41.2739-12.7657-57.5805,3.5312c-16.9966,16.9873-12.3799,45.5547,0.582,63.8047
				c20.854,29.377,42.9019,77.8125,68.4414,133.8838c51.2173,112.5166,121.355,266.583,194.0083,266.583h231.4551
				c23.0635-12.4688,143.1367-83.9492,143.1367-218.4629V524.8101c0-21.9385-19.4922-40.4648-42.5371-40.4648
				c-23.0625,0-42.5361,18.1113-42.5361,39.5576v110.3467c0,11.166-9.0557,20.2031-20.2022,20.2031
				c-11.1678,0-20.2031-9.0371-20.2031-20.2031V523.9028c0-44.0948,37.209-79.9629,82.9414-79.9629
				c44.9639,0,82.9434,37.0322,82.9434,80.8701v226.3164c0,173.8945-162.9844,253.6006-169.9297,256.915
				C556.9204,1009.3237,553.9418,1009.9955,550.9428,1009.9955L550.9428,1009.9955z"/>
		</g>
	</g>
</g>
</svg>
