<?xml version="1.0" encoding="utf-8"?>
<!-- Generator: Adobe Illustrator 20.0.0, SVG Export Plug-In . SVG Version: 6.00 Build 0)  -->
<svg version="1.1" id="layout" xmlns="http://www.w3.org/2000/svg" xmlns:xlink="http://www.w3.org/1999/xlink" x="0px" y="0px"
	 viewBox="0 0 1010 1010" enable-background="new 0 0 1010 1010" xml:space="preserve">
<g id="layout-layout">
	<g>
		<rect x="21.0415" y="787.3164" fill="#FFCA70" width="967.9175" height="201.6426"/>
	</g>
	<g>
		<rect x="21.0415" y="21.0415" fill="#BDC3C7" width="967.9175" height="215.0815"/>
	</g>
	<g>
		<rect x="21.0415" y="236.123" fill="#BDBF6D" width="483.9585" height="551.1934"/>
	</g>
	<g>
		<rect x="505" y="236.123" fill="#ED7161" width="483.959" height="551.1934"/>
	</g>
	<g>
		<path fill="#656872" d="M1010,1010H0V0h1010V1010L1010,1010z M42.0835,967.916H967.916V42.0835H42.0835V967.916L42.0835,967.916z"
			/>
	</g>
	<g>
		<polygon fill="#656872" points="988.959,257.1646 21.0415,257.1646 21.0415,215.0811 988.959,215.0811 988.959,257.1646 		"/>
	</g>
	<g>
		<polygon fill="#656872" points="988.959,821.7754 21.0415,821.7754 21.0415,779.6924 988.959,779.6924 988.959,821.7754 		"/>
	</g>
	<g>
		<polygon fill="#656872" points="526.0415,787.3164 483.9585,787.3164 483.9585,222.6841 526.0415,222.6841 526.0415,787.3164 		
			"/>
	</g>
</g>
</svg>
