<?xml version="1.0" encoding="utf-8"?>
<!-- Generator: Adobe Illustrator 20.0.0, SVG Export Plug-In . SVG Version: 6.00 Build 0)  -->
<svg version="1.1" id="mobile-chat" xmlns="http://www.w3.org/2000/svg" xmlns:xlink="http://www.w3.org/1999/xlink" x="0px"
	 y="0px" viewBox="0 0 801.0171 1010" enable-background="new 0 0 801.0171 1010" xml:space="preserve">
<g id="mobile-chat-mobile-chat">
	<g>
		<g>
			<path fill="#ECF0F1" d="M20.2002,120.4897V77.1108c0-31.3847,25.5259-56.9111,56.8716-56.9111h421.122
				c31.3858,0,56.9122,25.5264,56.9122,56.9111v43.3789H20.2002z"/>
		</g>
		<g>
			<path fill="#ECF0F1" d="M77.0718,989.7998c-31.3457,0-56.8716-25.5264-56.8716-56.9111V789.1611H555.106v143.7276
				c0,31.3847-25.5264,56.9111-56.9122,56.9111H77.0718z"/>
		</g>
		<g>
			<polygon fill="#ED7161" points="20.2002,789.1611 20.2002,120.4897 555.106,120.4897 555.106,220.8188 254.2358,220.8188 
				254.2358,538.4365 321.0698,538.4365 321.0698,638.7461 454.8354,538.4365 555.106,538.4365 555.106,789.1611 			"/>
		</g>
		<g>
			<polygon fill="#FFCA70" points="780.8169,538.4365 448.5625,538.4365 325.2715,628.252 325.2715,538.4365 254.2358,538.4365 
				254.2358,220.8188 780.8169,220.8188 			"/>
		</g>
	</g>
	<g>
		<g>
			<path fill="#656872" d="M498.1938,1010H77.0718C34.5806,1010,0,975.3994,0,932.8887V77.1108C0,34.6001,34.5806,0,77.0718,0
				h421.122c42.5118,0,77.1114,34.6001,77.1114,77.1108V241.019H274.436v277.2173h66.8335v80.1094l106.8394-80.1094h127.1963
				v414.6523C575.3052,975.3994,540.7056,1010,498.1938,1010L498.1938,1010z M77.0718,40.3999
				c-20.2198,0-36.6719,16.4717-36.6719,36.7109v855.7778c0,20.2393,16.4521,36.7109,36.6719,36.7109h421.122
				c20.2403,0,36.712-16.4717,36.712-36.7109v-374.252H461.562L300.8696,679.1465V558.6367h-66.8335V200.6191h300.8697V77.1108
				c0-20.2392-16.4717-36.7109-36.712-36.7109H77.0718L77.0718,40.3999z"/>
		</g>
		<g>
			<path fill="#656872" d="M555.106,809.3613H20.2002C9.0347,809.3613,0,800.3066,0,789.1611
				c0-11.1454,9.0347-20.2002,20.2002-20.2002H555.106c11.165,0,20.1992,9.0547,20.1992,20.2002
				C575.3052,800.3066,566.271,809.3613,555.106,809.3613L555.106,809.3613z"/>
		</g>
		<g>
			<path fill="#656872" d="M555.106,140.6895H20.2002C9.0347,140.6895,0,131.6548,0,120.4897
				c0-11.1455,9.0347-20.2001,20.2002-20.2001H555.106c11.165,0,20.1992,9.0546,20.1992,20.2001
				C575.3052,131.6548,566.271,140.6895,555.106,140.6895L555.106,140.6895z"/>
		</g>
		<g>
			<polygon fill="#656872" points="801.0171,558.6367 563.5093,558.6367 563.5093,518.2363 760.6167,518.2363 760.6167,241.019 
				563.5093,241.019 563.5093,200.6191 801.0171,200.6191 801.0171,558.6367 			"/>
		</g>
	</g>
	<g>
		<polygon fill="#656872" points="321.1089,88.5327 254.2559,88.5327 254.2559,52.1768 321.1089,52.1768 321.1089,88.5327 		"/>
	</g>
	<g>
		<path fill="#656872" d="M322.3125,889.5098c0,19.1152-15.5054,34.6406-34.6401,34.6406
			c-19.1148,0-34.6202-15.5254-34.6202-34.6406c0-19.1348,15.5054-34.6592,34.6202-34.6592
			C306.8071,854.8506,322.3125,870.375,322.3125,889.5098z"/>
	</g>
	<g>
		<g>
			<polygon fill="#656872" points="694.8481,358.0371 348.5684,358.0371 348.5684,317.6367 694.8481,317.6367 694.8481,358.0371 			
				"/>
		</g>
		<g>
			<polygon fill="#656872" points="573.6294,441.6182 348.5684,441.6182 348.5684,401.2183 573.6294,401.2183 573.6294,441.6182 			
				"/>
		</g>
	</g>
</g>
</svg>
