<?xml version="1.0" encoding="utf-8"?>
<!-- Generator: Adobe Illustrator 20.0.0, SVG Export Plug-In . SVG Version: 6.00 Build 0)  -->
<svg version="1.1" id="network" xmlns="http://www.w3.org/2000/svg" xmlns:xlink="http://www.w3.org/1999/xlink" x="0px" y="0px"
	 viewBox="0 0 951.0508 1010" enable-background="new 0 0 951.0508 1010" xml:space="preserve">
<g id="network-network">
	<g>
		<circle fill="#BDBF6D" cx="475.5254" cy="538.4082" r="471.5918"/>
	</g>
	<g>
		<g>
			<path fill="#ECF0F1" d="M522.6924,192.563l110.0303,62.8823c0,0,0,5.4116,0,31.4512c0,26.0395-15.7159,47.1474-31.4317,47.1474
				H349.7598c-15.7158,0-31.4317-21.1079-31.4317-47.1474c0-26.0396,0-31.4512,0-31.4512l110.0303-62.8823"/>
		</g>
		<g>
			<path fill="#FFCA70" d="M554.124,106.1157c0,55.0152-30.8559,102.1822-78.5986,102.1822s-78.5986-47.167-78.5986-102.1822
				c0-55.0151,15.7158-86.4663,78.5986-86.4663S554.124,51.1006,554.124,106.1157z"/>
		</g>
		<g>
			<path fill="#656872" d="M475.5254,227.9478c-56.0132,0-98.248-52.3868-98.248-121.8321C377.2774,56.7036,388.4453,0,475.5254,0
				s98.248,56.7036,98.248,106.1157C573.7734,175.561,531.5386,227.9478,475.5254,227.9478L475.5254,227.9478z M475.5254,39.2993
				c-45.7275,0-58.9487,14.9868-58.9487,66.8164c0,40.0093,20.6567,82.5327,58.9487,82.5327s58.9492-42.5234,58.9492-82.5327
				C534.4746,54.2861,521.2529,39.2993,475.5254,39.2993L475.5254,39.2993z"/>
		</g>
		<g>
			<path fill="#656872" d="M601.291,353.6938H349.7598c-27.69,0-51.0811-30.6069-51.0811-66.7973v-42.8687l119.9317-68.5049
				l19.4961,34.1182L337.978,266.8633v20.0332c0,16.0996,8.5581,26.7305,12.0508,27.5171l251.2622-0.0191
				c3.2237-0.7675,11.7812-11.3984,11.7812-27.498v-20.0332l-100.128-57.2222l19.4962-34.1182l119.9316,68.5049v42.8687
				C652.3721,323.0869,628.9805,353.6938,601.291,353.6938L601.291,353.6938z"/>
		</g>
	</g>
	<g>
		<g>
			<path fill="#ECF0F1" d="M224.0137,727.0371l110.0303,62.8828c0,0,0,5.412,0,31.4317c0,26.0586-15.7159,47.167-31.4317,47.167
				H51.1006c-15.7354,0-31.4512-21.1084-31.4512-47.167c0-26.0197,0-31.4317,0-31.4317l110.0498-62.8828"/>
		</g>
		<g>
			<path fill="#FFCA70" d="M255.4453,640.5898c0,55.0157-30.8559,102.1631-78.5986,102.1631
				c-47.7422,0-78.5986-47.1474-78.5986-102.1631c0-55.0341,15.7158-86.4658,78.5986-86.4658S255.4453,585.5557,255.4453,640.5898z"
				/>
		</g>
		<g>
			<path fill="#656872" d="M176.8467,762.4023c-56.0127,0-98.2481-52.3671-98.2481-121.8126
				c0-49.3925,11.168-106.1152,98.2481-106.1152c87.0806,0,98.2485,56.7227,98.2485,106.1152
				C275.0952,710.0352,232.8599,762.4023,176.8467,762.4023L176.8467,762.4023z M176.8467,573.7734
				c-45.7276,0-58.9487,14.9865-58.9487,66.8164c0,39.9903,20.6567,82.5137,58.9487,82.5137s58.9492-42.5234,58.9492-82.5137
				C235.7959,588.7598,222.5742,573.7734,176.8467,573.7734L176.8467,573.7734z"/>
		</g>
		<g>
			<path fill="#656872" d="M302.6123,888.168H51.1006C23.4009,888.168,0,857.5811,0,821.3516v-42.8301l119.9512-68.543
				l19.4961,34.1172l-100.148,57.2227v20.0332c0,16.1385,8.5581,26.75,12.0601,27.537l251.2529-0.0196
				c3.2236-0.7675,11.7822-11.3984,11.7822-27.5175v-20.0332l-100.1289-57.2227l19.4961-34.1172l119.9322,68.543v42.8301
				C353.6939,857.5811,330.3023,888.168,302.6123,888.168L302.6123,888.168z"/>
		</g>
	</g>
	<g>
		<g>
			<path fill="#ECF0F1" d="M821.3516,727.0371l110.0499,62.8828c0,0,0,5.412,0,31.4317c0,26.0586-15.7158,47.167-31.4512,47.167
				H648.4385c-15.7158,0-31.4317-21.1084-31.4317-47.167c0-26.0197,0-31.4317,0-31.4317l110.0303-62.8828"/>
		</g>
		<g>
			<path fill="#FFCA70" d="M852.8027,640.5898c0,55.0157-30.8554,102.1631-78.5986,102.1631
				c-47.7432,0-78.5986-47.1474-78.5986-102.1631c0-55.0341,15.7158-86.4658,78.5986-86.4658S852.8027,585.5557,852.8027,640.5898z"
				/>
		</g>
		<g>
			<path fill="#656872" d="M774.2041,762.4023c-56.0127,0-98.249-52.3671-98.249-121.8126
				c0-49.3925,11.1689-106.1152,98.249-106.1152s98.2481,56.7227,98.2481,106.1152
				C872.4522,710.0352,830.2168,762.4023,774.2041,762.4023L774.2041,762.4023z M774.2041,573.7734
				c-45.7275,0-58.9492,14.9865-58.9492,66.8164c0,39.9903,20.667,82.5137,58.9492,82.5137
				c38.2822,0,58.9483-42.5234,58.9483-82.5137C833.1524,588.7598,819.9317,573.7734,774.2041,573.7734L774.2041,573.7734z"/>
		</g>
		<g>
			<path fill="#656872" d="M899.9502,888.168H648.4385c-27.6904,0-51.0811-30.5869-51.0811-66.8164v-42.8301l119.9316-68.543
				l19.4962,34.1172l-100.1289,57.2227v20.0332c0,16.1191,8.5586,26.75,12.0507,27.537l251.2432-0.0196
				c3.2432-0.7675,11.8018-11.3789,11.8018-27.5175v-20.0332l-100.1484-57.2227l19.4961-34.1172l119.9512,68.543v42.8301
				C951.0508,857.5811,927.6406,888.168,899.9502,888.168L899.9502,888.168z"/>
		</g>
	</g>
	<g>
		<path fill="#656872" d="M475.5254,558.0586c-10.8516,0-19.6494-8.8086-19.6494-19.6504V412.6426
			c0-10.8418,8.7978-19.6494,19.6494-19.6494s19.6499,8.8076,19.6499,19.6494v125.7656
			C495.1753,549.25,486.377,558.0586,475.5254,558.0586L475.5254,558.0586z"/>
	</g>
	<g>
		<path fill="#656872" d="M349.7793,652.373c-5.9775,0-11.8784-2.7255-15.7353-7.8681c-6.5147-8.6729-4.7588-20.9932,3.9243-27.4981
			l125.7656-94.3144c8.7212-6.5244,21.0215-4.7207,27.5073,3.915c6.5147,8.6924,4.7588,21.0117-3.9243,27.5166l-125.7651,94.3145
			C358.0112,651.1055,353.876,652.373,349.7793,652.373L349.7793,652.373z"/>
	</g>
	<g>
		<path fill="#656872" d="M601.2715,652.373c-4.1065,0-8.2324-1.2675-11.7627-3.9345L463.7339,554.124
			c-8.6831-6.5049-10.439-18.8242-3.9243-27.5166c6.5146-8.6357,18.8247-10.4394,27.5073-3.915l125.7554,94.3144
			c8.6933,6.5049,10.459,18.8252,3.9345,27.4981C613.1504,649.6475,607.2588,652.373,601.2715,652.373L601.2715,652.373z"/>
	</g>
</g>
</svg>
