<?xml version="1.0" encoding="utf-8"?>
<!-- Generator: Adobe Illustrator 20.0.0, SVG Export Plug-In . SVG Version: 6.00 Build 0)  -->
<svg version="1.1" id="optimization" xmlns="http://www.w3.org/2000/svg" xmlns:xlink="http://www.w3.org/1999/xlink" x="0px"
	 y="0px" viewBox="0 0 1010 1010" enable-background="new 0 0 1010 1010" xml:space="preserve">
<g id="optimization-optimization">
	<g>
		<path fill="#ECF0F1" d="M28.5151,594.834c-5.4546-29.1153-8.3149-59.1396-8.3149-89.834
			C20.2002,237.2314,237.2417,20.1997,505,20.1997c267.7588,0,484.8008,217.0317,484.8008,484.8003
			c0,30.6943-2.8613,60.7187-8.3154,89.7949"/>
	</g>
	<g>
		<path fill="#FFCA70" d="M505,702.502L243.1694,594.7559c-9.646-28.1309-14.8637-58.3321-14.8637-89.7559
			c0-152.8022,123.8628-276.6851,276.6943-276.6851c74.1035,0,141.4004,29.1167,191.0723,76.5391"/>
	</g>
	<g>
		<path fill="#ED7161" d="M696.0723,304.854c52.7871,50.3818,85.6425,121.417,85.6425,200.146
			c0,31.4434-5.2382,115.5186-14.8837,143.6875l-369.5674,17.9121"/>
	</g>
	<g>
		<path fill="#BDBF6D" d="M359.1123,595.623h289.5361l332.837-0.8281C939.3887,819.6387,742.0742,989.7998,505,989.7998
			c-237.0537,0-434.3687-170.1416-476.4849-394.9658L359.1123,595.623z"/>
	</g>
	<g>
		<path fill="#656872" d="M505,1010C226.54,1010,0,783.46,0,505C0,226.5396,226.54,0,505,0c278.4609,0,505,226.5396,505,505
			C1010,783.46,783.4609,1010,505,1010L505,1010z M505,40.3999C248.8213,40.3999,40.4004,248.8306,40.4004,505
			c0,256.1689,208.4209,464.5996,464.5996,464.5996c256.1797,0,464.5996-208.4307,464.5996-464.5996
			C969.5996,248.8306,761.1797,40.3999,505,40.3999L505,40.3999z"/>
	</g>
	<g>
		<path fill="#656872" d="M766.8311,615.0352c-2.17,0-4.3799-0.3555-6.5498-1.1055c-10.5528-3.6289-16.1758-15.1104-12.5557-25.6641
			c9.1435-26.7295,13.789-54.7412,13.789-83.2656c0-70.7793-28.1992-136.666-79.3896-185.5283
			C634.1895,273.7061,571.291,248.5151,505,248.5151c-141.4292,0-256.4946,115.0454-256.4946,256.4849
			c0,28.5645,4.6357,56.5361,13.7695,83.207c3.6196,10.5529-2.0024,22.0537-12.5562,25.6447
			c-10.5634,3.6289-22.0444-1.9932-25.6543-12.5469c-10.5933-30.8916-15.959-63.2832-15.959-96.3047
			c0-163.7109,133.1841-296.8848,296.8945-296.8848c76.7266,0,149.5371,29.1558,205.0186,82.1411
			C769.2773,346.793,801.9141,423.0557,801.9141,505c0,33.002-5.375,65.4131-15.9786,96.3643
			C783.0664,609.748,775.2246,615.0352,766.8311,615.0352L766.8311,615.0352z"/>
	</g>
	<g>
		<path fill="#656872" d="M543.0825,487.127c-5.1685,0-10.3369-1.9727-14.2822-5.918c-7.8906-7.8906-7.8906-20.6729,0-28.5635
			l123.5181-123.5278c7.8906-7.8906,20.6738-7.8906,28.5644,0c7.8906,7.8906,7.8906,20.6733,0,28.5639L557.3643,481.209
			C553.4189,485.1543,548.2505,487.127,543.0825,487.127L543.0825,487.127z"/>
	</g>
	<g>
		<path fill="#ECF0F1" d="M558.8638,505c0,29.748-24.126,53.8535-53.8638,53.8535S451.1367,534.748,451.1367,505
			S475.2622,451.1465,505,451.1465S558.8638,475.252,558.8638,505z"/>
		<path fill="#656872" d="M505,579.0527c-40.834,0-74.063-33.2188-74.063-74.0527s33.229-74.0537,74.063-74.0537
			S579.0635,464.166,579.0635,505S545.834,579.0527,505,579.0527L505,579.0527z M505,471.3457
			c-18.5625,0-33.6631,15.0918-33.6631,33.6543S486.4375,538.6533,505,538.6533c18.563,0,33.6636-15.0908,33.6636-33.6533
			S523.563,471.3457,505,471.3457L505,471.3457z"/>
	</g>
	<g>
		<path fill="#656872" d="M505,184.0488c-11.1553,0-20.1997-9.0351-20.1997-20.2002V92.0244
			c0-11.1455,9.0444-20.2002,20.1997-20.2002c11.1558,0,20.2002,9.0547,20.2002,20.2002v71.8242
			C525.2002,175.0137,516.1558,184.0488,505,184.0488L505,184.0488z"/>
	</g>
	<g>
		<path fill="#656872" d="M917.9756,525.1992h-71.8242c-11.1553,0-20.2002-9.0342-20.2002-20.1992
			c0-11.166,9.0449-20.2002,20.2002-20.2002h71.8242c11.1553,0,20.2002,9.0342,20.2002,20.2002
			C938.1758,516.165,929.1309,525.1992,917.9756,525.1992L917.9756,525.1992z"/>
	</g>
	<g>
		<path fill="#656872" d="M163.8491,525.1992H92.0244c-11.1553,0-20.1997-9.0342-20.1997-20.1992
			c0-11.166,9.0444-20.2002,20.1997-20.2002h71.8247c11.1553,0,20.1997,9.0342,20.1997,20.2002
			C184.0488,516.165,175.0044,525.1992,163.8491,525.1992L163.8491,525.1992z"/>
	</g>
	<g>
		<path fill="#656872" d="M334.4443,229.7354c-6.9834,0-13.769-3.6299-17.5073-10.1001l-35.9121-62.1783
			c-5.5825-9.666-2.2783-22.0146,7.3877-27.5776c9.6362-5.6416,22.0049-2.2881,27.5874,7.3779l35.9121,62.1782
			c5.5825,9.6661,2.2783,22.0147-7.3877,27.5777C341.3486,228.8672,337.8667,229.7354,334.4443,229.7354L334.4443,229.7354z"/>
	</g>
	<g>
		<path fill="#656872" d="M800.4844,354.624c-6.9834,0-13.7696-3.6098-17.5078-10.0996
			c-5.5821-9.6465-2.2774-22.0151,7.3886-27.5976l62.1779-35.9024c9.6367-5.6025,22.0244-2.2685,27.5878,7.3779
			c5.582,9.6661,2.2773,22.0147-7.3887,27.5972l-62.1777,35.9224C807.3887,353.7563,803.9063,354.624,800.4844,354.624
			L800.4844,354.624z"/>
	</g>
	<g>
		<path fill="#656872" d="M209.5161,354.624c-3.4326,0-6.9043-0.8677-10.0806-2.7021l-62.1777-35.9224
			c-9.666-5.5825-12.9702-17.9311-7.3877-27.5972c5.563-9.666,17.9312-13,27.5874-7.3779l62.1782,35.9024
			c9.6661,5.5825,12.9703,17.9511,7.3877,27.5976C223.2852,351.0142,216.499,354.624,209.5161,354.624L209.5161,354.624z"/>
	</g>
	<g>
		<path fill="#656872" d="M675.5566,229.7354c-3.4336,0-6.9043-0.8682-10.081-2.7222c-9.666-5.563-12.9697-17.9116-7.3877-27.5777
			L694,137.2573c5.5732-9.666,17.9219-13,27.5879-7.3779c9.666,5.563,12.9707,17.9116,7.3877,27.5776l-35.9121,62.1783
			C689.3252,226.1055,682.5391,229.7354,675.5566,229.7354L675.5566,229.7354z"/>
	</g>
	<g>
		<path fill="#656872" d="M963.4063,632.9463H46.5942c-11.1552,0-20.1997-9.0547-20.1997-20.2002
			c0-11.165,9.0445-20.1992,20.1997-20.1992h916.8121c11.1552,0,20.1992,9.0342,20.1992,20.1992
			C983.6055,623.8916,974.5615,632.9463,963.4063,632.9463L963.4063,632.9463z"/>
	</g>
	<g>
		<g>
			<rect x="325.4492" y="706.8809" fill="#ECF0F1" width="359.1016" height="123.4882"/>
			<path fill="#656872" d="M684.5508,850.5703H325.4492c-11.1557,0-20.2002-9.0547-20.2002-20.2012V706.8809
				c0-11.1446,9.0445-20.1993,20.2002-20.1993h359.1016c11.1562,0,20.2012,9.0547,20.2012,20.1993v123.4882
				C704.752,841.5156,695.707,850.5703,684.5508,850.5703L684.5508,850.5703z M345.6489,810.1699h318.7027v-83.088H345.6489
				V810.1699L345.6489,810.1699z"/>
		</g>
		<g>
			<polygon fill="#656872" points="465.5864,788.8262 373.3647,788.8262 373.3647,748.4258 465.5864,748.4258 465.5864,788.8262 			
				"/>
		</g>
		<g>
			<polygon fill="#656872" points="555.9243,788.8262 481.999,788.8262 481.999,748.4258 555.9243,748.4258 555.9243,788.8262 			
				"/>
		</g>
		<g>
			<polygon fill="#656872" points="636.6357,788.8262 572.3369,788.8262 572.3369,748.4258 636.6357,748.4258 636.6357,788.8262 			
				"/>
		</g>
	</g>
</g>
</svg>
