<?xml version="1.0" encoding="utf-8"?>
<!-- Generator: Adobe Illustrator 20.0.0, SVG Export Plug-In . SVG Version: 6.00 Build 0)  -->
<svg version="1.1" id="profiling" xmlns="http://www.w3.org/2000/svg" xmlns:xlink="http://www.w3.org/1999/xlink" x="0px" y="0px"
	 viewBox="0 0 1009.9999 1009.998" enable-background="new 0 0 1009.9999 1009.998" xml:space="preserve">
<g id="profiling-profiling">
	<g id="profiling-fill">
		<g>
			<polygon fill="#FFCA70" points="317.3793,598.7695 411.1503,692.5605 114.1762,989.5947 20.4052,895.7431 			"/>
		</g>
		<g>
			<path fill="#BDC3C7" d="M989.5956,333c0,172.6767-139.959,312.6748-312.6553,312.6748
				c-172.6572,0-312.6557-139.9981-312.6557-312.6748c0-172.6377,139.9985-312.5967,312.6557-312.5967
				C849.6365,20.4033,989.5956,160.3623,989.5956,333z"/>
		</g>
	</g>
	<g id="profiling-line">
		<g>
			<path fill="#656872" d="M676.9402,666.0791c-183.646,0-333.0595-149.4239-333.0595-333.0791
				c0-183.6162,149.4135-333,333.0595-333c183.6455,0,333.0596,149.3838,333.0596,333
				C1009.9999,516.6552,860.5858,666.0791,676.9402,666.0791L676.9402,666.0791z M676.9402,40.8076
				c-161.1499,0-292.2514,131.0723-292.2514,292.1924c0,161.1592,131.1015,292.2705,292.2514,292.2705
				c161.1494,0,292.251-131.1113,292.251-292.2705C969.1913,171.8799,838.0897,40.8076,676.9402,40.8076L676.9402,40.8076z"/>
		</g>
		<g>
			<polygon fill="#656872" points="378.7108,660.1006 349.8583,631.249 443.6688,537.4385 472.5214,566.29 378.7108,660.1006 			"/>
		</g>
		<g>
			<path fill="#656872" d="M114.1762,1009.998L114.1762,1009.998c-5.42,0-10.6104-2.1513-14.4366-5.9775L5.9691,910.1699
				c-7.9604-7.9697-7.9604-20.8818,0.0098-28.8525L302.953,584.3427c3.8257-3.8251,9.0166-5.9765,14.4263-5.9765l0,0
				c5.4097,0,10.6006,2.1514,14.4263,5.9765l93.771,93.7911c7.9702,7.9707,7.9702,20.8828,0,28.8535l-296.9742,297.0332
				C124.7768,1007.8467,119.5858,1009.998,114.1762,1009.998L114.1762,1009.998z M49.2577,895.7431l64.9185,64.9786
				l268.1216-268.1612l-64.9185-64.9385L49.2577,895.7431L49.2577,895.7431z"/>
		</g>
		<g>
			<path fill="#656872" d="M872.5115,350.7334c-11.2676,0-20.4043-9.126-20.4043-20.4043
				c0-84.2461-68.5547-152.791-152.8105-152.791c-11.2676,0-20.4043-9.126-20.4043-20.4034
				c0-11.2783,9.1367-20.4043,20.4043-20.4043c106.7627,0,193.6191,86.8565,193.6191,193.5987
				C892.9159,341.6074,883.7802,350.7334,872.5115,350.7334L872.5115,350.7334z"/>
		</g>
	</g>
</g>
</svg>
