<?xml version="1.0" encoding="utf-8"?>
<!-- Generator: Adobe Illustrator 20.0.0, SVG Export Plug-In . SVG Version: 6.00 Build 0)  -->
<svg version="1.1" id="prototyping" xmlns="http://www.w3.org/2000/svg" xmlns:xlink="http://www.w3.org/1999/xlink" x="0px"
	 y="0px" viewBox="0 0 1010 1010" enable-background="new 0 0 1010 1010" xml:space="preserve">
<g id="prototyping-prototyping">
	<g>
		<g>
			<rect x="313.2676" y="28.3296" fill="#ECF0F1" width="676.6982" height="961.6362"/>
		</g>
		<g>
			<path fill="#656872" d="M1010,1010H293.2334V8.2954H1010V1010L1010,1010z M333.3018,969.9316h636.6298V48.3638H333.3018V969.9316
				L333.3018,969.9316z"/>
		</g>
	</g>
	<g>
		<g>
			<polygon fill="#BDBF6D" points="105.6875,194.4326 28.3296,117.0742 117.0937,28.3296 194.4326,105.6875 			"/>
		</g>
		<g>
			<polygon fill="#ED7161" points="612.8789,701.623 105.6875,194.4326 194.4326,105.6875 701.6621,612.8789 			"/>
		</g>
		<g>
			<polygon fill="#BDC3C7" points="611.1182,703.3848 703.4238,611.1182 749.5566,749.5566 			"/>
		</g>
		<g>
			<path fill="#656872" d="M781.2324,781.252l-175.6113-58.5967L0,117.0742L117.0937,0l605.6016,605.5811L781.2324,781.252
				L781.2324,781.252z M627.2588,687.6348l90.623,30.2275l-30.208-90.6426L117.0937,56.6587l-60.415,60.4155L627.2588,687.6348
				L627.2588,687.6348z"/>
		</g>
		<g>
			<polygon fill="#656872" points="630.4863,712.3457 602.1582,684.0156 686.2461,599.9668 714.5752,628.2959 630.4863,712.3457 			
				"/>
		</g>
	</g>
	<g>
		<g>
			<g>
				<polygon fill="#FFCA70" points="749.5566,989.9658 28.3296,989.9658 28.3296,268.7388 				"/>
				<path fill="#656872" d="M797.9199,1010H8.2954V220.375L797.9199,1010L797.9199,1010z M48.3638,969.9316h652.8296
					L48.3638,317.1021V969.9316L48.3638,969.9316z"/>
			</g>
			<g>
				<polygon fill="#FFFFFF" points="183.2417,835.0342 183.2417,634.7129 383.5825,835.0342 				"/>
				<path fill="#656872" d="M383.5825,855.0684H183.2417c-11.0542,0-20.0342-8.961-20.0342-20.0342V634.7129
					c0-8.0996,4.8911-15.417,12.3648-18.5078c7.4931-3.1309,16.1015-1.3887,21.8339,4.3438l200.3409,200.3203
					c5.7324,5.7325,7.4541,14.3418,4.3432,21.834C398.9995,850.1777,391.6821,855.0684,383.5825,855.0684L383.5825,855.0684z
					 M203.2759,815h131.9429L203.2759,683.0762V815L203.2759,815z"/>
			</g>
		</g>
		<g>
			<polygon fill="#656872" points="108.4658,535.9902 8.2954,535.9902 8.2954,495.9219 108.4658,495.9219 108.4658,535.9902 			"/>
		</g>
		<g>
			<polygon fill="#656872" points="108.4658,698.376 8.2954,698.376 8.2954,658.3076 108.4658,658.3076 108.4658,698.376 			"/>
		</g>
		<g>
			<polygon fill="#656872" points="108.4658,860.7813 8.2954,860.7813 8.2954,820.7129 108.4658,820.7129 108.4658,860.7813 			"/>
		</g>
	</g>
</g>
</svg>
