<?xml version="1.0" encoding="utf-8"?>
<!-- Generator: Adobe Illustrator 20.0.0, SVG Export Plug-In . SVG Version: 6.00 Build 0)  -->
<svg version="1.1" id="rating-hearts" xmlns="http://www.w3.org/2000/svg" xmlns:xlink="http://www.w3.org/1999/xlink" x="0px"
	 y="0px" viewBox="0 0 1010 1010" enable-background="new 0 0 1010 1010" xml:space="preserve">
<g id="rating-hearts-rating-hearts">
	<g>
		<g>
			<path fill="#ECF0F1" d="M988.959,218.3486c0,0,0,66.8238,0,66.8443"/>
		</g>
		<g>
			<rect x="21.0415" y="21.0415" fill="#BDC3C7" width="967.9175" height="197.3071"/>
		</g>
		<g>
			<rect x="21.0415" y="218.3486" fill="#BDBF6D" width="967.9175" height="770.6104"/>
		</g>
		<g>
			<g>
				<path fill="#656872" d="M1010,1010H0V0h1010V1010L1010,1010z M42.0835,967.916H967.916V42.0835H42.0835V967.916L42.0835,967.916
					z"/>
			</g>
			<g>
				<path fill="none" d="M977.1426,452.1904"/>
			</g>
			<g>
				<path fill="none" d="M977.1426,227.3896"/>
			</g>
			<g>
				<polygon fill="#656872" points="984.0273,239.3901 34.3364,239.3901 34.3364,197.3066 984.0273,197.3066 984.0273,239.3901 				
					"/>
			</g>
		</g>
		<g>
			<g>
				<line fill="#ECF0F1" x1="133.1748" y1="101.7153" x2="133.1748" y2="142.0312"/>
				<polygon fill="#656872" points="154.2163,142.0312 112.1333,142.0312 112.1333,101.7153 154.2163,101.7153 154.2163,142.0312 
									"/>
			</g>
			<g>
				<line fill="#ECF0F1" x1="226.1567" y1="101.7153" x2="226.1567" y2="142.0312"/>
				<polygon fill="#656872" points="247.1987,142.0312 205.1152,142.0312 205.1152,101.7153 247.1987,101.7153 247.1987,142.0312 
									"/>
			</g>
			<g>
				<line fill="#ECF0F1" x1="319.0566" y1="101.7153" x2="319.0566" y2="142.0312"/>
				<polygon fill="#656872" points="340.0981,142.0312 298.0151,142.0312 298.0151,101.7153 340.0981,101.7153 340.0981,142.0312 
									"/>
			</g>
		</g>
		<g>
			<polygon fill="#656872" points="876.8252,142.8945 451.8618,142.8945 451.8618,100.811 876.8252,100.811 876.8252,142.8945 			
				"/>
		</g>
	</g>
	<g>
		<g>
			<path fill-rule="evenodd" clip-rule="evenodd" fill="#ED7161" d="M605.832,550.9873c0-29.5693-24.0009-53.5498-53.5703-53.5498
				c-20.4868,0-38.2407,11.5078-47.2617,28.3574c-9.021-16.8496-26.7954-28.3574-47.2617-28.3574
				c-29.5694,0-53.5698,23.9805-53.5698,53.5498c0,16.4189,7.3974,31.0908,19.0278,40.8916l-0.1436,0.082
				c0,0,68.0977,72.8243,73.0293,78.0235c4.9317,5.1982,12.9043,5.1982,17.836,0c4.9316-5.1992,73.0088-78.0235,73.0088-78.0235
				l-0.1231-0.082C598.4141,582.0781,605.832,567.4062,605.832,550.9873"/>
			<path fill="#656872" d="M505,694.9092c-9.062,0-17.877-3.8018-24.1855-10.4385c-4.9317-5.2187-73.1324-78.125-73.1324-78.125
				c-0.123-0.1445-0.2466-0.2881-0.3696-0.4121c-15.4116-14.0957-24.1855-33.9453-24.1855-54.9463
				c0-41.1377,33.4736-74.5908,74.6113-74.5908c17.5488,0,34.1518,6.123,47.2617,16.8701
				c13.1099-10.7471,29.7134-16.8701,47.2617-16.8701c41.1387,0,74.6113,33.4531,74.6113,74.5908
				c0,21.0215-8.8144,40.9121-24.288,55.0293c-0.1027,0.123-0.1846,0.2051-0.2881,0.3291c0,0-68.1797,72.9063-73.1114,78.125
				C522.8774,691.1074,514.062,694.9092,505,694.9092L505,694.9092z M440.231,579.5088c8.9389,9.5752,48.8232,52.2139,64.769,69.249
				c16.0483-17.1387,56.3027-60.207,64.9121-69.4141c0.9453-1.2939,2.0557-2.4863,3.3086-3.5332
				c7.3574-6.206,11.5693-15.248,11.5693-24.8232c0-17.918-14.5898-32.5068-32.5283-32.5068
				c-12.021,0-23.0146,6.6152-28.7065,17.2402c-7.315,13.6846-29.7954,13.6846-37.1104,0
				c-5.6919-10.625-16.6855-17.2402-28.7065-17.2402c-17.9385,0-32.5283,14.5888-32.5283,32.5068
				c0,9.5752,4.2129,18.6172,11.5483,24.8018C438.0737,576.8994,439.2241,578.1523,440.231,579.5088L440.231,579.5088z"/>
		</g>
		<g>
			<path fill-rule="evenodd" clip-rule="evenodd" fill="#ED7161" d="M323.5156,550.9873c0-29.5693-23.98-53.5498-53.5698-53.5498
				c-20.4663,0-38.2407,11.5078-47.2617,28.3574c-9.0205-16.8496-26.7954-28.3574-47.2617-28.3574
				c-29.5689,0-53.5494,23.9805-53.5494,53.5498c0,16.4189,7.377,31.0908,19.0074,40.8916l-0.1231,0.082
				c0,0,68.0977,72.8243,73.0088,78.0235c4.9317,5.1982,12.9248,5.1982,17.8565,0c4.9111-5.1992,72.9882-78.0235,72.9882-78.0235
				l-0.123-0.082C316.1182,582.0781,323.5156,567.4062,323.5156,550.9873"/>
			<path fill="#656872" d="M222.6841,694.9092c-9.062,0-17.877-3.8018-24.1856-10.4385
				c-4.9521-5.2402-73.1113-78.125-73.1113-78.125c-0.0825-0.124-0.1851-0.2061-0.2676-0.3086
				c-15.4726-14.1172-24.2881-34.0078-24.2881-55.0498c0-41.1377,33.4532-74.5908,74.5909-74.5908
				c17.5488,0,34.1518,6.123,47.2617,16.8701c13.1098-10.7471,29.7134-16.8701,47.2617-16.8701
				c41.1382,0,74.6113,33.4531,74.6113,74.5908c0,21.042-8.8149,40.9326-24.3086,55.0498c-0.0825,0.1025-0.185,0.1846-0.2671,0.3086
				c0,0-68.1391,72.8848-73.0708,78.084C240.582,691.1074,231.7666,694.9092,222.6841,694.9092L222.6841,694.9092z
				 M157.833,579.4268c8.7539,9.3701,48.8438,52.2138,64.8511,69.331c16.0483-17.1387,56.3027-60.1875,64.9126-69.4141
				c0.9658-1.2939,2.0757-2.5058,3.3291-3.5546c7.3359-6.1846,11.5483-15.2266,11.5483-24.8018
				c0-17.918-14.5893-32.5068-32.5283-32.5068c-12.021,0-23.0146,6.6152-28.7065,17.2402c-7.315,13.6846-29.795,13.6846-37.1104,0
				c-5.6919-10.625-16.6855-17.2402-28.7065-17.2402c-17.918,0-32.5074,14.5888-32.5074,32.5068
				c0,9.5967,4.1919,18.6172,11.5274,24.8018C155.7168,576.8789,156.8672,578.0908,157.833,579.4268L157.833,579.4268z"/>
		</g>
		<g>
			<path fill-rule="evenodd" clip-rule="evenodd" fill="#ECF0F1" d="M888.127,550.9873c0-29.5693-23.9805-53.5498-53.549-53.5498
				c-20.4883,0-38.2422,11.5078-47.2617,28.3574c-9.042-16.8496-26.8164-28.3574-47.2617-28.3574
				c-29.6113,0-53.5703,23.9805-53.5703,53.5498c0,16.4189,7.3974,31.0908,19.0078,40.8916l-0.1035,0.082
				c0,0,68.0781,72.8243,72.9883,78.0235c4.9316,5.1982,12.9257,5.1982,17.8359,0c4.9316-5.1992,73.0098-78.0235,73.0098-78.0235
				l-0.1036-0.082C880.7295,582.0781,888.127,567.4062,888.127,550.9873"/>
			<path fill="#656872" d="M787.2949,694.9092c-9.0615,0-17.8768-3.8018-24.1855-10.4385
				c-4.9512-5.2402-73.0908-78.125-73.0908-78.125c-0.0616-0.082-0.1231-0.1445-0.1846-0.2061
				c-15.5352-14.1376-24.3906-34.0693-24.3906-55.1523c0-41.1377,33.4727-74.5908,74.6113-74.5908
				c17.5478,0,34.1308,6.123,47.2617,16.8906c13.1094-10.7676,29.7129-16.8906,47.2617-16.8906
				c41.1367,0,74.59,33.4531,74.59,74.5908c0,21.083-8.8555,41.0147-24.3907,55.1523c-0.0615,0.0616-0.123,0.1241-0.1855,0.2061
				c0,0-68.1797,72.9063-73.1113,78.125C805.2129,691.0879,796.3984,694.9092,787.2949,694.9092L787.2949,694.9092z
				 M722.3613,579.3027c8.549,9.1651,48.8448,52.2559,64.9336,69.4336c16.1514-17.2188,56.6115-60.5156,65.0156-69.4941
				c0.9249-1.2539,2.0137-2.4043,3.2266-3.4317c7.3359-6.206,11.5479-15.248,11.5479-24.8232
				c0-17.918-14.5889-32.5068-32.507-32.5068c-12.0215,0-23.0156,6.6152-28.707,17.2402
				c-3.6582,6.8418-10.7881,11.1162-18.5547,11.1162l0,0c-7.748,0-14.8769-4.2744-18.5351-11.0967
				c-5.713-10.6445-16.7266-17.2597-28.7266-17.2597c-17.9395,0-32.5293,14.5888-32.5293,32.5068
				c0,9.5752,4.2129,18.6172,11.5488,24.8232C720.3066,576.8379,721.417,578.0293,722.3613,579.3027L722.3613,579.3027z"/>
		</g>
	</g>
</g>
</svg>
