<?xml version="1.0" encoding="utf-8"?>
<!-- Generator: Adobe Illustrator 20.0.0, SVG Export Plug-In . SVG Version: 6.00 Build 0)  -->
<svg version="1.1" id="rating-stars" xmlns="http://www.w3.org/2000/svg" xmlns:xlink="http://www.w3.org/1999/xlink" x="0px"
	 y="0px" viewBox="0 0 1010 1010" enable-background="new 0 0 1010 1010" xml:space="preserve">
<g id="rating-stars-rating-stars">
	<g>
		<g>
			<path fill="#ECF0F1" d="M988.959,218.3486c0,0,0,66.8238,0,66.8443"/>
		</g>
		<g>
			<rect x="21.0415" y="21.0415" fill="#BDC3C7" width="967.9175" height="197.3071"/>
		</g>
		<g>
			<rect x="21.0415" y="218.3486" fill="#ED7161" width="967.9175" height="770.6104"/>
		</g>
		<g>
			<g>
				<path fill="#656872" d="M1010,1010H0V0h1010V1010L1010,1010z M42.0835,967.916H967.916V42.0835H42.0835V967.916L42.0835,967.916
					z"/>
			</g>
			<g>
				<path fill="none" d="M977.1426,452.1904"/>
			</g>
			<g>
				<path fill="none" d="M977.1426,227.3691"/>
			</g>
			<g>
				<polygon fill="#656872" points="984.0371,239.3901 34.3159,239.3901 34.3159,197.3066 984.0371,197.3066 984.0371,239.3901 				
					"/>
			</g>
		</g>
		<g>
			<g>
				<line fill="#ECF0F1" x1="133.1646" y1="101.6943" x2="133.1646" y2="142.0312"/>
				<polygon fill="#656872" points="154.2061,142.0312 112.123,142.0312 112.123,101.6943 154.2061,101.6943 154.2061,142.0312 				
					"/>
			</g>
			<g>
				<line fill="#ECF0F1" x1="226.1567" y1="101.6943" x2="226.1567" y2="142.0312"/>
				<polygon fill="#656872" points="247.1987,142.0312 205.1152,142.0312 205.1152,101.6943 247.1987,101.6943 247.1987,142.0312 
									"/>
			</g>
			<g>
				<line fill="#ECF0F1" x1="319.0669" y1="101.6943" x2="319.0669" y2="142.0312"/>
				<polygon fill="#656872" points="340.1084,142.0312 298.0254,142.0312 298.0254,101.6943 340.1084,101.6943 340.1084,142.0312 
									"/>
			</g>
		</g>
		<g>
			<polygon fill="#656872" points="876.8359,142.915 451.8721,142.915 451.8721,100.8315 876.8359,100.8315 876.8359,142.915 			"/>
		</g>
	</g>
	<g>
		<g>
			<path fill="#FFCA70" d="M322.9609,562.5566c-1.2534-3.8837-4.5312-6.7607-8.5791-7.5214l-54.9057-10.336l-27.021-47.8984
				c-1.9624-3.4922-5.7124-5.6914-9.7608-5.6914c-4.0581,0-7.7978,2.1992-9.7705,5.6914l-27.0215,47.8984l-54.8955,10.336
				c-4.0581,0.7607-7.3252,3.6377-8.5893,7.5214c-1.2637,3.8633-0.3184,8.1163,2.5176,11.0752l38.1684,39.8438l-6.935,54.207
				c-0.5137,4.0069,1.2226,7.9727,4.5312,10.3565c1.9316,1.4178,4.2534,2.1572,6.6167,2.1572c1.5718,0,3.1846-0.3486,4.6851-1.0274
				l50.6928-23.2607l50.6831,23.2607c1.5,0.6788,3.1128,1.0274,4.6851,1.0274c2.3628,0,4.6543-0.7393,6.6167-2.1572
				c3.3081-2.3839,5.0034-6.3496,4.5308-10.3565l-6.9248-54.207l38.1586-39.8438
				C323.2383,570.6729,324.2246,566.4199,322.9609,562.5566"/>
			<path fill="#656872" d="M278.0625,701.2383c-4.5415,0-9.1646-1.0069-13.3462-2.8975l-42.022-19.2744l-41.9189,19.2334
				c-10.8496,4.8701-23.3325,3.4522-32.5283-3.2881c-9.4214-6.8008-14.4453-18.3291-12.9453-30l5.6508-44.2422l-31.2133-32.5898
				c-8.209-8.5469-11.0142-20.877-7.3155-32.1582c3.627-11.1778,13.1001-19.5,24.71-21.6582l45.2475-8.5274l22.2129-39.3711
				c5.7124-10.1093,16.48-16.3974,28.1001-16.3974c11.6407,0,22.4185,6.2881,28.1104,16.4189l22.1821,39.3496l45.2891,8.5274
				c11.6098,2.1787,21.0825,10.501,24.7095,21.7207c3.6372,11.1162,0.8735,23.4043-7.2432,31.9941l-31.3159,32.6914l5.6508,44.2422
				c1.397,11.8145-3.6269,23.2813-13.1,30.1035C291.4395,699.1211,284.8945,701.2383,278.0625,701.2383L278.0625,701.2383z
				 M222.6943,632.75l43.3882,19.9121l-5.9384-46.4814l32.4048-33.8428l-46.583-8.7754l-23.2817-41.2402l-23.271,41.2402
				l-46.5835,8.7754l32.4253,33.8428l-5.9487,46.4814L222.6943,632.75L222.6943,632.75z"/>
		</g>
		<g>
			<path fill="#FFCA70" d="M605.2773,562.5566c-1.2636-3.8837-4.5722-6.7607-8.5898-7.5214l-54.9365-10.336l-26.98-47.8984
				c-1.9727-3.4922-5.7129-5.6914-9.771-5.6914s-7.7983,2.1992-9.812,5.6914l-26.9697,47.8984l-54.9468,10.336
				c-4.0171,0.7607-7.3257,3.6377-8.5791,7.5214c-1.2227,3.8633-0.2774,8.1163,2.5586,11.0752l38.1582,39.8438l-6.9351,54.207
				c-0.5034,4.0069,1.2227,7.9727,4.5,10.3565c1.9624,1.4178,4.2847,2.1572,6.6167,2.1572c1.6133,0,3.2261-0.3486,4.7261-1.0274
				L505,655.9082l50.6519,23.2607c1.5312,0.6788,3.144,1.0274,4.7265,1.0274c2.3628,0,4.6436-0.7393,6.6157-2.1572
				c3.3086-2.3839,5.0039-6.3496,4.4903-10.3565l-6.8936-54.207l38.1582-39.8438
				C605.5547,570.6729,606.5303,566.4199,605.2773,562.5566"/>
			<path fill="#656872" d="M560.3784,701.2383c-4.5517,0-9.0107-0.9453-13.2437-2.836L505,679.0664l-41.9087,19.2334
				c-10.7676,4.9111-23.1069,3.5547-32.4355-3.2061c-9.5347-6.9238-14.5176-18.4316-13.0586-30.041l5.6611-44.2831l-31.2031-32.5898
				c-8.1372-8.4863-10.9834-20.7324-7.4282-31.9727c3.6577-11.3221,13.1201-19.6445,24.7299-21.8437l45.3404-8.5274l22.1513-39.3496
				c5.877-10.1924,16.6236-16.4189,28.1514-16.4189c11.6201,0,22.3877,6.2881,28.0898,16.3779l22.1822,39.3906l45.31,8.5274
				c11.6094,2.1992,21.0616,10.501,24.6993,21.6797c3.6464,11.2187,0.8623,23.5068-7.2647,32.0547l-31.2852,32.6718l5.6299,44.2617
				c1.4903,11.6514-3.5135,23.1993-13.0682,30.084C573.7148,699.1211,567.1797,701.2383,560.3784,701.2383L560.3784,701.2383z
				 M435.1455,572.3379l32.415,33.8428l-5.9487,46.4814L505,632.75l43.3677,19.9121l-5.918-46.4814l32.4048-33.8428l-46.6245-8.7754
				l-23.2505-41.2607l-23.2402,41.2607L435.1455,572.3379L435.1455,572.3379z"/>
		</g>
		<g>
			<path fill="#ECF0F1" d="M887.582,562.5566c-1.2636-3.8837-4.5722-6.7607-8.5888-7.5214l-54.9366-10.336l-26.9804-47.8984
				c-1.9727-3.4922-5.7129-5.6914-9.7705-5.6914c-4.0479,0-7.7979,2.1992-9.8018,5.6914l-26.9805,47.8984l-54.9463,10.336
				c-4.0068,0.7607-7.3154,3.6377-8.5791,7.5214c-1.2226,3.8633-0.2773,8.1163,2.5586,11.0752l38.1582,39.8438l-6.9248,54.207
				c-0.5136,4.0069,1.2227,7.9727,4.4893,10.3565c1.9629,1.4178,4.2949,2.1572,6.6172,2.1572c1.6133,0,3.2265-0.3486,4.7265-1.0274
				l50.6827-23.2607l50.6513,23.2607c1.5421,0.6788,3.1543,1.0274,4.7266,1.0274c2.3633,0,4.6445-0.7393,6.6172-2.1572
				c3.3086-2.3839,5.0039-6.3496,4.4892-10.3565l-6.8935-54.207l38.168-39.8438
				C887.8594,570.6729,888.8457,566.4199,887.582,562.5566"/>
			<path fill="#656872" d="M842.6836,701.2383c-4.5205,0-8.959-0.9453-13.2022-2.8154l-42.1757-19.3565l-41.9092,19.2334
				c-10.6846,4.8496-23.1992,3.4932-32.4356-3.2061c-9.5644-6.9648-14.5273-18.4726-13.038-30.082l5.6513-44.2422l-31.213-32.5898
				c-8.1377-8.4863-10.9843-20.7324-7.4286-31.9727c3.6982-11.3427,13.1406-19.6445,24.7197-21.8437l45.3506-8.5274l22.1719-39.3711
				c5.8252-10.1709,16.583-16.3974,28.1309-16.3974c11.6201,0,22.3877,6.2881,28.0898,16.3779l22.1826,39.3906l45.3086,8.5274
				c11.6104,2.1992,21.0625,10.501,24.6992,21.6797c3.6582,11.1572,0.8838,23.4453-7.2226,32.0351l-31.3262,32.7129l5.6309,44.2402
				c1.4891,11.6514-3.5137,23.1993-13.0695,30.084C856.0195,699.1211,849.4854,701.2383,842.6836,701.2383L842.6836,701.2383z
				 M717.4512,572.3379l32.4043,33.8428l-5.9374,46.4814l43.3876-19.9121l43.3681,19.9121l-5.9179-46.5019l32.4043-33.8223
				l-46.625-8.7754l-23.25-41.2607l-23.2403,41.2607L717.4512,572.3379L717.4512,572.3379z"/>
		</g>
	</g>
</g>
</svg>
