<?xml version="1.0" encoding="utf-8"?>
<!-- Generator: Adobe Illustrator 20.0.0, SVG Export Plug-In . SVG Version: 6.00 Build 0)  -->
<svg version="1.1" id="research" xmlns="http://www.w3.org/2000/svg" xmlns:xlink="http://www.w3.org/1999/xlink" x="0px" y="0px"
	 viewBox="0 0 722.4786 1010" enable-background="new 0 0 722.4786 1010" xml:space="preserve">
<g id="research-research">
	<g id="research-flask">
		<g id="research-fill">
			<g>
				<path fill="#ECF0F1" d="M289.3833,19.8569c-29.7856,0-53.9091,24.1621-53.9091,53.9092s24.1235,53.9092,53.9091,53.9092
					v179.6836C127.6753,343.3115,19.8575,497.8633,19.8575,648.7705c0,188.5264,152.8261,341.3721,341.3916,341.3721
					s341.373-152.8457,341.373-341.3721c0-150.9072-107.7793-305.459-269.5264-341.4116V127.6753
					c29.8438,0,53.9483-24.1621,53.9483-53.9092s-24.1045-53.9092-53.9483-53.9092H289.3833"/>
			</g>
			<g>
				<path fill="#FFCA70" d="M19.8575,581.8301C5.7403,831.2461,172.6836,990.1426,361.2491,990.1426
					s347.1699-163.084,341.373-408.3125"/>
			</g>
			<g>
				<g>
					<path fill="#FFEFD4" d="M461.6397,722.498c18.5195,0,33.4707,14.9317,33.4707,33.4317
						c0,18.4609-14.9512,33.4697-33.4707,33.4697c-18.499,0-33.4502-15.0088-33.4502-33.4697
						C428.1895,737.4297,443.1407,722.498,461.6397,722.498z"/>
				</g>
				<g>
					<path fill="#FFEFD4" d="M327.8179,789.3994c18.48,0,33.4312,14.9697,33.4312,33.4307c0,18.5-14.9512,33.5097-33.4312,33.5097
						c-18.5386,0-33.4702-15.0097-33.4702-33.5097C294.3477,804.3691,309.2793,789.3994,327.8179,789.3994z"/>
				</g>
				<g>
					<path fill="#FFEFD4" d="M260.8775,655.5576c18.4995,0,33.4702,14.9697,33.4702,33.4697
						c0,18.461-14.9707,33.4707-33.4702,33.4707c-18.5191,0-33.4702-15.0097-33.4702-33.4707
						C227.4073,670.5273,242.3584,655.5576,260.8775,655.5576z"/>
				</g>
			</g>
		</g>
		<g id="research-line">
			<g>
				<polygon fill="#656872" points="433.0957,147.5322 289.3833,147.5322 289.3833,107.8179 433.0957,107.8179 433.0957,147.5322 
									"/>
			</g>
			<g>
				<path fill="#656872" d="M361.2491,1010C162.0572,1010,0,847.9629,0,648.7705c0-164.0928,114.7994-314.6894,269.5259-356.9634
					V144.8174c-31.0654-8.6875-53.9087-37.271-53.9087-71.0513C215.6172,33.082,248.6993,0,289.3833,0h143.7124
					c40.7032,0,73.8047,33.082,73.8047,73.7661c0,33.7803-22.8623,62.3638-53.9482,71.0513v146.9897
					c154.7275,42.274,269.5264,192.8706,269.5264,356.9634C722.4786,847.9629,560.4414,1010,361.2491,1010L361.2491,1010z
					 M289.3833,39.7144c-18.7714,0-34.0517,15.2807-34.0517,34.0517s15.2803,34.0518,34.0517,34.0518
					c10.9756,0,19.857,8.8813,19.857,19.8574v179.6836c0,9.3081-6.4571,17.3364-15.5518,19.3921
					C148.9097,358.9414,39.7144,497.3594,39.7144,648.7705c0,177.2793,144.2358,321.5147,321.5347,321.5147
					c177.2793,0,321.5156-144.2354,321.5156-321.5147c0-151.4111-109.1953-289.8682-253.9746-322.0195
					c-9.0943-2.0557-15.5518-10.084-15.5518-19.3921V127.6753c0-10.9761,8.8814-19.8574,19.8574-19.8574
					c18.7901,0,34.0909-15.2808,34.0909-34.0518s-15.3008-34.0517-34.0909-34.0517H289.3833L289.3833,39.7144z"/>
			</g>
			<g>
				<path fill="#656872" d="M134.8311,643.4961c-10.9756,0-19.8574-8.8818-19.8574-19.8574
					c0-121.9356,99.2085-221.1436,221.1435-221.1436c10.9761,0,19.8575,8.8814,19.8575,19.857
					c0,10.976-8.8814,19.8574-19.8575,19.8574c-100.042,0-181.4292,81.4057-181.4292,181.4292
					C154.688,634.6143,145.8067,643.4961,134.8311,643.4961L134.8311,643.4961z"/>
			</g>
		</g>
	</g>
</g>
</svg>
