<?xml version="1.0" encoding="utf-8"?>
<!-- Generator: Adobe Illustrator 20.0.0, SVG Export Plug-In . SVG Version: 6.00 Build 0)  -->
<svg version="1.1" id="resources" xmlns="http://www.w3.org/2000/svg" xmlns:xlink="http://www.w3.org/1999/xlink" x="0px" y="0px"
	 viewBox="0 0 767.1567 1010" enable-background="new 0 0 767.1567 1010" xml:space="preserve">
<g id="resources-resources">
	<g>
		<g>
			<path fill="#FFCA70" d="M177.2368,102.6782v523.7339c0.0181,113.9629,92.3706,206.334,206.3325,206.334v158.7363
				C181.9746,991.4463,18.5718,828.0078,18.5176,626.4121v-523.77L177.2368,102.6782z"/>
		</g>
		<g>
			<path fill="#ED7161" d="M589.9028,626.4121l0.0352-523.77h158.7011v523.77c-0.0361,201.6318-163.4384,365.0703-365.0698,365.0703
				V832.7461C497.5317,832.7461,589.9028,740.375,589.9028,626.4121z"/>
		</g>
		<g>
			<polygon fill="#ECF0F1" points="18.5356,229.6245 177.2368,229.6606 177.2368,102.6782 18.5176,102.6421 			"/>
		</g>
		<g>
			<rect x="589.938" y="102.6421" fill="#ECF0F1" width="158.7011" height="126.9824"/>
		</g>
	</g>
	<g>
		<g>
			<path fill="#656872" d="M383.5693,1010c0,0,0,0-0.0088,0C172.1191,1009.9639,0.0547,837.8809,0,626.4307V102.6421
				c0-4.9009,1.9531-9.6206,5.4253-13.0923c3.4721-3.4722,8.1826-5.4253,13.0923-5.4253l0,0l158.7192,0.0361
				c10.2261,0,18.5176,8.3003,18.5176,18.5176v523.7339c0.018,103.5469,84.269,187.8164,187.8149,187.8164
				c103.564,0,187.8159-84.2695,187.8159-187.8164l0.0352-523.77c0-10.2173,8.292-18.5176,18.5176-18.5176h158.7011
				c10.2266,0,18.5176,8.3003,18.5176,18.5176v523.77C767.1206,837.918,595.0474,1010,383.5693,1010L383.5693,1010z
				 M37.0351,121.1597v505.2524c0.0542,191.0352,155.5093,346.5166,346.5435,346.5527c191.043,0,346.5068-155.4824,346.543-346.5527
				V121.1597h-121.666l-0.0352,505.2524c0,123.9805-100.8711,224.8516-224.8511,224.8516
				c-123.9624,0-224.832-100.8711-224.8501-224.8516V121.1958L37.0351,121.1597L37.0351,121.1597z"/>
		</g>
		<g>
			<g>
				<polygon fill="#656872" points="691.3872,351.688 654.352,351.688 654.352,320.9824 691.3872,320.9824 691.3872,351.688 				"/>
			</g>
			<g>
				<polygon fill="#656872" points="691.3872,290.3486 654.352,290.3486 654.352,259.7153 691.3872,259.7153 691.3872,290.3486 				
					"/>
			</g>
			<g>
				<polygon fill="#656872" points="654.3882,413.0273 654.352,382.394 691.3872,382.3579 691.4233,412.9912 654.3882,413.0273 				
					"/>
			</g>
		</g>
		<g>
			<g>
				<polygon fill="#656872" points="112.8594,351.6519 75.8242,351.6338 75.8423,320.9824 112.8774,321.0005 112.8594,351.6519 				
					"/>
			</g>
			<g>
				<polygon fill="#656872" points="75.8423,290.3667 75.8242,259.7334 112.8594,259.7153 112.8774,290.3486 75.8423,290.3667 				
					"/>
			</g>
			<g>
				<polygon fill="#656872" points="75.8603,413.0273 75.8242,382.3579 112.8594,382.3218 112.8955,412.9912 75.8603,413.0273 				
					"/>
			</g>
		</g>
		<g>
			<polygon fill="#BDC3C7" points="412.25,51.8638 283.2422,209.5879 354.9253,209.5879 354.9253,338.5957 483.9331,180.9077 
				412.25,180.9077 			"/>
			<path fill="#656872" d="M336.4077,390.4951V228.1055h-92.2349L430.7676,0v162.3901h92.2436L336.4077,390.4951L336.4077,390.4951z
				 M322.3115,191.0703h51.1314v95.6616l71.4111-87.3071h-51.1216v-95.6616L322.3115,191.0703L322.3115,191.0703z"/>
		</g>
	</g>
</g>
</svg>
