<?xml version="1.0" encoding="utf-8"?>
<!-- Generator: Adobe Illustrator 20.0.0, SVG Export Plug-In . SVG Version: 6.00 Build 0)  -->
<svg version="1.1" id="responsive-design" xmlns="http://www.w3.org/2000/svg" xmlns:xlink="http://www.w3.org/1999/xlink" x="0px"
	 y="0px" viewBox="0 0 1010 1010" enable-background="new 0 0 1010 1010" xml:space="preserve">
<g id="responsive-design-responsive-design">
	<g>
		<g>
			<path fill="#ECF0F1" d="M20.2002,505v117.0176c0,18.4648,14.9727,33.4365,33.4365,33.4365h802.418V505"/>
		</g>
		<g>
			<path fill="#BDBF6D" d="M856.0547,505V341.999V53.6362c0-18.4638-14.9531-33.4365-33.418-33.4365H53.6367
				c-18.4638,0-33.4365,14.9727-33.4365,33.4365V505"/>
		</g>
		<g>
			<path fill="#656872" d="M649.1816,675.6543H53.6367C24.0566,675.6543,0,651.5879,0,622.0176V53.6362
				C0,24.0664,24.0566,0,53.6367,0h768.9999c29.5606,0,53.6172,24.0664,53.6172,53.6362V341.999
				c0,11.1656-9.0449,20.2002-20.1992,20.2002c-11.1563,0-20.2012-9.0346-20.2012-20.2002V53.6362
				c0-7.2988-5.9277-13.2363-13.2169-13.2363H53.6367c-7.2988,0-13.2363,5.9375-13.2363,13.2363v568.3813
				c0,7.2988,5.9375,13.2363,13.2363,13.2363h595.5449c11.1553,0,20.2002,9.0352,20.2002,20.2002
				S660.3369,675.6543,649.1816,675.6543L649.1816,675.6543z"/>
		</g>
		<g>
			<polyline fill="#BDC3C7" points="521.7085,675.6543 521.7085,789.2002 354.5459,789.2002 354.5459,675.6543 			"/>
			<path fill="#656872" d="M521.7085,809.4004H354.5459c-11.1558,0-20.2002-9.0352-20.2002-20.2002V675.6543
				c0-11.165,9.0444-20.2002,20.2002-20.2002c11.1553,0,20.1997,9.0352,20.1997,20.2002V769h126.7632v-93.3457
				c0-11.165,9.0444-20.2002,20.1997-20.2002c11.1553,0,20.2002,9.0352,20.2002,20.2002v113.5459
				C541.9087,800.3652,532.8638,809.4004,521.7085,809.4004L521.7085,809.4004z"/>
		</g>
		<g>
			<path fill="#656872" d="M649.1816,541.9082H20.2002C9.0449,541.9082,0,532.873,0,521.708
				c0-11.165,9.0449-20.2002,20.2002-20.2002h628.9814c11.1553,0,20.2002,9.0352,20.2002,20.2002
				C669.3818,532.873,660.3369,541.9082,649.1816,541.9082L649.1816,541.9082z"/>
		</g>
		<g>
			<path fill="#656872" d="M588.582,809.4004H287.6729c-11.1558,0-20.2002-9.0352-20.2002-20.2002S276.5171,769,287.6729,769
				H588.582c11.1543,0,20.1993,9.0352,20.1993,20.2002S599.7363,809.4004,588.582,809.4004L588.582,809.4004z"/>
		</g>
		<g>
			<line fill="none" x1="438.127" y1="588.5811" x2="438.127" y2="588.5811"/>
		</g>
	</g>
	<g>
		<g>
			<path fill="#ECF0F1" d="M989.8008,856.0732v100.2901c0,18.4638-14.9727,33.4365-33.4375,33.4365H688.8906
				c-18.4629,0-33.4355-14.9727-33.4355-33.4365V856.0732"/>
		</g>
		<g>
			<rect x="655.4551" y="488.291" fill="#ED7161" width="334.3457" height="367.7822"/>
		</g>
		<g>
			<path fill="#ECF0F1" d="M655.4551,488.291V387.9819c0-18.4643,14.9726-33.4365,33.4355-33.4365h267.4727
				c18.4648,0,33.4375,14.9722,33.4375,33.4365V488.291H655.4551z"/>
		</g>
		<g>
			<path fill="#656872" d="M956.3633,1010H688.8906c-29.5801,0-53.6357-24.0664-53.6357-53.6367V387.9819
				c0-29.5703,24.0556-53.6367,53.6357-53.6367h267.4727c29.5801,0,53.6367,24.0664,53.6367,53.6367v568.3813
				C1010,985.9336,985.9434,1010,956.3633,1010L956.3633,1010z M688.8906,374.7451c-7.2988,0-13.2363,5.938-13.2363,13.2368
				v568.3813c0,7.2988,5.9375,13.2363,13.2363,13.2363h267.4727c7.2988,0,13.2363-5.9375,13.2363-13.2363V387.9819
				c0-7.2988-5.9375-13.2368-13.2363-13.2368H688.8906L688.8906,374.7451z"/>
		</g>
		<g>
			<path fill="#656872" d="M989.8008,508.4912H655.4551c-11.1563,0-20.2002-9.0342-20.2002-20.2002
				c0-11.165,9.0439-20.1992,20.2002-20.1992h334.3457c11.1543,0,20.1992,9.0342,20.1992,20.1992
				C1010,499.457,1000.9551,508.4912,989.8008,508.4912L989.8008,508.4912z"/>
		</g>
		<g>
			<path fill="#656872" d="M989.8008,876.2734H655.4551c-11.1563,0-20.2002-9.0351-20.2002-20.2002
				c0-11.165,9.0439-20.2002,20.2002-20.2002h334.3457c11.1543,0,20.1992,9.0352,20.1992,20.2002
				C1010,867.2383,1000.9551,876.2734,989.8008,876.2734L989.8008,876.2734z"/>
		</g>
		<g>
			<path fill="#656872" d="M839.3457,441.6182h-33.4365c-11.1553,0-20.2002-9.0347-20.2002-20.1997
				c0-11.1656,9.0449-20.2002,20.2002-20.2002h33.4365c11.1553,0,20.2002,9.0346,20.2002,20.2002
				C859.5459,432.5835,850.501,441.6182,839.3457,441.6182L839.3457,441.6182z"/>
		</g>
		<g>
			<line fill="none" x1="822.6367" y1="922.9463" x2="822.6367" y2="922.9463"/>
		</g>
	</g>
</g>
</svg>
