<?xml version="1.0" encoding="utf-8"?>
<!-- Generator: Adobe Illustrator 20.0.0, SVG Export Plug-In . SVG Version: 6.00 Build 0)  -->
<svg version="1.1" id="safety-shield" xmlns="http://www.w3.org/2000/svg" xmlns:xlink="http://www.w3.org/1999/xlink" x="0px"
	 y="0px" viewBox="0 0 794.5073 1010" enable-background="new 0 0 794.5073 1010" xml:space="preserve">
<g id="safety-shield-safety-shield">
	<g>
		<path fill="#ECF0F1" d="M774.3071,163.8486c-251.3564,0-377.0141-143.6489-377.0141-143.6489S271.5952,163.8486,20.2002,163.8486
			v325.251c0,134.4961,62.7895,261.2598,169.7866,342.7695L397.293,989.7998L604.56,831.8691
			c106.9571-81.5097,169.7471-208.2734,169.7471-342.7695V163.8486z"/>
		<path fill="#656872" d="M397.293,1010c-4.3101,0-8.6304-1.3809-12.2403-4.1426L177.7461,847.9258
			C66.4492,763.1816,0,629.001,0,489.0996v-325.251c0-11.165,9.0449-20.2002,20.2002-20.2002
			c238.3955,0,360.7099-135.4423,361.9233-136.7837C385.9599,2.5249,391.4834,0,397.2734,0c0.0196,0,0.0396,0,0.0493,0
			c5.8096,0.0391,11.3526,2.5249,15.1695,6.9043c1.1836,1.3018,123.4585,136.7441,361.8149,136.7441
			c11.1553,0,20.2002,9.0352,20.2002,20.2002v325.251c0,139.9014-66.4297,274.042-177.707,358.8262l-207.2671,157.9316
			C405.9233,1008.6191,401.6035,1010,397.293,1010L397.293,1010z M40.3999,183.7329v305.3667
			c0,127.3945,60.4917,249.502,161.8271,326.6719l195.066,148.6211l195.0268-148.6211
			c101.3057-77.1699,161.7871-199.3164,161.7871-326.6719V183.7329c-198.6074-5.8784-316.8183-97.686-356.8139-134.9297
			C357.2876,86.0469,239.0366,177.8545,40.3999,183.7329L40.3999,183.7329z"/>
	</g>
	<g>
		<path fill="#BDBF6D" d="M397.293,115.6763c56.9702,43.0434,158.8383,101.3945,305.1899,116.3867v257.0366
			c0,111.3379-52.8877,218.1367-141.46,285.6406L397.293,899.5313L233.5034,774.7402
			c-88.5918-67.5038-141.479-174.3027-141.479-285.6406V232.063C238.376,217.0708,340.2637,158.7197,397.293,115.6763"/>
		<path fill="#656872" d="M397.293,919.7305c-4.3101,0-8.6304-1.3809-12.2403-4.1026l-163.7895-124.79
			C127.6899,719.5059,71.8247,606.71,71.8247,489.0996V232.063c0-10.376,7.8413-19.0557,18.1484-20.1211
			c139.792-14.2817,237.6656-69.0034,295.1485-112.4019c7.2104-5.4443,17.1425-5.4052,24.3525,0
			c57.4141,43.3985,155.2188,98.1202,295.0606,112.4019c10.3066,1.0654,18.1484,9.7451,18.1484,20.1211v257.0366
			c0,117.6104-55.8555,230.4063-149.4199,301.6992l-163.73,124.7891C405.9233,918.3496,401.6035,919.7305,397.293,919.7305
			L397.293,919.7305z M112.2246,250.0537v239.0459c0,105.1035,49.918,205.8672,133.519,269.584L397.293,874.1621l151.4897-115.4785
			c83.5918-63.7168,133.5-164.4805,133.5-269.584V250.0537c-130.3242-16.7676-224.9912-66.5181-284.9995-109.3247
			C337.2256,183.5356,242.4985,233.2861,112.2246,250.0537L112.2246,250.0537z"/>
	</g>
	<g>
		<path fill="#656872" d="M349.397,650.8975c-5.8785,0-11.4908-2.5645-15.3374-7.0616l-95.7725-111.7324
			c-7.2593-8.4824-6.2827-21.2246,2.1894-28.4844c8.4532-7.2597,21.2164-6.3125,28.4854,2.209l78.4131,91.4531l176.7202-265.0859
			c6.1846-9.2715,18.7012-11.7573,28.0117-5.6025c9.2813,6.1943,11.7871,18.7402,5.6026,28.0117L366.2041,641.9023
			c-3.5112,5.2471-9.2813,8.5606-15.5938,8.9551C350.2055,650.8574,349.8013,650.8975,349.397,650.8975L349.397,650.8975z"/>
	</g>
</g>
</svg>
