<?xml version="1.0" encoding="utf-8"?>
<!-- Generator: Adobe Illustrator 20.0.0, SVG Export Plug-In . SVG Version: 6.00 Build 0)  -->
<svg version="1.1" id="ssl-certificated" xmlns="http://www.w3.org/2000/svg" xmlns:xlink="http://www.w3.org/1999/xlink" x="0px"
	 y="0px" viewBox="0 0 859.9209 1010" enable-background="new 0 0 859.9209 1010" xml:space="preserve">
<g id="ssl-certificated-ssl-certificated">
	<g>
		<path fill="#ECF0F1" d="M147.1602,424.1997V303c0-155.9585,126.8813-282.8003,282.7998-282.8003
			c155.959,0,282.8008,126.8418,282.8008,282.8003v121.1997h-89.0664l8.2656-23.1196l0.1387-103.8008
			c0-111.4551-90.6836-202.1187-202.1387-202.1187s-202.1182,90.6636-202.1182,202.1187v103.959l8.1275,23.0405L147.1602,424.1997z"
			/>
	</g>
	<g>
		<g>
			<path fill="#FFCA70" d="M839.7198,505v404c0,44.6211-36.1778,80.7998-80.7989,80.7998H101
				c-44.6215,0-80.7998-36.1787-80.7998-80.7998V505c0-44.6211,36.1783-80.8003,80.7998-80.8003h657.9209
				C803.542,424.1997,839.7198,460.3789,839.7198,505z"/>
			<path fill="#656872" d="M758.9209,1010H101C45.3121,1010,0,964.707,0,909V505c0-55.708,45.3121-101,101-101h657.9209
				c55.6875,0,101,45.292,101,101v404C859.9209,964.707,814.6084,1010,758.9209,1010L758.9209,1010z M101,444.3999
				c-33.417,0-60.6001,27.1831-60.6001,60.6001v404c0,33.416,27.1831,60.5996,60.6001,60.5996h657.9209
				c33.4161,0,60.5996-27.1836,60.5996-60.5996V505c0-33.417-27.1835-60.6001-60.5996-60.6001H101L101,444.3999z"/>
		</g>
		<g>
			<path fill="#656872" d="M712.7608,444.3999c-11.1563,0-20.2012-9.0347-20.2012-20.2002V303
				c0-144.793-117.7969-262.6001-262.5996-262.6001S167.3604,158.207,167.3604,303v121.1997
				c0,11.1655-9.0449,20.2002-20.2002,20.2002s-20.2002-9.0347-20.2002-20.2002V303c0-167.084,135.9263-303,303-303
				c167.0742,0,303,135.916,303,303v121.1997C732.96,435.3652,723.9151,444.3999,712.7608,444.3999L712.7608,444.3999z"/>
		</g>
		<g>
			<path fill="#656872" d="M632.0987,421.438c-11.1563,0-20.2002-9.0347-20.2002-20.1997v-103.959
				c0-100.3296-81.6182-181.9185-181.9385-181.9185c-100.3096,0-181.918,81.5889-181.918,181.9185v103.959
				c0,11.165-9.0449,20.1997-20.2002,20.1997c-11.1552,0-20.2002-9.0347-20.2002-20.1997v-103.959
				c0-122.5811,99.7281-222.3184,222.3184-222.3184c122.6006,0,222.3379,99.7373,222.3379,222.3184v103.959
				C652.2979,412.4033,643.253,421.438,632.0987,421.438L632.0987,421.438z"/>
		</g>
	</g>
	<g>
		<path fill="#ED7161" d="M646.3995,715.4434c0,119.5029-96.9161,216.4394-216.4395,216.4394
			c-119.5229,0-216.4395-96.9365-216.4395-216.4394c0-119.543,96.9166-216.4405,216.4395-216.4405
			C549.4834,499.0029,646.3995,595.9004,646.3995,715.4434z"/>
	</g>
	<g>
		<path fill="#656872" d="M286.627,766.0215c0-8.5215-2.9688-15.3477-8.9067-20.5547c-5.9375-5.168-16.3531-10.0215-31.2666-14.5977
			c-25.5655-7.6933-44.9766-16.7675-58.213-27.2226c-13.2363-10.4551-19.8549-24.6973-19.8549-42.7676
			c0-18.1484,7.457-32.9824,22.3701-44.5029c14.9131-11.5204,33.9297-17.2803,57.0591-17.2803
			c24.5498,0,44.3159,6.1934,59.2783,18.543c14.9624,12.3885,22.1924,28.6425,21.6797,48.7245l-0.2959,0.9072h-43.0733
			c0-11.0469-3.3437-19.5693-10.0405-25.4873c-6.6972-5.957-16.0771-8.916-28.1499-8.916c-10.958,0-19.4306,2.6435-25.418,7.9297
			c-5.9868,5.248-8.9755,11.9941-8.9755,20.2402c0,7.4961,3.2451,13.6504,9.7353,18.4639
			c6.4898,4.8525,17.7046,9.9424,33.6338,15.3076c24.3525,6.9043,42.915,15.9004,55.6978,27.0254
			c12.7827,11.0859,19.1743,25.7236,19.1743,43.8721c0,18.9775-7.4073,33.9697-22.2222,44.8974
			c-14.8144,10.9688-34.3931,16.4522-58.7358,16.4522c-23.8394,0-44.3155-5.958-61.4087-17.794
			c-17.0928-11.875-25.3882-29.5898-24.875-53.1426l0.3056-0.9082h43.063c0,13.0995,3.8565,22.7256,11.5699,28.92
			c7.7031,6.1933,18.1582,9.2714,31.3452,9.2714c11.8657,0,20.9204-2.4863,27.1635-7.457
			C283.5005,780.9746,286.627,774.3457,286.627,766.0215z"/>
		<path fill="#656872" d="M479.2867,766.0215c0-8.5215-2.9693-15.3477-8.9068-20.5547
			c-5.9375-5.168-16.3535-10.0215-31.2666-14.5977c-25.5654-7.6933-44.9765-16.7675-58.2129-27.2226
			c-13.2368-10.4551-19.855-24.6973-19.855-42.7676c0-18.1484,7.4566-32.9824,22.3702-44.5029
			c14.9131-11.5204,33.9297-17.2803,57.059-17.2803c24.5494,0,44.3155,6.1934,59.2784,18.543
			c14.9629,12.3885,22.1924,28.6425,21.6797,48.7245l-0.2969,0.9072h-43.0723c0-11.0469-3.3437-19.5693-10.041-25.4873
			c-6.6973-5.957-16.0771-8.916-28.1499-8.916c-10.958,0-19.4307,2.6435-25.4175,7.9297
			c-5.9868,5.248-8.9756,11.9941-8.9756,20.2402c0,7.4961,3.2451,13.6504,9.7349,18.4639
			c6.4902,4.8525,17.7046,9.9424,33.6338,15.3076c24.3525,6.9043,42.9155,15.9004,55.6977,27.0254
			c12.7832,11.0859,19.1748,25.7236,19.1748,43.8721c0,18.9775-7.4072,33.9697-22.2216,44.8974
			c-14.815,10.9688-34.3936,16.4522-58.7364,16.4522c-23.8393,0-44.3159-5.958-61.4087-17.794
			c-17.0932-11.875-25.3881-29.5898-24.8754-53.1426l0.3061-0.9082h43.063c0,13.0995,3.8564,22.7256,11.5693,28.92
			c7.7036,6.1933,18.1587,9.2714,31.3457,9.2714c11.8658,0,20.92-2.4863,27.1636-7.457
			C476.1597,780.9746,479.2867,774.3457,479.2867,766.0215z"/>
		<path fill="#656872" d="M600.8711,789.7725h99.2149v34.0869H556.4268V602.291h44.4443V789.7725z"/>
	</g>
</g>
</svg>
