<?xml version="1.0" encoding="utf-8"?>
<!-- Generator: Adobe Illustrator 20.0.0, SVG Export Plug-In . SVG Version: 6.00 Build 0)  -->
<svg version="1.1" id="staging" xmlns="http://www.w3.org/2000/svg" xmlns:xlink="http://www.w3.org/1999/xlink" x="0px" y="0px"
	 viewBox="0 0 758.3506 1010" enable-background="new 0 0 758.3506 1010" xml:space="preserve">
<g id="staging-staging">
	<g>
		<g>
			<path fill="#F5F7F8" d="M520.7471,127.5083h188.7285c17.3799,0,31.4609,14.1147,31.4609,31.4604V961.125
				c0,17.3809-14.081,31.4609-31.4609,31.4609H48.874c-17.3799,0-31.4604-14.08-31.4604-31.4609V158.9687
				c0-17.3457,14.0805-31.4604,31.4604-31.4604h188.7627"/>
			<path fill="#656872" d="M709.4756,1010H48.874C21.9199,1010,0,988.0801,0,961.125V158.9687
				c0-26.9541,21.9199-48.8745,48.874-48.8745h188.7627v34.8277H48.874c-7.7549,0-14.0469,6.3091-14.0469,14.0468V961.125
				c0,7.7383,6.292,14.0469,14.0469,14.0469h660.6016c7.7383,0,14.0469-6.3086,14.0469-14.0469V158.9687
				c0-7.7377-6.3086-14.0468-14.0469-14.0468H520.7471v-34.8277h188.7285c26.9541,0,48.875,21.9204,48.875,48.8745V961.125
				C758.3506,988.0801,736.4297,1010,709.4756,1010L709.4756,1010z"/>
		</g>
		<g>
			<path fill="#FFCA70" d="M489.2861,96.0479c0,0-47.1738-10.2374-47.1738-15.7134c0-34.7593-28.1948-62.9209-62.9204-62.9209
				c-34.7593,0-62.9209,28.1616-62.9209,62.9209c0,5.476-47.1738,15.7134-47.1738,15.7134
				c-17.3794,0-31.4605,14.1147-31.4605,31.4604v62.9209c0,17.3799,14.0811,31.4604,31.4605,31.4604h220.1889
				c17.3457,0,31.461-14.0805,31.461-31.4604v-62.9209C520.7471,110.1626,506.6318,96.0479,489.2861,96.0479z"/>
			<path fill="#656872" d="M489.2861,239.3032H269.0972c-26.9536,0-48.8741-21.9199-48.8741-48.874v-62.9209
				c0-26.2568,20.7979-47.7349,46.7828-48.8232c12.3457-2.7378,25.1171-6.19,32.5146-8.69C304.605,30.5762,338.3955,0,379.1919,0
				c40.7969,0,74.5864,30.5762,79.6714,70.0122c7.7724,2.6357,21.206,6.1558,32.5146,8.6729
				c25.9844,1.0883,46.7832,22.5664,46.7832,48.8232v62.9209C538.1611,217.3833,516.2412,239.3032,489.2861,239.3032
				L489.2861,239.3032z M379.1919,34.8276c-25.1001,0-45.5068,20.4068-45.5068,45.5069c0,14.4038-9.2002,21.5122-60.8975,32.7358
				c-1.2075,0.2554-2.4487,0.3911-3.6904,0.3911c-7.7544,0-14.0464,6.3091-14.0464,14.0469v62.9209
				c0,7.7378,6.292,14.0469,14.0464,14.0469h220.1889c7.7383,0,14.0469-6.3091,14.0469-14.0469v-62.9209
				c0-7.7378-6.3086-14.0469-14.0469-14.0469c-1.2402,0-2.4824-0.1357-3.6894-0.3911
				c-51.6978-11.2236-60.8975-18.332-60.8975-32.7358C424.6992,55.2344,404.2754,34.8276,379.1919,34.8276L379.1919,34.8276z"/>
		</g>
	</g>
	<g>
		<g>
			<g>
				<circle fill="#BDBF6D" cx="152.8125" cy="404.2584" r="69.6554"/>
			</g>
			<g>
				<polygon fill="#656872" points="152.8125,446.2969 105.6728,399.1567 130.2974,374.5322 152.8125,397.0479 210.1558,339.7051 
					234.7798,364.3291 152.8125,446.2969 				"/>
			</g>
		</g>
		<g>
			<g>
				<circle fill="#BDBF6D" cx="152.8125" cy="613.2236" r="69.6553"/>
			</g>
			<g>
				<polygon fill="#656872" points="152.8125,655.2617 105.6728,608.1221 130.2974,583.498 152.8125,606.0137 210.1558,548.6699 
					234.7798,573.2949 152.8125,655.2617 				"/>
			</g>
		</g>
		<g>
			<g>
				<circle fill="#BDBF6D" cx="152.8125" cy="822.1895" r="69.6553"/>
			</g>
			<g>
				<polygon fill="#656872" points="152.8125,864.2275 105.6728,817.0879 130.2974,792.4629 152.8125,814.9785 210.1558,757.6357 
					234.7798,782.2598 152.8125,864.2275 				"/>
			</g>
		</g>
		<g>
			<polygon fill="#656872" points="675.2266,386.8447 326.9507,386.8447 326.9507,352.0171 675.2266,352.0171 675.2266,386.8447 			
				"/>
		</g>
		<g>
			<polygon fill="#656872" points="535.916,456.5 326.9507,456.5 326.9507,421.6724 535.916,421.6724 535.916,456.5 			"/>
		</g>
		<g>
			<polygon fill="#656872" points="431.4331,595.8105 326.9507,595.8105 326.9507,560.9824 431.4331,560.9824 431.4331,595.8105 			
				"/>
		</g>
		<g>
			<polygon fill="#656872" points="675.2266,595.8105 466.2607,595.8105 466.2607,560.9824 675.2266,560.9824 675.2266,595.8105 			
				"/>
		</g>
		<g>
			<polygon fill="#656872" points="605.5713,665.4648 326.9507,665.4648 326.9507,630.6377 605.5713,630.6377 605.5713,665.4648 			
				"/>
		</g>
		<g>
			<polygon fill="#656872" points="675.2266,804.7754 326.9507,804.7754 326.9507,769.9482 675.2266,769.9482 675.2266,804.7754 			
				"/>
		</g>
		<g>
			<polygon fill="#656872" points="431.4331,874.4307 326.9507,874.4307 326.9507,839.6035 431.4331,839.6035 431.4331,874.4307 			
				"/>
		</g>
		<g>
			<polygon fill="#656872" points="570.7432,874.4307 466.2607,874.4307 466.2607,839.6035 570.7432,839.6035 570.7432,874.4307 			
				"/>
		</g>
	</g>
</g>
</svg>
