<?xml version="1.0" encoding="utf-8"?>
<!-- Generator: Adobe Illustrator 20.0.0, SVG Export Plug-In . SVG Version: 6.00 Build 0)  -->
<svg version="1.1" id="thumb-up" xmlns="http://www.w3.org/2000/svg" xmlns:xlink="http://www.w3.org/1999/xlink" x="0px" y="0px"
	 viewBox="0 0 1010 820.1646" enable-background="new 0 0 1010 820.1646" xml:space="preserve">
<g id="thumb-up-thumb-up">
	<g>
		<path fill="#FFCA70" d="M298.8984,756.4234h37.7886c23.5078,0,46.1109,9.1026,63.002,25.377
			c11.2402,10.8701,26.4253,17.3232,45.6176,17.3232c122.7979,0,336.5645,0,350.0645,0c95.4473,0,127.1738-86.9824,114.085-133.5664
			c55.5839-18.6582,63.4541-94.7285,42.7412-130.9551c47.4257-31.7265,43.0898-111.5371,0-129.5791
			c26.7334,0,36.7617-9.9658,36.7617-48.8437c0-62.9395-36.8848-70.0083-90.9893-70.0083H666.6133
			C737.6094,29.6436,576.7969-20.3715,534.0557,49.8223c0,28.5831,0,53.4263,0,101.7154c0,11.0547,2.1372,22.1509-1.459,32.5073
			c-26.3433,75.2075-76.8721,131.3872-130.5239,173.6343c-3.8428,3.001-5.6714,6.3086-8.6099,9.8633
			c-19.0073,22.8916-66.7212,41.4873-96.4546,41.4873"/>
		<path fill="#656872" d="M795.3711,820.1646H445.3066c-23.6923,0-44.5288-8.0351-60.248-23.2402
			c-13.0073-12.5352-30.2065-19.459-48.3716-19.459h-37.7886c-11.6303,0-21.0415-9.4121-21.0415-21.042
			c0-11.6308,9.4112-21.042,21.0415-21.042h37.7886c29.1177,0,56.6729,11.0957,77.5913,31.2754
			c7.9727,7.6846,18.1035,11.4238,31.0283,11.4238h350.0645c41.5078,0,64.6865-19.1093,76.8301-35.1171
			c18.6172-24.5762,21.8642-54.4121,16.9941-71.7139c-3.0205-10.7881,2.9385-22.0693,13.5625-25.6445
			c19.1504-6.4317,28.623-22.1104,33.2061-34.1309c9.4316-24.7822,6.124-52.1729-2.0342-66.4336
			c-5.4863-9.5752-2.6094-21.7812,6.5752-27.9248c20.6719-13.8496,26.0146-39.4531,24.2881-57.1875
			c-1.6641-17.2402-9.5958-30.8428-20.713-35.4863c-9.2461-3.8848-14.4863-13.7266-12.5137-23.5694
			c1.9727-9.8222,10.6035-16.8916,20.6309-16.8916c13.3154,0,15.7188,0,15.7188-27.8017c0-40.2744-12.4102-48.9663-69.9464-48.9663
			H666.6133c-6.5742,0-12.7598-3.062-16.7461-8.3018c-3.9863-5.2192-5.2813-12.021-3.5352-18.3496
			c39.6592-143.2642,4.0078-215.6157-38.5488-234.0474c-20.0342-8.6718-40.9121-4.521-52.686,9.9043v95.1192
			c0,2.6504,0.144,5.3012,0.2876,7.9316c0.4727,8.9385,1.0483,20.0552-2.9175,31.48
			c-24.1035,68.8169-70.3174,130.4624-137.3672,183.272c-0.5752,0.4316-1.2739,1.3359-2.4448,2.9179
			c-0.9453,1.2325-1.8907,2.5069-2.98,3.8008c-24.0415,28.9737-78.6597,49.1319-112.667,49.1319
			c-11.6309,0-21.042-9.4112-21.042-21.042c0-11.6299,9.4111-21.0411,21.042-21.0411c25.8291,0,66.3306-17.0966,80.2622-33.8847
			l1.7261-2.2403c2.1987-2.9169,5.1987-6.9238,10.1304-10.7666c60.5976-47.7338,102.2084-102.9272,123.6196-164.018
			c1.2329-3.5752,0.9453-9.062,0.6167-15.3906c-0.1851-3.3702-0.3491-6.7608-0.3491-10.1509V49.8223
			c0-3.8632,1.0683-7.644,3.0615-10.9521C537.8569,3.1363,583.4336-9.871,624.5098,7.9034
			c57.5566,24.9048,103.955,105.3931,69.1465,257.2261h204.3134c39.1446,0,112.0303,0,112.0303,91.0498
			c0,20.5898-2.6309,43.1103-17.5684,56.8779c7.7051,11.9395,12.6778,26.5488,14.2598,42.8242
			c3.1641,32.6504-7.7266,63.6992-28.9121,84.8242c8.6103,25.9113,7.9531,58.295-2.4863,85.7481
			c-8.6505,22.6855-23.3839,40.4609-42.3907,51.4746c2.5059,30.1035-7.4804,64.4805-27.166,90.4541
			C880.4209,801.774,841.2354,820.1646,795.3711,820.1646L795.3711,820.1646z"/>
	</g>
	<g>
		<path fill="#656872" d="M910.4424,681.524H782.1992c-11.6308,0-21.041-9.4111-21.041-21.042
			c0-11.6299,9.4102-21.042,21.041-21.042h128.2432c11.6299,0,21.042,9.4121,21.042,21.042
			C931.4844,672.1129,922.0723,681.524,910.4424,681.524L910.4424,681.524z"/>
	</g>
	<g>
		<path fill="#656872" d="M953.2041,553.2603H782.1992c-11.6308,0-21.041-9.4121-21.041-21.042
			c0-11.6298,9.4102-21.042,21.041-21.042h171.0049c11.6299,0,21.042,9.4122,21.042,21.042
			C974.2461,543.8482,964.834,553.2603,953.2041,553.2603L953.2041,553.2603z"/>
	</g>
	<g>
		<path fill="#656872" d="M953.2041,424.9967H782.1992c-11.6308,0-21.041-9.4121-21.041-21.042
			c0-11.6299,9.4102-21.042,21.041-21.042h171.0049c11.6299,0,21.042,9.4121,21.042,21.042
			C974.2461,415.5846,964.834,424.9967,953.2041,424.9967L953.2041,424.9967z"/>
	</g>
	<g>
		<rect x="21.0415" y="371.6314" fill="#BDBF6D" width="256.4868" height="427.4922"/>
		<path fill="#656872" d="M277.5283,820.1646H21.0415C9.4111,820.1646,0,810.7535,0,799.1236V371.6314
			c0-11.6299,9.4111-21.0405,21.0415-21.0405h256.4868c11.6304,0,21.0415,9.4106,21.0415,21.0405v427.4922
			C298.5698,810.7535,289.1587,820.1646,277.5283,820.1646L277.5283,820.1646z M42.0835,778.0806h214.4028V392.6734H42.0835
			V778.0806L42.0835,778.0806z"/>
	</g>
	<g>
		<g>
			<path fill="#656872" d="M124.2568,716.0045c0,13.8496-11.2402,25.0273-25.0488,25.0273
				c-13.8291,0-25.0278-11.1777-25.0278-25.0273c0-13.8086,11.1987-25.0283,25.0278-25.0283
				C113.0166,690.9762,124.2568,702.1959,124.2568,716.0045z"/>
		</g>
		<g>
			<path fill="#656872" d="M224.3691,716.0045c0,13.8496-11.2197,25.0273-25.0283,25.0273
				c-13.8086,0-25.0483-11.1777-25.0483-25.0273c0-13.8086,11.2397-25.0283,25.0483-25.0283
				C213.1494,690.9762,224.3691,702.1959,224.3691,716.0045z"/>
		</g>
	</g>
</g>
</svg>
