<?xml version="1.0" encoding="utf-8"?>
<!-- Generator: Adobe Illustrator 20.0.0, SVG Export Plug-In . SVG Version: 6.00 Build 0)  -->
<svg version="1.1" id="user-observation" xmlns="http://www.w3.org/2000/svg" xmlns:xlink="http://www.w3.org/1999/xlink" x="0px"
	 y="0px" viewBox="0 0 1010 935.4336" enable-background="new 0 0 1010 935.4336" xml:space="preserve">
<g id="user-observation-user-observation">
	<g id="user-observation-fill">
		<g>
			<path fill="#BDBF6D" d="M579.5664,710.1172c0,113.2695,91.8477,205.1162,205.1172,205.1162
				c113.3086,0,205.1172-91.8467,205.1172-205.1162C989.8008,596.8066,897.9922,505,784.6836,505
				C671.4141,505,579.5664,596.8066,579.5664,710.1172z"/>
		</g>
		<g>
			<path fill="#BDBF6D" d="M20.2002,710.1172c0,113.2695,91.8271,205.1162,205.1167,205.1162
				c113.27,0,205.1167-91.8467,205.1167-205.1162C430.4336,596.8066,338.5869,505,225.3169,505
				C112.0273,505,20.2002,596.8066,20.2002,710.1172z"/>
		</g>
	</g>
	<g id="user-observation-line">
		<g>
			<path fill="#656872" d="M784.6836,935.4336c-124.2383,0-225.3169-101.0791-225.3169-225.3164
				c0-124.2383,101.0786-225.3174,225.3169-225.3174S1010,585.8789,1010,710.1172
				C1010,834.3545,908.9219,935.4336,784.6836,935.4336L784.6836,935.4336z M784.6836,525.1992
				c-101.9668,0-184.917,82.9707-184.917,184.918c0,101.9863,82.9502,184.916,184.917,184.916s184.916-82.9297,184.916-184.916
				C969.5996,608.1699,886.6504,525.1992,784.6836,525.1992L784.6836,525.1992z"/>
		</g>
		<g>
			<path fill="#656872" d="M225.3169,935.4336C101.0791,935.4336,0,834.3545,0,710.1172
				c0-124.2383,101.0791-225.3174,225.3169-225.3174s225.3169,101.0791,225.3169,225.3174
				C450.6338,834.3545,349.5547,935.4336,225.3169,935.4336L225.3169,935.4336z M225.3169,525.1992
				c-101.9663,0-184.9165,82.9707-184.9165,184.918c0,101.9863,82.9502,184.916,184.9165,184.916
				c101.9668,0,184.917-82.9297,184.917-184.916C410.2339,608.1699,327.2837,525.1992,225.3169,525.1992L225.3169,525.1992z"/>
		</g>
		<g>
			<polygon fill="#656872" points="598.208,655.75 411.7822,655.75 411.7822,615.3496 598.208,615.3496 598.208,655.75 			"/>
		</g>
		<g>
			<polygon fill="#656872" points="1010,710.1172 969.5996,710.1172 969.5996,76.1445 1010,76.1445 1010,710.1172 			"/>
		</g>
		<g>
			<polygon fill="#656872" points="40.4004,710.1172 0,710.1172 0,76.1445 40.4004,76.1445 40.4004,710.1172 			"/>
		</g>
		<g>
			<path fill="#656872" d="M40.4004,76.1445H0C0,34.166,34.1567,0,76.1348,0v40.3999
				C56.4282,40.3999,40.4004,56.418,40.4004,76.1445L40.4004,76.1445z"/>
		</g>
		<g>
			<path fill="#656872" d="M1010,76.1445h-40.4004c0-19.7265-16.0469-35.7446-35.7637-35.7446V0C975.834,0,1010,34.166,1010,76.1445
				L1010,76.1445z"/>
		</g>
		<g>
			<path fill="#656872" d="M916.792,710.1172h-40.3994c0-50.54-41.1406-91.6895-91.709-91.6895v-40.4004
				C857.5234,578.0273,916.792,637.2861,916.792,710.1172L916.792,710.1172z"/>
		</g>
		<g>
			<path fill="#656872" d="M357.3667,710.1172h-40.3999c0-50.54-41.1104-91.6895-91.6499-91.6895v-40.4004
				C298.1279,578.0273,357.3667,637.2861,357.3667,710.1172L357.3667,710.1172z"/>
		</g>
	</g>
</g>
</svg>
