<?xml version="1.0" encoding="utf-8"?>
<!-- Generator: Adobe Illustrator 20.0.0, SVG Export Plug-In . SVG Version: 6.00 Build 0)  -->
<svg version="1.1" id="user-location" xmlns="http://www.w3.org/2000/svg" xmlns:xlink="http://www.w3.org/1999/xlink" x="0px"
	 y="0px" viewBox="0 0 825.9122 1010" enable-background="new 0 0 825.9122 1010" xml:space="preserve">
<g id="user-location-user-location">
	<g>
		<path fill="#BDBF6D" d="M413.0352,20.1997c-216.9922,0-392.835,182.0762-392.835,406.4463
			c0,118.2798,48.8038,224.7642,126.6836,299.0942c1.3809,1.2618,212.9287,218.3926,239.9151,245.5166
			c24.2636,24.4414,26.3935,24.9541,51.8808,0.1573c21.3438-20.7911,239.2041-244.5293,239.835-245.0822
			c78.2363-74.33,127.1973-181.1288,127.1973-299.686C805.712,202.2759,629.9092,20.1997,413.0352,20.1997z M413.0352,699.2676
			c-154.9326,0-280.709-125.6582-280.709-280.6109c0-155.1494,125.7764-280.6894,280.709-280.6894
			c155.0107,0,280.709,125.54,280.709,280.6894C693.7442,573.6094,568.0459,699.2676,413.0352,699.2676z"/>
		<path fill="#656872" d="M412.4239,1010c-0.0108,0-0.0108,0-0.0108,0c-15.623,0-26.3545-10.8105-39.9463-24.5205
			c-17.6054-17.6748-113.8017-116.2881-178.9589-183.082c-33.6534-34.4815-58.9922-60.462-60.7969-62.2569
			C48.4581,659.7148,0,545.3799,0,426.646C0,191.3867,185.292,0,413.0352,0c227.6641,0,412.877,191.3867,412.877,426.646
			c0,119.1685-48.6553,233.7397-133.4795,314.3227c-0.6612,0.6709-11.7774,12.0723-28.7422,29.4717
			c-63.0459,64.6631-194.2373,199.1982-210.916,215.454C439.4688,998.834,427.9874,1010,412.4239,1010L412.4239,1010z
			 M413.0352,40.3999c-205.4717,0-372.6348,173.2778-372.6348,386.2461c0,107.7466,43.8916,211.4292,120.4307,284.477
			c0.4834,0.4336,0.5918,0.5323,61.5957,63.0655c65.0488,66.6953,161.1074,165.1513,178.6934,182.8252
			c3.0478,3.0587,8.0185,8.0683,11.4511,11.0078c3.7578-3.0576,9.2813-8.4229,12.0235-11.086
			c16.2939-15.8798,152.1611-155.2089,210.1767-214.7041c29.6983-30.458,29.6983-30.458,30.4385-31.1084
			c76.2324-72.4365,120.3027-176.3359,120.3027-284.477C785.5127,213.6777,618.419,40.3999,413.0352,40.3999L413.0352,40.3999z
			 M413.0352,719.4668c-165.9199,0-300.9092-134.9492-300.9092-300.8101c0-165.9204,134.9893-300.8891,300.9092-300.8891
			s300.9092,134.9687,300.9092,300.8891C713.9444,584.5176,578.9551,719.4668,413.0352,719.4668L413.0352,719.4668z
			 M413.0352,158.1675c-143.6494,0-260.5088,116.8598-260.5088,260.4892c0,143.5894,116.8594,260.4097,260.5088,260.4097
			S673.544,562.2461,673.544,418.6567C673.544,275.0273,556.6846,158.1675,413.0352,158.1675L413.0352,158.1675z"/>
	</g>
	<g>
		<g>
			<path fill="#ECF0F1" d="M461.4444,424.1997l113.1113,64.6245c0,0,0,5.5625,0,32.332c0,26.7686-16.1553,48.4678-32.3115,48.4678
				H283.668c-16.1562,0-32.3115-21.6992-32.3115-48.4678c0-26.7695,0-32.332,0-32.332l113.1113-64.6245"/>
		</g>
		<g>
			<path fill="#FFCA70" d="M493.7569,335.312c0,56.5757-31.7207,105.044-80.8008,105.044s-80.7998-48.4683-80.7998-105.044
				c0-56.5561,16.1562-88.8882,80.7998-88.8882C477.6006,246.4238,493.7569,278.7559,493.7569,335.312z"/>
		</g>
		<g>
			<path fill="#656872" d="M412.9561,460.5557c-57.582,0-101-53.8335-101-125.2437c0-50.7959,11.4805-109.0879,101-109.0879
				s101,58.292,101,109.0879C513.9561,406.7222,470.5381,460.5557,412.9561,460.5557L412.9561,460.5557z M412.9561,266.624
				c-47.0088,0-60.5996,15.4063-60.5996,68.688c0,41.1299,21.2353,84.8438,60.5996,84.8438s60.5996-43.7139,60.5996-84.8438
				C473.5557,282.0303,459.9649,266.624,412.9561,266.624L412.9561,266.624z"/>
		</g>
		<g>
			<path fill="#656872" d="M542.2442,589.8242H283.668c-28.4648,0-52.5117-31.4443-52.5117-68.668v-44.0498l123.291-70.4433
				l20.042,35.0737L271.5557,500.541v20.6152c0,16.5508,8.7988,27.4786,12.3887,28.2872l258.2998-0.0196
				c3.3135-0.789,12.1123-11.7169,12.1123-28.2676V500.541l-102.9336-58.8042l20.042-35.0737l123.292,70.4433v44.0498
				C594.7569,558.3799,570.71,589.8242,542.2442,589.8242L542.2442,589.8242z"/>
		</g>
	</g>
</g>
</svg>
