<?xml version="1.0" encoding="utf-8"?>
<!-- Generator: Adobe Illustrator 20.0.0, SVG Export Plug-In . SVG Version: 6.00 Build 0)  -->
<svg version="1.1" id="user-interface" xmlns="http://www.w3.org/2000/svg" xmlns:xlink="http://www.w3.org/1999/xlink" x="0px"
	 y="0px" viewBox="0 0 1010 776.832" enable-background="new 0 0 1010 776.832" xml:space="preserve">
<g id="user-interface-user-interface">
	<g>
		<path fill="#ED7161" d="M678.5156,444.123c0,192.709-126.0532,312.5088-327.0669,312.5088
			c-202.0986,0-331.2485-119.7997-331.2485-312.5088V20.1997h164.5591V444.123c0,105.2617,68.7471,168.7813,166.6894,168.7813
			c97.9224,0,162.4878-63.5196,162.4878-168.7813V20.1997h164.579V444.123z"/>
		<path fill="#656872" d="M351.4487,776.832C137.9482,776.832,0,646.2422,0,444.123V20.1997C0,9.0347,9.0449,0,20.2002,0h164.5591
			c11.1553,0,20.1997,9.0347,20.1997,20.1997V444.123c0,91.6504,56.1323,148.5811,146.4897,148.5811
			c89.0948,0,142.2876-55.5498,142.2876-148.5811V20.1997C493.7363,9.0347,502.7808,0,513.9365,0h164.579
			c11.1543,0,20.1992,9.0347,20.1992,20.1997V444.123C698.7148,646.2422,562.4043,776.832,351.4487,776.832L351.4487,776.832z
			 M40.4004,40.3999V444.123c0,180.3008,119.1875,292.3086,311.0483,292.3086c189.2862,0,306.8658-112.0078,306.8658-292.3086
			V40.3999H534.1362V444.123c0,114.8086-71.706,188.9805-182.6875,188.9805c-111.7807,0-186.8896-75.9473-186.8896-188.9805V40.3999
			H40.4004L40.4004,40.3999z"/>
	</g>
	<g>
		<path fill="#FFCA70" d="M825.2412,749.373V20.1997h164.5596V749.373H825.2412z"/>
		<path fill="#656872" d="M989.8008,769.5723H825.2412c-11.1553,0-20.2002-9.0352-20.2002-20.1993V20.1997
			C805.041,9.0347,814.0859,0,825.2412,0h164.5596C1000.9551,0,1010,9.0347,1010,20.1997V749.373
			C1010,760.5371,1000.9551,769.5723,989.8008,769.5723L989.8008,769.5723z M845.4414,729.1719h124.1582V40.3999H845.4414V729.1719
			L845.4414,729.1719z"/>
	</g>
</g>
</svg>
