<?xml version="1.0" encoding="utf-8"?>
<!-- Generator: Adobe Illustrator 20.0.0, SVG Export Plug-In . SVG Version: 6.00 Build 0)  -->
<svg version="1.1" id="user" xmlns="http://www.w3.org/2000/svg" xmlns:xlink="http://www.w3.org/1999/xlink" x="0px" y="0px"
	 viewBox="0 0 1010 1010" enable-background="new 0 0 1010 1010" xml:space="preserve">
<g id="user-user">
	<g>
		<g>
			<g>
				<path fill="#FFCA70" d="M505.0791,681.9473c-119.4639,0-220.2666-182.3721-220.2666-296.9244
					c0-112.0668,98.7905-203.2231,220.2666-203.2231c121.3975,0,220.208,91.1563,220.208,203.2231
					C725.2871,499.5752,624.5039,681.9473,505.0791,681.9473L505.0791,681.9473z"/>
			</g>
		</g>
		<g>
			<g>
				<path fill="#BDBF6D" d="M247.687,617.9541l10.6719-10.7705c17.0635-17.2412,35.6265-33.3379,55.1357-47.8574l17.6158-13.1367
					l11.6191,18.6601c39.1377,62.9873,87.7832,103.4863,136.9814,114.0596l35.5469,7.6142l-145.6411,150.75L247.687,617.9541z"/>
			</g>
		</g>
		<g>
			<g>
				<path fill="#BDBF6D" d="M494.9004,686.5039l35.5469-7.6143c49.1582-10.5537,97.8047-51.0322,136.9218-114l11.6192-18.6611
					l17.6162,13.1182c21.956,16.3525,43.6152,35.8037,64.3877,57.7988l10.75,11.3818L640.4824,837.2734L494.9004,686.5039z"/>
			</g>
		</g>
		<g>
			<g>
				<path fill="#ED7161" d="M505,989.7998c-141.7153,0-276.0532-62.0986-368.5708-170.3389l-7.812-9.1728l4.3599-11.2246
					c21.6201-55.8858,54.6821-110.9619,95.5947-159.253l18.8784-22.291l122.1665,219.7538l135.4429-140.2158l135.4228,140.2158
					L771.96,628.1328l17.7734,21.9756c37.165,45.9228,67.3467,97.4297,87.3096,148.916l4.3593,11.2442l-7.831,9.1728
					C781.0537,927.7012,646.7559,989.7998,505,989.7998L505,989.7998z"/>
			</g>
		</g>
	</g>
	<g>
		<g>
			<path fill="#656872" d="M369.6167,857.4746c-0.8677,0-1.7554-0.0596-2.6235-0.1582
				c-6.3521-0.8486-11.9151-4.6357-15.0318-10.2187L235.8311,638.2725c-5.4249-9.7452-1.9131-22.0538,7.8315-27.4795
				c9.8042-5.424,22.0542-1.9131,27.479,7.832l102.874,185.0156l116.5449-120.6289c7.7129-8.0078,20.5547-8.2256,28.544-0.4726
				c8.0288,7.7324,8.2461,20.5351,0.4932,28.5644l-135.462,140.2158C380.3086,855.2646,375.0615,857.4746,369.6167,857.4746
				L369.6167,857.4746z"/>
		</g>
		<g>
			<path fill="#656872" d="M640.4824,857.4746c-5.4453,0-10.7119-2.21-14.5389-6.1553L490.5405,711.1035
				c-7.7329-8.0488-7.5156-20.832,0.5132-28.5644c8.0088-7.7531,20.8115-7.5352,28.564,0.4726l117.4917,121.6738l117.5703-186.9882
				c5.957-9.4287,18.4238-12.2891,27.8535-6.3516c9.4492,5.9375,12.2891,18.4043,6.3516,27.8535L657.585,848.0254
				c-3.3135,5.2666-8.837,8.6992-15.0118,9.3301C641.8633,857.4346,641.1729,857.4746,640.4824,857.4746L640.4824,857.4746z"/>
		</g>
		<g>
			<g>
				<path fill="#656872" d="M505.0791,702.1465c-132.7402,0-240.4668-191.8994-240.4668-317.1236
					c0-123.1923,107.8648-223.4233,240.4668-223.4233c132.5625,0,240.4072,100.231,240.4072,223.4233
					C745.4863,510.2471,637.7793,702.1465,505.0791,702.1465L505.0791,702.1465z M505.0791,202
					c-110.311,0-200.0669,82.1016-200.0669,183.0229c0,104.2544,93.5039,276.7242,200.0669,276.7242
					c106.5234,0,200.0078-172.4698,200.0078-276.7242C705.0869,284.1016,615.3701,202,505.0791,202L505.0791,202z"/>
			</g>
			<g>
				<path fill="#656872" d="M862.6035,817.1133c-34.1865-95.4375-105.123-190.085-185.1141-247.0547l23.4344-32.9043
					c86.3633,61.4873,162.8828,163.5332,199.7129,266.3086L862.6035,817.1133L862.6035,817.1133z"/>
			</g>
			<g>
				<path fill="#656872" d="M147.397,817.1729l-38.0327-13.6114c36.79-102.7755,113.3291-204.8603,199.7509-266.4072
					l23.4356,32.9043C252.5,627.0684,181.5439,721.7559,147.397,817.1729L147.397,817.1729z"/>
			</g>
		</g>
		<g>
			<path fill="#656872" d="M505,1010C226.54,1010,0,783.46,0,505C0,226.5396,226.54,0,505,0c278.4609,0,505,226.5396,505,505
				C1010,783.46,783.4609,1010,505,1010L505,1010z M505,40.3999C248.8115,40.3999,40.4004,248.8306,40.4004,505
				c0,256.1689,208.4111,464.5996,464.5996,464.5996c256.1895,0,464.5996-208.4307,464.5996-464.5996
				C969.5996,248.8306,761.1895,40.3999,505,40.3999L505,40.3999z"/>
		</g>
	</g>
</g>
</svg>
