<?xml version="1.0" encoding="utf-8"?>
<!-- Generator: Adobe Illustrator 20.0.0, SVG Export Plug-In . SVG Version: 6.00 Build 0)  -->
<svg version="1.1" id="ux-review" xmlns="http://www.w3.org/2000/svg" xmlns:xlink="http://www.w3.org/1999/xlink" x="0px" y="0px"
	 viewBox="0 0 1010 1010" enable-background="new 0 0 1010 1010" xml:space="preserve">
<g id="ux-review-ux-review">
	<g>
		<g>
			<g>
				<rect x="20.2002" y="20.1997" fill="#F5F7F8" width="682.3018" height="969.6001"/>
			</g>
			<g>
				<path fill="#656872" d="M722.7031,1010H0V0h722.7031V1010L722.7031,1010z M40.4004,969.5996h641.9023V40.3999H40.4004V969.5996
					L40.4004,969.5996z"/>
			</g>
		</g>
		<g>
			<path fill="#BDBF6D" d="M322.5889,242.7944c0,64.2691-52.1177,116.3472-116.3477,116.3472
				c-64.269,0-116.3867-52.0781-116.3867-116.3472c0-64.269,52.1177-116.3471,116.3867-116.3471
				C270.4712,126.4473,322.5889,178.5254,322.5889,242.7944z M264.3955,223.4033h-38.7827v-38.7827h-38.7822v38.7827h-38.7827
				v38.7822h38.7827v38.7823h38.7822v-38.7823h38.7827V223.4033z"/>
		</g>
		<g>
			<path fill="#ED7161" d="M632.8477,242.7944c0,64.2691-52.0782,116.3472-116.3467,116.3472
				c-64.2696,0-116.3477-52.0781-116.3477-116.3472c0-64.269,52.0781-116.3471,116.3477-116.3471
				C580.7695,126.4473,632.8477,178.5254,632.8477,242.7944z M574.6543,262.1855v-38.7822H458.3076v38.7822H574.6543
				L574.6543,262.1855z"/>
		</g>
		<g>
			<g>
				<g>
					<polygon fill="#BDBF6D" points="129.8604,496.498 89.46,496.498 89.46,456.0977 129.8604,456.0977 129.8604,496.498 					"/>
				</g>
				<g>
					<polygon fill="#656872" points="326.2183,496.498 164.6182,496.498 164.6182,456.0977 326.2183,456.0977 326.2183,496.498 
											"/>
				</g>
			</g>
			<g>
				<g>
					<polygon fill="#BDBF6D" points="129.8604,587.3975 89.46,587.3975 89.46,546.998 129.8604,546.998 129.8604,587.3975 					"/>
				</g>
				<g>
					<polygon fill="#656872" points="326.2183,587.3975 164.6182,587.3975 164.6182,546.998 326.2183,546.998 326.2183,587.3975 
											"/>
				</g>
			</g>
			<g>
				<g>
					<polygon fill="#BDBF6D" points="129.8604,678.2979 89.46,678.2979 89.46,637.8975 129.8604,637.8975 129.8604,678.2979 					
						"/>
				</g>
				<g>
					<polygon fill="#656872" points="326.2183,678.2979 164.6182,678.2979 164.6182,637.8975 326.2183,637.8975 326.2183,678.2979 
											"/>
				</g>
			</g>
			<g>
				<g>
					<polygon fill="#BDBF6D" points="129.8604,769.1973 89.46,769.1973 89.46,728.7979 129.8604,728.7979 129.8604,769.1973 					
						"/>
				</g>
				<g>
					<polygon fill="#656872" points="326.2183,769.1973 164.6182,769.1973 164.6182,728.7979 326.2183,728.7979 326.2183,769.1973 
											"/>
				</g>
			</g>
			<g>
				<g>
					<polygon fill="#BDBF6D" points="129.8604,860.0977 89.46,860.0977 89.46,819.6973 129.8604,819.6973 129.8604,860.0977 					
						"/>
				</g>
				<g>
					<polygon fill="#656872" points="326.2183,860.0977 164.6182,860.0977 164.6182,819.6973 326.2183,819.6973 326.2183,860.0977 
											"/>
				</g>
			</g>
		</g>
		<g>
			<g>
				<g>
					<polygon fill="#ED7161" points="432.8604,496.498 392.46,496.498 392.46,456.0977 432.8604,456.0977 432.8604,496.498 					"/>
				</g>
				<g>
					<polygon fill="#656872" points="629.2188,496.498 467.6182,496.498 467.6182,456.0977 629.2188,456.0977 629.2188,496.498 
											"/>
				</g>
			</g>
			<g>
				<g>
					<polygon fill="#ED7161" points="432.8604,587.3975 392.46,587.3975 392.46,546.998 432.8604,546.998 432.8604,587.3975 					
						"/>
				</g>
				<g>
					<polygon fill="#656872" points="629.2188,587.3975 467.6182,587.3975 467.6182,546.998 629.2188,546.998 629.2188,587.3975 
											"/>
				</g>
			</g>
			<g>
				<g>
					<polygon fill="#ED7161" points="432.8604,678.2979 392.46,678.2979 392.46,637.8975 432.8604,637.8975 432.8604,678.2979 					
						"/>
				</g>
				<g>
					<polygon fill="#656872" points="629.2188,678.2979 467.6182,678.2979 467.6182,637.8975 629.2188,637.8975 629.2188,678.2979 
											"/>
				</g>
			</g>
		</g>
	</g>
	<g>
		<g>
			<rect x="800.4053" y="20.1997" fill="#FFCA70" width="127.1377" height="110.7847"/>
		</g>
		<g>
			<rect x="800.4053" y="130.9844" fill="#ED7161" width="127.1377" height="726.5683"/>
		</g>
		<g>
			<polygon fill="#BDC3C7" points="930.0879,857.5723 797.8613,857.5723 863.9648,989.7998 			"/>
		</g>
		<g>
			<path fill="#656872" d="M863.9648,1010L863.9648,1010c-7.6543,0-14.6572-4.3203-18.0703-11.166l-63.5586-127.1963
				c-1.4004-2.8018-2.1308-5.8984-2.1308-9.0342V20.1997C780.2051,9.0347,789.2402,0,800.4053,0H927.543
				c11.166,0,20.2001,9.0347,20.2001,20.1997V862.623c0,3.1368-0.7295,6.2334-2.1299,9.0342L882.0342,998.834
				C878.6016,1005.6797,871.6182,1010,863.9648,1010L863.9648,1010z M820.6055,857.8291l43.3593,86.7969l43.379-86.7774V40.3999
				h-86.7383V857.8291L820.6055,857.8291z"/>
		</g>
		<g>
			<path fill="#656872" d="M989.8008,345.1553c-11.1465,0-20.2012-9.0347-20.2012-20.1997l-0.0391-173.7515H808.5527
				c-11.166,0-20.2002-9.0352-20.2002-20.2002c0-11.165,9.0342-20.2002,20.2002-20.2002h181.208
				c11.1456,0,20.2002,9.0352,20.2002,20.2002L1010,324.9556C1010,336.1011,1000.9648,345.1553,989.8008,345.1553L989.8008,345.1553
				z"/>
		</g>
		<g>
			<polygon fill="#656872" points="922.6309,877.7725 802.1807,877.7725 802.1807,837.373 922.6309,837.373 922.6309,877.7725 			
				"/>
		</g>
	</g>
</g>
</svg>
