<?xml version="1.0" encoding="utf-8"?>
<!-- Generator: Adobe Illustrator 20.0.0, SVG Export Plug-In . SVG Version: 6.00 Build 0)  -->
<svg version="1.1" id="visual-design" xmlns="http://www.w3.org/2000/svg" xmlns:xlink="http://www.w3.org/1999/xlink" x="0px"
	 y="0px" viewBox="0 0 1010 1010" enable-background="new 0 0 1010 1010" xml:space="preserve">
<g id="visual-design-visual-design">
	<g>
		<g>
			<rect x="21.0415" y="21.0415" fill="#BDC3C7" width="967.9175" height="197.3071"/>
		</g>
		<g>
			<rect x="21.0415" y="218.3486" fill="#ED7161" width="967.9175" height="770.6104"/>
		</g>
		<g>
			<g>
				<path fill="#656872" d="M1010,1010H0V0h1010V1010L1010,1010z M42.0835,967.916H967.916V42.0835H42.0835V967.916L42.0835,967.916
					z"/>
			</g>
			<g>
				<path fill="none" d="M977.1426,452.1904"/>
			</g>
			<g>
				<path fill="none" d="M977.1426,227.3691"/>
			</g>
			<g>
				<polygon fill="#656872" points="984.0273,239.3901 34.3159,239.3901 34.3159,197.3066 984.0273,197.3066 984.0273,239.3901 				
					"/>
			</g>
		</g>
		<g>
			<g>
				<line fill="#ECF0F1" x1="133.1543" y1="101.6943" x2="133.1543" y2="142.0312"/>
				<polygon fill="#656872" points="154.1958,142.0312 112.1128,142.0312 112.1128,101.6943 154.1958,101.6943 154.1958,142.0312 
									"/>
			</g>
			<g>
				<line fill="#ECF0F1" x1="226.1567" y1="101.6943" x2="226.1567" y2="142.0312"/>
				<polygon fill="#656872" points="247.1987,142.0312 205.1152,142.0312 205.1152,101.6943 247.1987,101.6943 247.1987,142.0312 
									"/>
			</g>
			<g>
				<line fill="#ECF0F1" x1="319.0771" y1="101.6943" x2="319.0771" y2="142.0312"/>
				<polygon fill="#656872" points="340.1187,142.0312 298.0356,142.0312 298.0356,101.6943 340.1187,101.6943 340.1187,142.0312 
									"/>
			</g>
		</g>
		<g>
			<polygon fill="#656872" points="876.8457,142.915 451.8618,142.915 451.8618,100.8315 876.8457,100.8315 876.8457,142.915 			"/>
		</g>
	</g>
	<g>
		<g>
			<path fill="#656872" d="M518.2334,771.8428c-75.5161,0-151.001-17.5283-219.8384-52.6045
				c-10.3462-5.2598-14.4663-17.9385-9.1953-28.2949c5.2603-10.3565,17.9185-14.5079,28.3057-9.1856
				c125.6948,64.0088,275.771,64.0508,401.4663,0c10.3769-5.3223,23.0342-1.1709,28.3056,9.1856
				c5.2706,10.3564,1.1504,23.0351-9.1953,28.2949C669.2539,754.2949,593.7285,771.8428,518.2334,771.8428L518.2334,771.8428z"/>
		</g>
		<g>
			<g>
				<path fill="#656872" d="M209.9028,716.5674c-1.1299,0-2.2602-0.1026-3.4111-0.2881
					c-11.4453-1.8691-19.2231-12.6162-17.3838-24.0625c0.3799-2.3418,40.9429-234.6836,324.5737-234.6836
					c264.0489,0,331.7872,203.5742,332.4434,205.6289c3.5146,11.0752-2.6094,22.9111-13.6846,26.4258
					c-10.9931,3.5332-22.8701-2.5899-26.4052-13.625c-2.3936-7.3555-60.084-176.3467-292.3536-176.3467
					c-246.9721,0-281.6787,191.1826-283.0351,199.3203C228.9307,709.2314,220.0127,716.5674,209.9028,716.5674L209.9028,716.5674z"
					/>
			</g>
			<g>
				<path fill="#656872" d="M765.4004,586.3311c-6.1738,0-12.2871-2.712-16.4492-7.9112
					c-7.253-9.0625-5.7735-22.3164,3.2988-29.5693l86.7969-69.3926c9.0927-7.2529,22.3261-5.7744,29.5801,3.3086
					c7.2529,9.0615,5.7734,22.3154-3.299,29.5693l-86.7968,69.3926C774.6484,584.8311,770.0137,586.3311,765.4004,586.3311
					L765.4004,586.3311z"/>
			</g>
			<g>
				<path fill="#656872" d="M617.8223,499.6162c-2.0038,0-4.0391-0.2881-6.0528-0.8838
					c-11.1367-3.3496-17.455-15.0625-14.1161-26.1992l26.0147-86.7559c3.3387-11.1372,15.1025-17.3837,26.1992-14.1167
					c11.1367,3.3497,17.4551,15.0621,14.1172,26.1993l-26.0156,86.7553C635.2363,493.7393,626.873,499.6162,617.8223,499.6162
					L617.8223,499.6162z"/>
			</g>
			<g>
				<path fill="#656872" d="M409.5317,508.2871c-8.5996,0-16.665-5.3008-19.7778-13.8496l-34.7168-95.4268
					c-3.9658-10.9111,1.6646-22.9936,12.5859-26.9594c10.8702-3.9864,22.9937,1.644,26.9698,12.5757l34.7168,95.4277
					c3.9658,10.9101-1.6646,22.9932-12.586,26.959C414.3501,507.877,411.9258,508.2871,409.5317,508.2871L409.5317,508.2871z"/>
			</g>
			<g>
				<path fill="#656872" d="M244.6812,603.7773c-4.1612,0-8.3736-1.2334-12.0416-3.8027l-86.8891-60.7812
					c-9.5244-6.6582-11.8462-19.7891-5.1782-29.3028c6.6577-9.5136,19.7983-11.8359,29.3022-5.1777l86.8892,60.7812
					c9.5244,6.6582,11.8462,19.7891,5.1782,29.3028C257.853,600.6533,251.3184,603.7773,244.6812,603.7773L244.6812,603.7773z"/>
			</g>
		</g>
		<g>
			<g>
				<path fill="#FFCA70" d="M388.0381,613.7422c0,71.8584,58.3164,130.1953,130.2363,130.1953
					c71.9502,0,130.1748-58.3369,130.1748-130.1953c0-71.9395-58.2246-130.2774-130.1748-130.2774
					C446.3545,483.4648,388.0381,541.8027,388.0381,613.7422z"/>
				<path fill="#656872" d="M518.2744,764.9795c-83.4165,0-151.2783-67.8506-151.2783-151.2373
					c0-83.4473,67.8618-151.3184,151.2783-151.3184c83.3858,0,151.2158,67.8711,151.2158,151.3184
					C669.4902,697.1289,601.6602,764.9795,518.2744,764.9795L518.2744,764.9795z M518.2744,504.5068
					c-60.207,0-109.1948,49.0088-109.1948,109.2354c0,60.1875,48.9878,109.1543,109.1948,109.1543
					c60.1768,0,109.1328-48.9668,109.1328-109.1543C627.4072,553.5156,578.4512,504.5068,518.2744,504.5068L518.2744,504.5068z"/>
			</g>
			<g>
				<path fill="#656872" d="M476.1602,611.626c0,23.1992,18.8325,42.083,42.0527,42.083c23.2812,0,42.1138-18.8838,42.1138-42.083
					c0-23.2403-18.8326-42.0829-42.1138-42.0829C494.9927,569.543,476.1602,588.3857,476.1602,611.626z"/>
			</g>
		</g>
	</g>
</g>
</svg>
