<?xml version="1.0" encoding="utf-8"?>
<!-- Generator: Adobe Illustrator 20.0.0, SVG Export Plug-In . SVG Version: 6.00 Build 0)  -->
<svg version="1.1" id="wireframes" xmlns="http://www.w3.org/2000/svg" xmlns:xlink="http://www.w3.org/1999/xlink" x="0px" y="0px"
	 viewBox="0 0 1010 1010" enable-background="new 0 0 1010 1010" xml:space="preserve">
<g id="wireframes-wireframes">
	<g>
		<g>
			<line fill="#ECF0F1" x1="988.959" y1="218.3486" x2="988.959" y2="285.1724"/>
		</g>
		<g>
			<rect x="21.0415" y="21.0415" fill="#BDC3C7" width="967.9175" height="197.3071"/>
		</g>
		<g>
			<rect x="21.0415" y="218.3486" fill="#ECF0F1" width="967.9175" height="770.6104"/>
		</g>
		<g>
			<g>
				<path fill="#656872" d="M1010,1010H0V0h1010V1010L1010,1010z M42.0835,967.916H967.916V42.0835H42.0835V967.916L42.0835,967.916
					z"/>
			</g>
			<g>
				<path fill="none" d="M977.1426,452.1904"/>
			</g>
			<g>
				<path fill="none" d="M977.1426,227.3691"/>
			</g>
			<g>
				<polygon fill="#656872" points="984.0273,239.3901 34.3364,239.3901 34.3364,197.3066 984.0273,197.3066 984.0273,239.3901 				
					"/>
			</g>
		</g>
		<g>
			<g>
				<line fill="#ECF0F1" x1="133.1748" y1="101.7153" x2="133.1748" y2="142.0312"/>
				<polygon fill="#656872" points="154.2163,142.0312 112.1333,142.0312 112.1333,101.7153 154.2163,101.7153 154.2163,142.0312 
									"/>
			</g>
			<g>
				<line fill="#ECF0F1" x1="226.1567" y1="101.7153" x2="226.1567" y2="142.0312"/>
				<polygon fill="#656872" points="247.1987,142.0312 205.1152,142.0312 205.1152,101.7153 247.1987,101.7153 247.1987,142.0312 
									"/>
			</g>
			<g>
				<line fill="#ECF0F1" x1="319.0771" y1="101.7153" x2="319.0771" y2="142.0312"/>
				<polygon fill="#656872" points="340.1187,142.0312 298.0356,142.0312 298.0356,101.7153 340.1187,101.7153 340.1187,142.0312 
									"/>
			</g>
		</g>
		<g>
			<polygon fill="#656872" points="876.8252,142.8945 451.8823,142.8945 451.8823,100.811 876.8252,100.811 876.8252,142.8945 			
				"/>
		</g>
	</g>
	<g>
		<g>
			<rect x="222.6841" y="646.1475" fill="#BDBF6D" width="241.979" height="241.9795"/>
			<path fill="#656872" d="M485.7051,909.168H201.6426V625.1055h284.0625V909.168L485.7051,909.168z M243.7256,867.085h199.896
				V667.1895h-199.896V867.085L243.7256,867.085z"/>
		</g>
		<g>
			<rect x="222.6841" y="323.5156" fill="#ED7161" width="564.6323" height="241.9785"/>
			<path fill="#656872" d="M808.3574,586.5371H201.6426v-284.063h606.7148V586.5371L808.3574,586.5371z M243.7256,544.4531h522.5488
				v-199.896H243.7256V544.4531L243.7256,544.4531z"/>
		</g>
		<g>
			<rect x="545.3369" y="646.1475" fill="#FFCA70" width="241.9795" height="241.9795"/>
			<path fill="#656872" d="M808.3574,909.168H524.2949V625.1055h284.0624V909.168L808.3574,909.168z M566.3789,867.085h199.8955
				V667.1895H566.3789V867.085L566.3789,867.085z"/>
		</g>
	</g>
</g>
</svg>
