<?xml version="1.0" encoding="UTF-8" standalone="no"?>
<!DOCTYPE svg PUBLIC "-//W3C//DTD SVG 1.1//EN" "http://www.w3.org/Graphics/SVG/1.1/DTD/svg11.dtd">
<svg width="100%" height="100%" viewBox="0 0 938 1047" version="1.1" xmlns="http://www.w3.org/2000/svg" xmlns:xlink="http://www.w3.org/1999/xlink" xml:space="preserve" xmlns:serif="http://www.serif.com/" style="fill-rule:evenodd;clip-rule:evenodd;">
  <path d="M558.877,162.757c58.637,34.284 117.772,68.081 176.515,102.247c4.691,-7.05 9.575,-13.897 15.441,-19.775c2.834,-2.947 5.844,-5.729 9.169,-8.2c3.028,-2.754 6.418,-5.144 10.122,-7.235c14.309,-9.006 30.806,-15.815 54.018,-15.912c21.735,-0.669 40.513,5.787 54.5,14.468c7.578,4 13.753,9.397 19.775,14.954c5.657,5.918 11.26,11.893 15.432,19.29c6.562,9.569 11.934,22.831 14.475,38.1c2.5,15.103 2.159,33.406 -2.9,46.791c-0.666,5.112 -2.929,8.647 -4.338,13.022c-2.112,3.668 -3.459,8.112 -6.272,11.09c-1.825,4.119 -4.403,7.494 -7.231,10.61c-1.778,4.015 -5.753,5.828 -7.719,9.643c-2.362,0.538 -2.865,2.932 -4.828,3.863c-1.112,1.775 -3.416,2.362 -4.344,4.341c-3.85,1.928 -6.522,5.046 -10.609,6.75c-13.956,8.862 -30.641,15.471 -54.019,15.431c-0.172,67.359 0.438,135.481 -0.481,202.087c22.197,1.122 40.025,6.603 54.019,15.925c7.387,4.188 13.812,9.332 19.293,15.432c6.225,5.353 10.888,12.262 15.435,19.293c8.669,13.653 14.95,33.166 14.95,54.988c0,21.697 -7.21,40.553 -15.435,54.015c-9.106,14.204 -20.884,25.738 -35.209,34.729c-7.109,3.912 -15.2,7.94 -24.597,10.609c-9.453,2.678 -19.781,3.862 -30.872,3.862c-21.753,0 -40.478,-7.465 -53.531,-15.925c-14.262,-8.881 -25.687,-20.618 -34.253,-35.206c-15.3,7.85 -28.988,17.303 -44.363,25.078c-3.037,2.76 -7.403,4.169 -10.612,6.757c-3.988,1.8 -7.403,4.168 -11.091,6.262c-7.572,4.009 -14.368,8.791 -22.19,12.544c-14.266,8.887 -29.075,17.231 -43.888,25.562c-14.372,8.785 -29.165,17.144 -43.89,25.563c0.484,2.409 1.787,3.99 2.893,5.787c0.532,2.369 1.813,3.972 2.41,6.275c1.8,3.835 3.24,8.013 4.34,12.544c2.482,8.928 3.853,18.975 3.375,30.866c-0.237,11.168 -2.178,20.647 -5.303,28.937c-0.994,4.797 -3.137,8.441 -4.822,12.544c-1.965,3.656 -3.668,7.581 -6.275,10.609c-1.865,3.913 -4.462,7.11 -7.231,10.125c-1.131,1.763 -2.597,3.191 -3.859,4.828c-1.872,0.86 -2.36,3.107 -4.338,3.857c-5.384,6.037 -11.994,10.834 -19.294,14.953c-13.959,8.869 -31.456,14.203 -53.537,14.947c-10.663,-0.744 -21.219,-1.613 -29.422,-4.822c-9.319,-2.1 -16.344,-6.481 -24.112,-10.125c-3.047,-2.747 -6.885,-4.7 -10.135,-7.238c-3.112,-2.509 -5.875,-5.378 -9.169,-7.715c-5.071,-6.341 -11.018,-11.81 -14.943,-19.294c-8.866,-13.959 -15.475,-30.188 -15.925,-52.569c-1.01,-21.49 5.281,-39.697 13.028,-54.015c-2.96,-2.832 -7.313,-4.272 -10.616,-6.757c-3.906,-1.881 -7.309,-4.259 -11.081,-6.268c-7.45,-4.132 -14.409,-8.754 -22.197,-12.544c-14.303,-8.844 -29.116,-17.175 -43.887,-25.556c-29.035,-17.266 -58.747,-33.857 -87.779,-51.129c-2.612,3.332 -4.821,7.075 -7.234,10.61c-2.719,3.075 -5.412,6.159 -8.203,9.169c-5.925,5.653 -11.875,11.271 -19.294,15.431c-14.303,9.009 -30.831,15.797 -54.019,15.925c-21.725,0.659 -40.528,-5.769 -54.5,-14.472c-7.493,-4.003 -13.89,-9.303 -19.778,-14.947c-5.872,-5.659 -11.209,-12.031 -15.431,-19.3c-9.006,-14.306 -15.791,-30.834 -15.912,-54.016c-0.657,-21.721 5.756,-40.54 14.459,-54.503c2.044,-3.912 4.366,-7.531 7.237,-10.609c0.913,-1.978 2.494,-3.291 3.86,-4.828c0.331,-1.116 1.6,-1.288 1.931,-2.41c0.422,-1.012 2.056,-0.837 1.922,-2.409c3.341,-2.447 6.153,-5.431 9.169,-8.203c3.468,-2.313 6.884,-4.681 10.125,-7.228c14.95,-8.203 30.768,-15.541 54.022,-15.435l0,-202.093c-10.888,-0.844 -21.594,-1.882 -29.904,-5.303c-9.384,-2.185 -16.418,-6.732 -24.118,-10.61c-3.153,-2.79 -7.21,-4.687 -10.125,-7.722c-3.447,-2.337 -6.244,-5.328 -9.169,-8.19c-5.609,-5.963 -10.953,-12.2 -14.95,-19.775c-8.703,-13.966 -15.116,-32.785 -14.459,-54.507c-0.082,-23.231 7.218,-39.078 15.425,-54.018c2.834,-3.113 4.593,-7.31 7.725,-10.128c2.521,-3.263 5.131,-6.438 8.19,-9.166c5.956,-5.622 12.2,-10.953 19.778,-14.953c13.972,-8.7 32.775,-15.131 54.5,-14.469c23.188,0.125 39.713,6.909 54.019,15.913c14.278,8.881 25.8,20.512 34.247,35.209c8.006,-3.734 14.769,-8.709 22.669,-12.538c6.868,-4.709 14.762,-8.393 21.706,-13.021c7.653,-3.929 14.566,-8.588 22.187,-12.544c3.619,-2.166 7.01,-4.566 11.088,-6.272c3.084,-2.703 7.597,-3.978 10.612,-6.75c7.629,-3.941 14.863,-8.278 22.185,-12.541c7.281,-4.234 14.494,-8.74 22.184,-12.543c3.069,-2.722 7.466,-4.113 10.616,-6.75c3.919,-1.86 7.525,-4.047 11.097,-6.272c7.5,-4.069 14.509,-8.628 22.181,-12.538c-7.8,-14.397 -14.394,-32.534 -13.513,-54.022c0.132,-22.693 6.938,-38.722 15.441,-53.056c8.806,-13.903 20.181,-25.562 34.238,-34.241c13.806,-8.518 31.228,-14.725 53.059,-14.95c0.781,0.132 0.828,-0.456 1.447,-0.481c20.19,0.456 36.194,5.672 49.675,13.019c2.15,1.169 4.253,1.956 6.275,3.378c0.503,0.353 0.95,1.116 1.447,1.447c0.715,0.478 1.797,0.559 2.406,0.966c1.425,0.928 3.147,2.99 4.825,4.337c0.412,0.334 1.081,0.134 1.45,0.488c0.225,0.206 0.256,0.778 0.481,0.965c1.585,1.297 3.65,2.241 4.819,4.341c4.756,3.609 8.262,8.459 12.062,13.022c3.594,4.768 6.754,9.962 9.65,15.434c5.625,10.931 9.419,23.697 11.088,38.588c1.3,25.859 -4.5,44.662 -13.481,60.278Zm11.09,-51.61c-1.062,-33.178 -13.512,-54.968 -30.39,-72.343c-17.735,-16.666 -39.75,-29.06 -73.791,-29.422c-0.612,0.031 -0.662,0.618 -1.447,0.481c-14.437,-0.222 -26.878,4.247 -36.65,8.2c-2.9,1.169 -6.19,2.494 -8.684,3.856c-1.719,0.941 -3.116,2.313 -4.819,3.378c-3.481,2.175 -6.491,4.225 -9.65,6.75c-9.184,7.36 -16.841,16.044 -23.147,26.047c-8.122,13.75 -14.031,29.697 -14.959,50.641c0.037,21.994 5.362,38.694 13.512,52.572c15.253,-7.9 29.088,-17.213 44.369,-25.078c3.069,-2.719 7.456,-4.122 10.609,-6.757c4.047,-1.743 7.438,-4.137 11.091,-6.268c7.569,-4.013 14.491,-8.66 22.191,-12.538c29.706,16.594 58.528,34.078 88.265,50.641c7.891,-13.325 12.813,-29.622 13.5,-50.16Zm-98.872,3.382c-0.134,0.775 0.457,0.825 0.482,1.44c8.078,13.788 15.872,27.863 24.112,41.475c3.916,7.031 7.781,14.091 12.063,20.741c1.643,3.819 3.997,6.937 5.784,10.609c2.347,3.125 3.778,7.166 6.275,10.131c14.519,-9.437 27.119,-20.79 35.694,-36.175c-7.447,-3.646 -14.244,-7.943 -21.225,-12.056c-7.013,-3.925 -14.022,-7.84 -20.744,-12.053c-14.462,-7.719 -27.906,-16.462 -42.441,-24.112c-0.3,-0.707 -0.581,0.043 0,0Zm-7.721,0.962c-14.05,7.653 -27.241,16.166 -41.475,23.634c-6.585,4.341 -13.544,8.322 -20.741,12.057c-3.047,2.415 -6.947,3.975 -10.125,6.262c-3.359,2.113 -7.434,3.503 -10.125,6.272c2.616,3.166 4.691,6.888 7.231,10.128c2.406,3.544 5.956,5.941 8.2,9.65c3.835,1.953 5.575,5.994 9.647,7.713c2.994,2.959 6.684,5.212 10.609,7.237c15.957,-27.934 32.135,-55.65 48.238,-83.437c-0.031,-0.297 -0.078,-0.572 -0.491,-0.482c-0.003,0.638 -0.847,0.441 -0.968,0.966Zm5.312,96.944c12.747,0.534 22.238,-2.194 31.831,-4.822c-10.615,-30.381 -20.906,-61.078 -31.831,-91.159l0,95.981Zm-50.647,-13.022c4.91,3.131 10.756,5.322 16.4,7.716c5.125,-14.816 10.266,-29.607 15.435,-44.375c2.575,-7.394 5.143,-14.797 7.712,-22.188c1.372,-3.616 2.478,-7.491 3.859,-11.091c0.744,-1.828 1.404,-3.75 1.932,-5.787c0.275,-1.675 2.278,-4.128 1.456,-5.306c-15.45,27.165 -31.25,53.968 -46.794,81.031Zm18.335,8.197c9.015,2.875 18.587,5.2 30.862,4.822c-0.319,-31.032 0.647,-63.344 -0.481,-93.563c-9.766,29.938 -20.75,58.663 -30.381,88.741Zm36.65,-85.369c9.225,28.556 19.54,56.022 28.94,84.403c3.56,-0.297 5.3,-2.412 8.681,-2.894c1.988,-1.875 5.516,-2.206 7.232,-4.337c-15.175,-25.5 -29.66,-51.694 -44.853,-77.172c-0.297,-0.703 -0.588,0.053 0,0Zm-68.488,71.381c-4.125,-1.984 -6.212,-6.006 -10.125,-8.203c-2.306,-3.64 -5.769,-6.131 -8.203,-9.647c-2.834,-3.272 -4.816,-7.403 -7.722,-10.612c0.15,-0.975 -1.387,0.1 -1.441,0.484c-29.428,16.391 -57.89,33.75 -87.3,50.16c-28.84,17.143 -58.031,33.931 -87.3,50.643c7.272,14.275 12.772,30.322 13.51,51.122l55.469,0c11.581,-2.334 25.95,-2 37.615,0l38.106,0c3.4,-4.153 5.488,-9.619 8.679,-13.984c2.45,-5.272 5.837,-9.6 8.196,-14.953c3.244,-4.482 5.688,-9.75 8.685,-14.469c2.578,-5.138 5.656,-9.781 8.203,-14.95c3.422,-4.297 5.791,-9.641 8.678,-14.472c3.047,-4.675 5.556,-9.878 8.678,-14.469c5.403,-10.037 11.25,-19.625 16.881,-29.422c-3.909,-2.028 -7.531,-4.353 -10.609,-7.228Zm152.413,-27.49c-4.51,7.384 -10.025,13.768 -15.922,19.775c-3.163,2.787 -6.141,5.756 -9.647,8.197c-3.075,3.028 -7.575,4.646 -10.61,7.718c3.425,4.135 5.419,9.694 8.679,13.988c2.387,5.337 5.796,9.644 8.203,14.956c6.05,9.219 10.865,19.684 17.362,28.456c6.297,8.975 10.188,20.357 16.4,29.419c2.491,5.222 5.888,9.538 8.203,14.953c1.894,1.953 2.944,4.76 4.335,7.235c1.231,0.706 0.937,2.925 2.412,3.375c0.531,1.403 0.594,3.262 2.413,3.378l39.062,0c11.781,-2.25 26.216,-2.057 38.103,0l54.978,0c0.61,-20.935 6.225,-36.863 13.51,-51.122c-58.988,-33.781 -117.403,-68.119 -176.522,-101.766c-0.681,0.116 -0.55,1.05 -0.959,1.438Zm-165.916,80.55c-0.409,-0.091 -0.456,0.184 -0.481,0.478c-0.7,0.3 0.05,0.584 0,0c0.406,0.09 0.453,-0.191 0.481,-0.478c5.541,-5.557 11.159,-11.032 17.847,-15.435c6.4,-4.362 13.065,-8.478 21.215,-11.093c0.635,-4.032 2.579,-6.747 3.385,-10.613c-6.191,-2.016 -11.756,-4.653 -16.888,-7.719c-4.1,7.478 -8.672,14.482 -12.54,22.191c-4.478,6.931 -8.625,14.203 -12.538,21.703c-0.469,0.013 -0.375,0.588 -0.481,0.966Zm152.891,-1.453c0.293,0.7 0.584,-0.044 0,0c-3.929,-7.485 -8.088,-14.741 -12.544,-21.704c-1.491,-4.137 -4.41,-6.837 -5.785,-11.093c-2.778,-2.85 -3.768,-7.485 -6.75,-10.128c-4.612,2.95 -10.106,5.012 -15.437,7.234c0.728,3.937 2.272,7.059 3.378,10.612c15.025,5.719 26.806,14.675 37.138,25.079Zm-58.36,-30.866c7.1,0.775 13.035,2.719 18.813,4.822c-0.975,-3.21 -1.769,-6.591 -3.378,-9.166c-4.285,2.31 -10.46,2.722 -15.435,4.344Zm-53.053,4.341c-0.7,0.3 0.047,0.581 0,0c5.953,-1.763 12.097,-3.338 18.325,-4.822c-6.2,-0.232 -10.284,-2.578 -15.916,-3.378c-0.609,2.931 -2.006,5.071 -2.409,8.2Zm-1.925,3.859c-10.547,32.059 -21.919,63.294 -32.803,95.012l69.456,0l0,-101.765c-14.887,-0.413 -25.937,3.003 -36.653,6.753Zm38.1,-5.306c0.322,33.278 -0.644,67.843 0.478,100.318l69.453,0c-10.793,-31.809 -22.022,-63.181 -32.793,-95.012c-10.738,-3.741 -21.797,-7.144 -36.657,-6.753c-0.562,0.081 -0.528,0.762 -0.481,1.447Zm-285.044,29.903c-5.278,-6.469 -12.418,-11.053 -19.293,-15.916c-14.716,-8.597 -31.9,-14.725 -54.985,-14.95c-0.615,0.025 -0.662,0.619 -1.447,0.478c-32.193,1.091 -52.468,14.094 -69.456,30.388c-16.175,17.269 -28.194,38.681 -28.937,71.381c0.596,16.128 3.587,29.856 9.168,40.997c2.197,6.166 5.825,10.894 8.682,16.4c2.356,1.812 3.328,5.022 5.787,6.75c1.175,3.156 4.628,4.047 5.781,7.237c4.9,3.46 8.566,8.154 13.988,11.091c4.69,3.681 9.99,6.731 15.915,9.163c11.082,5.796 25,8.765 41,9.65c0.416,-33.666 0.622,-67.547 0.482,-101.769c29.297,-17.166 58.615,-34.31 88.265,-51.122c-3.768,-7.809 -8.931,-14.219 -14.95,-19.778Zm713.816,142.769c16.628,-17.297 28.844,-39 29.903,-71.869c-1.05,-33.197 -13.506,-54.985 -30.387,-72.347c-17.607,-16.641 -39.579,-28.909 -73.313,-29.419c-0.616,0.025 -0.672,0.619 -1.444,0.478c-21.903,0.291 -37.128,7.253 -51.125,15.435c-13.334,9.012 -24.865,19.831 -32.797,34.243c14.382,8.769 29.272,17.022 43.891,25.563c7.488,4.094 14.397,8.747 22.184,12.541c3.157,2.637 7.544,4.034 10.613,6.756c2.322,0.565 3.625,2.159 5.791,2.887c0.675,0.772 1.659,1.238 2.893,1.447c0.088,1.522 2.597,0.619 2.41,2.413l0,101.768c32.575,-1.187 54.175,-13.35 71.381,-29.896Zm-470.256,-165.438c-4.894,1.369 -8.61,3.931 -12.538,6.272c-3.925,2.5 -7.953,4.903 -11.09,8.197c-4.097,2.337 -6.419,6.44 -10.125,9.165c-3.088,3.344 -5.732,7.129 -8.685,10.613c-10.147,15.575 -17.975,33.469 -18.328,58.841l29.428,0c11.135,-30.979 21.66,-62.579 32.797,-93.566c-0.031,-0.297 -0.075,-0.572 -0.491,-0.484c-0.009,0.634 -0.846,0.44 -0.968,0.962Zm113.347,93.084c9.653,-0.315 20.565,0.635 29.418,-0.478c-0.331,-12.368 -2.525,-22.878 -5.303,-32.8c-2.156,-4.272 -3.734,-9.131 -5.787,-13.506c-2.397,-4.037 -5.003,-7.866 -7.235,-12.056c-5.556,-7.147 -11.593,-13.81 -18.328,-19.775c-3.587,-2.841 -7.562,-5.297 -11.097,-8.197c-4.622,-1.803 -7.784,-5.075 -13.018,-6.272c-0.11,-0.375 -0.407,-0.562 -0.963,-0.481c10.569,31.39 21.606,62.312 32.313,93.565Zm-340.032,-48.712c-0.481,0 -0.575,-0.391 -0.959,-0.481c-0.572,0.234 -1.097,0.512 -1.447,0.962c-14.031,7.838 -27.941,15.794 -41.481,24.119c-7.185,3.744 -14.128,7.737 -20.735,12.053c-3.971,1.497 -6.89,4.053 -10.612,5.794c-3.103,2.359 -7.325,3.609 -10.131,6.265l97.422,0c0.668,-19 -5.522,-35.306 -12.057,-48.712Zm536.813,-0.481c-0.606,0.197 -0.985,0.625 -0.963,1.443c-7.437,12.663 -11.918,28.282 -12.543,47.747c32.634,-0.322 66.556,0.647 98.393,-0.478c-28.565,-15.969 -56.328,-32.737 -84.887,-48.712Zm-368.969,17.362c-6.4,10.319 -12.65,20.794 -18.328,31.831l13.506,0c0.428,-11.79 2.147,-22.293 4.822,-31.831c1.447,-0.097 -0.459,-2.003 0,0Zm204.019,31.831c4.347,-0.315 9.965,0.641 13.506,-0.478c-6.075,-9.518 -11.316,-19.872 -17.366,-29.422c2.16,9.1 4.329,18.179 3.86,29.9Zm-361.247,18.813c1.175,-4.816 1.809,-12.609 1.444,-17.366c-30.385,0.325 -62.053,-0.64 -91.641,0.482c30.463,5.231 59.706,11.681 90.197,16.884Zm4.337,-17.366c0.382,6.969 -0.771,12.41 -1.446,18.325c3.862,-0.003 6.14,1.578 10.128,1.447c5.681,-4.122 11.631,-7.981 17.847,-11.572c6.668,-3.14 13.878,-5.737 21.225,-8.203c-15.922,0.003 -31.832,0.003 -47.754,0.003Zm64.15,0.485c-22.146,1.809 -37.984,9.922 -51.603,20.259c31.682,6.25 63.547,12.328 95.491,18.328c3.544,-3.534 5.219,-8.925 8.197,-13.022c2.425,-4.647 5.212,-8.937 7.719,-13.503c-15.3,-8.337 -35.172,-14.659 -59.804,-12.062Zm61.254,9.643c1.921,-3.378 3.862,-6.74 5.787,-10.125c-9.966,0.325 -21.222,-0.64 -30.384,0.482c9.425,1.981 17.009,5.822 24.597,9.643Zm8.203,-10.128c-2.663,3.294 -4.372,7.532 -6.757,11.094c10.954,6.25 19.775,14.631 27.972,23.634c-3.287,-10.375 -6.581,-20.75 -6.272,-34.728l-14.943,0Zm17.353,0.485l0,0.965c0.55,9.097 2.194,17.1 3.859,25.075c1.547,3.285 2.588,7.063 3.853,10.616c2.019,2.972 2.803,7.166 5.316,9.644c4.922,-15.972 10.787,-31.007 15.912,-46.785c-9.487,0.319 -20.237,-0.631 -28.94,0.485Zm31.353,-0.485c-0.603,0.2 -0.984,0.625 -0.966,1.447c-4.231,11.85 -8.262,23.888 -12.531,35.691c-0.959,4.509 -3.331,7.606 -3.859,12.537c11.234,3.075 23.903,4.707 35.684,7.238c8.866,-8.985 16.822,-18.872 25.084,-28.453c4.404,-4.603 8.488,-9.522 12.541,-14.475c2.306,-2.194 4.456,-4.547 6.272,-7.235c1.691,-0.553 1.762,-2.734 3.369,-3.375c0.147,-0.987 1.312,-0.943 1.456,-1.931c0.497,-0.2 1.691,-1.872 0,-1.447c-22.353,0.003 -44.7,0.003 -67.05,0.003Zm73.312,1.45c8.063,9.144 15.641,18.775 24.113,27.494c3.631,5.05 7.85,9.516 12.059,13.984c1.625,2.716 4.032,4.657 5.788,7.232c1.394,0.703 1.862,2.318 2.897,3.381c1.89,0.353 1.303,3.197 3.859,2.894c12.359,-1.953 24.041,-4.572 36.169,-6.757c-2.053,-9.034 -5.575,-16.603 -8.197,-25.081c-2.994,-8.094 -5.609,-16.569 -8.678,-24.597l-68.972,0c-0.025,0.832 0.369,1.238 0.962,1.45Zm70.416,0c5.184,14.913 10.569,29.622 15.438,44.86c1.906,-0.507 1.778,-3.047 2.896,-4.347c0.994,-1.41 1.082,-3.735 2.41,-4.822c1.075,-3.919 2.5,-7.472 3.856,-11.094c1.559,-8.244 3.872,-15.737 3.375,-26.044l-27.975,0l0,1.447Zm30.869,0l0,5.303c-0.744,5.041 -1.413,10.16 -2.41,14.954c-0.903,1.993 -1.031,4.756 -1.928,6.756c-0.128,2.134 -2.322,4.728 -1.447,6.265c3.332,-4.868 7.741,-8.656 12.063,-12.54c4.334,-4.019 9.381,-7.335 14.462,-10.613c-1.571,-4.372 -4.365,-7.525 -6.268,-11.575l-14.472,0l0,1.45Zm22.184,9.16c7.772,-4.282 16.46,-7.653 25.566,-10.61l-30.866,0c1.178,4.125 4.056,6.553 5.3,10.61Zm111.894,8.687c-0.356,-0.347 -0.503,-0.153 -0.959,-0.484c-0.972,-0.7 -1.56,-1.838 -2.41,-2.413c-0.778,-0.515 -2.112,-0.972 -2.897,-1.447c-1.04,-0.634 -2.062,-1.178 -2.897,-1.931c-4.359,-1.915 -7.987,-4.547 -13.021,-5.787c-8.338,-4.197 -18.897,-6.178 -30.385,-7.235l-16.397,0c-16.228,1.622 -29.109,6.591 -41,12.544c4.4,9.428 10.025,17.631 14.953,26.525c16.338,-2.959 32.319,-6.262 48.716,-9.162c7.875,-1.766 16.281,-3.019 24.113,-4.825c8.165,-1.479 16.568,-2.725 24.115,-4.822c-1.103,-0.066 -1.628,-0.675 -1.931,-0.963Zm-12.053,-10.612c3.506,1.322 6.44,3.206 9.169,5.303c1.593,0.815 3.065,1.759 4.343,2.894c1.953,0.615 2.31,2.828 4.819,2.893c3.363,-0.662 6.722,-1.309 10.125,-1.928c-0.987,-5.278 -1.737,-10.797 -1.444,-17.365c-14.956,-0.797 -33.272,-0.807 -48.228,0c8.028,1.775 14.981,4.628 21.216,8.203Zm29.903,-8.685c-0.659,5.003 0.328,12.532 1.444,17.366c14.653,-3.034 29.787,-5.588 44.375,-8.681c7.587,-1.26 15.115,-2.569 22.187,-4.341c7.747,-1.097 15.275,-2.412 22.188,-4.344l-90.194,0Zm-612.538,100.807c9.957,-0.66 19.788,-1.441 27.494,-4.347c4.847,-0.457 7.781,-2.832 12.063,-3.857c3.128,-2.171 7.74,-2.868 10.125,-5.787c-16.788,-28.228 -32.828,-57.2 -49.682,-85.369l0,99.36Zm6.757,-98.875c0.05,0.065 -0.072,0.446 0,0.481c26.828,15.54 53.903,30.9 81.031,46.3c5.144,-8.356 9.156,-17.844 11.091,-29.419c-22.8,-4.444 -45.388,-8.687 -68.491,-13.025c-7.916,-1.484 -15.372,-3.462 -23.631,-4.337c-0.1,-1.447 -2.007,0.462 0,0Zm607.712,16.881c0.594,6.156 2.3,11.197 4.338,15.919c0.656,2.721 1.915,4.84 2.897,7.231c1.378,2.153 1.946,5.134 3.856,6.75c13.484,-8.063 27.24,-15.838 40.997,-23.631c3.353,-1.954 6.562,-4.054 10.125,-5.788c3.118,-2.353 7.234,-3.7 10.131,-6.275c3.906,-1.566 7.006,-3.928 10.609,-5.787c1.791,-0.944 3.378,-2.085 5.307,-2.891c0.44,-0.85 1.69,-0.884 2.406,-1.447c0.553,-0.106 0.756,-0.534 0.972,-0.966c0.818,0.107 1.197,-0.543 0,-0.481c-30.544,5.788 -60.791,11.881 -91.638,17.366Zm94.531,-15.916c-14.384,7.478 -27.606,16.125 -41.962,23.628c-13.309,8.4 -27.747,15.669 -40.994,24.116c3.197,4.359 5.753,9.356 9.644,13.025c1.216,2.491 3.325,4.066 5.306,5.787c1.622,2.075 3.281,4.119 5.785,5.304c20.621,-24.072 41.687,-47.697 62.221,-71.86c0.7,-0.294 -0.05,-0.584 0,0Zm-45.34,84.397c12.99,7.756 28.928,12.556 48.715,13.513c0.088,-32.391 1.272,-66.254 0,-98.394c-16.031,28.503 -32.737,56.322 -48.715,84.881Zm-309.156,-82.466c-5.713,9.079 -10.95,18.632 -16.4,27.975c-2.738,4.65 -5.422,9.375 -8.2,13.985c-1.029,2.669 -3.032,4.362 -3.857,7.237c-0.803,0.966 -1.75,1.788 -1.931,3.375c-0.912,0.05 -0.334,1.594 -1.447,1.447c0.31,1.05 -1.369,1.531 0.485,1.447c10.425,2.434 21.321,4.4 32.315,6.269c-0.319,-20.9 0.647,-43.091 -0.481,-63.181c-0.028,0.612 -0.622,0.668 -0.484,1.446Zm2.89,61.25c11.081,-1.625 21.194,-4.206 32.316,-5.787c-0.456,-2.941 -2.503,-4.913 -3.86,-7.231c-1.318,-2.272 -2.528,-4.803 -3.853,-7.238c-2.925,-4.469 -5.568,-9.222 -8.2,-13.99c-5.568,-9.222 -10.803,-18.788 -16.4,-27.969c-0.031,-0.294 -0.072,-0.572 -0.478,-0.481c-0.165,21.215 0.091,42.018 0.475,62.696Zm-351.119,-61.734c0,1.763 1.957,2.15 2.891,3.375c0.256,0.325 0.191,1.113 0.481,1.453c1.253,1.431 3.128,2.347 3.866,4.335c2.847,2.621 5.184,5.743 7.712,8.684c5.313,5.628 9.979,11.881 15.435,17.362c4.656,6.275 10.284,11.572 14.953,17.847c2.962,2.497 5.119,5.803 7.719,8.678c2.375,2.925 5.256,5.347 7.231,8.679c2.85,-1 3.822,-3.894 6.266,-5.304c1.734,-1.965 3.437,-3.962 5.309,-5.787c2.994,-4.406 6.412,-8.381 8.684,-13.506c-13.993,-7.069 -26.472,-15.657 -40.518,-22.666c-2.725,-2.581 -6.922,-3.691 -9.644,-6.269c-3.897,-1.25 -6.438,-3.847 -10.128,-5.306c-6.591,-4.019 -13.188,-8.034 -20.257,-11.575c-0.3,-0.706 -0.581,0.047 0,0Zm344.369,2.891c-0.409,-0.088 -0.456,0.184 -0.478,0.481c-7.616,8.147 -14.597,16.922 -22.191,25.084c-3.587,4.278 -6.993,8.766 -11.09,12.538c-1.36,2.509 -3.46,4.259 -5.31,6.275c-0.778,1.14 -1.734,2.125 -2.412,3.375c-0.694,0.269 -1.175,0.75 -1.447,1.447c-0.737,0.006 -1.591,1.312 0,0.965c3.884,1.1 8.15,1.819 12.538,2.41c5.028,-8.638 10.193,-17.144 14.956,-26.044c5.153,-8.513 10.409,-16.928 14.956,-26.047c0.403,0.084 0.45,-0.184 0.478,-0.484c0.7,-0.297 -0.05,-0.578 0,0Zm11.097,0c4.691,9.134 10.363,17.284 14.947,26.531c2.859,4.047 5.225,8.594 7.722,13.019c1.447,2.087 2.687,4.387 3.853,6.756c1.878,1.491 1.794,4.956 4.344,5.787c4.431,-0.55 8.706,-1.256 12.54,-2.409c-14.597,-16.437 -28.753,-33.309 -43.406,-49.684c-0.303,-0.7 -0.581,0.05 0,0Zm-355.466,0.484c6.888,13.691 15.272,25.891 22.185,39.55c7.872,12.706 15.394,25.763 22.672,39.069c2.962,-1.216 5.075,-3.285 7.712,-4.822c2.278,-1.909 5.1,-3.259 6.753,-5.794c-19.903,-22.54 -39.378,-45.509 -59.322,-68.003c-0.3,-0.7 -0.581,0.047 0,0Zm700.316,0.966l-0.484,0c-0.253,0.387 -0.5,0.784 -0.478,1.443c-10.244,10.663 -19.482,22.329 -29.419,33.288c-4.788,5.5 -9.341,11.225 -14.472,16.394c-4.234,6.059 -9.819,10.765 -13.994,16.881c2.875,1.141 4.275,3.766 7.238,4.822c1.818,2.203 4.615,3.425 7.237,4.822c3.06,-6.903 7.544,-12.391 10.606,-19.294c4.063,-5.744 7.032,-12.584 11.094,-18.328c6.725,-12.891 14.538,-24.694 21.216,-37.619c0.475,-0.009 0.384,-0.591 0.49,-0.969c0.588,-0.2 0.988,-0.609 0.966,-1.44c0.7,-0.297 -0.053,-0.585 0,0Zm-492.444,30.868c16.813,3.285 33.56,6.635 50.647,9.644c-1.628,-4.162 -4.537,-7.044 -6.756,-10.609c-2.853,-3.088 -5.275,-6.622 -8.684,-9.166c-5.46,-6.275 -12.244,-11.219 -19.769,-15.434c-0.031,-0.294 -0.072,-0.566 -0.481,-0.481c-4.85,8.818 -9.96,17.378 -14.957,26.046Zm268.647,-25.565c-0.687,0.119 -0.815,0.794 -1.447,0.965c-13.7,8.647 -25.028,19.669 -33.272,33.763c8.788,-1.006 16.316,-3.297 25.075,-4.341c3.966,-1.018 8.029,-1.94 12.538,-2.409c3.569,-1.422 8.791,-1.178 12.056,-2.894c-5.259,-8.087 -9.537,-17.15 -14.95,-25.084Zm-384.397,19.297c-1.447,0.097 0.46,2 0,0c2.522,-1.819 4.341,-4.341 6.269,-6.76c2.247,-1.284 4.219,-2.85 5.303,-5.3c-3.128,-0.081 -5.478,-0.959 -8.2,-1.45c-0.803,4.828 -2.325,8.928 -3.372,13.51Zm517.035,1.447c0.297,0.7 0.584,-0.057 0,0c-1.132,-5.144 -3.157,-9.379 -3.853,-14.957c-3.45,0.41 -6.954,0.772 -9.644,1.932c5.325,3.506 9.069,8.612 13.497,13.025Zm-525.238,15.912c14.866,7.813 28.76,16.584 43.416,24.603c14.384,8.441 28.944,16.713 43.406,25.078c5.647,-10.106 11.369,-20.147 17.363,-29.9c2.75,-5.128 5.484,-10.278 8.684,-14.953c1.259,-2.6 2.428,-5.284 4.341,-7.237c0.221,-1.697 1.218,-2.638 1.925,-3.857c0.212,-1.518 2.384,-2.678 1.446,-3.856c-32.562,-5.694 -64.328,-12.2 -96.462,-18.328c-9.697,7.813 -18.097,16.944 -24.119,28.45Zm527.169,-8.681c-1.772,-2.728 -4.203,-4.803 -5.788,-7.716c-2.628,-1.722 -4.068,-4.619 -6.753,-6.269c-0.928,-1.331 -2.047,-2.456 -3.378,-3.381c-1.503,-0.74 -1.728,-2.769 -4.337,-2.409c-32.038,6.228 -63.991,12.54 -96.463,18.328c11.138,20.209 22.981,39.716 34.244,59.809c7.919,-3.49 14.312,-8.509 22.187,-12.059c3,-2.791 7.607,-3.963 10.613,-6.75c4.153,-1.634 7.559,-4.009 11.087,-6.269c7.71,-3.869 14.71,-8.44 22.191,-12.544c3.722,-2.068 7.297,-4.278 11.094,-6.268c3.269,-2.516 7.79,-3.791 10.612,-6.757c-2.078,-2.271 -3.437,-5.256 -5.309,-7.715Zm-101.288,29.419c-5.384,-10.213 -11.575,-19.616 -16.881,-29.894c-0.481,0 -0.575,-0.397 -0.962,-0.488c-0.613,0.025 -0.672,0.616 -1.447,0.488c-16.697,2.912 -32.616,6.603 -49.675,9.156c3.953,12.281 8.084,24.403 12.54,36.175c24.538,4.566 48.919,9.278 73.307,13.991c-5.332,-10.11 -11.138,-19.735 -16.882,-29.428Zm-302.89,-29.894c-11.603,19.422 -22.778,39.269 -34.244,58.837c24.859,-4.887 50.122,-9.368 74.763,-14.472c4.125,-11.468 8.24,-22.943 12.056,-34.728c-17.935,-2.809 -34.575,-6.909 -52.575,-9.637Zm-102.735,22.662c-1.409,-0.818 -2.45,-1.593 -3.859,-2.409c-2.256,-1.325 -5.147,-2.931 -6.75,-3.856c-1.547,-0.891 -2.662,-1.728 -3.859,-2.41c-1.953,-1.122 -3.919,-1.781 -5.791,-2.893c-0.241,-0.154 -0.294,-0.75 -0.962,-0.482c-5.525,9.741 -9.941,20.607 -11.579,34.241c2,3.797 5.238,6.341 7.722,9.644c2.741,3.053 5.191,6.384 8.197,9.168c5.06,6.525 10.831,12.322 15.916,18.807c5.715,5.865 10.54,12.615 16.4,18.334c2.075,3.716 5.647,5.925 7.722,9.644c3.497,2.281 4.803,6.769 8.678,8.678c5.303,-10.125 11.081,-19.781 16.881,-29.419c5.444,-9.99 11.225,-19.647 16.881,-29.419c-21.703,-12.575 -44.337,-25.325 -65.597,-37.628Zm160.613,-11.572c-0.141,0.775 0.456,0.832 0.484,1.447c2.482,3.944 5.566,7.288 8.197,11.091c1.806,1.403 3.416,3.016 4.819,4.822c2.131,1.087 2.787,3.65 5.303,4.34c4.284,-5.518 9.241,-10.368 13.503,-15.912c-11.153,-1.547 -21.075,-4.319 -32.306,-5.788c-0.297,-0.703 -0.581,0.041 0,0Zm168.809,-0.484c-4.643,1.619 -10.79,1.753 -15.434,3.375c-2.925,0.128 -5.341,0.769 -7.713,1.447c-1.99,-0.378 -2.478,0.737 -4.343,0.481c-0.657,0.96 -3.378,-0.153 -3.378,1.447c4.44,5.366 9.437,10.175 13.503,15.913c2.678,-0.847 3.497,-3.566 5.787,-4.822c1.481,-2.216 3.825,-3.572 5.313,-5.788c1.628,-1.897 3,-4.065 4.815,-5.787c0.225,-1.55 1.835,-1.703 1.935,-3.375c0.903,-0.057 0.331,-1.6 1.443,-1.447c-0.306,-1.05 1.366,-1.538 -0.481,-1.447c-0.481,0.003 -0.962,0.003 -1.447,0.003Zm96.46,49.678c0.484,3.369 2.872,4.841 3.856,7.716c1.531,2.484 3.162,4.884 4.337,7.715c3.016,4.879 5.982,9.785 8.691,14.954c3.05,4.821 5.888,9.862 8.681,14.946c3.307,4.732 5.482,10.597 9.157,14.954c10.462,-12.854 21.728,-24.897 32.318,-37.622c5.666,-5.91 10.557,-12.591 16.4,-18.322c2.153,-3.631 5.591,-5.981 7.716,-9.65c1.978,-0.916 2.562,-3.216 4.341,-4.341c1.034,-2.019 3.075,-3.04 3.859,-5.303c-2.263,-13.178 -6.5,-24.372 -11.572,-34.722l-0.966,0c-29.087,16.403 -57.662,33.328 -86.818,49.675Zm-280.222,-16.4c7.384,-0.981 14.115,-2.606 21.231,-3.856c-1.709,-11.163 -5.519,-20.216 -10.141,-28.453c-3.825,10.634 -7.828,21.097 -11.09,32.309Zm178.934,-3.375c7.378,1.472 14.928,2.76 22.191,4.341c-3.641,-11.31 -7.472,-22.431 -11.575,-33.275c-5.019,8.162 -8.325,18.031 -10.616,28.934Zm-129.731,-23.15c-4.672,5.788 -9.7,11.2 -14.475,16.875c1.1,0.678 1.866,1.672 2.891,2.416c6.412,-0.5 11.487,-2.35 17.85,-2.894c1.003,-2.697 2.818,-4.578 3.853,-7.237c0.765,-1.007 1.575,-1.966 1.934,-3.375c0.578,-1.044 2.303,-2.375 1.45,-3.375c-4.825,-0.488 -9.116,-1.5 -13.503,-2.41Zm87.775,2.891c2.85,4.54 5.478,9.312 8.194,13.984c6.05,0.556 10.925,2.266 16.884,2.894c1.056,-1.031 2.675,-1.5 3.375,-2.894c-2.844,-2.453 -4.694,-5.909 -7.716,-8.197c-0.309,-2.415 -3.065,-2.4 -3.381,-4.822c-2.003,-0.731 -2.169,-3.29 -4.34,-3.856c-4.422,0.878 -9.454,1.147 -13.016,2.891Zm1.447,6.269c-0.356,-1.41 -1.169,-2.369 -1.928,-3.375c-0.847,-0.929 -0.575,-2.972 -2.413,-2.894l-0.965,0c-4.388,1.397 -9.563,2.019 -14.466,2.894c-3.478,0.609 -7.781,1.793 -10.613,2.409c-1.184,0.262 -2.94,-0.691 -3.378,0.966c13.013,1.775 24.675,4.9 37.622,6.75c-1.059,-2.472 -2.365,-4.707 -3.859,-6.75Zm-73.794,-5.785c-1.859,4.413 -4.512,8.025 -6.753,12.053c12.256,-1.887 24.097,-4.193 35.684,-6.75c-9.581,-1.825 -18.718,-4.109 -28.931,-5.303Zm-40.516,18.81c1.594,-0.341 3.082,-0.782 4.822,-0.972c0.016,-2.075 2.41,-1.769 2.416,-3.85c-4.278,-3.444 -7.831,-7.613 -11.578,-11.578c1.597,5.315 3.5,10.328 4.34,16.4Zm155.304,-14.954c-1.482,2.216 -3.825,3.572 -5.304,5.794c-1.9,1.794 -4.212,3.181 -5.306,5.788c2.016,1.843 3.844,3.868 7.719,3.856c0.172,-3.369 0.925,-6.153 1.934,-8.684c0.047,-3.01 2.675,-5.988 1.928,-8.197c-0.118,0.687 -0.803,0.809 -0.971,1.443Zm197.75,-0.481c1.462,6.256 3.912,11.519 4.337,18.813c2.263,-0.153 1.956,-2.875 3.859,-3.375c0.844,-1.569 2.41,-2.416 2.897,-4.341c-4.428,-2.975 -7.422,-7.375 -11.093,-11.097c-0.297,-0.703 -0.588,0.047 0,0Zm-554.175,1.447c-3.579,3.175 -6.957,6.556 -10.125,10.125c2.19,2.15 3.837,4.847 6.271,6.756c0.441,-6.468 2.579,-11.237 3.854,-16.881c1.446,-0.094 -0.46,-2.003 0,0Zm233.921,9.166c-2.262,3.362 -4.081,7.178 -6.278,10.609c13.291,7.294 28.872,12.288 48.719,13.025l0,-27.972c-0.347,-1.106 0.866,-3.765 -0.966,-3.381c-13.775,2.622 -27.171,5.625 -41.475,7.719Zm44.369,23.634c19.597,-0.659 34.731,-5.787 48.228,-12.55c-0.606,-2.119 -1.828,-3.625 -2.89,-5.297c-0.566,-0.719 -0.597,-1.978 -1.45,-2.415c-0.753,-0.691 -0.375,-2.516 -1.922,-2.41c-13.656,-3.059 -27.897,-5.54 -41.966,-8.197l0,30.869Zm-61.25,-19.781c3.085,1.897 5.935,4.034 9.169,5.794c1.469,-3.022 3.344,-5.654 4.819,-8.685c-4.8,0.825 -9.791,1.466 -13.988,2.891Zm-8.681,-0.485c1.237,-0.05 2.294,-0.268 2.897,-0.965c-0.694,-0.11 -0.813,-0.788 -1.447,-0.96c-0.144,0.985 -1.313,0.944 -1.45,1.925Zm119.616,6.275c3.293,-1.531 6.396,-3.24 8.681,-5.793c-4.36,-0.788 -8.644,-1.653 -13.028,-2.407c1.025,3.16 3.19,5.179 4.347,8.2Zm-339.547,-7.715c-4.419,3.95 -9.4,7.325 -14.478,10.612c1.509,4.119 4.29,6.966 5.79,11.091c2.791,2.997 3.966,7.612 6.753,10.612c1.444,4.188 4.407,6.847 5.791,11.091c2.787,2.997 3.969,7.606 6.753,10.609c-4.031,-12.834 -5.912,-30.384 -3.378,-45.818c-2.45,-2.691 -4.825,-5.463 -7.231,-8.197Zm354.493,1.44c1.238,-0.518 2.297,1.472 2.894,0c-0.978,-0.14 -0.947,-1.3 -1.928,-1.44c-0.112,0.69 -0.797,0.812 -0.966,1.44Zm212.216,54.507c-0.7,0.29 0.053,0.578 0,0c4.616,-7.447 8.684,-15.432 13.5,-22.669c3.741,-8.003 8.709,-14.766 12.544,-22.663c-4.885,-3.156 -9.725,-6.353 -13.991,-10.137c-2.04,0.847 -2.84,2.941 -4.334,4.341c-0.881,1.862 -3.303,2.165 -3.381,4.828c1.709,16.868 -0.335,33.59 -4.338,46.3Zm-342.441,-53.535c-2.043,0.36 -3.693,1.122 -6.265,0.966c-1.278,2.1 -3.385,3.369 -4.344,5.781c1.147,3.688 0.966,8.678 0.963,13.513l14.468,0c2.388,-4.213 4.8,-8.388 7.238,-12.544c-4.413,-2.188 -7.722,-5.463 -12.06,-7.716Zm139.391,6.744c-1.231,-1.984 -2.931,-3.484 -4.344,-5.297c-2.74,0.172 -4.134,-1.006 -6.747,-0.965c-3.812,2.3 -7.15,5.071 -11.096,7.231c1.778,4.644 4.675,8.184 6.756,12.544c4.847,-0.294 10.887,0.603 14.95,-0.482c-0.194,-4.693 0.147,-8.856 0.481,-13.031Zm-150.484,-3.369l0.968,0c0.022,-0.615 0.619,-0.665 0.479,-1.447l-1.447,0l0,1.447Zm151.447,-0.972c-0.719,0.085 -1.775,-0.171 -1.929,0.488c0.825,0.666 1.897,1.559 1.929,-0.488Zm-177.01,4.341c-1.65,4.463 -3.047,9.175 -4.819,13.513l15.916,0c2.828,-2.16 4.628,-5.335 7.228,-7.716c1.581,-2.831 6.41,-4.772 4.344,-9.65c-7.975,0.869 -14.625,3.059 -22.669,3.853Zm178.935,0c1.568,2.625 3.681,4.688 5.793,6.763c0.888,1.19 1.46,2.715 2.894,3.368c1.231,1.019 1.344,3.157 3.378,3.382c5.3,-0.325 11.891,0.634 16.4,-0.482c-1.931,-3.547 -2.994,-7.947 -4.347,-12.059c-7.853,-1.478 -15.425,-3.222 -23.628,-4.341c0.275,1.563 -0.331,2.241 -0.49,3.369Zm-183.754,0.972c-10.05,2.491 -21.109,3.969 -31.356,6.275c-10.465,2.075 -21.494,3.578 -31.34,6.269l61.25,0c0.234,-2.657 1.487,-4.31 1.921,-6.75c1.041,-0.41 0.416,-2.485 1.447,-2.9c-0.453,-1.203 1.728,-2.913 -0.478,-2.894l-1.444,0Zm213.663,12.541c19.05,0.718 41.259,0.859 60.291,0c-21.447,-3.804 -42.338,-8.154 -63.669,-12.054c-0.291,0.025 -0.572,0.066 -0.478,0.482c1.587,3.553 2.868,7.409 3.856,11.572Zm-158.675,-11.572c-1.906,4.04 -4.703,7.197 -6.278,11.572c12.375,-0.325 26.044,0.64 37.619,-0.482c-12.429,-1.715 -21.944,-6.353 -31.341,-11.09Zm-255.628,1.44c-13.563,7.332 -29.519,12.288 -49.681,13.019c-0.163,67.2 0.421,135.156 -0.479,201.606c20.9,0.641 37.179,5.916 51.125,13.507c5.113,-9.991 11.182,-19.044 16.4,-28.938c2.844,-4.712 5.829,-9.278 8.204,-14.472c1.803,-1.887 2.706,-4.675 4.334,-6.75c1.494,-2.362 2.428,-5.29 4.344,-7.231c5.097,-10.016 11.022,-19.206 16.4,-28.938c5.456,-9.662 11.422,-18.8 16.4,-28.943c-4.96,-9.832 -11.022,-18.56 -15.919,-28.453c-3.078,-4.31 -5.619,-9.175 -8.197,-13.985c-3.35,-4.053 -6.016,-8.784 -8.203,-13.997c-5.575,-9.209 -10.666,-18.915 -16.4,-27.965c-5.013,-9.778 -11.041,-18.55 -15.919,-28.46c-0.475,0.007 -0.565,-0.384 -0.959,-0.481c-0.275,-1.4 -0.76,0.738 -1.45,0.481Zm87.775,67.528c-1.966,-0.928 -2.563,-3.228 -4.338,-4.346c-2.431,-3.191 -5.159,-6.091 -7.712,-9.169c-5.328,-6.085 -10.672,-12.153 -15.919,-18.322c-10.722,-11.95 -20.825,-24.506 -31.834,-36.175c-0.097,-0.588 -0.535,-0.3 -0.966,0l0,0.966c-2.137,24.706 4.303,44.415 12.541,60.29c1.837,1.216 2.022,4.091 3.856,5.303c0.706,2.35 2.797,3.322 3.378,5.788c3.097,3.015 5.616,6.603 8.678,9.65c6.191,6.194 12.981,11.781 20.741,16.394c4.947,-8.563 9.637,-17.372 14.95,-25.563c-0.306,-2.416 -3.063,-2.397 -3.375,-4.816Zm131.678,-57.396l10.609,0c-1.309,-2.875 0.663,-9.022 -1.447,-11.104c-2.678,4.091 -6.387,7.132 -9.162,11.104Zm141.309,-5.304c-0.675,-2.221 -2.218,-3.571 -2.89,-5.796l-0.966,0c-8.778,4.9 -19.016,8.325 -29.903,11.103c12.216,-0.325 25.725,0.64 37.141,-0.482c-1.688,-1.046 -1.766,-3.709 -3.382,-4.825Zm250.803,-4.346c-10.918,18.981 -21.987,37.818 -32.8,56.915c-5.465,9.478 -11.125,18.769 -16.393,28.46c-5.485,9.625 -11.51,18.712 -16.403,28.937c5.49,9.453 11.006,18.897 16.403,28.453c5.093,9.85 12.122,17.778 16.881,27.972c4.541,10.4 10.784,19.116 15.916,28.938c5.596,9.356 11.093,18.812 16.396,28.459c14.225,-7.319 29.522,-13.575 51.125,-13.506l0,-202.575c-21.24,0.031 -36.525,-5.916 -50.156,-13.507c-0.684,0.132 -0.553,1.069 -0.969,1.454Zm-228.134,9.65l9.65,0c-0.872,-2.344 -2.984,-3.45 -4.344,-5.304c-1.665,-1.709 -2.775,-3.978 -4.815,-5.309c0.368,4.069 -0.657,6.744 -0.491,10.613Zm201.609,-9.166c-11.065,11.45 -20.743,24.281 -31.834,35.687c-0.437,2.3 -2.881,2.594 -3.378,4.829c-1.966,0.921 -2.553,3.228 -4.334,4.346c-2.441,3.188 -5.166,6.091 -7.722,9.163c-5.353,6.059 -10.691,12.134 -15.919,18.322c5.3,8.044 9.525,17.169 14.953,25.084c29.072,-18.34 52.738,-49.781 49.675,-97.912c-0.025,-0.294 -0.066,-0.569 -0.481,-0.482c-0.022,-0.293 -0.069,-0.575 -0.481,-0.481c-0.025,0.613 -0.61,0.669 -0.479,1.444Zm-397.906,42.925c3.75,-10.553 7.416,-21.209 11.094,-31.831c-21.272,-0.757 -45.788,-0.838 -67.034,0c18.912,10.34 36.99,21.515 55.94,31.831Zm3.378,-3.85c-0.706,0.291 0.041,0.572 0,0c4.816,-4.194 8.147,-9.863 13.022,-13.997c0.222,-2.025 2.281,-2.222 2.891,-3.85c0.928,-1.331 2.056,-2.453 3.375,-3.381c0.231,-2.031 2.281,-2.222 2.89,-3.856c0.657,-0.469 0.972,-1.288 1.457,-1.935c0.734,0 1.581,-1.306 0,-0.959l-13.991,0c-3.3,9.234 -6.681,18.394 -9.644,27.978Zm27.494,-27.981c-0.694,0.268 -1.184,0.756 -1.447,1.447c-4.909,4.9 -9.019,10.603 -13.994,15.431c-1.825,3.162 -4.64,5.328 -6.746,8.203c-2.194,2.791 -5.029,4.937 -6.757,8.203c4.841,2.394 9.063,5.406 13.991,7.709c2.166,1.372 4.262,2.819 6.747,3.863c2.356,1.344 4.084,3.316 7.234,3.856c6.906,-13.678 12.291,-28.869 13.028,-48.712l-12.056,0Zm10.125,29.903c-1.447,0.097 0.459,1.994 0,0c1.516,-1.606 3.372,-5.256 4.825,-7.716c2.147,-3.644 3.95,-7.134 6.272,-11.097c0.369,-0.647 0.516,-1.147 0.956,-1.928c1.328,-2.331 4.222,-5.744 5.31,-9.162l-13.025,0c0.396,11.806 -2.288,20.54 -4.338,29.903Zm19.775,-29.903c-5.834,9.912 -11.55,19.959 -17.369,29.9c1.694,0.084 1.519,-1.697 2.416,-2.41c1.244,-0.525 2.319,-1.215 2.894,-2.409c1.772,-1.6 3.687,-3.069 5.3,-4.828c4.087,-2.669 7.853,-5.647 12.056,-8.197c8.519,-5.144 18.425,-8.906 28.944,-12.053c-11.41,-0.003 -22.825,-0.003 -34.241,-0.003Zm56.425,0c-2.966,1.037 -5.503,0.262 -8.203,0.475c-2.475,0.206 -4.894,1.037 -7.231,1.453c-6.96,1.237 -14.053,2.978 -19.769,5.303c-22.278,9.069 -37.938,23.284 -50.159,43.409c4.125,1.5 6.965,4.285 11.09,5.788c3,2.79 7.606,3.969 10.613,6.756c4.122,1.5 6.965,4.291 11.09,5.781c3.203,2.588 7.578,3.997 10.61,6.757c7.925,3.49 14.318,8.515 22.181,12.053c3.072,2.722 7.466,4.118 10.616,6.756c2.321,0.575 3.618,2.159 5.787,2.894c0.675,0.768 1.663,1.234 2.891,1.447c0.09,0.659 2.29,2.337 1.931,0.487l0,-96.95c-0.213,-0.909 0.647,-2.912 -0.966,-2.409l-0.481,0Zm75.244,31.35c-5.275,-6.135 -11.672,-11.144 -18.813,-15.432c-13.718,-9.112 -30.765,-14.893 -52.568,-15.918c-1.122,32.312 -0.166,66.725 -0.482,99.828c14.525,-7.978 28.703,-16.31 42.925,-24.585c14.669,-8.009 28.582,-16.759 43.413,-24.603c-3.622,-7.634 -8.719,-13.793 -14.475,-19.29Zm2.415,-1.932c0.294,0.71 0.579,-0.046 0,0c-1.106,-2.912 -2.725,-5.315 -4.343,-7.721c-1.388,-2.466 -2.435,-5.275 -4.344,-7.232c-0.838,-3.022 -3.025,-4.693 -3.859,-7.715c-1.472,-0.453 -1.185,-2.672 -2.407,-3.375c-0.947,-0.994 -0.678,-3.188 -2.418,-3.375c-11.091,0.318 -23.472,-0.641 -33.757,0.475c11.46,1.89 19.969,6.725 28.938,11.097c1.494,1.887 4.397,2.356 5.787,4.346c2.703,0.672 3.669,3.082 6.272,3.85c3.15,3.444 6.841,6.344 10.131,9.65Zm3.854,1.932c-0.46,2 1.446,0.097 0,0c-2.444,-9.613 -5.269,-18.847 -4.819,-31.347l-13.506,0c2.843,5.506 5.971,10.747 9.165,15.919c1.266,2.912 3.294,5.059 4.344,8.19c2.041,1.975 2.728,5.303 4.816,7.238Zm10.615,17.362c5.013,-2.209 9.256,-5.206 13.988,-7.722c4.325,-2.912 9.547,-4.925 13.503,-8.197c-5.169,-5.115 -9.672,-10.906 -14.469,-16.393c-2.512,-2.644 -4.8,-5.5 -7.237,-8.203c-0.769,-1.8 -3.007,-2.144 -3.379,-4.341c-2.003,-0.725 -2.168,-3.291 -4.34,-3.856l-11.094,0c0.606,19.972 6.116,35.047 13.028,48.712Zm27.006,-18.809c0.294,0.7 0.582,-0.056 0,0c-2.928,-10.419 -6.693,-19.994 -10.131,-29.9l-15.431,0c1.566,3.094 4.275,5.04 6.269,7.722c2.025,2.472 4.2,4.797 6.272,7.231c4.287,5.034 8.681,9.966 13.021,14.947Zm2.413,1.447c1.209,1.153 1.616,-1.222 3.378,-0.966c0.966,-0.8 1.778,-1.753 3.369,-1.928c1.865,-1.838 4.812,-2.588 6.756,-4.347c2.7,-0.994 4.675,-2.716 7.238,-3.856c1.968,-1.728 5.006,-2.381 6.75,-4.335c9.768,-4.865 18.793,-10.468 27.975,-15.918c-21.872,0.318 -45.019,-0.647 -66.079,0.475c3.75,10.078 7.454,20.2 10.613,30.875Zm-299.516,-28.457c-5.625,9.325 -11.175,18.725 -16.39,28.454c-5.685,9.278 -11.263,18.646 -16.407,28.453c5.669,6.872 11.763,13.318 17.369,20.256c3.081,3.187 5.96,6.578 8.681,10.125c1.825,1.234 2.816,3.291 4.338,4.828c0.887,0.716 1.203,2.016 2.409,2.409c0.847,0.763 1.003,2.21 2.413,2.407c0.319,-1.763 1.778,-2.394 2.897,-3.369c0.597,-1.491 1.59,-2.588 2.893,-3.375c1.491,-2.85 4.116,-4.566 5.785,-7.238c2.059,-2.125 4.169,-4.187 5.79,-6.75c2.05,-2.281 4.66,-4.021 5.791,-7.231c-8.022,-23.65 -16.131,-47.215 -24.6,-70.415c-0.684,0.121 -0.556,1.056 -0.969,1.446Zm334.244,69.454c1.491,2.856 4.116,4.565 5.784,7.231c2.397,1.94 3.8,4.884 6.272,6.756c1.703,2.631 4.085,4.591 5.794,7.231c1.431,0.653 1.997,2.178 2.894,3.375c1.887,0.366 1.297,3.203 3.856,2.888c2.456,-0.588 2.597,-3.497 4.822,-4.335c0.622,-2.434 3.284,-2.825 3.856,-5.309c3.297,-2.806 5.81,-6.397 8.678,-9.637c3.035,-3.088 5.566,-6.66 8.682,-9.644c1.356,-1.716 2.437,-3.681 4.34,-4.828c0.785,-2.435 3.581,-2.857 3.863,-5.794c-11.488,-19.55 -22.453,-39.606 -34.244,-58.838c-8.297,23.541 -16.531,47.141 -24.597,70.904Zm-328.937,-68.969c10.325,18.775 21.496,36.7 31.831,55.469c1.487,-0.454 1.922,-1.929 2.894,-2.9c1.159,-0.929 1.915,-2.266 2.887,-3.375c2.119,-1.904 3.741,-4.304 5.791,-6.269c3.612,-4.431 7.512,-8.569 11.097,-13.019c-18.625,-10.156 -36.566,-21.003 -54.979,-31.353c-0.3,0.025 -0.581,0.066 -0.49,0.481c0.644,0.006 0.44,0.847 0.969,0.966Zm348.712,-0.485c-17.944,10.188 -35.887,20.379 -53.541,30.872c7.297,8.619 14.81,17.022 22.185,25.557c10.878,-19.032 22.15,-37.66 32.797,-56.91c0.272,0 0.55,-0.39 0,-0.481c-0.685,0.116 -0.807,0.794 -1.441,0.962Zm-348.228,5.788c6.937,21.037 14.181,41.766 21.706,62.225c2.441,-4.15 6.513,-6.678 8.678,-11.103c-2.047,-1.491 -2.353,-4.725 -4.34,-6.275c-0.707,-2.669 -2.591,-4.156 -3.378,-6.744c-2.857,-3.906 -4.869,-8.631 -7.719,-12.544c-4.831,-8.672 -9.61,-17.387 -14.947,-25.559c0.459,-2.003 -1.45,-0.097 0,0Zm348.228,0.481c-0.475,0.013 -0.378,0.591 -0.491,0.972c-5.24,8.259 -10.046,16.95 -14.95,25.563c-4.975,8.196 -9.856,16.496 -14.465,25.071c2.569,3.713 5.744,6.807 8.675,10.138c6.794,-20.391 14.337,-40.016 20.74,-60.772c0.466,-0.019 0.382,-0.594 0.491,-0.972c0.697,-0.294 -0.05,-0.578 0,0Zm-306.753,67.047c2.337,3.131 3.903,7.031 6.272,10.125c14.544,-9.419 27.106,-20.806 35.69,-36.175c-9.537,-4.772 -18.2,-10.419 -27.487,-15.431c-4.947,13.703 -9.766,27.534 -14.475,41.481Zm265.753,-0.962c-4.25,-13.6 -9.387,-26.307 -13.503,-40.035c-0.488,0 -0.575,-0.397 -0.966,-0.481c-9.018,5.128 -17.94,10.353 -27.009,15.431c4.034,7.869 9.628,14.16 15.431,20.263c6.066,5.815 12.378,11.412 20.256,15.425c1.797,-3.678 4.347,-6.588 5.791,-10.603Zm-254.656,-37.141c-3.747,3.484 -6.822,7.653 -10.131,11.572c-3.272,3.809 -7.21,6.94 -9.647,11.572c2.843,3.918 4.8,8.709 7.718,12.55c3.844,-12.082 8.435,-23.41 12.06,-35.694c0.694,-0.3 -0.053,-0.588 0,0Zm244.531,1.447c3.263,11.525 7.8,21.772 11.091,33.275c2.547,-0.831 2.572,-4.181 4.34,-5.788c0.941,-2.278 2.378,-4.053 3.375,-6.275c-6.456,-6.875 -12.29,-14.39 -18.806,-21.212c-0.3,-0.703 -0.591,0.047 0,0Zm-126.85,60.772c-0.984,-0.463 -1.909,-0.988 -2.891,-1.453c-1.659,-1.235 -3.743,-2.05 -5.315,-3.375c-4.031,-1.594 -6.9,-4.354 -11.088,-5.794c-3.018,-2.6 -6.95,-4.303 -10.612,-6.263c-3.569,-2.215 -6.96,-4.622 -11.091,-6.275c-3.106,-2.522 -6.99,-4.259 -10.609,-6.262c-3.403,-2.235 -7.044,-4.213 -10.616,-6.275c-7.19,-4.219 -14.544,-8.288 -21.697,-12.55c-0.606,0.206 -0.987,0.628 -0.975,1.447c-7.553,13.031 -12.19,28.968 -12.537,49.206c0.581,19.994 5.784,35.369 13.028,48.706c14.481,-8.019 28.694,-16.315 42.919,-24.597c14.634,-8.031 28.55,-16.79 43.409,-24.59c0.366,-1.65 -1.772,-0.797 -1.925,-1.925Zm90.675,-47.272c-7.228,3.862 -13.994,8.19 -21.222,12.059c-7.081,4.01 -13.822,8.369 -21.222,12.053c-6.865,4.225 -13.684,8.503 -21.218,12.053c-1.041,1.697 -3.704,1.763 -4.825,3.382c-2.219,0.672 -3.569,2.215 -5.791,2.893c-1.628,1.1 -3.081,2.388 -5.303,2.894c-0.972,1.916 -4.266,1.519 -4.825,3.863c14.559,7.94 28.728,16.278 42.922,24.59c14.678,7.991 28.581,16.76 43.415,24.597c8.219,-13 12.86,-29.578 13.5,-50.159c-0.615,-20.119 -5.712,-35.76 -13.018,-49.2l-0.972,0c-0.678,0.128 -0.807,0.803 -1.441,0.975Zm-315.434,33.759c13.334,6.928 27.603,12.916 47.75,13.019c1.053,-0.325 -0.913,-1.6 -1.444,-1.922c-0.722,-0.719 -0.866,-2.031 -1.934,-2.409c-1.516,-1.538 -2.51,-3.594 -4.338,-4.816c-2.387,-3.572 -5.494,-6.416 -8.2,-9.656c-5.587,-6.469 -11.006,-13.11 -16.881,-19.294c-0.031,-0.294 -0.072,-0.569 -0.478,-0.481c-4.416,8.925 -9.713,16.978 -14.475,25.559Zm84.89,-23.147c-1.975,0.916 -2.562,3.222 -4.34,4.341c-1.038,2.019 -3.072,3.041 -3.863,5.303c2.76,6.891 4.847,14.441 7.719,21.222c0.919,-0.844 2.519,-1.025 3.859,-1.447c1.81,-5.75 3.941,-11.175 5.785,-16.875c-3.047,-4.516 -5.044,-10.066 -8.675,-13.991c0.018,0.663 -0.228,1.063 -0.485,1.447Zm286.01,0.485c-1.447,1.606 -2.447,3.668 -3.375,5.787c-1.394,1.819 -2.791,3.65 -3.375,6.275c0.881,3.613 2.537,6.463 3.375,10.125c1.45,3.047 1.34,7.66 5.79,7.716c2.535,-6.953 5.197,-13.769 7.232,-21.222c-2.982,-3.266 -5.454,-7.116 -8.685,-10.125c-0.081,-0.084 -0.378,0.056 -0.481,0c-0.028,0.612 -0.622,0.669 -0.481,1.444Zm70.9,0c-5.288,5.803 -10.625,11.553 -15.435,17.847c-2.85,2.612 -5.187,5.743 -7.715,8.684c-1.338,1.391 -2.638,2.825 -3.86,4.334c-0.928,1.966 -3.325,2.46 -3.859,4.816c19.431,-0.178 33.319,-5.903 46.3,-12.538c-4.519,-8.171 -9.025,-16.368 -13.988,-24.109c-0.031,-0.3 -0.065,-0.575 -0.481,-0.481c-0.115,0.684 -0.79,0.812 -0.962,1.447Zm-112.382,3.856c2.729,5.628 5.963,10.753 9.166,15.912c2.834,5.532 6.022,10.7 9.166,15.913c2.4,-3.706 4.493,-7.722 6.756,-11.572c-9.866,-5.25 -17.559,-12.672 -25.088,-20.253c-0.29,-0.7 -0.581,0.05 0,0Zm156.266,0c-4.169,3.706 -7.937,7.812 -12.053,11.572c-2.391,1.472 -4.359,3.356 -6.747,4.822c-1.109,0.831 -2.441,1.422 -3.378,2.409c-1.019,0.756 -2.675,0.866 -2.897,2.409c2.178,3.772 4.034,7.875 6.747,11.104c5.831,-11.057 12.462,-21.304 18.328,-32.316c0.703,-0.3 -0.044,-0.584 0,0Zm-357.391,0.481c-0.406,-0.09 -0.453,0.191 -0.484,0.475c-3.8,3.766 -7.775,7.344 -11.566,11.097c-2.725,0.978 -3.85,3.553 -6.759,4.341c-0.487,1.281 -2.228,1.312 -2.891,2.409c-1.018,0.756 -2.675,0.866 -2.893,2.409c2.415,3.375 3.831,7.75 6.756,10.61c5.484,-10.585 12.094,-20.044 17.356,-30.866c0.416,0.1 0.46,-0.181 0.481,-0.475c0.707,-0.297 -0.043,-0.578 0,0Zm-154.334,0.966c-0.081,0.562 0.103,0.859 0.478,0.972c5.228,9.715 10.675,19.218 16.4,28.45c2.163,-3.466 4.113,-7.147 6.272,-10.613c-4.3,-2.447 -7.912,-5.584 -12.059,-8.197c-1.447,-1.928 -3.597,-3.156 -5.307,-4.815c-0.575,-1.197 -1.643,-1.891 -2.887,-2.416c-0.897,-0.716 -0.722,-2.491 -2.416,-2.406c0.078,-0.572 -0.112,-0.866 -0.481,-0.975c-0.297,-0.703 -0.587,0.05 0,0Zm154.819,2.412l-0.481,0c-5.188,10.566 -11.788,19.722 -16.882,30.391c2.841,5.034 5.675,10.072 8.685,14.947c1.397,2.459 2.562,5.15 4.337,7.231c1.263,2.6 2.431,5.284 4.341,7.231c-0.46,2.01 1.447,0.103 0,0c-1.444,-6.75 -3.044,-13.347 -3.86,-20.734c-0.125,-8.05 -0.087,-10.656 0,-18.813c0.935,-7.106 2.419,-13.662 3.86,-20.253c1.447,-0.1 -0.46,-2.003 0,0Zm204.5,38.585c-0.525,3.65 -1.181,7.178 -1.444,11.09c-0.669,2.882 -2.562,7.075 -1.931,9.65c2.384,-5.34 5.722,-9.709 8.2,-14.953c1.603,-2.253 3.034,-4.681 4.347,-7.237c1.265,-2.582 3.318,-4.394 3.853,-7.716c-5.594,-9.681 -11.066,-19.475 -16.881,-28.937c3.071,10.918 4.484,23.49 3.856,38.103Zm-269.613,-23.157c-1.35,2.669 -3.95,4.091 -5.3,6.757c-1.318,0.609 -1.928,1.934 -2.897,2.893c-0.271,0.697 -0.753,1.179 -1.446,1.447c0.006,0.716 -2.035,1.525 0,1.441l6.271,0c3.747,-0.744 7.985,-1.006 11.569,-1.922c1.722,-0.525 3.747,-0.75 5.31,-1.447c1.95,-0.462 4.421,-0.403 5.309,-1.928c-2.728,-6.281 -4.456,-13.556 -7.244,-19.775c-4.353,3.684 -7.297,8.775 -11.572,12.534Zm311.572,7.722c8.675,2.41 17.256,4.938 28.46,4.816c1.034,-0.75 -1.785,-1.716 -1.935,-2.888c-1.309,-0.615 -1.381,-2.465 -2.89,-2.893c-1.41,-2.447 -3.525,-4.2 -5.307,-6.275c-3.575,-4.297 -7.084,-8.666 -11.09,-12.532c-0.032,-0.3 -0.072,-0.581 -0.485,-0.487c-2.2,6.8 -4.828,13.172 -6.753,20.259Zm-17.844,-7.722c3.738,1.094 6.157,3.491 10.132,4.347c-1.394,-4.4 -3.1,-8.478 -4.344,-13.025c-0.103,-0.372 -0.406,-0.562 -0.966,-0.481c-1.218,3.441 -3.45,5.875 -4.822,9.159Zm-266.718,4.347c3.75,-0.915 6.4,-2.931 9.647,-4.347c-1.619,-3.046 -3.016,-6.306 -5.307,-8.678c-1.387,4.394 -3.097,8.478 -4.34,13.025Zm-92.122,-2.418c-2.188,4.084 -4.719,7.831 -6.753,12.059c2.634,3.791 4.725,8.131 7.234,12.059c10.266,-5.168 21.391,-9.478 34.247,-12.059c-13.903,-1.681 -24.391,-6.791 -34.728,-12.059Zm103.7,0.965c-0.106,-0.372 -0.406,-0.556 -0.966,-0.481c-3.681,2.594 -8.512,4.034 -12.54,6.275c-0.241,2.656 -1.485,4.297 -1.935,6.756c0.806,1.116 1.26,2.594 1.45,4.335c4.903,2.009 9.75,4.084 13.988,6.75c2.128,-3.972 4.372,-7.838 6.753,-11.566c-1.969,-4.306 -4.663,-7.888 -6.75,-12.069Zm246.459,12.066c2.803,3.459 4.581,7.953 7.231,11.565c3.963,-2.465 8.354,-4.509 13.029,-6.268c0.059,-2.819 1.859,-3.925 1.925,-6.75c-0.613,-1.788 -1.541,-3.285 -1.925,-5.303c-5,-1.435 -8.425,-4.444 -13.51,-5.794c-1.834,4.603 -4.778,8.087 -6.75,12.55Zm110.45,-12.547l-0.969,0c-9.359,5.75 -20.918,9.309 -33.278,12.066c13.86,1.734 24.394,6.8 34.732,12.046c1.859,-3.925 4.037,-7.525 6.262,-11.084c-1.712,-4.887 -4.978,-8.209 -6.747,-13.028Zm-373.787,7.237c-0.078,1.204 0.247,2.004 0.962,2.416c-0.522,-1.237 1.463,-2.306 0,-2.9c-0.112,0.381 -0.4,0.563 -0.962,0.484Zm286.972,0.966c0.028,-0.831 -0.372,-1.237 -0.969,-1.447c0.05,0.756 -0.06,1.672 0.969,1.447Zm-304.338,3.863c6.016,0.568 11.075,2.112 15.916,3.85c1.365,-2.575 0.753,-5.385 -0.482,-7.716c-5.096,1.337 -10.315,2.553 -15.434,3.866Zm306.747,3.85c4.281,-2.313 10.416,-2.766 15.431,-4.341c-6.356,-0.238 -10.475,-2.709 -16.39,-3.375c-1.038,2.919 -1.091,5.75 0.959,7.716Zm-402.725,29.909c-0.703,0.297 0.047,0.584 0,0c7.509,-8.081 16.053,-15.138 25.562,-21.222c-1.362,-1.697 -2.371,-3.741 -3.378,-5.781c-1.081,-0.531 -0.847,-2.375 -1.925,-2.906c-0.753,-0.697 -0.381,-2.51 -1.934,-2.407c-5.869,11.013 -12.544,21.213 -18.325,32.316Zm28.934,-19.778c1.478,4.956 4.51,8.356 6.747,12.544c2.081,4.359 4.975,7.884 6.76,12.537c1.571,0.128 1.021,-1.875 2.409,-1.922c0.328,-1.122 1.606,-1.3 1.931,-2.422c1.35,-1.703 2.894,-3.203 4.344,-4.822c2.684,-3.259 5.387,-6.5 8.197,-9.643c2.684,-3.266 5.834,-6.06 8.2,-9.644c1.828,-1.228 2.825,-3.284 4.34,-4.828c1.069,-0.372 1.207,-1.685 1.932,-2.41c0.69,-0.115 0.818,-0.787 1.447,-0.959c0.106,-0.609 0.756,-0.987 -0.482,-0.966c-19.156,0.291 -32.987,5.919 -45.825,12.535Zm62.219,0.965c-2.509,-1.837 -3.966,-4.718 -6.266,-6.75c-0.978,-1.109 -1.734,-2.453 -2.893,-3.381c-1.447,-1.122 -1.61,-3.534 -4.344,-3.369c0.022,0.666 -0.228,1.057 -0.484,1.441c-6.085,5.809 -11,12.8 -16.872,18.813c-2.563,3.393 -5.538,6.365 -8.203,9.65c-2.71,3.4 -6.144,6.071 -8.204,10.125c1.907,1.959 2.957,4.765 4.347,7.231c1.678,2.178 2.872,4.847 4.335,7.237c1.465,2.388 2.659,5.053 4.347,7.232c1.278,2.575 2.506,5.206 4.337,7.231c2.278,5.437 5.669,9.765 8.194,14.953c1.659,2.203 2.75,4.969 4.344,7.237c0.415,1.513 1.825,2.025 1.931,3.857c1.403,0.684 1.084,3.087 2.894,3.368c7.925,-23.9 16.262,-47.4 24.593,-70.893c-4.178,-4.485 -8.303,-9.057 -12.056,-13.982Zm-8.2,-12.059c3.147,4.247 6.891,7.909 10.128,12.059c1.841,1.857 3.469,3.932 5.31,5.788c1.906,1.947 2.925,4.791 5.79,5.794c1.928,-7.075 4.578,-13.422 6.747,-20.263c-8.784,-2.15 -18.631,-5.803 -29.412,-4.34c0.678,0.118 0.806,0.796 1.437,0.962Zm171.7,-0.478c-7.284,3.803 -14.122,8.062 -21.219,12.053c-3.562,2.063 -7.212,4.041 -10.612,6.269c-3.675,1.953 -7.466,3.79 -10.61,6.275c-7.69,3.559 -14.3,8.209 -21.706,12.053c-6.965,4.278 -14.481,8.025 -21.215,12.544c1.621,1.106 1.959,3.503 3.371,4.822c0.866,2.025 2.579,3.209 3.379,5.303c2.918,2.709 4.853,6.397 8.2,8.678c0.368,2.369 3.196,2.272 3.859,4.347c1.706,1.184 2.862,2.925 4.819,3.856c3.009,2.784 6.312,5.262 10.134,7.231c14.025,8.806 30.113,15.541 53.05,15.435c-0.319,-33.125 0.647,-67.522 -0.481,-99.835c0,0.641 -0.847,0.444 -0.969,0.969Zm148.553,3.853c2.553,7.097 4.469,14.831 7.722,21.228c3.241,-4.962 7.903,-8.49 11.091,-13.506c2.368,-1.653 3.8,-4.234 5.787,-6.269c0.853,-1.244 2.1,-2.081 2.9,-3.381c0.91,-0.056 0.331,-1.594 1.441,-1.447c0,-0.703 2.034,-1.525 0,-1.441c-11.435,-0.19 -20.135,2.369 -28.941,4.816Zm68.006,33.763c4.738,-8.6 9.982,-16.707 14.469,-25.563c-12.919,-7.006 -28.665,-13.769 -48.231,-12.544c11.687,12.278 22.131,25.785 33.762,38.107Zm-213.181,61.256c11.691,0.434 20.685,-1.819 29.419,-4.341c4.244,-1.384 8.406,-2.85 12.059,-4.822c4.46,-1.331 7.416,-4.162 11.572,-5.793c2.931,-2.697 6.756,-4.504 9.653,-7.232c3.463,-2.331 5.978,-5.603 9.16,-8.203c5.297,-6.115 10.947,-11.872 14.475,-19.775c-7.61,-3.65 -14.328,-8.184 -21.707,-12.053c-6.871,-4.381 -14.393,-8.112 -21.215,-12.537c-14.75,-7.929 -28.681,-16.657 -43.416,-24.604l0,99.36Zm210.291,-61.256c-0.553,-1.063 -1.616,-1.6 -1.931,-2.888c-1.916,-1.147 -2.869,-3.253 -4.338,-4.828c-3.034,-3.247 -6.062,-6.481 -8.687,-10.131c-6.354,-6.185 -11.407,-13.672 -17.841,-19.769c-0.028,-0.3 -0.078,-0.575 -0.488,-0.488c-0.112,0.691 -0.79,0.819 -0.959,1.447c-4.031,4.175 -7.553,8.85 -11.578,13.019c-1.703,2.478 -3.897,4.469 -5.791,6.756c-1.612,2.569 -4.484,3.875 -5.309,7.238c8.084,23.272 16.409,46.294 24.125,69.934c1.812,-0.115 1.881,-1.978 2.409,-3.375c1.328,-0.603 1.394,-2.465 2.413,-3.375c1.397,-2.465 2.562,-5.156 4.344,-7.237c2.418,-5.291 5.706,-9.728 8.193,-14.953c5.794,-9.644 11.61,-19.263 16.885,-29.419c1.059,-0.325 -0.925,-1.606 -1.447,-1.931Zm-313.506,-8.679c0.303,0.697 0.59,-0.053 0,0c-2.316,-5.396 -5.835,-9.6 -8.197,-14.959c-3.26,-4.291 -5.26,-9.85 -8.678,-13.978c-2.266,3.362 -4.079,7.178 -6.272,10.609c9.062,4.766 16.143,11.51 23.147,18.328Zm203.537,0.966c-0.406,-0.091 -0.456,0.184 -0.481,0.481c-0.697,0.294 0.047,0.582 0,0c0.412,0.085 0.456,-0.19 0.481,-0.481c6.947,-7.366 14.794,-13.825 23.634,-19.294c-1.681,-3.79 -4.09,-6.84 -5.787,-10.609c-2.722,1.134 -2.956,4.753 -4.825,6.75c-1.303,2.55 -2.728,4.981 -4.344,7.228c-2.359,5.359 -5.875,9.566 -8.197,14.959c-0.465,0.013 -0.375,0.588 -0.481,0.966Zm152.894,-1.453c0.294,0.706 0.581,-0.05 0,0c-5.16,-9.778 -10.606,-19.294 -16.394,-28.45c-1.697,3.766 -4.112,6.819 -5.794,10.609c8.288,5.047 15.522,11.169 22.188,17.841Zm-112.378,-26.044c1.268,0.153 1.584,-0.665 1.447,-1.928c-1.557,-0.428 -0.675,1.575 -1.447,1.928Zm-285.047,-0.965c-1.163,1.625 1.619,-1.166 0,0Zm1.444,3.865c-1.475,0.347 -1.413,-0.837 -2.891,-0.487c-2.322,7.165 -4.9,14.068 -7.231,21.228c1.125,2.24 3.415,3.337 4.337,5.787c2.36,1.013 2.744,4.003 5.303,4.822c2.091,-4.828 5.225,-8.606 7.235,-13.506c-2.728,-5.466 -4.116,-12.278 -6.753,-17.844Zm289.871,10.613c-0.587,-4.235 -2.668,-6.975 -3.368,-11.103c-1.744,-0.129 -2.335,0.896 -3.86,0.971c-2.29,5.744 -4.222,11.854 -6.272,17.841c2.785,4.291 5.491,8.659 7.713,13.506c2.791,-0.587 2.95,-3.809 5.306,-4.828c0.994,-2.54 3.785,-3.284 4.344,-6.262c-1.363,-3.313 -2.219,-7.116 -3.863,-10.125Zm-281.668,5.781c1.353,-3.625 3.609,-6.347 5.303,-9.644c-3.181,-2.125 -6.95,-3.662 -10.613,-5.303c1.428,5.328 3.138,10.363 5.31,14.947Zm261.893,-9.644c1.575,3.247 3.222,6.428 5.307,9.163c1.372,-4.888 3.181,-9.357 4.825,-13.985c-3.988,1 -6.941,3.028 -10.132,4.822Zm-357.875,1.447c-0.481,0 -0.571,-0.391 -0.965,-0.481c-0.61,0.244 -0.919,0.628 -1.444,0.959c-28.466,18.091 -50.866,49.256 -47.753,97.431c2.162,-0.562 2.337,-3.125 4.347,-3.856c0.772,-2.119 2.703,-3.075 3.856,-4.822c2.744,-3.047 5.194,-6.384 8.197,-9.168c4.984,-6.591 10.903,-12.244 15.916,-18.807c5.443,-5.968 10.856,-11.975 15.918,-18.328c3.022,-2.765 5.378,-6.194 8.197,-9.169c2.506,-3.278 5.816,-5.756 7.716,-9.643c-4.885,-7.816 -9.444,-15.95 -13.985,-24.116Zm130.707,23.631c-2.603,-3.187 -5.072,-5.547 -7.719,-8.197c-3.078,-3.087 -5.822,-6.115 -9.156,-8.684c-3.325,-2.556 -7.638,-5.419 -11.1,-7.231c-1.982,3.644 -3.96,7.3 -6.272,10.609c2.234,7.094 4.615,14.044 7.237,20.741c0.807,3.862 2.566,6.756 3.378,10.612c1.907,2.753 1.644,7.678 4.335,9.644c8.697,-5.45 17.606,-10.694 27.015,-15.431c-1.831,-4.416 -5.221,-9.003 -7.718,-12.063Zm225.237,-24.115c-0.687,0.115 -0.815,0.793 -1.447,0.959c-1.478,1.263 -3.734,1.741 -4.822,3.381c-2.215,0.685 -3.112,2.678 -5.306,3.375c-0.953,1.947 -3.456,2.332 -4.334,4.347c-1.456,1.441 -3.475,2.319 -4.344,4.335c-6.059,5.525 -11.294,11.859 -14.953,19.781c9.303,5 17.762,10.853 27.491,15.431c4.353,-13.806 9.109,-27.228 13.987,-40.509c-1.766,-4.025 -3.987,-7.591 -6.272,-11.1Zm144.694,45.337c-1.928,-4.334 -4.634,-9.131 -6.759,-12.544c-0.172,-0.287 -0.754,-0.64 -0.957,-0.959c-0.553,-0.872 -0.928,-2.153 -1.45,-2.9c-0.587,-0.844 -1.297,-1.581 -1.928,-2.409c-7.931,-10.375 -18.65,-20.357 -29.9,-26.525c-4.269,9.24 -9.99,17.022 -14.469,26.043c0.438,2.294 2.879,2.588 3.372,4.829c2.013,0.878 2.403,3.381 4.341,4.34c2.178,3.606 5.637,5.938 7.722,9.644c5.897,5.675 10.765,12.378 16.397,18.328c5.112,6.463 10.978,12.175 15.918,18.813c3.079,2.709 5.497,6.078 8.194,9.162c1.038,1.863 3.26,2.534 3.86,4.828c1.121,0.325 1.296,1.594 2.412,1.928c0.025,0.61 0.616,0.666 0.481,1.447c0.61,0.103 0.988,0.75 0.966,-0.487c2.844,-20.091 -2.209,-40.116 -8.2,-53.538Zm-149.522,3.375c-0.694,0.3 0.056,0.588 0,0c0.697,-0.269 1.184,-0.75 1.453,-1.447c3.328,-3.425 5.947,-7.562 9.647,-10.609c2.306,-4.284 6.425,-6.763 8.678,-11.097c-2.575,-4.334 -4.872,-8.947 -7.715,-13.019c-3.61,12.466 -8.479,23.666 -12.063,36.172Zm-244.525,-2.409c0.3,0.7 0.584,-0.05 0,0c-1.234,-6.16 -4.091,-10.694 -5.306,-16.875c-2.656,-4.744 -3.535,-11.263 -6.272,-15.919c-2.172,4.097 -4.878,7.659 -6.756,12.053c6.253,6.781 11.918,14.135 18.334,20.741Zm-51.603,32.319c-1.45,0.096 0.459,2 0,0c5.337,-8.657 10.428,-17.547 15.431,-26.532c5.319,-8.503 9.981,-17.662 15.438,-26.043c-0.932,-2.447 -2.991,-3.76 -4.347,-5.788c-1.266,-0.334 -1.022,-2.197 -2.41,-2.416c-0.846,-0.756 -1.006,-2.209 -2.409,-2.409c-7.094,21.206 -14.844,41.75 -21.703,63.188Zm326.041,-61.257c-1.335,1.397 -2.641,2.832 -3.86,4.347c-1.028,1.856 -3.25,2.535 -3.856,4.816c5.506,8.319 10.191,17.462 15.431,26.044c2.569,4.353 4.944,8.887 7.722,13.025c0.753,2.625 2.819,3.937 3.375,6.75c2.047,1.496 2.35,4.731 4.347,6.275c-7.247,-20.735 -14.247,-41.707 -21.706,-62.225c-0.028,-0.294 -0.072,-0.569 -0.488,-0.475c-0.119,0.687 -0.803,0.803 -0.965,1.443Zm-340.029,54.503c-2.534,-5.2 -5.918,-9.521 -8.196,-14.959c-3.413,-4.309 -5.625,-9.816 -8.685,-14.472c-3.006,-4.865 -5.678,-10.078 -8.684,-14.947c-0.031,-0.293 -0.072,-0.575 -0.478,-0.481c-0.119,0.691 -0.794,0.806 -0.969,1.447c-11.225,11.609 -20.963,24.694 -32.309,36.175c-0.441,2.294 -2.882,2.587 -3.382,4.822c-1.968,0.922 -2.556,3.222 -4.34,4.34c-2.666,3.113 -4.978,6.597 -8.197,9.169c-0.31,2.422 -3.063,2.4 -3.378,4.822c-1.972,0.916 -2.56,3.222 -4.338,4.341c-1.247,1.647 -2.615,3.175 -3.856,4.828c-1.247,1.647 -3.119,2.669 -3.866,4.822c2.535,13.384 6.141,25.69 12.544,35.206c6.913,-4.503 14.35,-8.478 21.703,-12.538c7.028,-4.387 14.375,-8.459 21.703,-12.543c7.088,-4.328 14.457,-8.375 21.71,-12.538c3.618,-2.165 7.243,-4.328 11.087,-6.275c3.191,-2.6 7.719,-3.856 10.613,-6.75c-3.207,-4.512 -5.575,-9.859 -8.682,-14.469Zm13.504,12.057c-0.7,0.293 0.046,0.578 0,0c1.212,-0.8 4.046,-1.891 5.784,-2.894c0.203,-0.122 0.316,-0.891 0.491,-0.966c4.662,-2.106 9.734,-5.006 14.462,-7.722c1.119,-0.634 2.281,-1.306 3.375,-1.928c1.116,-0.634 2.288,-1.3 3.378,-1.928c0.625,-0.365 0.794,-1.081 1.447,-1.447c0.625,-0.353 1.291,-0.115 1.931,-0.481c0.475,-0.275 0.932,-1.159 1.447,-1.447c0.631,-0.353 1.281,-0.122 1.931,-0.481c0.513,-0.288 0.779,-1.069 1.447,-1.447c0.625,-0.353 1.291,-0.109 1.922,-0.481c0.566,-0.328 0.891,-1.128 1.45,-1.447c0.625,-0.353 1.288,-0.116 1.928,-0.481c0.45,-0.257 0.935,-1.16 1.447,-1.447c0.628,-0.353 1.297,-0.116 1.935,-0.481c0.565,-0.335 0.862,-1.147 1.437,-1.454c0.653,-0.328 1.288,-0.109 1.934,-0.481c0.513,-0.294 0.822,-1.122 1.447,-1.447c0.65,-0.328 1.282,-0.115 1.932,-0.481c0.878,-0.494 1.493,-1.947 3.378,-1.928c-1.063,-2.959 -3.219,-4.822 -5.307,-6.75c-1.296,-2.728 -3.89,-4.15 -5.309,-6.75c-4.153,-3.888 -7.266,-8.806 -11.575,-12.544c-4.841,9.956 -10.903,18.685 -15.916,28.453c-5.675,9.282 -11.228,18.675 -16.396,28.46Zm295.659,-30.872c18.222,10.712 36.794,21.081 54.981,31.837c-10.8,-19.428 -22.056,-38.39 -33.281,-57.397c-6.947,8.813 -14.872,16.641 -21.7,25.56Zm93.081,-23.628c-5.956,9.15 -10.956,19.262 -16.875,28.45c-5.125,10.156 -11.453,19.097 -16.403,29.425c13.95,8.722 28.825,16.509 42.922,25.078c7.344,4.072 14.616,8.222 21.706,12.544c3.619,2.003 7.503,3.746 10.613,6.268c4.34,1.447 6.94,4.632 11.568,5.788c5.225,-10.053 9.775,-20.775 11.582,-34.247c-0.647,-2.088 -2.435,-3.028 -3.378,-4.816c-1.938,-0.953 -2.335,-3.459 -4.341,-4.347c-2.103,-3.681 -5.566,-6.006 -7.716,-9.643c-5.865,-5.707 -10.709,-12.438 -16.4,-18.328c-10.643,-12.5 -21.322,-24.975 -32.318,-37.141c-0.022,-0.294 -0.069,-0.569 -0.479,-0.481c-0.021,0.615 -0.615,0.668 -0.481,1.45Zm-303.378,8.19l-0.956,0c-9.003,4.835 -17.316,10.353 -26.531,14.953c0.721,1.85 1.996,3.15 3.378,4.341c1.247,1.491 2.103,3.375 3.856,4.347c2.078,3.228 4.866,5.75 7.241,8.678c2.371,2.934 5.156,5.45 7.228,8.684c3.284,2.179 4.484,6.447 8.203,8.191l10.125,0c0.569,-19.219 -5.516,-35.953 -12.544,-49.194Zm179.428,0c-7.306,13.441 -12.534,28.957 -13.028,49.194l11.581,0c5.413,-5.028 9.475,-11.419 14.95,-16.394c1.657,-3.478 5.085,-5.2 6.747,-8.678c2.791,-2.522 5.497,-5.122 7.238,-8.684c-9.403,-4.9 -18.038,-10.578 -27.488,-15.438Zm-394.056,62.222c5.344,3.188 10.344,6.706 14.959,10.613c1.244,-1.485 2.1,-3.363 3.857,-4.341c0.696,-2.203 3.206,-2.581 3.375,-5.303c0.384,-2.15 -0.641,-2.9 -0.482,-4.822c-0.068,-7.062 -0.047,-11.225 0,-18.334c0.875,-4.107 0.966,-9.003 2.416,-12.538c-0.138,-4.487 2.853,-8.394 2.409,-11.578c-8.665,15.613 -17.875,30.678 -26.534,46.303Zm190.034,-28.937c-1.531,-5.535 -3.64,-10.503 -5.303,-15.919c-0.025,-0.294 -0.072,-0.569 -0.481,-0.481c-0.569,0.237 -1.097,0.518 -1.447,0.965c-9.159,4.988 -18.053,10.241 -27.006,15.435c-4.588,2.484 -8.947,5.206 -13.506,7.722c-4.463,2.771 -9.522,4.943 -13.497,8.19l66.553,0c-1.228,-5.844 -3.385,-10.762 -5.313,-15.912Zm222.344,15.912c22.188,-0.312 45.656,0.641 67.041,-0.475c-18.985,-10.272 -37.038,-21.478 -55.944,-31.837c-3.481,10.99 -7.434,21.509 -11.097,32.312Zm-29.422,-30.865c-3.19,4.028 -6.225,10.418 -9.159,15.434c-2.941,5.012 -6.478,9.919 -8.681,15.431l13.021,0c0.516,-11.378 2.222,-21.559 4.819,-30.865c1.45,-0.1 -0.456,-2.004 0,0Zm-154.819,0c2.335,5.878 6.229,10.175 8.691,15.925c1.994,2.178 2.972,5.384 4.816,7.715c0.884,1.21 1.006,3.175 2.415,3.856c0.413,1.519 0.894,2.966 2.41,3.369c11.578,-0.312 24.44,0.641 35.209,-0.475c-23.047,-4.934 -39.787,-16.175 -53.541,-30.39c-0.296,-0.704 -0.578,0.046 0,0Zm-30.387,30.865l15.437,0c1.425,-0.409 -1.121,-0.715 -0.481,-1.922c-0.987,-0.147 -0.947,-1.306 -1.931,-1.447c-1.15,-1.262 -1.775,-3.046 -3.381,-3.856c-1.991,-2.837 -4.207,-5.437 -6.747,-7.715c-4.213,-5.432 -8.66,-10.644 -13.506,-15.441c3.468,10.203 6.85,20.475 10.609,30.381Zm28.459,-29.419c1.869,9.222 4.328,17.86 3.857,29.419c4.346,-0.312 9.962,0.641 13.506,-0.475c-3.178,-4.534 -5.706,-9.728 -8.685,-14.465c-1.465,-2.4 -2.653,-5.066 -4.334,-7.238c-1.387,-2.475 -2.444,-5.281 -4.344,-7.241c0.46,-1.996 -1.443,-0.1 0,0Zm153.378,-0.484c-0.693,0.275 -1.181,0.756 -1.45,1.453c-13.228,13.294 -30.056,22.991 -51.121,28.45l35.684,0c5.347,-10.244 11.728,-19.459 16.887,-29.903c0.694,-0.291 -0.053,-0.578 0,0Zm203.532,0c-0.132,-0.128 -0.725,0.238 -0.482,0.481c0.132,0.141 0.732,-0.231 0.482,-0.481Zm-175.56,15.438c-1.962,2.54 -3.875,5.134 -6.275,7.237c-0.918,1.325 -1.965,2.528 -2.89,3.856c-0.707,0.416 -1.532,0.719 -1.447,1.922c-0.556,0.16 -2.456,1.678 -0.488,1.447l13.997,0c1.838,-4.75 3.278,-9.894 5.306,-14.466c0.325,-2.887 1.585,-4.84 2.407,-7.231c0.218,-2.522 2.565,-5.456 1.928,-7.237c-3.866,5.137 -8.144,9.862 -12.538,14.472Zm178.457,30.381c2.171,2.806 4.934,5.034 6.75,8.203c2.868,-1.313 4.49,-3.869 7.237,-5.303c2.506,-1.66 4.572,-3.791 7.713,-4.822c-3.516,-7.741 -8.21,-14.3 -12.06,-21.703c-4.281,-6.969 -8.15,-14.356 -12.537,-21.228c3.522,12.14 5.25,29.893 2.897,44.853Zm-106.597,-23.625c-0.128,-0.135 -0.732,0.225 -0.475,0.481c0.137,0.128 0.722,-0.231 0.475,-0.481Zm-535.844,9.644c-31.863,1.256 -52.109,14.128 -68.972,30.384c-16.119,17.156 -28.016,38.544 -28.937,70.9c0.912,33.019 13.262,54.584 29.909,71.869c17.256,16.656 38.959,28.875 71.859,29.9c22.053,-0.775 39.388,-6.275 53.057,-15.432c7.328,-3.956 13.625,-9.284 19.293,-14.953c5.753,-5.762 10.835,-12.415 14.95,-19.775c-14.631,-8.843 -29.984,-16.962 -44.378,-26.05c-7.953,-3.778 -14.656,-8.812 -22.662,-12.537c-3.05,-2.741 -7.541,-4.035 -10.616,-6.75c-2.322,-0.575 -3.619,-2.16 -5.784,-2.9c-1.372,-1.678 -4.235,-1.869 -5.791,-3.375c1.122,-32.96 0.163,-68.006 0.481,-101.763l-0.965,0c-0.616,0.028 -0.666,0.622 -1.444,0.482Zm4.828,-0.485c-0.616,0.197 -0.991,0.622 -0.972,1.447c0.322,31.994 -0.64,65.272 0.478,96.459c8.066,-14.287 16.244,-28.45 24.6,-42.437c3.816,-7.288 8.228,-13.959 12.063,-21.228c2.19,-3.425 4.009,-7.244 6.265,-10.61c1.81,-3.821 4.569,-6.684 5.794,-11.09c-13.512,-6.741 -28.622,-11.897 -48.228,-12.541Zm207.391,52.572c-1.61,-2.247 -2.703,-5.012 -4.338,-7.237c-2.903,-4.969 -5.587,-10.169 -8.687,-14.947c-5.66,-10.094 -11.388,-20.122 -17.363,-29.9c-0.022,-0.294 -0.072,-0.575 -0.481,-0.482c-0.1,0.544 -0.541,0.75 -0.966,0.966c-14.375,8.131 -28.59,16.425 -42.925,24.603c-3.503,2.119 -7.328,3.919 -10.606,6.269c-3.628,2.003 -7.509,3.747 -10.616,6.269c-4.253,1.372 -6.956,4.297 -11.093,5.787c-3.147,2.638 -7.541,4.028 -10.613,6.75c2.178,2.166 3.185,5.506 5.313,7.716c1.753,2.581 3.665,5.012 5.787,7.237c1.891,2.441 4.319,4.363 6.266,6.75c2.765,1.747 3.962,5.041 7.722,5.794c32.509,-5.603 63.731,-12.475 96.459,-17.853c-0.487,-3.378 -2.872,-4.847 -3.859,-7.722Zm44.365,-40.516c-0.762,-4.534 -2.803,-7.8 -3.853,-12.053c-19.134,0.319 -39.553,-0.64 -57.881,0.482c20.828,3.618 40.994,7.884 61.734,11.571Zm2.413,0.488c3.637,1.025 8.031,1.287 11.581,2.406c4.141,0.103 8.378,2.472 12.056,1.447c0.772,-5.431 -3.012,-6.306 -4.825,-9.156c-0.609,-1.641 -2.675,-1.831 -2.893,-3.863c-1.732,-0.678 -2.047,-2.778 -3.86,-3.375l-16.39,0c1.203,4.419 2.881,8.366 4.331,12.541Zm19.778,-7.238c1.447,1.41 2.775,5.097 4.825,4.347c0.159,-3.062 -0.406,-6.84 0.484,-9.168c-2.337,-1.044 -6.531,-0.219 -9.647,-0.482c1.044,2.166 2.61,3.813 4.338,5.303Zm7.237,8.204c0.832,2.375 3.144,3.284 4.338,5.303c2.556,-0.141 3.987,0.837 6.272,0.965c2.044,-1.178 3.547,-2.881 5.79,-3.862c0.775,-0.831 1.804,-1.41 2.897,-1.928c0.472,-1.128 2.413,-0.8 2.407,-2.41c-2.332,-3.772 -4.597,-7.618 -6.754,-11.572l-14.468,0c0.334,5 -0.497,8.822 -0.482,13.504Zm23.147,-2.413c8.941,-4.412 18.438,-8.259 28.941,-11.097l-34.728,0c1.378,4.256 4.306,6.96 5.787,11.097Zm102.735,0c1.543,-4.091 4.456,-6.806 5.787,-11.097c-11.253,0.319 -23.79,-0.64 -34.24,0.481c11.006,2.016 19.834,6.204 28.453,10.616Zm8.203,-11.097c-2.035,4.235 -4.678,7.869 -6.756,12.053c2.306,1.069 3.962,2.797 6.268,3.857c2.113,1.428 3.791,3.29 6.272,4.34c2.135,-0.109 3.516,-0.981 5.791,-0.959c0.847,-2.528 3.497,-3.26 4.344,-5.788c-1.232,-3.443 -0.944,-8.381 -0.966,-13.025c-4.063,-1.081 -10.106,-0.184 -14.953,-0.478Zm17.356,0.485c0.175,3.203 0.753,6.006 0.491,9.643c1,1.019 1.806,-0.628 2.406,-1.44c1.287,-0.482 1.591,-1.953 2.409,-2.9c1.953,-1.588 3.619,-3.45 4.825,-5.788c-3.272,0.263 -7.634,-0.565 -10.131,0.485Zm13.028,-0.485c-0.119,0.691 -0.797,0.813 -0.965,1.447c-2.354,2.15 -4.532,4.475 -6.275,7.238c-2.179,1.746 -5.682,4.496 -3.86,8.678c2.485,0.225 7.706,-0.978 10.613,-1.928c4.622,-0.05 7.7,-1.625 12.056,-1.929c0.944,-5.006 3.091,-8.806 4.337,-13.506l-15.906,0Zm18.322,0c-0.606,0.197 -0.981,0.622 -0.959,1.447c-1.328,3.822 -2.766,7.531 -3.86,11.578c11.332,-2.015 22.353,-4.334 33.76,-6.275c10.875,-2.472 22.797,-3.894 33.278,-6.75l-62.219,0Zm198.713,13.51c7.481,14.868 16.509,28.187 24.118,42.925c4.494,6.756 8.285,14.215 12.541,21.215c2.134,3.503 3.928,7.331 6.269,10.613c2.006,3.618 3.75,7.5 6.272,10.609l0,-96.459c-0.213,-0.91 0.662,-2.907 -0.969,-2.41c-19.566,1.007 -35.335,5.816 -48.231,13.507Zm50.643,-12.063l0,100.319c-3.034,2.765 -7.397,4.175 -10.612,6.756c-3.897,1.891 -7.435,4.138 -11.091,6.269c-7.372,4.362 -15.04,8.434 -22.19,13.025c-7.644,3.925 -14.56,8.581 -22.191,12.544c-3.503,2.278 -7.072,4.496 -11.094,6.262c-1.284,1.606 -3.628,2.153 -5.3,3.381c-1.506,1.544 -4.509,1.594 -5.303,3.857c16.469,25.971 40.231,44.646 78.128,49.187c20.853,1.513 39.053,-2.797 53.056,-9.644c3.513,-1.793 7.163,-3.453 10.132,-5.781c3.8,-1.506 6.009,-4.603 9.65,-6.275c3.843,-4.137 8.534,-7.762 12.056,-11.572c1.3,-1.409 2.512,-3.1 3.369,-4.828c5.24,-5.366 8.95,-12.275 12.547,-19.287c3.587,-7.025 5.85,-15.369 8.196,-23.635c3.447,-18.769 1.354,-40.497 -4.343,-55.469c-12.335,-30.109 -33.338,-51.55 -65.588,-61.737c-8.09,-3.009 -18.078,-4.106 -28.456,-4.822c-0.606,0.2 -0.991,0.628 -0.966,1.45Zm-532.943,0.491c5.181,9.925 11.037,19.184 16.39,28.931c2.866,4.694 5.697,9.419 8.197,14.466c1.609,2.259 3.038,4.687 4.35,7.237c1.859,1.997 2.097,5.609 4.816,6.756c8.712,-1.415 17.181,-3.081 25.568,-4.822c4.332,-0.568 8.591,-1.593 13.022,-2.415c4.732,-0.878 9.247,-1.197 12.544,-2.894c-4.622,-11.297 -8.266,-23.578 -12.544,-35.212c-24.581,-4.194 -48.065,-9.485 -72.828,-13.5c-0.294,0.031 -0.572,0.071 -0.481,0.481c0.628,0.006 0.431,0.844 0.966,0.972Zm419.603,36.168c-6.9,-4.353 -14.491,-8.025 -21.219,-12.537c-7.606,-3.65 -14.094,-8.422 -21.703,-12.059c-7.05,-4.363 -14.228,-8.6 -21.706,-12.544c-0.025,-0.294 -0.075,-0.569 -0.482,-0.481c-10.893,20.134 -22.928,39.125 -33.762,59.325c32.14,6.128 64.125,12.403 96.462,18.328c3.066,-1.275 4.719,-3.969 7.235,-5.794c1.809,-2.534 4.462,-4.219 6.272,-6.75c3.884,-4.797 8.037,-9.325 10.612,-15.434c-7.653,-3.6 -14.291,-8.216 -21.709,-12.054Zm-293.735,-24.596c0.763,1.978 1.844,3.625 2.9,5.303c0.288,1 1.019,1.556 1.447,2.409c0.753,0.697 0.378,2.509 1.931,2.409c14,2.875 28.204,5.56 42.441,8.204l0,-30.872c-20.734,-0.31 -35.187,5.65 -48.719,12.547Zm50.647,-12.544l0,31.347c14.175,-2.388 27.769,-5.353 41.966,-7.716c2.197,-3.747 4.865,-7.031 6.262,-11.572c-13.747,-6.347 -27.731,-12.45 -48.228,-12.059Zm101.285,13.984c-1.654,6.06 -4.122,11.31 -5.785,17.366c-2.069,5.653 -4.347,11.09 -5.787,17.365c17.806,2.772 34.603,6.55 52.084,9.65c3.394,-4.168 5.306,-9.809 8.684,-13.996c2.31,-5.404 5.754,-9.682 8.197,-14.947c5.807,-9.625 11.475,-19.391 16.878,-29.419l-0.962,0c-24.131,4.953 -48.772,9.422 -73.309,13.981Zm-453.369,77.66c-0.697,0.293 0.05,0.575 0,0c5.375,-5.566 10.1,-11.775 15.431,-17.366c4.872,-5.75 9.606,-11.628 14.959,-16.888c0.31,-2.421 3.06,-2.4 3.375,-4.821c1.579,-0.994 2.654,-2.491 3.857,-3.857c2.209,-3.1 5.193,-5.418 7.228,-8.678c5.225,-5.397 9.909,-11.315 14.959,-16.881c-4.515,-3.688 -9.312,-7.088 -14.469,-10.131c-3.993,6.462 -7.64,13.262 -11.578,19.775c-3.509,6.781 -7.878,12.7 -11.09,19.775c-2.363,2.784 -3.872,6.422 -5.788,9.643c-2.134,3.016 -3.656,6.647 -5.79,9.65c-3.516,6.772 -7.763,12.816 -11.094,19.779Zm250.315,-76.697c2.157,5.084 3.663,10.809 5.788,15.925c1.806,5.431 3.419,11.047 5.787,15.912c4.307,-8.728 8.575,-17.475 10.141,-28.937c-7.066,-1.628 -14.687,-2.685 -21.712,-4.347c-0.004,0.484 -0.004,0.972 -0.004,1.447Zm149.035,3.381c-0.356,1.587 -3.025,3.381 -1.928,4.822c4.231,-1.716 10.328,-1.569 14.472,-3.375c-3.141,-2.166 -6.285,-4.328 -9.647,-6.275c-1.147,1.428 -1.747,3.406 -2.897,4.828Zm301.444,73.316c0.3,0.703 0.584,-0.054 0,0c-6.916,-13.666 -15.297,-25.872 -22.188,-39.557c-2.359,-2.778 -3.866,-6.415 -5.784,-9.643c-2.078,-3.075 -3.716,-6.579 -5.791,-9.65c-1.916,-3.222 -3.431,-6.86 -5.791,-9.644c-1.553,-3.588 -3.296,-6.994 -5.793,-9.65c-0.916,1.172 -2.132,2.044 -3.85,2.409c-0.928,1.013 -1.857,2.016 -3.378,2.416c-0.929,1.159 -2.266,1.915 -3.379,2.894c-0.959,0.965 -2.446,1.409 -2.896,2.893c19.715,22.422 39.05,45.207 58.85,67.532Zm-400.791,-77.66c-3.844,1.147 -6.506,3.466 -9.169,5.794c4.803,0.494 9.05,1.562 13.503,2.409c-0.903,-3.278 -3.143,-5.218 -4.334,-8.203Zm130.216,4.344c1.75,10.95 5.471,19.928 10.128,27.972c3.772,-10.535 7.362,-21.247 11.093,-31.831c-7.178,1.181 -13.909,2.809 -21.221,3.859Zm-355.944,15.431c0.294,0.7 0.581,-0.044 0,0c-0.753,-3.253 -1.653,-6.384 -2.894,-9.156c-0.022,-2.069 -0.647,-3.534 -0.962,-5.316c-0.494,-1.428 -0.004,-3.856 -1.45,-4.34c-1.616,2.562 -3.732,4.625 -5.785,6.756c0.991,2.569 3.5,3.978 5.3,5.787c2.028,2.019 3.81,4.144 5.791,6.269Zm201.122,-16.878c0.722,-0.078 1.778,0.172 1.934,-0.481c-0.987,-0.147 -0.953,-1.306 -1.934,-1.453l0,1.934Zm150.003,0.966c0.075,-0.563 0.759,-0.532 1.444,-0.482c-0.085,-0.718 0.175,-1.781 -0.479,-1.934c0.022,0.891 -2.471,1.634 -0.965,2.416Zm202.569,15.912c-0.704,0.3 0.05,0.578 0,0c3.321,-3.912 7.306,-7.153 10.612,-11.09c-2.262,-2.088 -3.897,-4.785 -6.278,-6.757c-0.709,6.685 -2.941,11.841 -4.334,17.847Zm-356.91,0c-1.444,0.097 0.46,2.006 0,0c2.46,-1.881 4.488,-4.194 6.272,-6.75c1.863,-1.356 4.034,-2.387 4.822,-4.822c-1.534,-2.159 -3.578,-3.822 -7.238,-3.856c-0.628,5.803 -2.678,10.178 -3.856,15.428Zm149.035,-10.609c4.246,3.472 7.787,7.64 11.571,11.572c-1.931,-4.982 -2.975,-10.853 -4.821,-15.913c-2.822,0.869 -6.072,1.325 -6.75,4.341Zm-136.975,-1.928c1.096,0.134 1.815,-0.122 1.934,-0.966c-1.206,0.628 -2.006,-1.416 -2.419,0c0.375,0.106 0.56,0.403 0.485,0.966Zm136.49,-0.482c-0.722,0.085 -1.781,-0.171 -1.928,0.482c0.641,0.622 1.794,0.634 1.928,-0.482Zm-131.665,0.963c-0.991,0.141 -0.957,1.306 -1.935,1.447c1.547,3.925 4.91,6.025 7.235,9.162c1.221,1.513 2.521,2.947 3.862,4.347c1.553,1.331 1.975,3.81 4.331,4.341c4.313,-0.678 8.478,-1.5 12.544,-2.41c-2.378,-5.175 -5.478,-9.637 -8.197,-14.471c-6.084,-0.382 -12.062,-3.338 -17.84,-2.416Zm123.95,0c-5.022,1.569 -11.132,2.056 -16.394,3.381c-2.322,4.425 -5.303,8.203 -7.247,13.019c4.406,1.222 9.637,1.619 13.997,2.894c4.469,-6.153 10.084,-11.138 14.469,-17.366c-1.382,-0.878 -2.144,-2.359 -4.825,-1.928Zm-349.672,3.381c-0.325,-0.325 -0.894,-0.397 -1.447,-0.481c-20.794,24.219 -41.985,48.041 -62.7,72.337c14.312,-7.543 27.556,-16.175 41.959,-23.628c6.631,-4.309 13.663,-8.203 20.741,-12.059c3.181,-2.288 7.084,-3.85 10.128,-6.269c3.803,-1.825 7.609,-3.65 10.612,-6.275c-5.287,-8.781 -12.225,-16.659 -19.293,-23.625Zm202.565,22.663c11.557,-1.466 21.644,-4.394 33.275,-5.788c0.944,-1.544 -1.74,-2.881 -2.406,-4.34c-1.697,-0.885 -2.025,-3.125 -3.859,-3.863c-2.103,-3.203 -4.832,-5.781 -7.238,-8.672c-0.022,-0.3 -0.065,-0.575 -0.481,-0.481c-7.034,7.1 -14.131,14.153 -19.291,23.144Zm44.372,-21.703c2.078,4.193 4.728,7.818 6.756,12.059c5.41,-0.703 10.538,-1.684 15.432,-2.894c2.715,-0.34 5.453,-0.659 7.722,-1.453c1.862,0.256 2.35,-0.853 4.334,-0.481c0.369,-1.244 3.575,0.353 3.381,-1.447c-13.025,-2.081 -25.637,-4.591 -38.1,-7.228c0.072,0.565 -0.087,1.365 0.475,1.444Zm108.038,0.481c-4.625,4.7 -8.982,9.669 -13.022,14.953c5.95,0.481 10.819,2.037 16.4,2.887c5.431,0.532 11.269,3.191 16.4,2.416c-5.422,-8.087 -11.563,-15.447 -18.816,-21.697c-0.675,0.119 -0.547,1.056 -0.962,1.441Zm285.043,69.94c0.304,0.697 0.588,-0.046 0,0c-9.94,-12.409 -20.981,-23.718 -30.868,-36.181c-10.807,-11.378 -20.338,-24.028 -31.35,-35.2c-7.407,7.378 -14.55,15.022 -19.772,24.591c27.709,15.219 54.39,31.465 81.99,46.79Zm-343.887,-64.153c8.937,2.003 18.203,3.669 27.5,5.31c2.731,-3.694 4.731,-8.125 7.231,-12.06c-11.631,2.203 -23.587,4.066 -34.731,6.75Zm-5.784,63.666c4.775,-10.016 10.971,-18.609 15.918,-28.453c3.047,-4.353 5.535,-9.26 8.2,-13.985c2.794,-4.765 5.913,-9.203 8.197,-14.471c-11.422,-1.441 -21.472,-4.241 -32.797,-5.794c0.316,20.747 -0.643,42.769 0.482,62.703Zm-35.21,-56.428c1.916,5.475 5.581,9.203 7.722,14.472c3.291,4.259 5.331,9.778 8.678,13.984c5.128,9.828 10.778,19.122 16.4,28.459l0,-59.325c-0.347,-1.1 0.866,-3.765 -0.965,-3.381c-10.638,1.903 -20.782,4.31 -31.835,5.791Zm38.585,54.015c-0.7,0.3 0.046,0.582 0,0c7.853,-8.387 15.365,-17.115 22.665,-26.043c4.206,-3.841 7.278,-8.807 11.578,-12.538c1.363,-2.662 3.735,-4.297 5.313,-6.756c1.512,-0.409 1.369,-2.491 2.887,-2.894c0.463,-1.147 2.553,-2.131 1.45,-3.375c-4.575,-0.25 -7.968,-1.684 -12.54,-1.928c-3.353,3.722 -5.235,8.913 -8.197,13.019c-2.425,4.656 -5.213,8.94 -7.722,13.506c-5.081,9.072 -10.625,17.672 -15.434,27.009Zm-11.088,-1.921c0.294,0.703 0.578,-0.054 0,0c-4.622,-9.05 -10.031,-17.316 -14.956,-26.05c-2.297,-4.457 -5.228,-8.269 -7.235,-13.025c-1.568,-1.813 -2.69,-4.054 -3.859,-6.269c-1.691,-1.685 -1.847,-4.9 -4.341,-5.788c-4.118,0.703 -8.493,1.153 -12.059,2.41c14.213,16.178 28.094,32.681 42.45,48.722Zm1.925,4.821c-1.697,-0.556 -1.762,-2.74 -3.381,-3.375c-1.616,-2.728 -4.231,-4.45 -5.788,-7.237c-4.287,-4.394 -8.381,-8.984 -12.053,-13.991c-8.572,-8.947 -16.39,-18.659 -24.603,-27.972c-0.481,0.007 -0.572,-0.39 -0.956,-0.481c-0.203,-0.825 -0.625,0.103 -1.45,0c-11.675,2.313 -23.725,4.253 -35.206,6.756c-0.716,1.435 0.971,3.985 1.443,5.782c0.638,2.259 1.391,4.393 2.416,6.268c1.019,4.61 2.716,8.538 4.334,12.55c2.588,8.666 5.588,16.925 8.685,25.072l68.481,0c0.834,-0.69 -1.503,-2.315 -1.922,-3.372Zm54.988,-52.1c-8.729,8.644 -16,18.732 -24.597,27.497c-3.8,4.888 -7.894,9.478 -12.063,13.991c-1.612,2.722 -4.231,4.45 -5.784,7.237c-1.619,0.629 -2.006,2.497 -3.381,3.375c-0.144,0.982 -1.307,0.947 -1.447,1.922c-0.838,-0.14 -1.691,1.875 0,1.447l67.525,0c5.225,-17.115 11.79,-32.897 16.875,-50.159c-12.141,-2.16 -23.769,-4.841 -36.169,-6.75c-0.603,0.203 -0.988,0.625 -0.959,1.44Zm-319.291,6.757c-0.031,-0.294 -0.075,-0.563 -0.491,-0.482c-0.097,0.538 -0.531,0.75 -0.956,0.966c-13.406,7.659 -26.984,15.144 -40.037,23.156c-7.107,3.332 -13.06,7.844 -20.25,11.091c-2.691,2.619 -7.035,3.581 -9.65,6.275c-2.247,0.325 -3.272,1.875 -5.31,2.406c-1.115,1.613 -3.784,1.685 -4.822,3.375c30.978,-5.681 61.478,-11.834 92.607,-17.359c-2.007,-11.513 -5.844,-21.169 -11.091,-29.428Zm176.525,0l-1.447,0c-7.984,1.665 -16.434,2.868 -24.119,4.822c-4.568,0.25 -7.965,1.684 -12.543,1.928c-3.26,1.403 -8.341,0.978 -11.094,2.893c4.687,8.179 9.709,16.022 13.994,24.604c2.765,-0.129 3.334,-2.46 5.787,-2.894c1.263,-1.635 3.491,-2.3 4.825,-3.863c3.394,-2.393 6.594,-4.975 9.166,-8.197c6.153,-5.418 11.337,-11.809 15.431,-19.293c0.7,-0.291 -0.053,-0.578 0,0Zm219.453,34.731c4.513,-8.991 10.238,-16.766 14.466,-26.044c-16.891,-2.722 -32.847,-6.39 -49.682,-9.169c-0.29,0.032 -0.565,0.079 -0.471,0.482c9.203,14.259 20.781,26.162 35.687,34.731Zm140.831,-34.731c-4.434,8.912 -8.934,17.756 -10.615,29.425c15.562,2.606 30.772,5.559 45.822,8.678c7.959,1.209 15.453,2.875 23.15,4.34c3.943,0.563 7.381,1.619 11.581,1.929c1.222,1.025 3.944,0.556 5.3,1.446c2.244,-0.446 4.619,1.472 5.79,0.488c-27.25,-15.194 -53.725,-31.163 -81.028,-46.306Zm-195.337,48.712l28.456,0c0.25,-17.931 -4.975,-34.572 -12.056,-46.784c-0.028,-0.294 -0.072,-0.569 -0.478,-0.481c-4.916,16.143 -11.038,31.087 -15.922,47.265Zm-174.6,-0.481c8.534,1.116 19.128,0.178 28.453,0.481c-0.872,-4.259 -2.334,-7.947 -3.853,-11.572c-1.181,-3.968 -2.475,-7.818 -3.86,-11.578c-2.75,-7.697 -5.268,-15.631 -8.203,-23.144c-0.022,-0.3 -0.065,-0.575 -0.481,-0.487c-6.469,12.975 -11.347,27.55 -12.056,46.3Zm-30.381,-19.294c-1.366,-2.172 -2.657,-4.419 -3.857,-6.744c-1.381,-2.153 -2.743,-4.34 -3.856,-6.756c-1.953,-1.587 -1.616,-5.469 -4.825,-5.794c-31.597,6.025 -63.056,12.182 -95.012,17.847c0.165,1.282 1.265,1.628 2.409,1.935c0.359,1.1 1.45,1.434 2.412,1.928c1.919,1.134 3.372,2.74 5.788,3.375c3.406,2.703 7.909,4.303 12.056,6.275c8.635,3.578 18.481,5.962 29.422,7.228c25.256,1.459 43.438,-4.15 58.847,-12.538c-0.453,-2.928 -2.538,-4.221 -3.384,-6.756Zm275.4,-17.847c-5.16,7.869 -9.663,16.388 -14.463,24.603c11.459,6.219 24.519,10.854 40.509,12.538l18.804,0c5.265,-0.847 10.678,-1.544 15.44,-2.888c5.188,-0.928 9.197,-3.021 13.991,-4.34c3.825,-2.288 8.39,-3.828 12.053,-6.275c2.197,-0.86 3.422,-2.685 5.791,-3.375c0.381,-1.069 1.681,-1.21 2.412,-1.928c0.684,-0.116 0.813,-0.794 1.438,-0.972c0.112,-0.603 0.753,-0.981 -0.472,-0.966c-15.6,-2.978 -31.163,-6.165 -46.788,-9.162c-15.634,-2.991 -32.531,-6.166 -47.747,-8.685c-0.609,0.213 -0.987,0.635 -0.968,1.45Zm-242.604,3.866c-7.584,8.331 -15.706,16.125 -26.04,21.703c1.962,4.309 4.519,8.019 6.756,12.053l14.459,0l0,-8.19c1.363,-9.575 3.144,-18.732 6.272,-26.532c-0.031,-0.293 -0.065,-0.575 -0.481,-0.481c-0.116,0.688 -0.8,0.809 -0.966,1.447Zm203.535,33.756l14.953,0c2.259,-3.844 4.356,-7.862 6.747,-11.572c-10.947,-6.256 -19.966,-14.434 -27.969,-23.634c3.353,10.469 6.538,21.122 6.269,35.206Zm154.344,-34.722c-4.138,4.547 -8.46,8.913 -13.022,13.025c3.387,0.141 5.634,1.428 9.156,1.441c1.078,-5.034 2.691,-9.528 3.866,-14.466c0.693,-0.3 -0.05,-0.581 0,0Zm-513.182,14.466c3.494,-0.2 6.735,-0.659 9.166,-1.922c-2.916,-1.106 -3.913,-4.125 -6.75,-5.303c-1.566,-2.934 -4.359,-4.656 -6.272,-7.238c1.238,4.869 2.775,9.435 3.856,14.463Zm11.091,0l-0.966,0c-3.009,0.853 -6.225,1.497 -9.647,1.928c0.675,5.922 1.829,11.366 1.447,18.328c16.403,-0.325 34.085,0.647 49.682,-0.481c-16.447,-3.65 -29.344,-10.847 -40.516,-19.775Zm446.622,20.256l49.672,0c-0.353,-6.953 0.875,-12.315 1.453,-18.328c-3.425,-0.75 -6.925,-1.428 -10.613,-1.928c-11.093,9.169 -24.762,15.753 -40.512,20.256Zm-460.122,-17.356c-0.022,-0.3 -0.072,-0.575 -0.481,-0.488c-30.122,6.372 -61.628,11.372 -91.641,17.847l93.566,0c0.365,-4.75 -0.269,-12.55 -1.444,-17.359Zm559.962,8.203c-15.221,-2.797 -30.459,-5.553 -45.343,-8.691c-2.216,4.375 -1.65,11.535 -2.407,17.366c29.897,0.806 63.175,0.806 93.085,0c-15.266,-2.737 -30.378,-5.631 -45.335,-8.675Zm-429.74,-1.453l-0.966,0c-7.478,4.744 -16.787,7.647 -26.05,10.609l32.806,0c-1.568,-3.903 -3.928,-7.003 -5.79,-10.609Zm254.181,0c-1.794,3.681 -4.347,6.591 -5.797,10.609c10.616,-0.325 22.51,0.647 32.325,-0.481c-10.297,-1.925 -18.394,-6.047 -26.528,-10.128Zm-479.419,13.025c6.641,4.291 13.716,8.147 20.741,12.053c3.166,2.3 7.156,3.778 10.125,6.269c3.816,1.812 7.475,3.778 10.606,6.275c7.603,3.331 13.663,8.203 21.225,11.578c2.891,2.569 7.013,3.912 10.125,6.269c3.935,1.684 6.613,4.631 11.091,5.787c7.056,-13.219 13.109,-29.981 12.54,-49.194c-32.478,0.313 -66.237,-0.64 -97.912,0.482c0.675,-0.025 1.075,0.225 1.459,0.481Zm99.353,0.481c-0.193,20.863 -5.95,36.163 -13.506,49.675c15.275,7.878 29.022,17.291 44.375,25.078c2.96,2.825 7.51,4.072 10.613,6.75c4.103,1.685 7.447,4.132 11.1,6.275c7.515,4.047 14.581,8.557 22.181,12.538c29.172,17.29 58.703,34.222 88.259,51.122c4.232,-7.991 9.916,-14.525 15.925,-20.735c6.241,-5.981 12.719,-11.712 20.735,-15.918c-5.075,-10.2 -11.416,-19.129 -16.4,-29.419c-1.828,-2.038 -3.06,-4.663 -4.335,-7.231c-1.69,-2.179 -2.872,-4.847 -4.343,-7.238c-2.844,-4.872 -5.616,-9.816 -8.679,-14.472c-3.193,-4.369 -5.737,-9.381 -8.206,-14.465c-2.575,-5.144 -5.84,-9.594 -8.197,-14.954c-3.278,-4.437 -5.697,-9.74 -8.681,-14.471c-1.469,-2.394 -2.653,-5.06 -4.337,-7.232c-1.466,-2.393 -2.079,-5.647 -4.822,-6.75l-41,0c-10.597,1.55 -22.522,1.397 -33.278,0l-56.432,0c-0.612,0.197 -0.99,0.616 -0.972,1.447Zm152.41,28.456c-0.46,2 1.447,0.097 0,0c-2.306,-9.1 -3.885,-18.94 -4.341,-29.9c-4.178,0.313 -9.637,-0.64 -13.022,0.482c5.947,9.64 11.278,19.909 17.363,29.418Zm-0.966,-29.903c-0.556,0.078 -0.519,0.757 -0.481,1.447c0.522,12.181 2.516,22.888 5.791,32.313c1.784,4.65 3.875,8.984 5.79,13.506c2.706,3.716 4.353,8.503 7.716,11.572c2.04,4.231 5.403,7.14 8.197,10.612c3.653,2.778 6.103,6.757 10.128,9.163c6.95,5.909 14.712,11.015 24.112,14.465c-10.665,-31.128 -21.697,-61.89 -32.306,-93.078l-28.947,0Zm30.869,0c10.691,31.757 21.925,62.957 32.803,94.532c10.791,3.834 22.038,7.221 37.134,6.75c0.319,-34.235 -0.831,-67.01 -0.481,-101.282l-69.456,0Zm71.381,1.447l0,99.835c14.9,0.434 25.897,-3.047 36.656,-6.75c10.322,-31.96 21.994,-62.572 32.316,-94.532l-68.491,0c-0.553,0.082 -0.521,0.757 -0.481,1.447Zm39.072,91.631c-0.7,0.3 0.041,0.588 0,0c0.775,0.141 0.825,-0.453 1.444,-0.475c17.85,-7.562 30.909,-19.903 41.962,-34.24c2.269,-4.169 4.872,-7.997 7.235,-12.066c1.634,-4.625 4.097,-8.434 5.303,-13.5c3.694,-9.009 5.119,-20.275 5.787,-32.312c-8.853,-1.116 -19.765,-0.172 -29.418,-0.482c-5.947,14.788 -10.547,30.925 -16.397,45.813c-5.028,15.553 -10.35,30.816 -15.916,45.819l0,1.443Zm59.803,-61.731c-1.44,0.1 0.463,2.003 0,0c0.066,-0.056 0.447,0.066 0.481,0c5.975,-10.315 11.838,-20.894 17.847,-31.347l-13.99,0c0.518,12.41 -2.132,21.663 -4.338,31.347Zm19.775,-29.9c-5.515,9.431 -11.072,18.828 -16.397,28.453c-2.8,4.76 -5.834,9.278 -8.203,14.466c-3.144,4.412 -5.219,9.894 -8.678,13.997c-5.028,10.078 -11.025,19.197 -16.397,28.937c-5.422,9.694 -11.278,18.947 -16.4,28.938c14.878,9.394 27.325,21.228 36.175,36.653c7.791,-3.778 14.65,-8.491 22.181,-12.544c3.697,-2.094 7.11,-4.462 11.097,-6.262c3.103,-2.685 7.647,-3.932 10.613,-6.757c7.815,-3.759 14.74,-8.403 22.184,-12.537c7.531,-4.053 14.397,-8.766 22.188,-12.544c3.068,-2.715 7.465,-4.112 10.612,-6.75c4.025,-1.762 7.472,-4.112 11.097,-6.269c7.509,-4.071 14.522,-8.631 22.188,-12.543c6.878,-4.694 14.793,-8.357 21.7,-13.025c7.656,-3.919 14.568,-8.582 22.196,-12.538c-0.231,-2.35 -1.834,-3.322 -2.415,-5.309c-0.828,-1.903 -1.76,-3.7 -2.41,-5.788c-1.893,-3.412 -3.062,-7.543 -4.346,-11.572c-2.163,-8.606 -4.169,-17.378 -3.86,-28.453l-57.875,0c-9.731,1.5 -23.515,1.369 -33.269,0l-40.518,0c-0.71,0.269 -1.197,0.75 -1.463,1.447Zm136.013,-1.447c-0.719,19.372 5.459,36.016 12.543,49.194c7.554,-3.547 14.235,-7.947 21.219,-12.053c3.647,-1.991 7.297,-3.963 10.613,-6.275c1.975,-0.756 3.625,-1.838 5.303,-2.894c1.669,-1.228 4.012,-1.769 5.303,-3.375c7.45,-3.65 14.203,-7.984 21.222,-12.059c7.162,-4.091 14.484,-8.025 21.225,-12.538l-97.428,0Zm-177.978,69.935c-10.894,11.128 -23.057,20.984 -39.063,27.009c-1.509,3.309 -2.497,7.147 -3.853,10.609c6.181,2.016 11.741,4.65 16.875,7.722c8.737,-15.056 17.612,-29.984 26.041,-45.34c0.703,-0.294 -0.044,-0.585 0,0Zm-154.332,0.965c8.078,14.907 16.866,29.113 25.075,43.891c5.572,-2.313 10.569,-5.188 16.403,-7.238c-0.6,-4.065 -2.525,-6.793 -3.375,-10.609c-15.434,-5.953 -27.646,-15.125 -38.103,-26.044c-0.3,-0.703 -0.59,0.047 0,0Zm43.403,35.694c5.404,-1.184 10.622,-2.562 15.916,-3.862c-7.162,-0.71 -13.006,-2.741 -18.812,-4.829c0.521,3.344 1.856,5.869 2.896,8.691Zm50.644,-3.381c6.053,0.378 10.344,2.522 15.916,3.381c0.415,-2.978 2.85,-6.469 2.409,-8.691c-5.228,2.654 -12.197,3.563 -18.325,5.31Zm-49.678,6.265c5.247,15.179 10.366,30.469 15.916,45.344c5.115,15.297 10.181,30.653 15.915,45.331l0,-95.49c-12.718,-0.5 -22.325,2.106 -31.831,4.815Zm33.763,-4.815c-0.8,30.219 -0.8,63.819 0,94.044c9.978,-30.054 20.44,-59.619 30.868,-89.229c-9.337,-2.562 -18.525,-5.259 -30.868,-4.815Zm-51.132,12.537c1.16,3.991 3.775,6.525 5.313,10.125c2.103,3.203 3.906,6.707 5.79,10.125c4.11,6.341 7.61,13.288 11.572,19.775c3.9,6.557 7.503,13.403 11.575,19.788c1.841,3.297 3.372,6.909 5.788,9.637c0.222,2.35 2.115,3.035 2.415,5.303c1.61,1.122 1.679,3.785 3.372,4.822c-9.884,-28.856 -20.2,-57.287 -29.903,-86.328l-0.956,0c-5.241,2 -10.209,4.263 -14.966,6.753Zm83.447,-6.75c-0.022,0.61 -0.619,0.666 -0.481,1.447c-5,14.447 -10.231,28.675 -14.947,43.41c-2.869,6.781 -4.822,14.471 -7.719,21.221c-0.843,3.985 -2.706,6.935 -3.381,11.085c-0.825,1.587 -1.612,3.215 -1.922,5.315c-0.647,1.3 -2.219,4.188 -1.45,5.304c15.275,-27.01 31.035,-53.535 46.3,-80.547c-4.994,-2.894 -10.147,-5.613 -16.4,-7.235Zm-36.659,92.603c0.297,0.694 0.584,-0.05 0,0c0.022,-0.831 -0.353,-1.25 -0.966,-1.446c-3.34,-7.594 -8.187,-13.679 -11.575,-21.222c-4.403,-6.372 -7.925,-13.622 -12.056,-20.263c-7.772,-13.922 -16.128,-27.278 -23.628,-41.472c-2.535,0.519 -4.131,1.985 -5.797,3.382c-2.034,1.012 -3.947,2.15 -5.3,3.85c-3.906,2.043 -6.334,5.559 -9.647,8.203c-5.741,6.153 -11.484,12.306 -15.431,20.25c20.825,12.384 41.865,24.243 63.178,36.656c3.022,1.759 5.922,3.431 9.162,5.303c3.329,1.925 7.769,4.841 12.06,6.759Zm6.272,0c-0.7,0.291 0.053,0.579 0,0c28.322,-15.734 55.584,-32.525 83.925,-48.231c-0.4,-2.662 -2.178,-3.937 -3.375,-5.794c-1.063,-1.996 -2.266,-3.843 -3.857,-5.303c-2.134,-3.815 -5.54,-6.365 -8.206,-9.643c-6.09,-5.804 -12.487,-11.304 -20.253,-15.435c-15.525,28.45 -32.509,55.513 -48.234,83.922c-0.063,0.125 0.053,0.356 0,0.484Zm-92.607,-45.343c-7.443,12.812 -12.012,28.49 -12.537,48.237c0.919,33.01 13.284,54.566 29.906,71.863c17.316,16.765 39.194,28.972 72.35,29.9c32.588,-1.172 54.166,-13.353 71.378,-29.9c16.603,-17.316 28.857,-38.991 29.903,-71.863c-0.534,-20.369 -5.653,-36.137 -13.018,-49.681c-7.947,3.631 -14.75,8.403 -22.191,12.544c-7.466,4.272 -14.975,8.503 -22.181,13.025c-3.903,1.887 -7.435,4.137 -11.1,6.268c-3.672,2.279 -7.803,4.091 -11.091,6.75c-4.156,1.635 -7.569,4.01 -11.1,6.275c-3.809,1.607 -7.978,5.041 -11.09,5.794c-29.744,-16.565 -58.516,-34.094 -88.26,-50.653c-0.603,0.197 -0.984,0.622 -0.969,1.441Zm92.607,40.997c-0.135,-0.135 -0.728,0.231 -0.482,0.487c0.135,0.128 0.732,-0.237 0.482,-0.487Z" style="stroke:#000;stroke-width:3.13px;"/>
</svg>