<svg xmlns="http://www.w3.org/2000/svg" viewBox="0 0 64 64">
  <rect width="64" height="64" rx="14" fill="#14110d"/>
  <rect x="0.5" y="0.5" width="63" height="63" rx="13.5" fill="none" stroke="#2a261f" stroke-width="1"/>
  <g transform="translate(6.239,49.000) scale(0.024286,-0.024286)" fill="#f5f1ea">
    <path d="M1364.749411329627 913.8650870099664Q1364.749411329627 817.6114570274949 1321.112950976938 739.0382327102125Q1277.476490624249 660.46500839293 1197.3903644010425 607.7873852476478Q1117.304238177836 555.1097621023655 1005.9832037016749 535.0505363196135Q968.720957711339 528.4825612232089 936.1278291009367 521.2418082468212Q903.5347004905343 514.0010552704334 870.3823641650379 508.89390102401376Q837.2300278395414 503.7867467775941 797.0605516731739 503.7867467775941Q729.2696464881301 503.7867467775941 673.2521004900336 512.8659830577672Q617.2345544919372 521.9452193379402 572.3579802252352 539.1480751000345Q527.4814059585333 556.3509308621287 491.88539765775204 579.92301338166L498.14303106069565 655.8100714683533Q527.675056450069 634.0787626802921 563.3971525430679 619.668355062604Q599.1192486360669 605.2579474449158 640.988452102989 598.3283711746335Q682.857655569911 591.3987949043512 730.4254226610065 591.3987949043512Q864.3698734417558 591.3987949043512 941.0481320358813 669.0954646319151Q1017.7263906300068 746.792134359479 1017.7263906300068 905.0197673738003Q1017.7263906300068 1025.9227150380611 970.5553574748337 1119.738360747695Q923.3843243196607 1213.5540064573288 839.7980366721749 1267.2910565584898Q756.2117490246892 1321.0281066596508 647.5663560554385 1321.0281066596508H571.7014015614986V149.66932360827923Q571.7014015614986 127.29808610677719 581.9849692881107 114.43933752179146Q592.2685370147228 101.58058893680573 614.272540435195 94.52378688752651L677.3965827301145 81.80860944837332Q698.1835375130177 73.99829265475273 705.5890478640795 64.30802297964692Q712.9945582151413 54.61775330454111 712.9945582151413 38.901926159858704Q712.9945582151413 0 662.3151915296912 0H141.34387850761414Q115.40580829977989 0 103.03516006097198 10.718275777995586Q90.66451182216406 21.436551555991173 90.66451182216406 38.901926159858704Q90.66451182216406 70.48632976412773 126.2624873071909 81.80860944837332L184.81113554537296 94.52378688752651Q208.78631591796875 101.2989799529314 220.54826635867357 114.2985330298543Q232.3102167993784 127.29808610677719 232.3102167993784 149.66932360827923V1254.8894717097282Q232.3102167993784 1274.7740935832262 220.4446573741734 1286.8855670690536Q208.5790979489684 1298.997040554881 184.81113554537296 1305.4762131124735L126.2624873071909 1318.1913905516267Q90.66451182216406 1329.5136702358723 90.66451182216406 1361.0980738401413Q90.66451182216406 1379.3562304750085 103.03516006097198 1389.6781152375042Q115.40580829977989 1400 141.34387850761414 1400H656.5150106400251Q882.5753382742405 1400 1040.7641147896647 1338.5812018550932Q1198.952891305089 1277.1624037101865 1281.851151317358 1167.7035054676235Q1364.749411329627 1058.2446072250605 1364.749411329627 913.8650870099664ZM764.1341974511743 541.008971773088 1090.891987875104 578.2221029251814 1351.3214938491583 150.29631207883358Q1369.8286273404956 120.22996404021978 1388.8461010679603 105.39005022123456Q1407.863574795425 90.55013640224934 1437.41601844877 81.66776198893785Q1460.737024411559 73.86546570062637 1469.5856626443565 64.24160950258374Q1478.4343008771539 54.61775330454111 1478.4343008771539 38.901926159858704Q1478.4343008771539 21.436551555991173 1465.746874757111 10.718275777995586Q1453.0594486370683 0 1426.9101931750774 0H970.4163011536002Q921.074555657804 0 921.074555657804 38.901926159858704Q921.074555657804 49.689810924232006 926.9292759224772 56.99248406663537Q932.7839961871505 64.29515720903873 945.7606341764331 70.7559509575367L974.4787629842758 79.06320554763079Q996.2996143549681 89.05288337916136 1000.3577344752848 102.93407302722335Q1004.4158545956016 116.81526267528534 988.9429827183485 144.0058577954769Z"/>
    <path transform="translate(1583,0)" d="M264.2223004379854 -22.283274605870247Q213.43346445262432 -22.283274605870247 171.95092262170817 3.537529862437891Q130.46838079079203 29.35833433074603 106.25773189805057 72.32739761028766Q82.0470830053091 115.2964608898293 82.0470830053091 165.5979329124093Q82.0470830053091 217.02914044210178 106.27642621845007 259.2935404365205Q130.50576943159103 301.5579404309392 172.08347513124954 326.7613041512668Q213.66118083090805 351.96466787159443 264.24353775720704 351.96466787159443Q316.39576403054696 351.96466787159443 357.9184110686337 326.71690288186073Q399.44105810672045 301.46913789212704 423.6240164078772 259.2703306820582Q447.80697470903397 217.07152347198942 447.80697470903397 165.62923216789227Q447.80697470903397 115.30410373128444 423.61843750015146 72.31465954119575Q399.42990029126895 29.32521535110707 357.9900461752677 3.520970372618411Q316.5501920592664 -22.283274605870247 264.2223004379854 -22.283274605870247Z"/>
  </g>
</svg>
